<svg id="visual" viewBox="0 0 1916 378" width="1916" height="378" xmlns="http://www.w3.org/2000/svg" xmlns:xlink="http://www.w3.org/1999/xlink" version="1.1"><g stroke-width="1" stroke-linejoin="bevel"><path d="M986 163L931 0L671.7 207Z" fill="#46a3cc" stroke="#46a3cc"></path><path d="M931 0L662.7 0L671.7 207Z" fill="#46a3cc" stroke="#46a3cc"></path><path d="M671.7 207L990 378L986 163Z" fill="#4aadd7" stroke="#4aadd7"></path><path d="M304.3 158L616.7 378L671.7 207Z" fill="#5dbce4" stroke="#5dbce4"></path><path d="M671.7 207L616.7 378L990 378Z" fill="#6ac0e6" stroke="#6ac0e6"></path><path d="M990 378L1256.3 171L986 163Z" fill="#6ac0e6" stroke="#6ac0e6"></path><path d="M986 163L1293.3 0L931 0Z" fill="#4aadd7" stroke="#4aadd7"></path><path d="M1256.3 171L1293.3 0L986 163Z" fill="#4fb7e3" stroke="#4fb7e3"></path><path d="M662.7 0L304.3 158L671.7 207Z" fill="#419ac0" stroke="#419ac0"></path><path d="M662.7 0L297.3 0L304.3 158Z" fill="#5dbce4" stroke="#5dbce4"></path><path d="M990 378L1300.3 378L1256.3 171Z" fill="#4fb7e3" stroke="#4fb7e3"></path><path d="M1256.3 171L1560.7 218L1293.3 0Z" fill="#3d90b5" stroke="#3d90b5"></path><path d="M304.3 158L325.3 378L616.7 378Z" fill="#419ac0" stroke="#419ac0"></path><path d="M1300.3 378L1560.7 218L1256.3 171Z" fill="#5dbce4" stroke="#5dbce4"></path><path d="M1560.7 218L1608.7 0L1293.3 0Z" fill="#6ac0e6" stroke="#6ac0e6"></path><path d="M0 0L0 175L304.3 158Z" fill="#3887aa" stroke="#3887aa"></path><path d="M304.3 158L0 378L325.3 378Z" fill="#3d90b5" stroke="#3d90b5"></path><path d="M297.3 0L0 0L304.3 158Z" fill="#46a3cc" stroke="#46a3cc"></path><path d="M1300.3 378L1627.7 378L1560.7 218Z" fill="#3d90b5" stroke="#3d90b5"></path><path d="M1560.7 218L1916 168L1608.7 0Z" fill="#419ac0" stroke="#419ac0"></path><path d="M0 175L0 378L304.3 158Z" fill="#3887aa" stroke="#3887aa"></path><path d="M1627.7 378L1916 168L1560.7 218Z" fill="#5dbce4" stroke="#5dbce4"></path><path d="M1916 168L1916 0L1608.7 0Z" fill="#4fb7e3" stroke="#4fb7e3"></path><path d="M1627.7 378L1916 378L1916 168Z" fill="#8dceea" stroke="#8dceea"></path></g></svg>