<svg id="SvgjsSvg1237" width="360" height="360" xmlns="http://www.w3.org/2000/svg" version="1.1" xmlns:xlink="http://www.w3.org/1999/xlink" xmlns:svgjs="http://svgjs.com/svgjs"><defs id="SvgjsDefs1238"></defs><g id="SvgjsG1239"><svg xmlns="http://www.w3.org/2000/svg" width="360" height="360" enable-background="new 0 0 3000 2000" viewBox="0 0 3000 2000"><path fill="#a9e3f7" d="M444.265 1411.216c-9.038-3.131-18.347-5.308-27.79-6.525.309 8.334-6.693 17.97-19.922 18.663-5.958.307-17.079-1.261-22.855-2.552-16.578-3.693-35.047 1.708-48.297 14.127 7.674-9.813 15.417-19.7 24.631-27.809 9.21-8.107 21.026-19.681 32.589-21.144 11.173-1.411 28.145.23 32.979 14.256 7.037.821 14 2.157 20.849 4.025-12.551-11.424-24.605-23.47-36.105-36.122-.235.017-.484 0-.753-.102-9.924-3.674-20.192-6.176-30.624-7.506.332 8.345-6.67 18.011-19.922 18.704-5.959.309-17.078-1.261-22.852-2.548-16.582-3.697-35.054 1.706-48.303 14.123 7.679-9.816 15.422-19.7 24.632-27.808 9.214-8.108 21.03-19.682 32.593-21.142 11.171-1.413 28.145.23 32.979 14.258 9.044 1.056 17.972 2.976 26.682 5.762-10.789-12.239-21.082-24.995-30.823-38.263-9.911-3.67-20.169-6.172-30.59-7.502.334 8.351-6.675 18.014-19.918 18.707-5.963.311-17.082-1.26-22.86-2.546-16.578-3.698-35.05 1.706-48.299 14.123 7.681-9.816 15.424-19.7 24.634-27.811 9.214-8.106 21.028-19.679 32.593-21.14 11.173-1.413 28.146.23 32.977 14.262 9.208 1.075 18.297 3.046 27.156 5.914-4.577-6.407-9.056-12.906-13.376-19.538-3.61-5.551-7.025-11.25-10.453-16.937-7.878-5.658-16.254-10.449-24.991-14.341-1.716 8.239-10.712 15.667-23.476 12.59-5.754-1.39-15.97-6.083-21.159-8.986-14.899-8.322-33.802-8.291-49.417.094 9.681-7.42 19.443-14.885 30.172-20.196 10.733-5.313 24.777-13.272 36.147-11.418 10.981 1.795 26.754 8.221 27.978 23.306 6.72 2.893 13.243 6.301 19.503 10.229-10.22-17.665-19.478-35.989-27.878-54.808-7.316-7.23-15.297-13.569-23.802-18.974-2.714 7.974-12.509 14.061-24.692 9.096-5.487-2.239-14.946-8.432-19.696-12.094-13.617-10.509-32.217-13.274-48.639-7.229 10.459-5.965 20.893-15.59 32.117-19.295 11.231-3.708 26.169-5.938 37.124-2.403 10.579 3.413 25.281 12.154 24.598 27.36 6.569 4.085 12.853 8.704 18.774 13.845-7.17-16.848-13.587-34.085-19.252-51.658-.153-.095-.311-.172-.452-.33-7.216-8.048-15.204-15.169-23.797-21.298-3.063 7.847-13.103 13.432-25.03 7.803-5.363-2.536-14.511-9.245-19.065-13.165-13.094-11.253-31.503-15.017-48.139-9.851 10.696-5.405 21.783-14.374 33.145-17.486 11.357-3.105 26.078-4.647 36.836-.519 10.382 3.986 24.632 13.524 23.258 28.713 7.191 5.023 13.967 10.716 20.256 17.034-5.629-18.456-10.447-37.242-14.355-56.299-.116-.552-2.05-8.458-6.515-20.248-6.55 3.645-16.364 1.774-22.632-9.271-3.054-5.386-7.048-16.629-8.751-22.733-4.884-17.513-17.868-31.75-33.949-37.229 11.393 1.724 22.87 3.469 33.634 7.573 10.766 4.102 25.499 8.71 32.109 18.689 6.378 9.633 13.067 26.356 4.268 38.626 2.803 7.368 5.116 14.982 6.9 22.783.021.079.068.127.085.216.083.386.172.764.253 1.15.042.189.085.377.125.562 2.369 11.368 5.069 22.632 8.054 33.792 1.567-8.382 3.709-16.64 6.382-24.706-.067-.063-.145-.114-.214-.179-11.123-10.822-4.795-29.003 1.533-39.664 6.322-10.658 18.997-19.629 29.854-25.053 10.858-5.421 24.773-6.077 36.384-9.243-16.248 7.461-28.914 23.125-33.132 40.965-1.467 6.216-5.057 17.779-7.945 23.464-6.007 11.824-16.169 14.841-23.061 11.901-3.359 10.295-5.822 20.899-7.303 31.682 5.172 18.213 11.196 36.091 17.988 53.594 1.583-10.401 4.03-20.634 7.287-30.578-9.237-10.986-3.098-28.659 2.959-39.195 6.264-10.898 18.677-20.157 29.283-25.785 10.608-5.633 24.129-6.457 35.441-9.806-15.862 7.76-28.35 23.823-32.648 41.994-1.498 6.328-5.117 18.117-7.988 23.928-6.386 12.92-17.281 15.663-23.883 11.652-3.481 10.87-5.967 22.084-7.344 33.481-.052.465-.234.821-.462 1.133 1.948 4.838 3.958 9.646 6.025 14.42 5.548 12.795 11.66 25.252 18.051 37.526 1.589-9.66 3.911-19.171 6.944-28.431-9.21-10.988-3.077-28.645 2.973-39.172 6.266-10.901 18.685-20.158 29.285-25.785 10.604-5.631 24.132-6.459 35.448-9.806-15.868 7.762-28.354 23.82-32.653 41.991-1.498 6.33-5.116 18.119-7.988 23.933-6.378 12.901-17.256 15.652-23.858 11.667-3.272 10.241-5.658 20.789-7.075 31.506 8.598 16.071 17.916 31.638 27.904 46.676 1.579-10.662 4.069-21.152 7.401-31.341-9.239-10.986-3.102-28.661 2.957-39.194 6.266-10.899 18.681-20.155 29.285-25.788 10.604-5.629 24.132-6.455 35.444-9.804-15.864 7.764-28.35 23.823-32.649 41.992-1.498 6.332-5.116 18.119-7.992 23.931-6.382 12.921-17.283 15.662-23.883 11.649-3.478 10.875-5.963 22.086-7.341 33.483 0 .006-.004.006-.004.012 9.214 13.557 19.04 26.592 29.341 39.186 1.548-10.822 4.048-21.467 7.434-31.804-9.086-10.836-3.033-28.256 2.936-38.641 6.181-10.751 18.428-19.884 28.891-25.439 10.461-5.554 23.802-6.37 34.964-9.67-15.652 7.658-27.968 23.5-32.213 41.423-1.475 6.247-5.044 17.874-7.88 23.608-6.287 12.731-17.021 15.445-23.532 11.511-3.436 10.718-5.886 21.777-7.241 33.014-.01.052-.035.081-.044.133 10.241 12.276 21.047 23.99 32.282 35.231 1.577-10.463 4.037-20.758 7.309-30.763-9.234-10.984-3.097-28.659 2.961-39.192 6.262-10.901 18.677-20.157 29.281-25.788 10.604-5.631 24.136-6.455 35.444-9.804-15.864 7.76-28.35 23.823-32.648 41.994-1.498 6.328-5.117 18.117-7.988 23.926-6.378 12.906-17.256 15.657-23.858 11.671-3.264 10.22-5.646 20.746-7.062 31.439 1.297 1.274 2.521 2.623 3.824 3.88 55.917 53.772 122.719 94.191 194.942 117.939 3.214 1.058 1.676 6.631-1.54 5.575-40.794-13.414-79.902-32.035-116.314-55.409C484.468 1443.927 463.802 1428.306 444.265 1411.216zM332.306 1800.864c5.544 15.789 36.993 17.096 50.26 17.617 15.054.564 38.224-.89 73.999-15.955 18.424-7.772 43.002-18.119 68.026-38.674 1.068-.915 2.168-1.795 3.247-2.77 3.581-3.036 7.123-6.255 10.664-9.751 10.015-9.887 74.084-73.005 59.762-141.964-.672-3.291-9.471-43.81-30.876-47.592-26.622-4.689-54.065 50.774-65.177 45.031-5.515-2.853-.257-17.239-.031-36.122.523-42.253-24.217-95.969-60.922-103.075-17.354-3.365-37.884 3.627-50.239 18.565-19.895 24.099.301 66.75-3.438 67.887-5.305 1.568-19.547-88.502-68.835-103.947-17.372-5.434-40.562-2.099-49.342 10.623-12.953 18.698 10.481 49.84 1.807 56.411-9.172 6.914-33.775-28.758-80.252-36.939-11.911-2.102-39.545-6.965-57.256 9.751-15.405 14.484-19.16 40.021-10.544 59.086 7.982 17.667 24.593 25.293 29.115 27.248 29.576 13.087 48.023-5.851 100.448-.963 18.325 1.716 38.392 6.079 38.834 12.291.33 4.709-10.776 6.066-22.036 17.665-.243.247-.581.573-1.036 1.1-3.4 3.604-15.48 16.569-14.77 33.28.004.757 1.004 18.988 13.21 25.553 6.31 3.368 12.897 2.241 15.895 1.751 29.07-4.602 66.771-1.359 67.851 3.463 1.245 5.508-45.631 12.521-47.535 30.885-1.587 15.274 28.765 29.877 32.632 31.697 32.75 15.415 66.781 8.751 66.978 11.382.189 2.419-28.037.768-50.185 18.578C342.209 1771.269 327.818 1788.112 332.306 1800.864z" class="colorFEB7A3 svgShape"></path><path fill="#ffffff" d="M344.103,1651.195c1.015,0.72,2.183,0.33,2.969-0.462c6.181-6.544,14.7-10.583,23.576-11.52
			c0.178,0.021,0.312-0.087,0.436-0.128c0.643-0.027,1.28-0.044,1.925-0.066c13.096-0.714,26.916-1.892,38.937,4.44
			c0.052,0.066,0.145,0.046,0.205,0.052c0.042,0.127,0.094,0.253,0.146,0.32c1.338,1.666,3.195,2.963,5.177,3.727
			c8.135,8.786,16.042,17.764,23.908,26.824c-7.461,0.179-14.997-1.591-21.482-5.312c-1-0.564-2.216-0.514-2.961,0.463
			c-0.616,0.873-0.508,2.372,0.492,2.938c8.021,4.619,17.167,6.748,26.375,6.09c0.367-0.017,0.654-0.139,0.919-0.353
			c9.017,10.434,17.969,20.922,27.061,31.24c9.167,10.475,18.561,20.828,28.263,30.82c-9.916,3.247-19.972,6.938-30.248,8.718
			c-10.027,1.751-21.611,0.595-28.491-7.778c-1.741-2.106-5.035,0.538-3.333,2.67c5.305,6.409,13.061,9.326,21.069,9.905
			c-5.446,5.351-9.926,11.563-13.087,18.532c-1.125,2.486,2.867,3.988,3.958,1.527c3.448-7.575,8.494-14.301,14.851-19.673
			c0.133-0.106,0.18-0.253,0.286-0.391c0.946-0.049,1.832-0.103,2.76-0.242c5.913-0.747,11.654-2.455,17.339-4.225
			c6.063-1.851,12.167-3.791,18.231-5.704c6.855,6.976,13.909,13.735,21.206,20.244c1.068-0.915,2.168-1.795,3.247-2.77
			c-2.961-2.602-5.882-5.291-8.77-8.005c3.363-4.063,3.26-9.78,2.276-14.623c-0.996-4.997-3.042-10.412-0.919-15.339
			c1.035-2.527-2.897-4.021-3.957-1.529c-2.135,5.048-0.909,10.403,0.294,15.511c0.954,4.266,1.83,9.249-0.797,12.996
			c-3.485-3.33-6.934-6.743-10.351-10.185l-0.027-0.035c-12.011-12.188-23.445-24.949-34.68-37.871
			c0.073-0.114,0.146-0.227,0.193-0.374c3.602-15.082-0.56-30.503-6.143-44.563c-0.706-1.839-1.51-3.656-2.249-5.474
			c0.205-0.218,0.415-0.438,0.5-0.67c13.629-7.481,25.474-17.743,34.736-30.201c1.639-2.187-1.764-4.653-3.397-2.467
			c-8.971,12.003-20.418,21.943-33.591,29.113c0,0,0,0-0.033,0.025c-2.098-4.934-4.197-9.87-6.003-14.926
			c-2.614-7.146-4.614-14.621-2.896-22.231c0.625-2.633-3.61-3.071-4.199-0.463c-1.643,7.224-0.112,14.527,2.168,21.393
			c2.712,8.158,6.285,15.957,9.573,23.878c5.608,13.546,10.31,28.209,7.868,42.96c-2.187-2.513-4.338-4.999-6.494-7.479
			c-24.596-28.568-49.091-57.488-77.453-82.433c-0.664-0.62-1.39-1.187-2.083-1.78c-0.946-4.38-1.859-8.791-2.774-13.141
			c-0.577-2.766-1.633-6.399,0.164-8.937c1.527-2.261-1.909-4.701-3.456-2.475c-2.247,3.274-1.862,7.232-1.121,10.955
			c0.637,3.045,1.303,6.123,1.938,9.168c-12.266-10.183-25.223-19.592-38.929-27.688c0.04-0.087,0.073-0.112,0.11-0.201
			c1.716-6.185,0.338-12.405-2.116-18.26c-2.666-6.395-6.623-12.355-7.988-19.244c-0.521-2.699-4.718-2.069-4.195,0.63
			c1.278,6.576,4.654,12.289,7.457,18.302c2.322,5.083,4.315,10.917,3.002,16.571c-12.175-6.926-24.881-12.816-38.163-17.314
			c-2.604-0.865-4.131,3.096-1.527,3.961c4.125,1.394,8.214,2.878,12.219,4.529c32.935,13.461,61.797,35.275,87.396,59.702
			c4.803,4.628,9.557,9.403,14.19,14.22c-9.86-3.361-20.632-3.091-30.989-2.498c-12.789,0.685-26.719,1.73-38.273-4.974
			c-2.34-1.355-4.838,2.077-2.473,3.459c6.393,3.679,13.351,5.266,20.474,5.898c-4.743,2.271-9.065,5.405-12.704,9.254
			C342.85,1649.085,343.294,1650.588,344.103,1651.195z" class="colorFFF svgShape"></path><path fill="#a9e3f7" d="M2515.23 1358.247c9.042-3.129 18.349-5.307 27.789-6.527-.307 8.341 6.695 17.974 19.922 18.665 5.958.312 17.084-1.257 22.856-2.547 16.577-3.698 35.05 1.705 48.299 14.125-7.679-9.816-15.422-19.698-24.633-27.809-9.214-8.108-21.025-19.681-32.592-21.144-11.17-1.414-28.144.232-32.975 14.254-7.035.821-14.007 2.159-20.854 4.026 12.555-11.424 24.608-23.472 36.106-36.124.234.018.485.004.755-.098 9.921-3.676 20.191-6.178 30.626-7.508-.334 8.345 6.67 18.009 19.918 18.703 5.958.311 17.082-1.258 22.858-2.546 16.576-3.695 35.048 1.705 48.297 14.127-7.676-9.818-15.424-19.702-24.631-27.811-9.212-8.108-21.026-19.684-32.591-21.144-11.173-1.409-28.147.228-32.977 14.255-9.044 1.058-17.972 2.978-26.682 5.766 10.788-12.241 21.081-24.997 30.819-38.267 9.911-3.67 20.168-6.166 30.594-7.496-.334 8.343 6.669 18.009 19.918 18.702 5.963.311 17.079-1.259 22.856-2.55 16.578-3.695 35.052 1.709 48.301 14.127-7.678-9.817-15.42-19.7-24.635-27.811-9.21-8.108-21.026-19.679-32.594-21.142-11.168-1.411-28.149.23-32.975 14.262-9.203 1.079-18.294 3.046-27.158 5.917 4.577-6.411 9.061-12.907 13.38-19.54 3.612-5.548 7.023-11.25 10.447-16.935 7.884-5.66 16.255-10.455 24.992-14.343 1.718 8.241 10.715 15.671 23.481 12.588 5.753-1.388 15.965-6.083 21.157-8.981 14.901-8.324 33.799-8.291 49.415.089-9.68-7.419-19.438-14.884-30.171-20.196-10.733-5.312-24.775-13.268-36.145-11.412-10.984 1.793-26.757 8.217-27.977 23.3-6.72 2.892-13.245 6.303-19.502 10.232 10.216-17.663 19.474-35.991 27.874-54.809 7.32-7.23 15.302-13.569 23.802-18.974 2.716 7.971 12.509 14.061 24.696 9.093 5.49-2.236 14.947-8.432 19.69-12.094 13.623-10.507 32.221-13.27 48.646-7.229-10.466-5.961-20.893-15.585-32.122-19.293-11.231-3.708-26.165-5.94-37.12-2.402-10.579 3.413-25.281 12.152-24.596 27.364-6.577 4.083-12.855 8.702-18.777 13.841 7.171-16.849 13.586-34.084 19.25-51.658.154-.095.312-.172.455-.33 7.216-8.05 15.202-15.168 23.796-21.299 3.061 7.847 13.105 13.436 25.026 7.803 5.369-2.533 14.515-9.243 19.075-13.165 13.087-11.249 31.5-15.017 48.135-9.847-10.694-5.407-21.788-14.378-33.145-17.486-11.364-3.11-26.078-4.647-36.834-.523-10.39 3.988-24.64 13.526-23.266 28.72-7.187 5.017-13.967 10.709-20.254 17.031 5.633-18.455 10.445-37.24 14.359-56.301.114-.552 2.044-8.459 6.51-20.246 6.555 3.644 16.368 1.772 22.634-9.274 3.051-5.384 7.051-16.63 8.752-22.731 4.889-17.513 17.87-31.752 33.952-37.228-11.399 1.722-22.875 3.469-33.639 7.569-10.762 4.102-25.501 8.714-32.106 18.691-6.377 9.631-13.069 26.354-4.271 38.626-2.803 7.372-5.113 14.982-6.897 22.785-.025.081-.07.128-.091.213-.074.384-.17.766-.251 1.151-.04.185-.081.376-.12.561-2.37 11.368-5.068 22.632-8.057 33.79-1.569-8.384-3.712-16.636-6.382-24.704.066-.064.145-.114.216-.18 11.116-10.82 4.788-29.001-1.531-39.664-6.324-10.656-19.005-19.631-29.856-25.051-10.857-5.421-24.777-6.079-36.383-9.245 16.241 7.461 28.914 23.127 33.126 40.966 1.472 6.216 5.058 17.781 7.95 23.468 6.001 11.82 16.167 14.835 23.062 11.899 3.354 10.291 5.822 20.899 7.301 31.682-5.17 18.21-11.195 36.086-17.992 53.589-1.577-10.399-4.029-20.632-7.284-30.578 9.234-10.986 3.101-28.659-2.957-39.193-6.266-10.901-18.681-20.158-29.286-25.789-10.604-5.629-24.132-6.454-35.441-9.803 15.861 7.763 28.347 23.822 32.646 41.993 1.503 6.33 5.121 18.117 7.992 23.928 6.386 12.922 17.283 15.663 23.881 11.654 3.486 10.87 5.971 22.083 7.349 33.479.053.464.234.821.46 1.135-1.946 4.838-3.952 9.646-6.023 14.419-5.548 12.795-11.667 25.25-18.057 37.529-1.582-9.663-3.905-19.173-6.942-28.433 9.209-10.984 3.079-28.644-2.973-39.174-6.268-10.896-18.681-20.156-29.286-25.785-10.606-5.631-24.132-6.457-35.441-9.803 15.86 7.762 28.347 23.82 32.647 41.991 1.502 6.333 5.116 18.119 7.986 23.931 6.384 12.905 17.262 15.654 23.86 11.669 3.272 10.243 5.66 20.787 7.075 31.503-8.594 16.071-17.912 31.639-27.902 46.678-1.577-10.66-4.066-21.152-7.403-31.339 9.239-10.984 3.099-28.659-2.958-39.199-6.266-10.896-18.676-20.154-29.279-25.785-10.606-5.631-24.135-6.457-35.444-9.803 15.861 7.762 28.35 23.823 32.653 41.994 1.492 6.328 5.112 18.115 7.986 23.928 6.384 12.921 17.279 15.661 23.88 11.652 3.481 10.87 5.967 22.085 7.345 33.482 0 .004.005.006.005.008-9.214 13.561-19.047 26.594-29.342 39.188-1.548-10.824-4.05-21.47-7.436-31.804 9.083-10.839 3.033-28.256-2.938-38.641-6.183-10.751-18.424-19.885-28.889-25.439-10.463-5.556-23.806-6.37-34.962-9.67 15.648 7.658 27.97 23.5 32.207 41.427 1.482 6.243 5.05 17.872 7.88 23.603 6.295 12.732 17.026 15.445 23.537 11.513 3.435 10.719 5.888 21.777 7.245 33.016.004.048.029.079.042.128-10.245 12.281-21.047 23.993-32.28 35.234-1.584-10.465-4.039-20.756-7.315-30.763 9.239-10.986 3.1-28.659-2.957-39.195-6.268-10.898-18.681-20.156-29.281-25.785-10.61-5.631-24.136-6.457-35.446-9.805 15.859 7.764 28.348 23.822 32.65 41.993 1.498 6.329 5.113 18.118 7.986 23.931 6.376 12.903 17.254 15.654 23.86 11.669 3.258 10.218 5.646 20.743 7.063 31.438-1.296 1.272-2.52 2.623-3.829 3.882-55.916 53.768-122.715 94.19-194.942 117.937-3.212 1.056-1.673 6.629 1.546 5.573 40.788-13.414 79.902-32.034 116.313-55.407C2475.03 1390.958 2495.694 1375.339 2515.23 1358.247zM2667.697 1745.787c-5.548 15.789-36.998 17.094-50.268 17.617-15.05.563-38.218-.892-73.995-15.955-18.424-7.772-43-18.119-68.026-38.674-1.068-.915-2.167-1.796-3.251-2.77-3.577-3.038-7.118-6.258-10.66-9.753-10.013-9.886-74.085-73.003-59.762-141.963.668-3.291 9.471-43.809 30.877-47.593 26.624-4.691 54.064 50.776 65.177 45.031 5.515-2.851.258-17.237.031-36.12-.521-42.255 24.217-95.971 60.917-103.075 17.357-3.369 37.884 3.627 50.243 18.563 19.897 24.101-.299 66.75 3.44 67.885 5.299 1.572 19.545-88.502 68.833-103.945 17.374-5.434 40.563-2.097 49.342 10.625 12.953 18.696-10.478 49.838-1.801 56.411 9.162 6.911 33.774-28.761 80.249-36.941 11.909-2.102 39.543-6.963 57.257 9.753 15.401 14.48 19.157 40.02 10.542 59.085-7.984 17.667-24.594 25.292-29.115 27.246-29.579 13.089-48.025-5.849-100.448-.961-18.327 1.712-38.394 6.079-38.834 12.289-.332 4.71 10.776 6.069 22.035 17.665.244.249.581.573 1.031 1.102 3.405 3.602 15.487 16.564 14.775 33.277-.005.76-1.004 18.991-13.208 25.553-6.312 3.368-12.899 2.241-15.902 1.749-29.063-4.598-66.771-1.356-67.847 3.465-1.245 5.511 45.63 12.521 47.535 30.887 1.587 15.272-28.765 29.876-32.632 31.695-32.75 15.415-66.781 8.751-66.978 11.384-.187 2.417 28.038.768 50.184 18.574C2657.792 1716.192 2672.183 1733.035 2667.697 1745.787z" class="colorFEB7A3 svgShape"></path><path fill="#ffffff" d="M2655.896,1596.118c-1.012,0.718-2.182,0.33-2.97-0.462c-6.18-6.546-14.699-10.585-23.575-11.519
			c-0.178,0.021-0.311-0.087-0.435-0.133c-0.644-0.023-1.282-0.04-1.922-0.067c-13.102-0.709-26.92-1.89-38.939,4.442
			c-0.054,0.067-0.147,0.048-0.208,0.052c-0.045,0.129-0.093,0.255-0.145,0.32c-1.338,1.664-3.195,2.961-5.174,3.726
			c-8.137,8.787-16.042,17.764-23.911,26.823c7.458,0.181,14.997-1.587,21.483-5.307c1.002-0.566,2.22-0.519,2.965,0.46
			c0.612,0.874,0.504,2.374-0.496,2.938c-8.021,4.619-17.167,6.747-26.373,6.091c-0.366-0.019-0.653-0.141-0.918-0.354
			c-9.019,10.436-17.972,20.92-27.068,31.24c-9.162,10.478-18.557,20.831-28.262,30.823c9.915,3.247,19.975,6.938,30.252,8.716
			c10.023,1.753,21.613,0.598,28.491-7.778c1.74-2.104,5.039,0.539,3.332,2.666c-5.306,6.415-13.061,9.332-21.07,9.911
			c5.447,5.349,9.926,11.561,13.088,18.528c1.124,2.486-2.868,3.99-3.959,1.531c-3.448-7.575-8.495-14.302-14.852-19.675
			c-0.132-0.106-0.18-0.251-0.286-0.388c-0.951-0.052-1.833-0.104-2.759-0.247c-5.914-0.745-11.653-2.45-17.344-4.22
			c-6.056-1.851-12.16-3.793-18.227-5.704c-6.855,6.975-13.91,13.733-21.207,20.243c-1.068-0.915-2.167-1.796-3.251-2.77
			c2.965-2.604,5.887-5.291,8.775-8.009c-3.364-4.063-3.264-9.778-2.276-14.621c0.996-4.996,3.042-10.409,0.921-15.339
			c-1.038-2.524,2.894-4.021,3.954-1.526c2.137,5.045,0.908,10.403-0.295,15.511c-0.954,4.263-1.83,9.249,0.797,12.994
			c3.485-3.33,6.934-6.743,10.353-10.185l0.025-0.034c12.013-12.187,23.445-24.951,34.68-37.871
			c-0.073-0.116-0.15-0.228-0.193-0.374c-3.603-15.081,0.556-30.503,6.143-44.564c0.708-1.842,1.51-3.656,2.251-5.473
			c-0.208-0.218-0.415-0.44-0.502-0.67c-13.627-7.484-25.474-17.744-34.735-30.201c-1.64-2.189,1.763-4.656,3.397-2.471
			c8.97,12.005,20.417,21.945,33.589,29.113c0,0,0,0,0.031,0.029c2.1-4.938,4.199-9.872,6.004-14.926
			c2.614-7.146,4.616-14.623,2.896-22.233c-0.625-2.631,3.606-3.071,4.2-0.461c1.643,7.222,0.112,14.523-2.166,21.393
			c-2.714,8.158-6.291,15.957-9.576,23.878c-5.608,13.546-10.31,28.207-7.865,42.961c2.185-2.513,4.336-4.999,6.492-7.48
			c24.597-28.567,49.091-57.49,77.454-82.437c0.663-0.616,1.392-1.187,2.085-1.776c0.943-4.382,1.856-8.791,2.771-13.144
			c0.577-2.766,1.633-6.4-0.164-8.936c-1.528-2.26,1.909-4.7,3.461-2.476c2.242,3.276,1.858,7.23,1.116,10.955
			c-0.635,3.046-1.303,6.122-1.938,9.166c12.266-10.179,25.223-19.588,38.931-27.684c-0.046-0.089-0.074-0.114-0.112-0.202
			c-1.716-6.187-0.334-12.405,2.116-18.262c2.662-6.397,6.623-12.355,7.987-19.242c0.523-2.699,4.719-2.068,4.195,0.631
			c-1.278,6.573-4.657,12.287-7.457,18.302c-2.321,5.083-4.315,10.917-2.995,16.569c12.17-6.926,24.874-12.814,38.157-17.312
			c2.604-0.865,4.131,3.094,1.527,3.961c-4.123,1.393-8.21,2.874-12.218,4.529c-32.94,13.461-61.797,35.275-87.396,59.702
			c-4.803,4.626-9.556,9.403-14.189,14.221c9.86-3.363,20.631-3.092,30.989-2.504c12.795,0.689,26.715,1.736,38.273-4.969
			c2.341-1.353,4.838,2.079,2.478,3.461c-6.397,3.678-13.356,5.264-20.483,5.896c4.745,2.272,9.069,5.405,12.708,9.255
			C2657.149,1594.006,2656.705,1595.51,2655.896,1596.118z" class="colorFFF svgShape"></path><path fill="#5d6162" d="M2573.593,1691.321H458.494c-27.242,0-49.328,19.922-49.328,44.498v21.708
			c0,24.576,22.086,44.5,49.328,44.5h2115.099c27.242,0,49.33-19.924,49.33-44.5v-21.708
			C2622.923,1711.244,2600.835,1691.321,2573.593,1691.321z" class="color4D4D4D svgShape"></path><path fill="#5d6162" d="M2401.403,483.342H630.659c-28.424,0-51.544,23.067-51.544,51.542v1160.245
			c0,28.479,23.12,51.544,51.544,51.544h1770.744c28.45,0,51.569-23.065,51.569-51.544V534.884
			C2452.972,506.41,2429.853,483.342,2401.403,483.342z M2386.148,1656.598c0,18.588-15.084,33.622-33.647,33.622H676.344
			c-18.609,0-33.672-15.034-33.672-33.622V573.392c0-18.561,15.063-33.645,33.672-33.645h1676.157
			c18.563,0,33.647,15.083,33.647,33.645V1656.598z" class="color4D4D4D svgShape"></path><path fill="#fdb8a9" d="M2100.548 668.205H728.174c-19.35 0-35.035 16.578-35.035 37.022 0 20.449 15.685 37.026 35.035 37.026h1372.374c19.354 0 35.042-16.578 35.042-37.026C2135.589 684.783 2119.902 668.205 2100.548 668.205zM2306.858 742.254h-104.144c-20.448 0-37.026-16.578-37.026-37.026l0 0c0-20.445 16.578-37.022 37.026-37.022h104.144c20.451 0 37.024 16.578 37.024 37.022l0 0C2343.882 725.676 2327.309 742.254 2306.858 742.254z" class="colorFE8765 svgShape"></path><path fill="#a9e3f7" d="M2330.641,632.492h-42.698c-7.316,0-13.245-5.932-13.245-13.243v-42.701
				c0-7.313,5.929-13.243,13.245-13.243h42.698c7.312,0,13.241,5.93,13.241,13.243v42.701
				C2343.882,626.56,2337.952,632.492,2330.641,632.492z" class="colorFEB7A3 svgShape"></path><path fill="#ffffff" d="M2325.313,620.728c2.463-2.345,4.927-4.687,7.391-7.032c-5.702-5.211-11.404-10.421-17.107-15.633
				c6.036-4.82,12.073-9.64,18.113-14.461c-2.301-2.502-4.608-5.004-6.913-7.506c-5.376,5.587-10.758,11.173-16.14,16.76
				c-4.895-5.93-9.789-11.857-14.677-17.788c-2.469,2.345-4.93,4.689-7.399,7.034c5.589,5.206,11.171,10.411,16.759,15.619
				c-5.92,4.824-11.841,9.65-17.758,14.474c2.306,2.502,4.607,5.006,6.908,7.506c5.274-5.589,10.552-11.179,15.833-16.771
				C2315.315,608.862,2320.317,614.796,2325.313,620.728z" class="colorFFF svgShape"></path><path fill="#a9e3f7" d="M2150.241 621.784c0-5.913 4.791-10.706 10.708-10.706 5.911 0 10.702 4.792 10.702 10.706 0 5.916-4.791 10.708-10.702 10.708C2155.032 632.492 2150.241 627.699 2150.241 621.784zM2184.253 621.784c0-5.913 4.792-10.706 10.706-10.706 5.915 0 10.706 4.792 10.706 10.706 0 5.916-4.79 10.708-10.706 10.708C2189.045 632.492 2184.253 627.699 2184.253 621.784zM2218.267 621.784c0-5.913 4.793-10.706 10.708-10.706 5.911 0 10.704 4.792 10.704 10.706 0 5.916-4.793 10.708-10.704 10.708C2223.06 632.492 2218.267 627.699 2218.267 621.784zM779.842 577.301h-79.167c-4.162 0-7.536 3.375-7.536 7.538v47.234c0 4.162 3.374 7.538 7.536 7.538h79.167c4.162 0 7.537-3.375 7.537-7.538v-47.234C787.379 580.676 784.004 577.301 779.842 577.301z" class="colorFEB7A3 svgShape"></path><path fill="#ffffff" d="M758.482,606.124h-12.341v-12.341c0-2.455-1.99-4.442-4.442-4.442c-2.45,0-4.44,1.988-4.44,4.442v12.341
			h-12.341c-2.453,0-4.442,1.987-4.442,4.44c0,2.448,1.99,4.438,4.442,4.438h12.341v12.343c0,2.452,1.99,4.44,4.44,4.44
			c2.452,0,4.442-1.988,4.442-4.44v-12.343h12.341c2.45,0,4.44-1.99,4.44-4.438C762.922,608.111,760.932,606.124,758.482,606.124z" class="colorFFF svgShape"></path><path fill="#4fb7e3" d="M919.547,1214.859c-3.089,0-5.701-2.383-5.937-5.517c-0.243-3.28,2.219-6.139,5.502-6.382
					c10.229-0.766,20.435-2.415,30.337-4.904c3.175-0.795,6.43,1.131,7.234,4.326c0.799,3.191-1.139,6.426-4.33,7.233
					c-10.561,2.653-21.449,4.413-32.358,5.228C919.845,1214.854,919.697,1214.859,919.547,1214.859z M887.81,1214.533
					c-0.189,0-0.38-0.01-0.573-0.029c-10.89-1.038-21.739-3.025-32.242-5.903c-3.175-0.865-5.044-4.146-4.177-7.319
					c0.869-3.17,4.149-5.036,7.323-4.171c9.845,2.697,20.013,4.557,30.224,5.534c3.278,0.313,5.683,3.222,5.37,6.494
					C893.44,1212.224,890.843,1214.533,887.81,1214.533z M980.917,1199.415c-2.276,0-4.453-1.315-5.442-3.531
					c-1.343-3.009,0.008-6.529,3.013-7.868c9.334-4.162,18.378-9.17,26.88-14.882c2.739-1.83,6.436-1.11,8.266,1.621
					c1.834,2.734,1.109,6.436-1.622,8.27c-9.067,6.091-18.714,11.432-28.669,15.872
					C982.55,1199.249,981.73,1199.415,980.917,1199.415z M826.765,1197.8c-0.852,0-1.72-0.182-2.537-0.57
					c-9.867-4.65-19.407-10.194-28.35-16.482c-2.693-1.892-3.34-5.608-1.452-8.299c1.899-2.691,5.61-3.338,8.303-1.452
					c8.388,5.896,17.329,11.096,26.578,15.455c2.977,1.403,4.251,4.951,2.849,7.93C831.137,1196.535,828.998,1197.8,826.765,1197.8z
					 M1033.444,1164.135c-1.573,0-3.135-0.618-4.311-1.844c-2.272-2.38-2.187-6.15,0.197-8.421
					c7.409-7.079,14.254-14.833,20.341-23.055c1.959-2.643,5.685-3.199,8.335-1.241c2.643,1.955,3.199,5.687,1.241,8.333
					c-6.49,8.764-13.789,17.036-21.69,24.58C1036.401,1163.587,1034.926,1164.135,1033.444,1164.135z M774.972,1161.421
					c-1.527,0-3.046-0.579-4.208-1.734c-7.731-7.703-14.854-16.123-21.163-25.021c-1.905-2.685-1.272-6.403,1.411-8.304
					c2.687-1.906,6.403-1.274,8.308,1.411c5.926,8.353,12.602,16.25,19.853,23.47c2.332,2.324,2.341,6.096,0.017,8.426
					C778.026,1160.838,776.495,1161.421,774.972,1161.421z M1071.101,1113.27c-0.896,0-1.817-0.203-2.672-0.635
					c-2.938-1.477-4.125-5.056-2.647-8c4.602-9.154,8.431-18.762,11.382-28.553c0.951-3.149,4.27-4.934,7.424-3.988
					c3.148,0.952,4.936,4.274,3.986,7.428c-3.147,10.444-7.235,20.698-12.148,30.468
					C1075.383,1112.068,1073.284,1113.27,1071.101,1113.27z M738.394,1109.794c-2.231,0-4.361-1.253-5.386-3.396
					c-4.698-9.859-8.565-20.192-11.494-30.705c-0.886-3.172,0.971-6.453,4.141-7.338c3.172-0.888,6.455,0.969,7.336,4.141
					c2.745,9.855,6.37,19.534,10.774,28.777c1.413,2.969,0.159,6.525-2.82,7.94C740.12,1109.605,739.249,1109.794,738.394,1109.794z
					 M1089.382,1052.678c-0.238,0-0.483-0.017-0.724-0.045c-3.268-0.394-5.594-3.363-5.202-6.629
					c0.87-7.143,1.305-14.448,1.305-21.708c0-3.01-0.073-6.046-0.226-9.019c-0.16-3.289,2.374-6.083,5.654-6.245
					c3.287-0.147,6.087,2.365,6.252,5.652c0.157,3.17,0.234,6.407,0.234,9.613c0,7.737-0.469,15.523-1.39,23.138
					C1094.922,1050.458,1092.355,1052.678,1089.382,1052.678z M721.394,1048.841c-3.029,0-5.619-2.294-5.922-5.367
					c-0.632-6.33-0.95-12.776-0.95-19.179c0-10.961,0.934-21.943,2.776-32.651c0.562-3.243,3.645-5.407,6.884-4.859
					c3.243,0.56,5.415,3.641,4.859,6.886c-1.726,10.038-2.604,20.343-2.604,30.624c0,6.009,0.299,12.063,0.89,17.997
					c0.328,3.274-2.063,6.191-5.336,6.519C721.792,1048.831,721.591,1048.841,721.394,1048.841z M1086.208,989.478
					c-2.728,0-5.189-1.882-5.809-4.654c-2.247-9.984-5.376-19.837-9.306-29.288c-1.261-3.033,0.177-6.523,3.214-7.787
					c3.033-1.257,6.525,0.176,7.791,3.214c4.191,10.079,7.531,20.595,9.924,31.248c0.724,3.21-1.297,6.401-4.504,7.121
					C1087.077,989.428,1086.635,989.478,1086.208,989.478z M731.24,967.903c-0.668,0-1.343-0.112-2.007-0.353
					c-3.101-1.106-4.713-4.515-3.602-7.615c3.675-10.27,8.274-20.3,13.669-29.808c1.625-2.863,5.261-3.864,8.123-2.243
					c2.863,1.625,3.863,5.261,2.241,8.123c-5.06,8.911-9.372,18.314-12.816,27.941C735.975,966.386,733.689,967.903,731.24,967.903z
					 M1061.927,931.055c-1.967,0-3.893-0.976-5.029-2.764c-5.49-8.628-11.765-16.847-18.653-24.428
					c-2.212-2.436-2.033-6.202,0.407-8.416c2.428-2.216,6.201-2.033,8.409,0.405c7.346,8.082,14.04,16.845,19.886,26.045
					c1.772,2.778,0.951,6.461-1.826,8.226C1064.13,930.753,1063.023,931.055,1061.927,931.055z M762.466,912.844
					c-1.332,0-2.67-0.444-3.778-1.353c-2.542-2.09-2.913-5.843-0.822-8.389c6.926-8.428,14.625-16.324,22.883-23.462
					c2.494-2.149,6.253-1.877,8.405,0.612c2.147,2.492,1.873,6.255-0.612,8.405c-7.752,6.697-14.972,14.1-21.47,22.011
					C765.895,912.104,764.184,912.844,762.466,912.844z M1019.363,884.21c-1.276,0-2.571-0.411-3.657-1.262
					c-8.086-6.305-16.756-11.946-25.769-16.764c-2.905-1.552-3.997-5.16-2.449-8.063c1.548-2.9,5.154-3.996,8.067-2.446
					c9.611,5.139,18.864,11.156,27.479,17.882c2.593,2.021,3.054,5.768,1.029,8.359
					C1022.892,883.424,1021.136,884.21,1019.363,884.21z M810.368,871.479c-2.029,0-3.996-1.029-5.112-2.886
					c-1.698-2.822-0.789-6.482,2.037-8.177c9.355-5.625,19.258-10.475,29.431-14.407c3.062-1.184,6.519,0.339,7.708,3.407
					c1.187,3.066-0.343,6.521-3.413,7.708c-9.531,3.687-18.818,8.229-27.588,13.505
					C812.468,871.206,811.407,871.479,810.368,871.479z M963.54,854.385c-0.615,0-1.245-0.096-1.865-0.299
					c-9.706-3.199-19.772-5.574-29.902-7.054c-3.259-0.479-5.51-3.504-5.031-6.762c0.475-3.251,3.485-5.502,6.755-5.034
					c10.809,1.589,21.547,4.119,31.908,7.532c3.123,1.029,4.824,4.396,3.794,7.523C968.375,852.798,966.047,854.385,963.54,854.385z
					 M869.365,848.675c-2.787,0-5.272-1.961-5.836-4.799c-0.641-3.228,1.454-6.361,4.685-7c10.669-2.121,21.63-3.326,32.572-3.598
					c3.234-0.139,6.023,2.523,6.104,5.81c0.081,3.291-2.521,6.019-5.809,6.104c-10.267,0.251-20.547,1.386-30.547,3.369
					C870.143,848.638,869.749,848.675,869.365,848.675z" class="color30CFE1 svgShape"></path><path fill="#fddfa3" d="M776.954,1290.688h86.917c11.905,0,21.561,9.652,21.561,21.561v86.913c0,11.91-9.656,21.561-21.561,21.561
			h-86.917c-11.905,0-21.561-9.651-21.561-21.561v-86.913C755.393,1300.34,765.049,1290.688,776.954,1290.688z" class="colorFED791 svgShape"></path><path fill="#a9e3f7" d="M962.159 1290.688h86.917c11.909 0 21.561 9.652 21.561 21.561v86.913c0 11.91-9.652 21.561-21.561 21.561h-86.917c-11.905 0-21.561-9.651-21.561-21.561v-86.913C940.598 1300.34 950.254 1290.688 962.159 1290.688zM776.954 1481.226h86.917c11.905 0 21.561 9.654 21.561 21.559v86.917c0 11.905-9.656 21.561-21.561 21.561h-86.917c-11.905 0-21.561-9.656-21.561-21.561v-86.917C755.393 1490.88 765.049 1481.226 776.954 1481.226z" class="colorFEB7A3 svgShape"></path><path fill="#fddfa3" d="M962.159,1481.226h86.917c11.909,0,21.561,9.654,21.561,21.559v86.917
			c0,11.905-9.652,21.561-21.561,21.561h-86.917c-11.905,0-21.561-9.656-21.561-21.561v-86.917
			C940.598,1490.88,950.254,1481.226,962.159,1481.226z" class="colorFED791 svgShape"></path><rect width="989.714" height="370.236" x="1274.708" y="839.179" fill="#9fd7f9" class="colorACECF3 svgShape"></rect><path fill="#4fb7e3" d="M1540.217,1600.662h-31.802c-3.291,0-5.96-2.666-5.96-5.957s2.668-5.959,5.96-5.959h31.802
					c3.293,0,5.959,2.668,5.959,5.959S1543.51,1600.662,1540.217,1600.662z M1476.608,1600.662h-31.81
					c-3.291,0-5.955-2.666-5.955-5.957s2.664-5.959,5.955-5.959h31.81c3.291,0,5.955,2.668,5.955,5.959
					S1479.899,1600.662,1476.608,1600.662z M1412.996,1600.662h-31.804c-3.288,0-5.96-2.666-5.96-5.957s2.672-5.959,5.96-5.959
					h31.804c3.291,0,5.955,2.668,5.955,5.959S1416.287,1600.662,1412.996,1600.662z M1349.385,1600.662h-31.804
					c-3.29,0-5.955-2.666-5.955-5.957s2.665-5.959,5.955-5.959h31.804c3.288,0,5.955,2.668,5.955,5.959
					S1352.673,1600.662,1349.385,1600.662z M1285.775,1600.662h-17.026v-26.696c0-3.288,2.668-5.957,5.959-5.957
					c3.288,0,5.959,2.668,5.959,5.957v14.781h5.108c3.288,0,5.958,2.668,5.958,5.959S1289.063,1600.662,1285.775,1600.662z
					 M1554.047,1582.684c-3.29,0-5.96-2.668-5.96-5.959v-31.806c0-3.288,2.67-5.954,5.96-5.954c3.288,0,5.955,2.666,5.955,5.954
					v31.806C1560.002,1580.016,1557.336,1582.684,1554.047,1582.684z M1274.708,1548.118c-3.291,0-5.959-2.668-5.959-5.957v-31.806
					c0-3.289,2.668-5.957,5.959-5.957c3.288,0,5.959,2.668,5.959,5.957v31.806
					C1280.667,1545.45,1277.996,1548.118,1274.708,1548.118z M1554.047,1519.074c-3.29,0-5.96-2.666-5.96-5.957v-31.809
					c0-3.289,2.67-5.957,5.96-5.957c3.288,0,5.955,2.668,5.955,5.957v31.809C1560.002,1516.408,1557.336,1519.074,1554.047,1519.074
					z M1274.708,1484.506c-3.291,0-5.959-2.664-5.959-5.957v-31.804c0-3.289,2.668-5.955,5.959-5.955
					c3.288,0,5.959,2.666,5.959,5.955v31.804C1280.667,1481.842,1277.996,1484.506,1274.708,1484.506z M1554.047,1455.463
					c-3.29,0-5.96-2.668-5.96-5.959V1417.7c0-3.291,2.67-5.957,5.96-5.957c3.288,0,5.955,2.666,5.955,5.957v31.804
					C1560.002,1452.795,1557.336,1455.463,1554.047,1455.463z M1274.708,1420.897c-3.291,0-5.959-2.668-5.959-5.957v-31.809
					c0-3.287,2.668-5.957,5.959-5.957c3.288,0,5.959,2.67,5.959,5.957v31.809
					C1280.667,1418.229,1277.996,1420.897,1274.708,1420.897z M1554.047,1391.85c-3.29,0-5.96-2.664-5.96-5.958v-31.804
					c0-3.291,2.67-5.957,5.96-5.957c3.288,0,5.955,2.667,5.955,5.957v31.804C1560.002,1389.187,1557.336,1391.85,1554.047,1391.85z
					 M1274.708,1357.288c-3.291,0-5.959-2.667-5.959-5.958v-31.805c0-0.732,0.133-1.432,0.372-2.081
					c-0.239-0.643-0.372-1.342-0.372-2.074c0-3.289,2.668-5.955,5.959-5.955h31.806c3.288,0,5.955,2.666,5.955,5.955
					c0,3.29-2.667,5.958-5.955,5.958h-25.848v30.001C1280.667,1354.621,1277.996,1357.288,1274.708,1357.288z M1554.047,1328.241
					c-3.29,0-5.96-2.668-5.96-5.958v-0.954h-18.937c-3.291,0-5.958-2.668-5.958-5.958c0-3.289,2.667-5.955,5.958-5.955h30.852
					v12.868C1560.002,1325.573,1557.336,1328.241,1554.047,1328.241z M1497.348,1321.329h-31.81c-3.291,0-5.959-2.668-5.959-5.958
					c0-3.289,2.668-5.955,5.959-5.955h31.81c3.291,0,5.955,2.666,5.955,5.955C1503.303,1318.66,1500.639,1321.329,1497.348,1321.329
					z M1433.731,1321.329h-31.802c-3.288,0-5.958-2.668-5.958-5.958c0-3.289,2.67-5.955,5.958-5.955h31.802
					c3.291,0,5.959,2.666,5.959,5.955C1439.69,1318.66,1437.022,1321.329,1433.731,1321.329z M1370.125,1321.329h-31.811
					c-3.288,0-5.954-2.668-5.954-5.958c0-3.289,2.666-5.955,5.954-5.955h31.811c3.288,0,5.955,2.666,5.955,5.955
					C1376.08,1318.66,1373.413,1321.329,1370.125,1321.329z" class="color30CFE1 svgShape"></path><path fill="#fdb8a9" d="M1895.403,1600.662H1863.6c-3.29,0-5.958-2.666-5.958-5.957s2.668-5.959,5.958-5.959h31.802
				c3.288,0,5.959,2.668,5.959,5.959S1898.691,1600.662,1895.403,1600.662z M1831.79,1600.662h-31.807
				c-3.29,0-5.954-2.666-5.954-5.957s2.664-5.959,5.954-5.959h31.807c3.294,0,5.959,2.668,5.959,5.959
				S1835.084,1600.662,1831.79,1600.662z M1768.181,1600.662h-31.804c-3.295,0-5.961-2.666-5.961-5.957s2.667-5.959,5.961-5.959
				h31.804c3.29,0,5.959,2.668,5.959,5.959S1771.472,1600.662,1768.181,1600.662z M1704.566,1600.662h-31.8
				c-3.295,0-5.961-2.666-5.961-5.957s2.667-5.959,5.961-5.959h31.8c3.293,0,5.958,2.668,5.958,5.959
				S1707.859,1600.662,1704.566,1600.662z M1640.96,1600.662h-17.021v-26.703c0-3.286,2.664-5.957,5.958-5.957
				c3.29,0,5.955,2.67,5.955,5.957v14.787h5.108c3.288,0,5.954,2.668,5.954,5.959S1644.249,1600.662,1640.96,1600.662z
				 M1909.229,1582.684c-3.29,0-5.957-2.666-5.957-5.955v-31.807c0-3.291,2.667-5.958,5.957-5.958c3.293,0,5.959,2.667,5.959,5.958
				v31.807C1915.188,1580.018,1912.521,1582.684,1909.229,1582.684z M1629.897,1548.114c-3.295,0-5.958-2.668-5.958-5.957v-31.806
				c0-3.289,2.664-5.957,5.958-5.957c3.29,0,5.955,2.668,5.955,5.957v31.806C1635.852,1545.446,1633.188,1548.114,1629.897,1548.114
				z M1909.229,1519.075c-3.29,0-5.957-2.667-5.957-5.957v-31.808c0-3.289,2.667-5.957,5.957-5.957c3.293,0,5.959,2.668,5.959,5.957
				v31.808C1915.188,1516.408,1912.521,1519.075,1909.229,1519.075z M1629.897,1484.503c-3.295,0-5.958-2.666-5.958-5.957v-31.806
				c0-3.289,2.664-5.955,5.958-5.955c3.29,0,5.955,2.666,5.955,5.955v31.806C1635.852,1481.837,1633.188,1484.503,1629.897,1484.503
				z M1909.229,1455.463c-3.29,0-5.957-2.666-5.957-5.955v-31.806c0-3.293,2.667-5.957,5.957-5.957c3.293,0,5.959,2.664,5.959,5.957
				v31.806C1915.188,1452.797,1912.521,1455.463,1909.229,1455.463z M1629.897,1420.893c-3.295,0-5.958-2.668-5.958-5.959v-31.804
				c0-3.293,2.664-5.957,5.958-5.957c3.29,0,5.955,2.664,5.955,5.957v31.804C1635.852,1418.225,1633.188,1420.893,1629.897,1420.893
				z M1909.229,1391.854c-3.29,0-5.957-2.668-5.957-5.957v-31.809c0-3.288,2.667-5.957,5.957-5.957c3.293,0,5.959,2.668,5.959,5.957
				v31.809C1915.188,1389.187,1912.521,1391.854,1909.229,1391.854z M1629.897,1357.284c-3.295,0-5.958-2.668-5.958-5.958v-31.806
				c0-0.731,0.129-1.428,0.371-2.079c-0.243-0.641-0.371-1.338-0.371-2.07c0-3.289,2.664-5.955,5.958-5.955h31.806
				c3.288,0,5.958,2.666,5.958,5.955c0,3.29-2.67,5.958-5.958,5.958h-25.851v29.997
				C1635.852,1354.616,1633.188,1357.284,1629.897,1357.284z M1909.229,1328.244c-3.29,0-5.957-2.67-5.957-5.961v-0.954h-18.932
				c-3.29,0-5.958-2.668-5.958-5.958c0-3.289,2.668-5.955,5.958-5.955h30.848v12.868
				C1915.188,1325.573,1912.521,1328.244,1909.229,1328.244z M1852.534,1321.329h-31.806c-3.291,0-5.955-2.668-5.955-5.958
				c0-3.289,2.664-5.955,5.955-5.955h31.806c3.295,0,5.958,2.666,5.958,5.955C1858.492,1318.66,1855.828,1321.329,1852.534,1321.329
				z M1788.921,1321.329h-31.803c-3.288,0-5.958-2.668-5.958-5.958c0-3.289,2.67-5.955,5.958-5.955h31.803
				c3.29,0,5.958,2.666,5.958,5.955C1794.88,1318.66,1792.211,1321.329,1788.921,1321.329z M1725.311,1321.329h-31.807
				c-3.288,0-5.954-2.668-5.954-5.958c0-3.289,2.666-5.955,5.954-5.955h31.807c3.292,0,5.958,2.666,5.958,5.955
				C1731.269,1318.66,1728.603,1321.329,1725.311,1321.329z" class="colorFE8765 svgShape"></path><path fill="#ffda82" d="M2250.597,1595.994h-31.807c-3.295,0-5.958-2.667-5.958-5.957s2.664-5.957,5.958-5.957h31.807
					c3.288,0,5.954,2.666,5.954,5.957S2253.885,1595.994,2250.597,1595.994z M2186.979,1595.994h-31.802
					c-3.288,0-5.958-2.667-5.958-5.957s2.67-5.957,5.958-5.957h31.802c3.29,0,5.959,2.666,5.959,5.957
					S2190.27,1595.994,2186.979,1595.994z M2123.371,1595.994h-31.804c-3.288,0-5.955-2.667-5.955-5.957s2.667-5.957,5.955-5.957
					h31.804c3.29,0,5.955,2.666,5.955,5.957S2126.661,1595.994,2123.371,1595.994z M2059.76,1595.994h-31.804
					c-3.291,0-5.959-2.667-5.959-5.957s2.668-5.957,5.959-5.957h31.804c3.289,0,5.96,2.666,5.96,5.957
					S2063.049,1595.994,2059.76,1595.994z M1996.15,1595.994h-17.021v-26.697c0-3.29,2.664-5.956,5.954-5.956
					c3.295,0,5.959,2.666,5.959,5.956v14.783h5.108c3.288,0,5.959,2.666,5.959,5.957S1999.438,1595.994,1996.15,1595.994z
					 M2264.419,1578.014c-3.291,0-5.955-2.666-5.955-5.957v-31.806c0-3.291,2.664-5.957,5.955-5.957
					c3.288,0,5.958,2.666,5.958,5.957v31.806C2270.377,1575.348,2267.707,1578.014,2264.419,1578.014z M1985.082,1543.448
					c-3.29,0-5.954-2.667-5.954-5.959v-31.804c0-3.291,2.664-5.955,5.954-5.955c3.295,0,5.959,2.665,5.959,5.955v31.804
					C1991.042,1540.782,1988.377,1543.448,1985.082,1543.448z M2264.419,1514.407c-3.291,0-5.955-2.668-5.955-5.959v-31.806
					c0-3.292,2.664-5.958,5.955-5.958c3.288,0,5.958,2.666,5.958,5.958v31.806
					C2270.377,1511.739,2267.707,1514.407,2264.419,1514.407z M1985.082,1479.837c-3.29,0-5.954-2.666-5.954-5.957v-31.805
					c0-3.295,2.664-5.958,5.954-5.958c3.295,0,5.959,2.664,5.959,5.958v31.805
					C1991.042,1477.171,1988.377,1479.837,1985.082,1479.837z M2264.419,1450.793c-3.291,0-5.955-2.667-5.955-5.957v-31.807
					c0-3.288,2.664-5.957,5.955-5.957c3.288,0,5.958,2.668,5.958,5.957v31.807
					C2270.377,1448.126,2267.707,1450.793,2264.419,1450.793z M1985.082,1416.225c-3.29,0-5.954-2.664-5.954-5.957v-31.804
					c0-3.291,2.664-5.959,5.954-5.959c3.295,0,5.959,2.668,5.959,5.959v31.804
					C1991.042,1413.561,1988.377,1416.225,1985.082,1416.225z M2264.419,1387.182c-3.291,0-5.955-2.668-5.955-5.955v-31.809
					c0-3.293,2.664-5.957,5.955-5.957c3.288,0,5.958,2.664,5.958,5.957v31.809
					C2270.377,1384.514,2267.707,1387.182,2264.419,1387.182z M1985.082,1352.616c-3.29,0-5.954-2.668-5.954-5.957v-31.806
					c0-0.729,0.128-1.43,0.371-2.079c-0.243-0.642-0.371-1.343-0.371-2.075c0-3.289,2.664-5.958,5.954-5.958h31.811
					c3.288,0,5.955,2.67,5.955,5.958c0,3.293-2.667,5.957-5.955,5.957h-25.851v30.003
					C1991.042,1349.948,1988.377,1352.616,1985.082,1352.616z M2264.419,1323.571c-3.291,0-5.955-2.666-5.955-5.957v-0.959h-18.935
					c-3.295,0-5.959-2.664-5.959-5.957c0-3.289,2.664-5.958,5.959-5.958h30.848v12.874
					C2270.377,1320.905,2267.707,1323.571,2264.419,1323.571z M2207.723,1316.656h-31.806c-3.291,0-5.958-2.664-5.958-5.957
					c0-3.289,2.667-5.958,5.958-5.958h31.806c3.29,0,5.959,2.67,5.959,5.958C2213.682,1313.992,2211.013,1316.656,2207.723,1316.656
					z M2144.111,1316.656h-31.802c-3.293,0-5.958-2.664-5.958-5.957c0-3.289,2.666-5.958,5.958-5.958h31.802
					c3.29,0,5.954,2.67,5.954,5.958C2150.064,1313.992,2147.401,1316.656,2144.111,1316.656z M2080.5,1316.656h-31.806
					c-3.29,0-5.959-2.664-5.959-5.957c0-3.289,2.67-5.958,5.959-5.958h31.806c3.288,0,5.958,2.67,5.958,5.958
					C2086.458,1313.992,2083.788,1316.656,2080.5,1316.656z" class="colorFEBD48 svgShape"></path><path fill="#a9e3f7" d="M1831.138,1438.747h-45.284v-45.282c0-8.999-7.295-16.291-16.291-16.291
					c-9,0-16.289,7.292-16.289,16.291v45.282h-45.286c-8.996,0-16.289,7.291-16.289,16.293c0,8.996,7.293,16.292,16.289,16.292
					h45.286v45.279c0,8.996,7.29,16.294,16.289,16.294c8.996,0,16.291-7.298,16.291-16.294v-45.279h45.284
					c8.996,0,16.291-7.295,16.291-16.292C1847.429,1446.037,1840.134,1438.747,1831.138,1438.747z" class="colorFEB7A3 svgShape"></path><rect width="235.989" height="231.776" x="1295.779" y="1338.848" fill="#9fd7f9" class="colorACECF3 svgShape"></rect><path fill="#ffffff" d="M1322.046 1499.004l41.782-57.45c2.228-3.066 6.839-2.953 8.913.224l35.593 54.43c2.22 3.402 7.251 3.238 9.249-.296l8.022-14.184c2.068-3.67 7.357-3.67 9.428 0l6.816 12.044c2.237 3.969 8.078 3.563 9.751-.676l18.713-47.434c1.853-4.693 8.546-4.532 10.173.249l18.495 54.542c1.19 3.514-1.422 7.156-5.131 7.156h-167.423C1321.998 1507.608 1319.44 1502.587 1322.046 1499.004zM1403.576 1422.472c0-8.725 7.071-15.799 15.798-15.799 8.728 0 15.795 7.074 15.795 15.799 0 8.727-7.067 15.798-15.795 15.798C1410.647 1438.27 1403.576 1431.198 1403.576 1422.472zM1370.102 1415.693c-.29 0-.577.027-.855.083.021-.214.034-.43.034-.648 0-3.477-2.822-6.294-6.291-6.294-2.969 0-5.454 2.052-6.123 4.811-.661-.616-1.551-.994-2.533-.994-1.367 0-2.56.739-3.208 1.832-.625-.27-1.311-.417-2.036-.417-2.848 0-5.151 2.307-5.151 5.15 0 2.847 2.303 5.151 5.151 5.151 1.206 0 2.314-.413 3.191-1.11 1.696 1.415 4.505 2.336 7.687 2.336 2.982 0 5.64-.812 7.353-2.075.76.621 1.727.992 2.78.992 2.436 0 4.411-1.974 4.411-4.412C1374.513 1417.667 1372.538 1415.693 1370.102 1415.693zM1479.82 1415.693c-.295 0-.58.027-.859.083.02-.214.033-.43.033-.648 0-3.477-2.813-6.294-6.295-6.294-2.967 0-5.452 2.052-6.118 4.811-.662-.616-1.554-.994-2.533-.994-1.366 0-2.561.739-3.208 1.832-.625-.27-1.313-.417-2.037-.417-2.847 0-5.15 2.307-5.15 5.15 0 2.847 2.303 5.151 5.15 5.151 1.207 0 2.315-.413 3.197-1.11 1.691 1.415 4.501 2.336 7.684 2.336 2.981 0 5.643-.812 7.353-2.075.757.621 1.728.992 2.784.992 2.436 0 4.407-1.974 4.407-4.412C1484.227 1417.667 1482.256 1415.693 1479.82 1415.693z" class="colorFFF svgShape"></path><rect width="989.711" height="370.242" x="1341.775" y="789.395" fill="#4fb7e3" class="color30CFE1 svgShape"></rect><polygon fill="#f7f7f7" points="2309.625 789.395 2309.625 1137.677 1341.775 1137.677 1341.775 1159.637 2331.486 1159.637 2331.486 789.395" class="colorCCC svgShape"></polygon><rect width="60.391" height="60.127" x="1851.639" y="1024.621" fill="#ffffff" class="colorFFF svgShape"></rect><rect width="60.397" height="168.592" x="1940.45" y="916.155" fill="#ffffff" class="colorFFF svgShape"></rect><rect width="60.392" height="123.79" x="2029.268" y="960.958" fill="#ffffff" class="colorFFF svgShape"></rect><rect width="60.39" height="91.367" x="2118.08" y="993.38" fill="#ffffff" class="colorFFF svgShape"></rect><rect width="60.39" height="220.464" x="2206.897" y="864.284" fill="#ffffff" class="colorFFF svgShape"></rect><g fill="#333232" class="color000 svgShape"><path fill="#ffffff" d="M1651.546 1043.312c-21.97 36.508-62.088 60.938-107.942 60.938-33.487 0-63.937-13.027-86.473-34.29l86.473-90.932L1651.546 1043.312zM1672.078 969.699h-125.761V844.48C1615.768 844.48 1672.078 900.539 1672.078 969.699zM1706.29 983.978c-.052 23.397-6.544 45.28-17.823 63.998l-107.942-64.285h124.734L1706.29 983.978zM1528.704 844.48v125.219l-86.472 90.929c-24.203-22.816-39.301-55.121-39.301-90.929C1402.931 900.539 1459.237 844.48 1528.704 844.48z" class="colorFFF svgShape"></path></g><g fill="#333232" class="color000 svgShape"><rect width="295.368" height="280.344" x="2104.289" y="1423.169" fill="#ffda82" class="colorFEBD48 svgShape"></rect><polygon fill="#f7f7f7" points="2381.146 1423.169 2381.146 1682.522 2104.289 1682.522 2104.289 1703.509 2399.657 1703.509 2399.657 1423.169" class="colorCCC svgShape"></polygon><path fill="#ffffff" d="M2143.957 1601.6l50.475-69.401c2.693-3.706 8.26-3.569 10.773.268l42.996 65.756c2.682 4.106 8.761 3.911 11.172-.359l9.685-17.136c2.507-4.434 8.891-4.434 11.397 0l8.227 14.55c2.707 4.797 9.761 4.305 11.785-.817l22.604-57.301c2.238-5.672 10.331-5.473 12.284.299l22.35 65.889c1.436 4.248-1.72 8.647-6.199 8.647h-202.258C2143.903 1611.994 2140.808 1605.926 2143.957 1601.6zM2242.451 1509.146c0-10.542 8.543-19.086 19.087-19.086 10.54 0 19.084 8.544 19.084 19.086 0 10.538-8.544 19.082-19.084 19.082C2250.994 1528.228 2242.451 1519.684 2242.451 1509.146zM2202.017 1500.955c-.356 0-.703.033-1.037.104.027-.26.04-.523.04-.787 0-4.201-3.405-7.606-7.606-7.606-3.579 0-6.587 2.48-7.392 5.82-.801-.747-1.874-1.203-3.058-1.203-1.652 0-3.092.89-3.876 2.214-.753-.328-1.587-.504-2.461-.504-3.436 0-6.224 2.785-6.224 6.222 0 3.436 2.789 6.223 6.224 6.223 1.461 0 2.799-.504 3.86-1.343 2.046 1.706 5.441 2.822 9.282 2.822 3.606 0 6.817-.98 8.887-2.505.915.747 2.087 1.193 3.363 1.193 2.942 0 5.324-2.383 5.324-5.324C2207.341 1503.34 2204.959 1500.955 2202.017 1500.955zM2334.557 1500.955c-.355 0-.702.033-1.035.104.025-.26.039-.523.039-.787 0-4.201-3.404-7.606-7.602-7.606-3.585 0-6.587 2.48-7.392 5.82-.805-.747-1.877-1.203-3.058-1.203-1.651 0-3.098.89-3.876 2.214-.757-.328-1.587-.504-2.464-.504-3.436 0-6.224 2.785-6.224 6.222 0 3.436 2.788 6.223 6.224 6.223 1.46 0 2.801-.504 3.859-1.343 2.046 1.706 5.441 2.822 9.288 2.822 3.602 0 6.809-.98 8.879-2.505.917.747 2.088 1.193 3.364 1.193 2.944 0 5.326-2.383 5.326-5.324C2339.882 1503.34 2337.5 1500.955 2334.557 1500.955z" class="colorFFF svgShape"></path></g><g fill="#333232" class="color000 svgShape"><circle cx="486.59" cy="1041.64" r="182.266" fill="#4fb7e3" class="color30CFE1 svgShape"></circle><path fill="#f7f7f7" d="M536.466,866.338c64.295,28.161,109.235,92.319,109.235,167.003
					c0,100.664-81.601,182.265-182.267,182.265c-17.299,0-34.016-2.461-49.872-6.966c22.362,9.795,47.048,15.265,73.028,15.265
					c100.662,0,182.265-81.603,182.265-182.265C668.856,958.277,612.872,888.04,536.466,866.338z" class="colorCCC svgShape"></path><circle cx="490.441" cy="1002.971" r="61.755" fill="#ffffff" class="colorFFF svgShape"></circle><path fill="#ffffff" d="M547.079,1065.224c-4.971-3.88-11.913-3.747-16.8,0.241c-10.629,8.67-24.221,13.897-39.039,13.897
						c-14.334,0-27.528-4.882-37.991-13.092c-4.979-3.907-12.038-3.828-16.847,0.293c-12.457,10.683-20.041,26.088-20.041,46.112
						v1.805c0,10.355,8.393,18.753,18.75,18.753H550.51c10.357,0,18.75-8.398,18.75-18.753v-1.805
						C569.26,1091.796,560.785,1075.932,547.079,1065.224z" class="colorFFF svgShape"></path><g fill="#333232" class="color000 svgShape"><path fill="#ffffff" d="M486.591,1183.665c-78.315,0-142.025-63.71-142.025-142.025c0-78.317,63.71-142.025,142.025-142.025
					c78.311,0,142.025,63.708,142.025,142.025C628.616,1119.955,564.901,1183.665,486.591,1183.665z M486.591,909.147
					c-73.057,0-132.493,59.436-132.493,132.493c0,73.059,59.436,132.493,132.493,132.493c73.057,0,132.489-59.434,132.489-132.493
					C619.08,968.583,559.648,909.147,486.591,909.147z" class="colorFFF svgShape"></path></g></g><g fill="#333232" class="color000 svgShape"><path fill="#ffda82" d="M1235.714,425.626h-136.715c-9.718,0-17.595,7.878-17.595,17.598v136.711
					c0,9.721,7.876,17.6,17.595,17.6h136.715c9.718,0,17.595-7.879,17.595-17.6V443.224
					C1253.309,433.504,1245.432,425.626,1235.714,425.626z" class="colorFEBD48 svgShape"></path><path fill="#f7f7f7" d="M1239.411,426.021c1.775,2.749,2.818,6.021,2.818,9.54v136.715c0,9.718-7.876,17.596-17.595,17.596
					H1087.92c-1.266,0-2.502-0.139-3.694-0.396c3.138,4.847,8.574,8.061,14.773,8.061h136.715c9.718,0,17.595-7.879,17.595-17.6
					V443.224C1253.309,434.772,1247.354,427.717,1239.411,426.021z" class="colorCCC svgShape"></path><g fill="#333232" class="color000 svgShape"><polygon fill="#ffffff" points="1217.071 487.16 1203.271 480.807 1203.364 489.94 1122.51 489.94 1122.51 497.644 1203.443 497.644 1203.532 506.781 1217.199 500.148 1230.868 493.517" class="colorFFF svgShape"></polygon><polygon fill="#ffffff" points="1117.647 522.738 1131.442 516.383 1131.353 525.518 1212.203 525.518 1212.203 533.222 1131.274 533.222 1131.181 542.357 1117.514 535.724 1103.845 529.095" class="colorFFF svgShape"></polygon></g></g><g fill="#333232" class="color000 svgShape"><path fill="#fdb8a9" d="M650.484,1372.908h-142.73c-10.148,0-18.374,8.226-18.374,18.374v142.732
					c0,10.146,8.226,18.37,18.374,18.37h142.73c10.147,0,18.372-8.224,18.372-18.37v-142.732
					C668.856,1381.134,660.631,1372.908,650.484,1372.908z" class="colorFE8765 svgShape"></path><path fill="#f7f7f7" d="M654.341,1373.32c1.859,2.874,2.948,6.289,2.948,9.963v142.728c0,10.148-8.227,18.375-18.376,18.375
					H496.185c-1.324,0-2.612-0.145-3.857-0.411c3.272,5.058,8.952,8.409,15.426,8.409h142.73c10.147,0,18.372-8.224,18.372-18.37
					v-142.732C668.856,1382.46,662.631,1375.094,654.341,1373.32z" class="colorCCC svgShape"></path><g fill="#333232" class="color000 svgShape"><polygon fill="#ffffff" points="542.591 1488.267 533.203 1488.267 506.058 1461.123 530.982 1436.205 540.375 1436.205 515.448 1461.123" class="colorFFF svgShape"></polygon><polygon fill="#ffffff" points="653.147 1461.123 626.009 1488.267 616.615 1488.267 643.759 1461.123 618.837 1436.205 628.225 1436.205" class="colorFFF svgShape"></polygon><polygon fill="#ffffff" points="600.343 1436.205 566.771 1488.267 558.863 1488.267 592.442 1436.205" class="colorFFF svgShape"></polygon></g></g><g fill="#333232" class="color000 svgShape"><path fill="#fdb8a9" d="M2564.452,1146.78H2430.38c-9.536,0-17.262,7.724-17.262,17.255v134.075
					c0,9.533,7.726,17.26,17.262,17.26h134.072c9.532,0,17.258-7.727,17.258-17.26v-134.075
					C2581.71,1154.504,2573.984,1146.78,2564.452,1146.78z" class="colorFE8765 svgShape"></path><path fill="#f7f7f7" d="M2568.075,1147.163c1.747,2.697,2.768,5.907,2.768,9.357v134.076c0,9.531-7.724,17.258-17.256,17.258
					H2419.51c-1.241,0-2.451-0.137-3.618-0.388c3.071,4.753,8.405,7.903,14.488,7.903h134.072c9.532,0,17.258-7.727,17.258-17.26
					v-134.075C2581.71,1155.749,2575.866,1148.829,2568.075,1147.163z" class="colorCCC svgShape"></path><path fill="#ffffff" d="M2468.608,1281.375c-3.276,0-6.43-1.375-8.642-3.772c-2.021-2.189-3.004-4.963-2.776-7.819
					c0.249-3.094,0.641-6.092,1.016-8.989c1.071-8.191,1.996-15.259-0.821-20.368c-0.478-0.871-3.199-3.454-5.44-5.317l-2.315-1.929
					l2.349-1.888c2.486-1.992,4.983-4.411,5.352-5.17c3.008-6.336,1.604-13.343,0.478-18.974c-0.268-1.367-0.529-2.654-0.693-3.81
					c-0.388-2.745,0.457-5.473,2.376-7.681c2.224-2.562,5.599-4.089,9.031-4.089v4.93c-1.996,0-4.025,0.917-5.309,2.393
					c-0.689,0.788-1.45,2.081-1.214,3.757c0.146,1.017,0.389,2.241,0.648,3.536c1.199,6.008,2.846,14.239-0.863,22.053
					c-0.694,1.462-2.752,3.479-4.47,5.006c1.66,1.504,3.647,3.457,4.388,4.807c3.598,6.52,2.53,14.712,1.394,23.385
					c-0.371,2.836-0.753,5.768-0.991,8.741c-0.117,1.471,0.409,2.919,1.483,4.081c1.261,1.374,3.14,2.188,5.019,2.188V1281.375z" class="colorFFF svgShape"></path><g fill="#333232" class="color000 svgShape"><path fill="#ffffff" d="M2523.637,1281.375v-4.93c1.88,0,3.756-0.815,5.023-2.188c1.068-1.162,1.599-2.61,1.479-4.081
					c-0.24-2.973-0.62-5.905-0.991-8.741c-1.134-8.673-2.204-16.865,1.39-23.385c0.743-1.351,2.734-3.303,4.394-4.807
					c-1.722-1.527-3.778-3.544-4.47-5.006c-3.71-7.813-2.063-16.044-0.865-22.053c0.261-1.295,0.506-2.519,0.651-3.536
					c0.234-1.676-0.531-2.969-1.216-3.757c-1.282-1.475-3.315-2.393-5.307-2.393v-4.93c3.43,0,6.805,1.527,9.029,4.089
					c1.922,2.208,2.76,4.937,2.374,7.681c-0.163,1.156-0.423,2.442-0.693,3.81c-1.129,5.63-2.527,12.637,0.479,18.974
					c0.367,0.759,2.865,3.179,5.351,5.17l2.349,1.884l-2.313,1.933c-2.243,1.868-4.961,4.451-5.442,5.317
					c-2.818,5.109-1.89,12.177-0.822,20.368c0.378,2.897,0.772,5.895,1.015,8.989c0.231,2.856-0.757,5.63-2.772,7.819
					C2530.063,1279.999,2526.915,1281.375,2523.637,1281.375z" class="colorFFF svgShape"></path></g></g><g fill="#333232" class="color000 svgShape"><path fill="#fdb8a9" d="M2203.536,310.007h-148.417c-10.549,0-19.1,8.552-19.1,19.104v148.413
					c0,10.552,8.552,19.107,19.1,19.107h148.417c10.552,0,19.105-8.555,19.105-19.107V329.111
					C2222.641,318.559,2214.088,310.007,2203.536,310.007z" class="colorFE8765 svgShape"></path><path fill="#f7f7f7" d="M2207.548,310.436c1.934,2.986,3.063,6.534,3.063,10.355v148.416c0,10.55-8.552,19.106-19.105,19.106
					h-148.413c-1.378,0-2.716-0.153-4.012-0.43c3.406,5.26,9.309,8.748,16.038,8.748h148.417c10.552,0,19.105-8.555,19.105-19.107
					V329.111C2222.641,319.935,2216.172,312.281,2207.548,310.436z" class="colorCCC svgShape"></path><g fill="#333232" class="color000 svgShape"><polygon fill="#ffffff" points="2103.604 456.355 2082.415 456.355 2082.415 349.422 2103.604 349.422 2103.604 355.88 2088.875 355.88 2088.875 449.898 2103.604 449.898" class="colorFFF svgShape"></polygon><polygon fill="#ffffff" points="2181.295 456.355 2160.107 456.355 2160.107 449.898 2174.837 449.898 2174.837 355.88 2160.107 355.88 2160.107 349.422 2181.295 349.422" class="colorFFF svgShape"></polygon></g></g><g fill="#333232" class="color000 svgShape"><path fill="#a9e3f7" d="M2526.903,806.962c3.054-30.827,30.516-53.345,61.347-50.291c30.827,3.05,53.345,30.518,50.291,61.345
			c-3.05,30.827-30.518,53.345-61.344,50.292C2546.364,865.255,2523.853,837.789,2526.903,806.962z" class="colorFEB7A3 svgShape"></path><polygon fill="#ffffff" points="2614.811 796.872 2606.645 793.111 2606.696 798.518 2558.828 798.518 2558.828 803.078 2606.744 803.078 2606.798 808.487 2614.894 804.562 2622.981 800.634" class="colorFFF svgShape"></polygon><polygon fill="#ffffff" points="2555.943 817.938 2564.116 814.171 2564.063 819.581 2611.931 819.581 2611.931 824.143 2564.017 824.143 2563.96 829.552 2555.866 825.626 2547.777 821.701" class="colorFFF svgShape"></polygon></g><g fill="#333232" class="color000 svgShape"><path fill="#a9e3f7" d="M1674.601,231.991c3.05-30.83,30.517-53.345,61.346-50.293c30.827,3.052,53.343,30.518,50.293,61.347
			c-3.054,30.827-30.524,53.344-61.344,50.292C1694.064,290.284,1671.547,262.818,1674.601,231.991z" class="colorFEB7A3 svgShape"></path><polygon fill="#ffffff" points="1762.509 221.901 1754.338 218.138 1754.396 223.546 1706.523 223.546 1706.523 228.107 1754.442 228.107 1754.492 233.516 1762.588 229.588 1770.679 225.663" class="colorFFF svgShape"></polygon><polygon fill="#ffffff" points="1703.643 242.967 1711.81 239.203 1711.757 244.61 1759.627 244.61 1759.627 249.172 1711.71 249.172 1711.66 254.581 1703.564 250.656 1695.473 246.728" class="colorFFF svgShape"></polygon></g><g fill="#333232" class="color000 svgShape"><path fill="#a9e3f7" d="M268.979,690.179c3.054-30.83,30.52-53.345,61.349-50.293c30.827,3.054,53.344,30.518,50.29,61.345
			c-3.05,30.829-30.518,53.346-61.343,50.292C288.445,748.474,265.926,721.008,268.979,690.179z" class="colorFEB7A3 svgShape"></path><polygon fill="#ffffff" points="356.894 680.087 348.724 676.326 348.78 681.737 300.906 681.737 300.906 686.295 348.821 686.295 348.877 691.704 356.967 687.778 365.061 683.853" class="colorFFF svgShape"></polygon><polygon fill="#ffffff" points="298.027 701.152 306.193 697.389 306.139 702.798 354.012 702.798 354.012 707.36 306.095 707.36 306.043 712.767 297.95 708.846 289.856 704.916" class="colorFFF svgShape"></polygon></g><g fill="#333232" class="color000 svgShape"><path fill="#fddfa3" d="M807.592,258.104c3.054-30.83,30.522-53.349,61.347-50.293c30.831,3.05,53.347,30.516,50.296,61.345
			c-3.056,30.829-30.524,53.344-61.349,50.292C827.056,316.399,804.542,288.931,807.592,258.104z" class="colorFED791 svgShape"></path><path fill="#ffffff" d="M847.299 283.199c-.494 0-.987-.189-1.369-.567l-15.735-15.731c-.363-.367-.569-.86-.569-1.373 0-.515.205-1.008.569-1.371l15.735-15.733c.757-.755 1.983-.755 2.743 0 .755.759.755 1.983 0 2.743l-14.361 14.362 14.361 14.361c.755.757.755 1.986 0 2.743C848.295 283.01 847.795 283.199 847.299 283.199zM881.881 283.199c.492 0 .988-.189 1.368-.567l15.735-15.731c.364-.367.569-.86.569-1.373 0-.515-.205-1.008-.569-1.371l-15.735-15.733c-.758-.755-1.984-.755-2.741 0-.758.759-.758 1.983 0 2.743l14.359 14.362-14.359 14.361c-.758.757-.758 1.986 0 2.743C880.884 283.01 881.384 283.199 881.881 283.199zM856.808 283.199c-.255 0-.521-.052-.774-.16-.983-.428-1.429-1.571-.999-2.552l13.722-31.468c.427-.982 1.569-1.43 2.55-1 .984.427 1.434 1.568 1.004 2.55l-13.722 31.467C858.267 282.767 857.557 283.199 856.808 283.199z" class="colorFFF svgShape"></path></g><g fill="#333232" class="color000 svgShape"><path fill="#fddfa3" d="M2763.922,1230.943c3.05-30.827,30.516-53.344,61.343-50.291c30.831,3.052,53.344,30.518,50.294,61.345
			c-3.054,30.831-30.518,53.347-61.349,50.295C2783.383,1289.238,2760.865,1261.774,2763.922,1230.943z" class="colorFED791 svgShape"></path><path fill="#ffffff" d="M2803.628 1256.042c-.501 0-.994-.189-1.373-.568l-15.735-15.733c-.358-.363-.564-.857-.564-1.369 0-.517.206-1.01.564-1.372l15.735-15.735c.755-.757 1.983-.757 2.741 0 .757.756.757 1.986 0 2.741l-14.36 14.366 14.36 14.36c.757.757.757 1.987 0 2.743C2804.615 1255.853 2804.122 1256.042 2803.628 1256.042zM2838.2 1256.042c.5 0 .998-.189 1.374-.568l15.733-15.733c.366-.363.564-.857.564-1.369 0-.517-.198-1.01-.564-1.372l-15.733-15.735c-.758-.757-1.986-.757-2.737 0-.763.756-.763 1.986 0 2.741l14.36 14.366-14.36 14.36c-.763.757-.763 1.987 0 2.743C2837.213 1255.853 2837.709 1256.042 2838.2 1256.042zM2813.13 1256.042c-.254 0-.516-.052-.771-.16-.979-.432-1.429-1.575-1.002-2.554l13.725-31.466c.427-.983 1.569-1.434 2.552-1.006.979.432 1.43 1.575 1.002 2.554l-13.725 31.468C2814.595 1255.605 2813.882 1256.042 2813.13 1256.042z" class="colorFFF svgShape"></path></g><g fill="#333232" class="color000 svgShape"><path fill="#fddfa3" d="M2343.841,303.845c3.05-30.827,30.511-53.342,61.343-50.293c30.831,3.054,53.345,30.521,50.295,61.348
			c-3.054,30.829-30.518,53.347-61.349,50.292C2363.302,362.14,2340.785,334.674,2343.841,303.845z" class="colorFED791 svgShape"></path><path fill="#ffffff" d="M2383.548 328.943c-.501 0-.998-.187-1.373-.569l-15.735-15.73c-.363-.363-.568-.859-.568-1.374 0-.512.205-1.006.568-1.369l15.735-15.733c.755-.757 1.983-.757 2.741 0 .757.757.757 1.983 0 2.741l-14.36 14.361 14.36 14.36c.757.759.757 1.986 0 2.745C2384.536 328.756 2384.042 328.943 2383.548 328.943zM2418.124 328.943c.491 0 .994-.187 1.369-.569l15.733-15.73c.365-.363.568-.859.568-1.374 0-.512-.203-1.006-.568-1.369l-15.733-15.733c-.753-.757-1.986-.757-2.743 0-.758.757-.758 1.983 0 2.741l14.361 14.361-14.361 14.36c-.758.759-.758 1.986 0 2.745C2417.126 328.756 2417.628 328.943 2418.124 328.943zM2393.051 328.943c-.255 0-.521-.052-.772-.164-.979-.427-1.429-1.571-1.006-2.552l13.729-31.466c.427-.981 1.569-1.432 2.552-1 .98.428 1.43 1.569 1.002 2.552l-13.724 31.466C2394.515 328.507 2393.801 328.943 2393.051 328.943z" class="colorFFF svgShape"></path></g><g fill="#333232" class="color000 svgShape"><path fill="#9fd7f9" d="M530.315 354.216v62.769h-21.945c-10.344 0-18.733-8.389-18.733-18.729V372.97c0-10.341 8.389-18.754 18.733-18.754H530.315zM609.762 415.576c-7.527 8.534-71.173 1.409-71.173 1.409v-62.769c0 0 11.673-11.32 14.791-21.731 3.081-10.345 5.841-25.283 13.822-23.163 8.008 2.121 11.538 31.026 1.668 44.895 0 0 31.101-8.413 39.537.786C616.414 363.702 616.82 407.594 609.762 415.576z" class="colorACECF3 svgShape"></path></g><g fill="#333232" class="color000 svgShape"><path fill="#9fd7f9" d="M2685.553 567.07v62.768h21.943c10.344 0 18.735-8.386 18.735-18.729v-25.285c0-10.341-8.391-18.754-18.735-18.754H2685.553zM2606.106 628.431c7.529 8.534 71.175 1.407 71.175 1.407V567.07c0 0-11.675-11.318-14.793-21.733-3.081-10.338-5.843-25.279-13.824-23.159-8.005 2.121-11.536 31.024-1.665 44.892 0 0-31.101-8.409-39.537.789C2599.454 576.558 2599.047 620.452 2606.106 628.431z" class="colorACECF3 svgShape"></path></g><g fill="#333232" class="color000 svgShape"><path fill="#9fd7f9" d="M1481.532 315.953v62.768h21.945c10.34 0 18.729-8.392 18.729-18.731v-25.281c0-10.343-8.389-18.756-18.729-18.756H1481.532zM1402.084 377.317c7.529 8.529 71.179 1.404 71.179 1.404v-62.768c0 0-11.678-11.318-14.801-21.731-3.071-10.343-5.838-25.286-13.822-23.163-8.004 2.118-11.533 31.024-1.668 44.894 0 0-31.097-8.413-39.533.787C1395.43 325.437 1395.03 369.331 1402.084 377.317z" class="colorACECF3 svgShape"></path></g><path fill="#a9e3f7" d="M485.591 763.097l-3.629-18.516c-.06-.303-.291-.543-.596-.605l-18.432-4.004c-.826-.181-.813-1.359.012-1.523l18.515-3.623c.303-.061.544-.293.606-.598l4.004-18.437c.18-.822 1.361-.809 1.519.017l3.625 18.515c.06.303.295.544.597.61l18.439 4.004c.822.177.809 1.355-.017 1.519l-18.515 3.625c-.303.058-.544.292-.612.595l-4 18.437C486.929 763.936 485.748 763.923 485.591 763.097zM1900.359 405.152l-3.629-18.515c-.058-.303-.29-.54-.594-.606l-18.436-4.008c-.822-.176-.809-1.353.016-1.517l18.515-3.627c.303-.056.544-.292.606-.593l4.004-18.437c.179-.824 1.361-.811 1.523.015l3.623 18.515c.058.307.29.544.595.608l18.435 4.006c.821.176.811 1.355-.013 1.519l-18.515 3.623c-.303.063-.544.294-.608.6l-4.009 18.434C1901.693 405.99 1900.519 405.978 1900.359 405.152zM2589.901 380.883l-3.622-18.513c-.061-.307-.295-.545-.596-.612l-18.439-4.003c-.825-.18-.806-1.358.02-1.518l18.508-3.623c.31-.062.548-.298.613-.6l4.004-18.436c.181-.82 1.355-.807 1.519.019l3.625 18.513c.058.301.294.542.597.608l18.432 4.004c.826.178.814 1.356-.016 1.519l-18.515 3.623c-.299.063-.537.295-.606.598l-4.004 18.435C2591.246 381.719 2590.063 381.709 2589.901 380.883zM2530.341 1003.503l-3.625-18.515c-.058-.301-.294-.542-.594-.608l-18.436-4.004c-.826-.178-.809-1.355.012-1.515l18.516-3.626c.307-.06.547-.295.61-.598l4.004-18.435c.181-.823 1.358-.813 1.519.015l3.623 18.515c.062.303.297.544.599.61l18.435 4c.821.18.809 1.359-.017 1.523l-18.516 3.623c-.299.06-.539.294-.608.597l-4.004 18.435C2531.678 1004.342 2530.505 1004.332 2530.341 1003.503zM1190.625 262.847l-3.626-18.516c-.056-.305-.29-.543-.593-.61l-18.434-4.004c-.826-.178-.814-1.356.012-1.516l18.513-3.627c.305-.056.544-.292.61-.595l4.009-18.437c.175-.823 1.355-.809 1.513.017l3.629 18.515c.053.303.291.541.594.608l18.438 4.004c.82.176.808 1.356-.018 1.517l-18.513 3.626c-.305.059-.539.292-.608.596l-4.004 18.434C1191.965 263.684 1190.783 263.67 1190.625 262.847zM161.739 1379.348l-3.623-18.513c-.06-.301-.29-.542-.599-.61l-18.432-4.004c-.822-.176-.813-1.355.017-1.519l18.515-3.623c.299-.06.537-.292.608-.595l4.002-18.437c.181-.821 1.357-.812 1.519.014l3.625 18.514c.058.303.294.545.593.61l18.438 4.004c.822.178.812 1.357-.014 1.519l-18.513 3.622c-.305.06-.544.297-.612.596l-4.004 18.438C163.079 1380.186 161.902 1380.173 161.739 1379.348z" class="colorFEB7A3 svgShape"></path></svg></g></svg>