<svg id="visual" viewBox="0 0 1920 969" width="1920" height="969" xmlns="http://www.w3.org/2000/svg" xmlns:xlink="http://www.w3.org/1999/xlink" version="1.1"><rect x="0" y="0" width="1920" height="969" fill="#4fb7e3"></rect><g transform="translate(-97.02193304300903 1005.5712701001635)"><path d="M300.3 -434.7C477 -418.2 768.5 -515.1 895.8 -461.5C1023 -408 986 -204 1036.6 29.2C1087.2 262.4 1225.4 524.9 1092.5 568.6C959.6 612.3 555.6 437.4 328.3 306.2C101 174.9 50.5 87.5 -20.5 123C-91.5 158.5 -183 317 -360.8 419.6C-538.6 522.3 -802.8 569.1 -784.4 489.9C-766 410.7 -465 205.3 -505 -23.1C-544.9 -251.5 -925.9 -503 -953 -597.3C-980.1 -691.5 -653.3 -628.5 -435.5 -621.3C-217.7 -614 -108.8 -662.5 -23.5 -621.8C61.8 -581.1 123.7 -451.2 300.3 -434.7" fill="#fff"></path></g></svg>