<svg id="visual" viewBox="0 0 1920 710" width="1920" height="710" xmlns="http://www.w3.org/2000/svg" xmlns:xlink="http://www.w3.org/1999/xlink" version="1.1"><path d="M0 79L274 72L549 86L823 72L1097 79L1371 65L1646 65L1920 37L1920 0L1646 0L1371 0L1097 0L823 0L549 0L274 0L0 0Z" fill="#ffffff"></path><path d="M0 193L274 193L549 150L823 122L1097 150L1371 108L1646 164L1920 93L1920 35L1646 63L1371 63L1097 77L823 70L549 84L274 70L0 77Z" fill="#e6f3fa"></path><path d="M0 306L274 406L549 249L823 321L1097 292L1371 349L1646 313L1920 285L1920 91L1646 162L1371 106L1097 148L823 120L549 148L274 191L0 191Z" fill="#cde7f6"></path><path d="M0 356L274 555L549 313L823 392L1097 370L1371 427L1646 441L1920 384L1920 283L1646 311L1371 347L1097 290L823 319L549 247L274 404L0 304Z" fill="#b2dbf1"></path><path d="M0 392L274 590L549 342L823 463L1097 434L1371 526L1646 526L1920 441L1920 382L1646 439L1371 425L1097 368L823 390L549 311L274 553L0 354Z" fill="#95cfec"></path><path d="M0 640L274 683L549 647L823 654L1097 668L1371 654L1646 654L1920 640L1920 439L1646 524L1371 524L1097 432L823 461L549 340L274 588L0 390Z" fill="#76c3e8"></path><path d="M0 711L274 711L549 711L823 711L1097 711L1371 711L1646 711L1920 711L1920 638L1646 652L1371 652L1097 666L823 652L549 645L274 681L0 638Z" fill="#4fb7e3"></path></svg>