<svg id="visual" viewBox="0 0 1920 710" width="1920" height="710" xmlns="http://www.w3.org/2000/svg" xmlns:xlink="http://www.w3.org/1999/xlink" version="1.1"><rect x="0" y="0" width="1920" height="710" fill="#4fb7e3"></rect><defs><linearGradient id="grad1_0" x1="63%" y1="0%" x2="100%" y2="100%"><stop offset="-4.08450704225352%" stop-color="#ffffff" stop-opacity="1"></stop><stop offset="104.0845070422535%" stop-color="#ffffff" stop-opacity="1"></stop></linearGradient></defs><defs><linearGradient id="grad1_1" x1="63%" y1="0%" x2="100%" y2="100%"><stop offset="-4.08450704225352%" stop-color="#ffffff" stop-opacity="1"></stop><stop offset="104.0845070422535%" stop-color="#cce7f6" stop-opacity="1"></stop></linearGradient></defs><defs><linearGradient id="grad1_2" x1="63%" y1="0%" x2="100%" y2="100%"><stop offset="-4.08450704225352%" stop-color="#95cfed" stop-opacity="1"></stop><stop offset="104.0845070422535%" stop-color="#cce7f6" stop-opacity="1"></stop></linearGradient></defs><defs><linearGradient id="grad1_3" x1="63%" y1="0%" x2="100%" y2="100%"><stop offset="-4.08450704225352%" stop-color="#95cfed" stop-opacity="1"></stop><stop offset="104.0845070422535%" stop-color="#4fb7e3" stop-opacity="1"></stop></linearGradient></defs><defs><linearGradient id="grad2_0" x1="0%" y1="0%" x2="37%" y2="100%"><stop offset="-4.08450704225352%" stop-color="#ffffff" stop-opacity="1"></stop><stop offset="104.0845070422535%" stop-color="#ffffff" stop-opacity="1"></stop></linearGradient></defs><defs><linearGradient id="grad2_1" x1="0%" y1="0%" x2="37%" y2="100%"><stop offset="-4.08450704225352%" stop-color="#cce7f6" stop-opacity="1"></stop><stop offset="104.0845070422535%" stop-color="#ffffff" stop-opacity="1"></stop></linearGradient></defs><defs><linearGradient id="grad2_2" x1="0%" y1="0%" x2="37%" y2="100%"><stop offset="-4.08450704225352%" stop-color="#cce7f6" stop-opacity="1"></stop><stop offset="104.0845070422535%" stop-color="#95cfed" stop-opacity="1"></stop></linearGradient></defs><defs><linearGradient id="grad2_3" x1="0%" y1="0%" x2="37%" y2="100%"><stop offset="-4.08450704225352%" stop-color="#4fb7e3" stop-opacity="1"></stop><stop offset="104.0845070422535%" stop-color="#95cfed" stop-opacity="1"></stop></linearGradient></defs><g transform="translate(1920, 0)"><path d="M0 639C-66.3 630.8 -132.6 622.6 -196.2 603.9C-259.9 585.3 -320.9 556.2 -375.6 517C-430.3 477.7 -478.6 428.4 -512.1 372.1C-545.6 315.8 -564.3 252.6 -583 189.4C-601.7 126.3 -620.3 63.1 -639 0L0 0Z" fill="#76c3e8"></path><path d="M0 479.3C-49.7 473.1 -99.4 466.9 -147.2 452.9C-194.9 439 -240.7 417.1 -281.7 387.7C-322.7 358.3 -358.9 321.3 -384.1 279.1C-409.2 236.8 -423.2 189.4 -437.2 142.1C-451.3 94.7 -465.3 47.3 -479.2 0L0 0Z" fill="#b2dbf1"></path><path d="M0 319.5C-33.1 315.4 -66.3 311.3 -98.1 302C-129.9 292.6 -160.5 278.1 -187.8 258.5C-215.1 238.9 -239.3 214.2 -256.1 186C-272.8 157.9 -282.2 126.3 -291.5 94.7C-300.8 63.1 -310.2 31.6 -319.5 0L0 0Z" fill="#e6f3fa"></path><path d="M0 159.8C-16.6 157.7 -33.1 155.6 -49.1 151C-65 146.3 -80.2 139 -93.9 129.2C-107.6 119.4 -119.6 107.1 -128 93C-136.4 78.9 -141.1 63.1 -145.7 47.4C-150.4 31.6 -155.1 15.8 -159.7 0L0 0Z" fill="#ffffff"></path></g><g transform="translate(0, 710)"><path d="M0 -639C66 -626.8 132.1 -614.6 191.9 -590.6C251.7 -566.7 305.4 -531 359.1 -494.3C412.9 -457.6 466.7 -420 510.5 -370.9C554.3 -321.8 588 -261.2 607.7 -197.5C627.5 -133.7 633.2 -66.9 639 0L0 0Z" fill="#76c3e8"></path><path d="M0 -479.2C49.5 -470.1 99 -460.9 143.9 -443C188.8 -425 229 -398.2 269.4 -370.7C309.7 -343.2 350 -315 382.9 -278.2C415.7 -241.3 441 -195.9 455.8 -148.1C470.6 -100.3 474.9 -50.2 479.3 0L0 0Z" fill="#b2dbf1"></path><path d="M0 -319.5C33 -313.4 66 -307.3 95.9 -295.3C125.9 -283.3 152.7 -265.5 179.6 -247.2C206.4 -228.8 233.4 -210 255.2 -185.4C277.1 -160.9 294 -130.6 303.9 -98.7C313.7 -66.9 316.6 -33.4 319.5 0L0 0Z" fill="#e6f3fa"></path><path d="M0 -159.7C16.5 -156.7 33 -153.6 48 -147.7C62.9 -141.7 76.3 -132.7 89.8 -123.6C103.2 -114.4 116.7 -105 127.6 -92.7C138.6 -80.4 147 -65.3 151.9 -49.4C156.9 -33.4 158.3 -16.7 159.8 0L0 0Z" fill="#ffffff"></path></g></svg>