<svg id="visual" viewBox="0 0 1916 233" width="1916" height="233" xmlns="http://www.w3.org/2000/svg" xmlns:xlink="http://www.w3.org/1999/xlink" version="1.1"><g stroke-width="1" stroke-linejoin="bevel"><path d="M1076.4 115.5L1287.3 0L1045.4 0Z" fill="#f6f6f6" stroke="#f6f6f6"></path><path d="M1076.4 115.5L1271.3 127.5L1287.3 0Z" fill="#f8f8f8" stroke="#f8f8f8"></path><path d="M1076.4 115.5L1287.3 233L1271.3 127.5Z" fill="#f7f7f7" stroke="#f7f7f7"></path><path d="M1500.2 139.5L1509.2 0L1287.3 0Z" fill="#fefefe" stroke="#fefefe"></path><path d="M862.6 233L1041.4 233L1076.4 115.5Z" fill="#ffffff" stroke="#ffffff"></path><path d="M1076.4 115.5L1041.4 233L1287.3 233Z" fill="#fcfcfc" stroke="#fcfcfc"></path><path d="M1045.4 0L820.6 102.5L1076.4 115.5Z" fill="#fdfdfd" stroke="#fdfdfd"></path><path d="M1500.2 139.5L1287.3 0L1271.3 127.5Z" fill="#fbfbfb" stroke="#fbfbfb"></path><path d="M1471.2 233L1500.2 139.5L1271.3 127.5Z" fill="#f8f8f8" stroke="#f8f8f8"></path><path d="M843.6 0L820.6 102.5L1045.4 0Z" fill="#fbfbfb" stroke="#fbfbfb"></path><path d="M820.6 102.5L862.6 233L1076.4 115.5Z" fill="#fdfdfd" stroke="#fdfdfd"></path><path d="M1287.3 233L1471.2 233L1271.3 127.5Z" fill="#fefefe" stroke="#fefefe"></path><path d="M1708.1 233L1664.1 87.5L1500.2 139.5Z" fill="#fafafa" stroke="#fafafa"></path><path d="M1500.2 139.5L1664.1 87.5L1509.2 0Z" fill="#fdfdfd" stroke="#fdfdfd"></path><path d="M1664.1 87.5L1667.1 0L1509.2 0Z" fill="#f9f9f9" stroke="#f9f9f9"></path><path d="M843.6 0L628.7 0L820.6 102.5Z" fill="#fefefe" stroke="#fefefe"></path><path d="M820.6 102.5L650.7 233L862.6 233Z" fill="#f6f6f6" stroke="#f6f6f6"></path><path d="M616.7 115.5L650.7 233L820.6 102.5Z" fill="#f8f8f8" stroke="#f8f8f8"></path><path d="M628.7 0L616.7 115.5L820.6 102.5Z" fill="#ffffff" stroke="#ffffff"></path><path d="M1471.2 233L1708.1 233L1500.2 139.5Z" fill="#ffffff" stroke="#ffffff"></path><path d="M1916 92.5L1916 0L1667.1 0Z" fill="#fdfdfd" stroke="#fdfdfd"></path><path d="M628.7 0L429.8 111.5L616.7 115.5Z" fill="#ffffff" stroke="#ffffff"></path><path d="M616.7 115.5L403.8 233L650.7 233Z" fill="#ffffff" stroke="#ffffff"></path><path d="M1916 92.5L1667.1 0L1664.1 87.5Z" fill="#f6f6f6" stroke="#f6f6f6"></path><path d="M1708.1 233L1916 92.5L1664.1 87.5Z" fill="#fbfbfb" stroke="#fbfbfb"></path><path d="M628.7 0L390.8 0L429.8 111.5Z" fill="#f6f6f6" stroke="#f6f6f6"></path><path d="M1708.1 233L1916 233L1916 92.5Z" fill="#f9f9f9" stroke="#f9f9f9"></path><path d="M236.9 125.5L403.8 233L429.8 111.5Z" fill="#fbfbfb" stroke="#fbfbfb"></path><path d="M429.8 111.5L403.8 233L616.7 115.5Z" fill="#fafafa" stroke="#fafafa"></path><path d="M390.8 0L236.9 125.5L429.8 111.5Z" fill="#fafafa" stroke="#fafafa"></path><path d="M390.8 0L209.9 0L236.9 125.5Z" fill="#fafafa" stroke="#fafafa"></path><path d="M0 119.5L201.9 233L236.9 125.5Z" fill="#f8f8f8" stroke="#f8f8f8"></path><path d="M236.9 125.5L201.9 233L403.8 233Z" fill="#ffffff" stroke="#ffffff"></path><path d="M209.9 0L0 119.5L236.9 125.5Z" fill="#f7f7f7" stroke="#f7f7f7"></path><path d="M0 0L0 119.5L209.9 0Z" fill="#fefefe" stroke="#fefefe"></path><path d="M0 119.5L0 233L201.9 233Z" fill="#f8f8f8" stroke="#f8f8f8"></path></g></svg>