<svg id="SvgjsSvg1001" width="360" height="360" xmlns="http://www.w3.org/2000/svg" version="1.1" xmlns:xlink="http://www.w3.org/1999/xlink" xmlns:svgjs="http://svgjs.com/svgjs"><defs id="SvgjsDefs1002"></defs><g id="SvgjsG1008"><svg xmlns="http://www.w3.org/2000/svg" enable-background="new 0 0 1364 960" viewBox="0 0 1364 960" width="360" height="360"><path fill="#fff2e6" d="M1255.546,797.773c-1.95-24.054-46.158-43.557-101.417-41.502l-888.817-8.353
	c-25.529,0.102-150.338,8.368-146.742,37.513c2.737,22.178,32.117,25.539,52.918,27.433
	c115.152,10.487,253.244-4.153,367.638,20.015c46.158,9.752-49.611,20.938,32.505,29.905
	c113.119,12.352,314.653-26.654,442.371-14.782C1072.316,853.422,1261.065,865.846,1255.546,797.773z" class="colorF5ECE4 svgShape"></path><ellipse cx="442.736" cy="793.898" fill="#fff2e6" rx="148.304" ry="11.63" class="colorF5ECE4 svgShape"></ellipse><ellipse cx="851.111" cy="805.528" fill="#fff2e6" rx="93.02" ry="11.63" class="colorF5ECE4 svgShape"></ellipse><path fill="#fbc499" d="M186.717 652.047c-1.86-2.784-.353-6.831 2.441-8.663 2.794-1.833 6.396-1.922 9.718-1.471 5.374.729 10.108 2.538 14.971 4.646-3.379-3.726-6.622-7.574-9.734-11.51-2.058-2.603-4.059-5.255-6.004-7.949-6.29 4.14-13.836 6.356-21.367 6.25-2.855-.041-6.074-.62-7.653-2.998-1.846-2.778-.338-6.824 2.446-8.661 2.784-1.836 6.369-1.933 9.674-1.489 5.55.746 10.412 2.656 15.442 4.855-5.898-8.37-11.211-17.16-15.721-26.345-6.794 2.984-14.473 3.933-21.783 2.652-2.812-.492-5.899-1.575-7.081-4.173-1.381-3.036.749-6.792 3.789-8.163 3.04-1.372 6.594-.899 9.788.064 5.174 1.56 9.543 4.088 13.993 6.932-4.601-9.757-8.48-20.298-9.175-31.094-.015-.224-.019-.45-.032-.675-7.215 2.055-15.047 1.916-22.179-.421-2.713-.889-5.614-2.401-6.413-5.141-.934-3.202 1.711-6.616 4.916-7.539 3.204-.924 6.654.052 9.678 1.461 5.327 2.482 9.548 5.962 13.91 9.769-.463-12.493 1.375-25.125.483-37.583-7.318 2.167-15.294 2.068-22.548-.31-2.713-.889-5.614-2.401-6.413-5.142-.934-3.202 1.711-6.615 4.915-7.539 3.205-.924 6.655.052 9.678 1.461 5.47 2.549 9.774 6.149 14.262 10.078-.278-3.109-.737-6.206-1.463-9.287-1.469-6.238-4.261-12.1-7.966-17.394-6.604 4.165-14.518 6.227-22.315 5.789-2.85-.161-6.043-.875-7.521-3.317-1.727-2.853-.051-6.833 2.808-8.551 2.859-1.718 6.444-1.664 9.728-1.081 6.022 1.068 11.165 3.488 16.593 6.171-6.156-8.418-14.63-15.315-23.756-19.851-6.408 3.021-13.672 4.219-20.708 3.372-2.835-.342-5.975-1.257-7.295-3.788-1.542-2.958.384-6.823 3.346-8.355 2.962-1.532 6.537-1.25 9.777-.46 5.169 1.261 9.608 3.501 14.13 6.051.193-.005.398.032.612.132 7.854 3.686 14.913 8.976 20.85 15.288 1.309 1.392 2.574 2.839 3.784 4.332-1.995-6.597-2.175-13.741-.462-20.419.71-2.765 2.03-5.759 4.712-6.736 3.134-1.141 6.713 1.274 7.844 4.412 1.131 3.137.383 6.644-.824 9.753-2.253 5.798-5.702 10.434-9.46 15.33 2.399 3.243 4.494 6.706 6.065 10.416 2.379 5.618 3.579 11.459 4.128 17.399 1.153-7.015 4.304-13.698 9.021-19.02 1.894-2.136 4.434-4.198 7.266-3.843 3.309.415 5.391 4.198 4.966 7.506-.425 3.308-2.691 6.086-5.185 8.301-4.779 4.244-10.121 6.82-15.873 9.54.622 9.822-.331 19.87-.535 29.604-.064 3.064-.042 6.107.145 9.134.865-7.671 4.13-15.058 9.243-20.842 1.891-2.139 4.428-4.203 7.261-3.852 3.31.411 5.397 4.191 4.975 7.499-.421 3.308-2.683 6.09-5.174 8.308-4.882 4.347-10.355 6.95-16.254 9.748.234 3.224.672 6.428 1.429 9.617 1.384 5.833 3.43 11.501 5.807 16.999.632 1.462 1.291 2.912 1.97 4.354.118-6.999 2.201-13.964 5.983-19.857 1.542-2.402 3.734-4.83 6.587-4.916 3.334-.1 5.974 3.318 6.063 6.651.089 3.334-1.722 6.429-3.845 9.001-3.922 4.753-8.6 8.054-13.65 11.488 4.407 8.973 9.668 17.546 15.44 25.708-1.675-7.112-1.259-14.709 1.226-21.582.971-2.684 2.571-5.538 5.334-6.254 3.228-.836 6.561 1.91 7.386 5.141.827 3.231-.253 6.65-1.753 9.63-2.846 5.653-6.809 9.99-11.102 14.592.774 1.076 1.554 2.147 2.343 3.208 4.336 5.825 8.953 11.476 13.868 16.851-1.525-6.951-1.066-14.334 1.355-21.028.971-2.685 2.57-5.538 5.334-6.255 3.228-.836 6.561 1.911 7.387 5.142.826 3.231-.254 6.65-1.753 9.629-2.768 5.498-6.592 9.751-10.748 14.213 5.676 6.061 11.744 11.749 18.238 16.905 1.353 1.075-.406 3.098-1.757 2.026-6.558-5.207-12.674-10.965-18.4-17.088-6.324 4.153-13.922 6.369-21.511 6.247C191.545 655.016 188.309 654.43 186.717 652.047zM183.878 767.509c3.05 4.191 12.497 1.782 16.48.756 4.516-1.171 11.26-3.663 20.535-11.313 4.777-3.946 11.147-9.2 16.744-17.524.237-.367.485-.726.718-1.11.793-1.219 1.557-2.49 2.297-3.842 2.091-3.823 15.488-28.248 5.106-47.434-.492-.917-6.706-12.155-13.394-11.374-8.315.975-11.525 19.872-15.333 19.156-1.89-.356-1.609-5.092-3.222-10.714-3.602-12.583-15.719-26.319-27.24-25.164-5.449.544-10.917 4.446-13.256 9.977-3.76 8.918 6.025 19.777 5.017 20.446-1.434.938-13.67-24.52-29.667-24.718-5.637-.067-12.221 2.985-13.694 7.54-2.181 6.699 7.54 13.855 5.551 16.576-2.105 2.866-12.577-5.529-27.095-3.823-3.72.435-12.351 1.45-16.12 7.985-3.283 5.666-2.125 13.577 2.127 18.468 3.939 4.531 9.546 5.316 11.06 5.494 9.94 1.254 13.728-6.006 29.717-9.218 5.59-1.121 11.932-1.61 12.615.193.517 1.368-2.657 2.758-4.967 7.201-.049.094-.121.221-.208.418-.688 1.371-3.12 6.292-1.424 11.187.07.225 1.987 5.545 6.193 6.407 2.17.438 4.025-.482 4.872-.894 8.215-3.95 19.689-6.341 20.438-5.006.859 1.524-12.425 7.773-11.356 13.391.887 4.673 11.19 6.306 12.5 6.503 11.088 1.661 20.591-3.343 20.883-2.579.271.7-8.25 2.721-13.237 9.974C184.185 757.848 181.414 764.124 183.878 767.509z" class="colorF7D2BA svgShape"></path><path fill="#ffffff" d="M174.07,722.053c0.365,0.123,0.676-0.096,0.839-0.401c1.253-2.491,3.421-4.447,5.971-5.514
	c0.055-0.01,0.085-0.054,0.118-0.078c0.188-0.063,0.376-0.126,0.564-0.189c3.823-1.377,7.818-2.956,11.948-2.146
	c0.021,0.015,0.047,0.001,0.066-0.003c0.025,0.034,0.051,0.067,0.072,0.082c0.544,0.375,1.211,0.595,1.867,0.646
	c3.196,1.883,6.339,3.843,9.479,5.832c-2.196,0.717-4.592,0.862-6.846,0.335c-0.347-0.079-0.704,0.044-0.838,0.401
	c-0.104,0.314,0.062,0.748,0.408,0.828c2.79,0.656,5.693,0.474,8.366-0.539c0.107-0.038,0.182-0.1,0.241-0.187
	c3.604,2.294,7.193,4.608,10.808,6.862c3.652,2.294,7.359,4.53,11.127,6.632c-2.654,1.845-5.31,3.834-8.199,5.277
	c-2.82,1.411-6.361,2.099-9.146,0.225c-0.703-0.469-1.446,0.608-0.75,1.088c2.144,1.43,4.703,1.607,7.131,1.066
	c-1.14,2.072-1.916,4.313-2.235,6.662c-0.112,0.838,1.206,0.928,1.311,0.101c0.348-2.553,1.248-4.999,2.657-7.157
	c0.03-0.044,0.031-0.091,0.05-0.142c0.276-0.099,0.535-0.194,0.797-0.318c1.687-0.746,3.239-1.763,4.769-2.795
	c1.634-1.088,3.272-2.206,4.902-3.313c2.653,1.461,5.348,2.837,8.091,4.12c0.237-0.367,0.485-0.726,0.718-1.11
	c-1.11-0.509-2.216-1.047-3.315-1.596c0.637-1.504,0.099-3.191-0.625-4.541c-0.74-1.394-1.828-2.819-1.637-4.469
	c0.083-0.842-1.217-0.936-1.311-0.102c-0.184,1.687,0.657,3.167,1.468,4.576c0.663,1.18,1.366,2.581,0.92,3.926
	c-1.331-0.677-2.658-1.384-3.977-2.101l-0.011-0.008c-4.648-2.548-9.175-5.318-13.657-8.153c0.011-0.04,0.023-0.08,0.024-0.128
	c-0.272-4.796-2.878-9.001-5.785-12.676c-0.374-0.483-0.773-0.95-1.154-1.423c0.041-0.083,0.083-0.167,0.088-0.244
	c3.379-3.432,5.981-7.53,7.621-12.049c0.291-0.795-0.938-1.225-1.228-0.431c-1.594,4.359-4.106,8.327-7.377,11.625
	c0,0,0,0-0.007,0.011c-1.061-1.278-2.122-2.555-3.109-3.895c-1.411-1.888-2.669-3.928-2.836-6.339
	c-0.049-0.837-1.343-0.59-1.287,0.236c0.154,2.29,1.258,4.32,2.546,6.154c1.53,2.18,3.284,4.176,4.964,6.233
	c2.869,3.52,5.567,7.452,6.154,12.047c-0.871-0.552-1.731-1.098-2.591-1.643c-9.838-6.289-19.678-12.691-30.312-17.57
	c-0.251-0.125-0.517-0.228-0.776-0.342c-0.67-1.217-1.332-2.444-1.991-3.653c-0.417-0.769-1.054-1.754-0.746-2.665
	c0.251-0.807-0.985-1.225-1.247-0.427c-0.374,1.171,0.092,2.31,0.643,3.35c0.459,0.846,0.93,1.701,1.389,2.547
	c-4.544-1.93-9.225-3.569-14.012-4.753c0.004-0.029,0.011-0.04,0.015-0.069c-0.042-1.988-1.004-3.71-2.252-5.23
	c-1.359-1.66-3.063-3.076-4.081-4.999c-0.395-0.754-1.584-0.193-1.189,0.56c0.964,1.838,2.475,3.232,3.839,4.768
	c1.142,1.3,2.253,2.854,2.364,4.649c-4.226-0.972-8.52-1.59-12.861-1.743c-0.85-0.025-0.952,1.286-0.102,1.311
	c1.349,0.047,2.692,0.123,4.028,0.258c10.969,1.065,21.472,4.97,31.239,9.941c1.836,0.946,3.672,1.94,5.473,2.958
	c-3.224-0.121-6.396,0.917-9.416,2.013c-3.735,1.341-7.773,2.89-11.798,1.928c-0.815-0.193-1.252,1.047-0.426,1.247
	c2.224,0.523,4.429,0.374,6.599-0.071c-1.205,1.096-2.209,2.41-2.947,3.876C173.51,721.538,173.775,721.946,174.07,722.053z" class="colorFFF svgShape"></path><path fill="#fbc499" d="M636.205,300.283c-1.359-2.258-0.023-5.383,2.242-6.719c2.265-1.337,5.1-1.273,7.695-0.795
	c4.198,0.773,7.852,2.371,11.597,4.21c-2.518-3.055-4.924-6.201-7.224-9.411c-1.521-2.123-2.996-4.282-4.424-6.473
	c-5.099,3.021-11.113,4.482-17.03,4.118c-2.243-0.138-4.752-0.714-5.905-2.642c-1.348-2.253-0.012-5.378,2.245-6.718
	c2.257-1.34,5.079-1.282,7.661-0.81c4.336,0.793,8.087,2.475,11.96,4.391c-4.326-6.8-8.175-13.908-11.379-21.296
	c-5.452,2.093-11.524,2.553-17.224,1.274c-2.192-0.492-4.579-1.458-5.412-3.545c-0.973-2.438,0.841-5.312,3.283-6.276
	c2.441-0.965,5.217-0.462,7.692,0.414c4.01,1.419,7.351,3.569,10.743,5.97c-3.254-7.841-5.911-16.273-6.056-24.786
	c-0.003-0.177,0.002-0.355,0-0.532c-5.749,1.347-11.901,0.947-17.42-1.156c-2.1-0.8-4.324-2.097-4.85-4.281
	c-0.615-2.552,1.591-5.137,4.145-5.744c2.554-0.607,5.23,0.288,7.554,1.508c4.095,2.149,7.284,5.042,10.572,8.198
	c0.101-9.839,2.016-19.702,1.778-29.528c-5.834,1.431-12.101,1.056-17.715-1.083c-2.1-0.8-4.324-2.096-4.85-4.281
	c-0.615-2.552,1.591-5.137,4.145-5.744c2.554-0.607,5.23,0.288,7.554,1.508c4.206,2.207,7.455,5.198,10.838,8.453
	c-0.103-2.455-0.349-4.907-0.805-7.356c-0.923-4.959-2.899-9.671-5.615-13.971c-5.347,3.029-11.645,4.356-17.759,3.721
	c-2.235-0.232-4.718-0.913-5.789-2.888c-1.251-2.307,0.214-5.374,2.526-6.618c2.311-1.244,5.128-1.068,7.688-0.488
	c4.695,1.064,8.648,3.158,12.815,5.469c-4.527-6.847-10.932-12.585-17.937-16.49c-5.15,2.136-10.906,2.808-16.406,1.881
	c-2.216-0.374-4.65-1.211-5.594-3.25c-1.102-2.383,0.556-5.349,2.941-6.444c2.386-1.094,5.186-0.74,7.703,0.002
	c4.017,1.184,7.424,3.11,10.883,5.283c0.152,0.003,0.312,0.04,0.476,0.126c6.037,3.19,11.391,7.611,15.823,12.795
	c0.977,1.143,1.918,2.327,2.814,3.546c-1.323-5.26-1.199-10.884,0.397-16.07c0.661-2.148,1.81-4.452,3.955-5.12
	c2.506-0.781,5.23,1.252,6.002,3.76c0.773,2.509,0.054,5.238-1.011,7.637c-1.987,4.475-4.871,7.991-8.008,11.7
	c1.765,2.639,3.284,5.439,4.38,8.414c1.661,4.506,2.387,9.142,2.598,13.832c1.167-5.472,3.894-10.609,7.8-14.617
	c1.568-1.609,3.642-3.135,5.855-2.751c2.586,0.449,4.082,3.501,3.625,6.086c-0.457,2.585-2.342,4.685-4.385,6.333
	c-3.915,3.158-8.21,4.985-12.834,6.909c0.124,7.745-1,15.609-1.522,23.254c-0.164,2.407-0.26,4.8-0.226,7.186
	c0.965-5.999,3.807-11.684,8.042-16.041c1.566-1.611,3.638-3.14,5.852-2.758c2.587,0.446,4.087,3.496,3.633,6.081
	c-0.454,2.585-2.336,4.688-4.377,6.339c-4,3.236-8.399,5.078-13.141,7.059c0.064,2.543,0.289,5.079,0.766,7.614
	c0.871,4.637,2.269,9.17,3.932,13.58c0.442,1.173,0.907,2.338,1.386,3.496c0.354-5.498,2.25-10.896,5.443-15.389
	c1.302-1.831,3.116-3.658,5.362-3.619c2.625,0.046,4.573,2.83,4.519,5.455c-0.054,2.624-1.593,4.99-3.358,6.933
	c-3.26,3.591-7.061,6.012-11.158,8.523c3.131,7.218,6.948,14.154,11.182,20.785c-1.052-5.653-0.442-11.611,1.767-16.921
	c0.863-2.074,2.227-4.259,4.426-4.718c2.569-0.537,5.086,1.746,5.616,4.317c0.529,2.571-0.446,5.219-1.736,7.505
	c-2.448,4.339-5.725,7.601-9.271,11.059c0.568,0.875,1.142,1.746,1.723,2.61c3.192,4.741,6.612,9.355,10.275,13.764
	c-0.94-5.521-0.305-11.308,1.848-16.481c0.863-2.075,2.227-4.258,4.426-4.719c2.569-0.537,5.087,1.746,5.616,4.317
	c0.529,2.571-0.447,5.219-1.737,7.505c-2.381,4.22-5.545,7.42-8.978,10.774c4.237,4.976,8.795,9.673,13.709,13.969
	c1.023,0.895-0.435,2.421-1.456,1.528c-4.962-4.338-9.556-9.091-13.83-14.118c-5.126,3.03-11.182,4.489-17.144,4.111
	C639.891,302.797,637.368,302.215,636.205,300.283z" class="colorF7D2BA svgShape"></path><path fill="#fbc499" d="M593.373,358.651c2.4,3.298,9.836,1.402,12.971,0.595c3.555-0.922,8.863-2.883,16.162-8.904
	c3.759-3.105,8.773-7.241,13.178-13.792c0.186-0.289,0.381-0.571,0.565-0.874c0.624-0.96,1.225-1.96,1.808-3.024
	c1.646-3.009,12.189-22.233,4.019-37.333c-0.387-0.722-5.278-9.567-10.542-8.952c-6.544,0.768-9.07,15.64-12.068,15.077
	c-1.487-0.28-1.267-4.007-2.536-8.433c-2.835-9.903-12.372-20.714-21.439-19.805c-4.289,0.428-8.593,3.499-10.433,7.852
	c-2.959,7.019,4.742,15.565,3.949,16.092c-1.128,0.738-10.759-19.298-23.35-19.454c-4.437-0.053-9.618,2.349-10.778,5.934
	c-1.716,5.273,5.935,10.904,4.369,13.046c-1.657,2.256-9.899-4.352-21.325-3.009c-2.927,0.343-9.721,1.141-12.687,6.285
	c-2.584,4.46-1.673,10.686,1.674,14.535c3.1,3.566,7.513,4.184,8.705,4.324c7.823,0.987,10.805-4.727,23.389-7.255
	c4.399-0.882,9.391-1.267,9.928,0.152c0.407,1.077-2.092,2.171-3.91,5.667c-0.039,0.074-0.095,0.174-0.164,0.329
	c-0.542,1.079-2.456,4.952-1.12,8.805c0.055,0.177,1.564,4.364,4.874,5.042c1.708,0.344,3.168-0.38,3.834-0.704
	c6.465-3.109,15.496-4.991,16.086-3.94c0.677,1.2-9.779,6.117-8.938,10.539c0.698,3.678,8.807,4.963,9.838,5.118
	c8.727,1.307,16.206-2.631,16.436-2.03c0.214,0.551-6.493,2.142-10.418,7.85C593.614,351.047,591.433,355.986,593.373,358.651z" class="colorF7D2BA svgShape"></path><path fill="#ffffff" d="M585.654,322.875c0.287,0.097,0.532-0.075,0.66-0.316c0.986-1.961,2.692-3.5,4.699-4.34
	c0.043-0.008,0.067-0.042,0.093-0.062c0.148-0.049,0.296-0.099,0.444-0.149c3.009-1.083,6.153-2.326,9.403-1.688
	c0.017,0.012,0.037,0,0.052-0.003c0.02,0.027,0.04,0.053,0.057,0.064c0.428,0.295,0.953,0.468,1.469,0.508
	c2.515,1.482,4.989,3.025,7.46,4.59c-1.728,0.564-3.614,0.678-5.388,0.264c-0.273-0.062-0.554,0.034-0.66,0.315
	c-0.082,0.247,0.048,0.589,0.321,0.651c2.196,0.517,4.481,0.373,6.585-0.424c0.084-0.03,0.143-0.079,0.19-0.147
	c2.836,1.805,5.661,3.627,8.506,5.4c2.874,1.805,5.792,3.565,8.757,5.219c-2.089,1.452-4.179,3.018-6.453,4.153
	c-2.219,1.11-5.006,1.652-7.198,0.177c-0.553-0.369-1.138,0.478-0.591,0.856c1.687,1.126,3.702,1.264,5.613,0.839
	c-0.897,1.63-1.508,3.395-1.759,5.243c-0.088,0.659,0.949,0.73,1.032,0.08c0.274-2.009,0.982-3.935,2.091-5.633
	c0.024-0.034,0.024-0.072,0.039-0.112c0.217-0.078,0.421-0.152,0.627-0.25c1.328-0.587,2.55-1.388,3.753-2.2
	c1.286-0.856,2.575-1.737,3.858-2.607c2.088,1.15,4.209,2.233,6.368,3.243c0.186-0.289,0.381-0.571,0.565-0.874
	c-0.874-0.4-1.744-0.824-2.609-1.256c0.501-1.184,0.078-2.512-0.492-3.574c-0.582-1.097-1.439-2.218-1.288-3.517
	c0.065-0.663-0.958-0.736-1.032-0.08c-0.145,1.328,0.517,2.492,1.155,3.601c0.522,0.929,1.075,2.031,0.724,3.09
	c-1.048-0.533-2.092-1.089-3.13-1.654l-0.009-0.006c-3.658-2.005-7.221-4.185-10.749-6.416c0.009-0.032,0.018-0.063,0.019-0.1
	c-0.214-3.774-2.265-7.084-4.553-9.977c-0.294-0.38-0.609-0.748-0.909-1.12c0.033-0.065,0.066-0.132,0.069-0.192
	c2.66-2.701,4.707-5.926,5.998-9.483c0.229-0.626-0.738-0.964-0.966-0.339c-1.255,3.431-3.232,6.553-5.806,9.149
	c0,0,0,0-0.006,0.009c-0.835-1.006-1.671-2.011-2.447-3.065c-1.11-1.486-2.101-3.091-2.232-4.989
	c-0.039-0.658-1.057-0.464-1.013,0.186c0.121,1.802,0.99,3.4,2.003,4.844c1.205,1.715,2.585,3.286,3.907,4.906
	c2.258,2.771,4.382,5.865,4.844,9.482c-0.685-0.435-1.362-0.864-2.039-1.293c-7.743-4.95-15.488-9.989-23.857-13.829
	c-0.198-0.098-0.407-0.18-0.61-0.269c-0.527-0.958-1.049-1.923-1.567-2.875c-0.328-0.605-0.829-1.38-0.587-2.098
	c0.198-0.635-0.775-0.964-0.982-0.336c-0.294,0.922,0.072,1.818,0.506,2.636c0.361,0.666,0.732,1.339,1.094,2.005
	c-3.576-1.519-7.26-2.809-11.028-3.741c0.003-0.023,0.009-0.031,0.012-0.054c-0.033-1.564-0.79-2.92-1.773-4.116
	c-1.07-1.307-2.411-2.421-3.212-3.934c-0.311-0.593-1.247-0.152-0.936,0.441c0.759,1.446,1.948,2.544,3.022,3.752
	c0.899,1.023,1.773,2.246,1.861,3.659c-3.326-0.765-6.706-1.251-10.122-1.372c-0.669-0.019-0.749,1.012-0.08,1.032
	c1.062,0.037,2.119,0.097,3.171,0.203c8.633,0.838,16.899,3.912,24.587,7.824c1.445,0.745,2.89,1.526,4.308,2.328
	c-2.537-0.095-5.034,0.722-7.411,1.584c-2.939,1.056-6.118,2.275-9.285,1.518c-0.641-0.152-0.985,0.824-0.336,0.982
	c1.75,0.411,3.486,0.295,5.194-0.056c-0.949,0.862-1.738,1.897-2.319,3.05C585.213,322.47,585.422,322.79,585.654,322.875z" class="colorFFF svgShape"></path><path fill="#fbc499" d="M1177.283 635.888c1.86-2.784.353-6.831-2.441-8.663-2.794-1.833-6.396-1.922-9.718-1.471-5.374.729-10.108 2.538-14.971 4.646 3.379-3.726 6.623-7.574 9.734-11.51 2.058-2.603 4.059-5.255 6.004-7.949 6.29 4.14 13.835 6.356 21.367 6.25 2.855-.041 6.074-.621 7.653-2.998 1.846-2.778.338-6.824-2.446-8.661-2.784-1.836-6.369-1.933-9.674-1.489-5.55.746-10.412 2.656-15.442 4.855 5.899-8.37 11.211-17.16 15.721-26.345 6.794 2.984 14.473 3.933 21.783 2.652 2.812-.492 5.899-1.575 7.081-4.173 1.381-3.035-.749-6.792-3.789-8.163-3.04-1.372-6.594-.899-9.788.064-5.174 1.56-9.543 4.088-13.993 6.931 4.601-9.756 8.48-20.297 9.175-31.094.015-.225.019-.45.032-.675 7.216 2.055 15.047 1.916 22.179-.421 2.713-.889 5.614-2.401 6.413-5.141.934-3.202-1.711-6.616-4.916-7.539-3.204-.924-6.655.052-9.678 1.461-5.327 2.482-9.548 5.962-13.91 9.769.463-12.493-1.375-25.125-.483-37.583 7.318 2.167 15.295 2.068 22.548-.31 2.713-.889 5.614-2.401 6.413-5.142.934-3.201-1.711-6.615-4.915-7.538-3.205-.924-6.655.052-9.678 1.461-5.47 2.549-9.774 6.15-14.262 10.077.278-3.109.737-6.206 1.463-9.287 1.469-6.238 4.261-12.1 7.966-17.393 6.604 4.165 14.518 6.227 22.315 5.789 2.85-.161 6.042-.875 7.521-3.317 1.727-2.853.051-6.833-2.808-8.551-2.859-1.718-6.444-1.664-9.728-1.081-6.022 1.068-11.165 3.488-16.593 6.171 6.156-8.418 14.63-15.315 23.756-19.851 6.408 3.021 13.672 4.219 20.708 3.372 2.835-.342 5.975-1.258 7.295-3.789 1.542-2.958-.384-6.823-3.346-8.355-2.962-1.532-6.537-1.25-9.777-.46-5.169 1.261-9.609 3.501-14.13 6.051-.193-.005-.398.031-.612.132-7.854 3.686-14.913 8.976-20.85 15.288-1.309 1.392-2.574 2.839-3.784 4.332 1.995-6.597 2.175-13.742.462-20.419-.709-2.765-2.03-5.759-4.712-6.736-3.134-1.141-6.713 1.274-7.844 4.412-1.131 3.138-.383 6.644.824 9.753 2.253 5.798 5.702 10.434 9.46 15.33-2.399 3.243-4.494 6.706-6.065 10.416-2.379 5.618-3.579 11.459-4.129 17.399-1.152-7.015-4.304-13.698-9.021-19.02-1.894-2.137-4.434-4.198-7.266-3.843-3.309.415-5.391 4.198-4.966 7.506.425 3.308 2.691 6.086 5.185 8.301 4.779 4.244 10.121 6.82 15.873 9.54-.622 9.822.331 19.87.535 29.604.064 3.064.042 6.107-.145 9.134-.865-7.671-4.129-15.058-9.243-20.842-1.891-2.139-4.428-4.203-7.261-3.852-3.31.411-5.397 4.191-4.975 7.499.421 3.308 2.683 6.09 5.174 8.308 4.882 4.347 10.355 6.95 16.254 9.748-.234 3.224-.672 6.428-1.429 9.617-1.384 5.833-3.43 11.501-5.807 16.999-.632 1.462-1.291 2.912-1.97 4.354-.119-6.999-2.201-13.964-5.983-19.857-1.542-2.403-3.734-4.83-6.587-4.916-3.334-.1-5.974 3.318-6.063 6.651-.089 3.334 1.722 6.429 3.845 9.001 3.922 4.753 8.6 8.054 13.65 11.488-4.407 8.973-9.668 17.547-15.44 25.708 1.675-7.112 1.259-14.709-1.226-21.582-.971-2.685-2.57-5.539-5.334-6.254-3.228-.836-6.561 1.91-7.386 5.141-.827 3.231.253 6.65 1.752 9.63 2.846 5.653 6.81 9.99 11.102 14.592-.774 1.076-1.554 2.147-2.343 3.208-4.336 5.825-8.953 11.476-13.868 16.851 1.525-6.951 1.066-14.334-1.355-21.028-.971-2.685-2.57-5.538-5.334-6.255-3.228-.836-6.561 1.911-7.387 5.142-.826 3.231.254 6.65 1.753 9.629 2.768 5.498 6.592 9.751 10.748 14.213-5.676 6.061-11.744 11.749-18.238 16.905-1.353 1.074.406 3.098 1.757 2.026 6.558-5.207 12.674-10.964 18.401-17.087 6.323 4.153 13.922 6.369 21.511 6.247C1172.455 638.857 1175.691 638.27 1177.283 635.888zM1180.122 751.35c-3.05 4.191-12.498 1.782-16.48.756-4.516-1.171-11.26-3.663-20.535-11.313-4.777-3.945-11.147-9.2-16.744-17.524-.237-.367-.485-.726-.718-1.11-.793-1.219-1.557-2.49-2.297-3.842-2.091-3.823-15.488-28.248-5.106-47.434.492-.917 6.706-12.155 13.394-11.374 8.315.975 11.525 19.872 15.333 19.156 1.89-.356 1.609-5.092 3.221-10.714 3.602-12.583 15.719-26.319 27.24-25.164 5.449.544 10.917 4.446 13.256 9.977 3.76 8.918-6.025 19.777-5.017 20.446 1.434.938 13.67-24.52 29.667-24.718 5.637-.067 12.221 2.985 13.694 7.54 2.181 6.699-7.541 13.855-5.551 16.576 2.105 2.866 12.577-5.529 27.095-3.823 3.72.435 12.351 1.45 16.12 7.985 3.283 5.666 2.125 13.577-2.127 18.468-3.938 4.531-9.545 5.316-11.06 5.494-9.94 1.254-13.728-6.006-29.717-9.217-5.59-1.121-11.932-1.61-12.615.193-.517 1.368 2.657 2.758 4.967 7.201.049.094.121.221.208.418.688 1.371 3.12 6.292 1.424 11.187-.07.225-1.987 5.545-6.193 6.407-2.17.438-4.025-.482-4.872-.895-8.215-3.95-19.689-6.341-20.438-5.006-.86 1.524 12.425 7.773 11.356 13.391-.886 4.673-11.19 6.306-12.5 6.503-11.088 1.661-20.591-3.343-20.883-2.579-.272.7 8.25 2.721 13.237 9.974C1179.815 741.688 1182.586 747.964 1180.122 751.35z" class="colorF7D2BA svgShape"></path><path fill="#ffffff" d="M1189.93,705.894c-0.365,0.123-0.676-0.096-0.839-0.401c-1.253-2.491-3.421-4.447-5.971-5.514
	c-0.055-0.01-0.085-0.053-0.118-0.078c-0.188-0.063-0.376-0.126-0.564-0.189c-3.823-1.377-7.818-2.956-11.948-2.145
	c-0.021,0.015-0.047,0.001-0.066-0.003c-0.025,0.034-0.051,0.067-0.072,0.082c-0.544,0.375-1.211,0.595-1.866,0.646
	c-3.196,1.883-6.339,3.843-9.479,5.832c2.196,0.717,4.592,0.862,6.846,0.335c0.347-0.079,0.704,0.044,0.838,0.401
	c0.104,0.314-0.062,0.749-0.408,0.828c-2.79,0.656-5.693,0.474-8.366-0.539c-0.107-0.038-0.182-0.1-0.241-0.187
	c-3.604,2.294-7.193,4.608-10.808,6.862c-3.652,2.294-7.359,4.53-11.127,6.632c2.654,1.845,5.31,3.834,8.199,5.277
	c2.82,1.411,6.36,2.099,9.146,0.225c0.703-0.469,1.446,0.608,0.75,1.088c-2.144,1.43-4.703,1.607-7.131,1.066
	c1.14,2.072,1.916,4.313,2.235,6.662c0.112,0.838-1.206,0.928-1.311,0.101c-0.349-2.553-1.248-4.999-2.657-7.157
	c-0.03-0.044-0.031-0.091-0.05-0.142c-0.276-0.099-0.535-0.194-0.797-0.318c-1.687-0.746-3.239-1.763-4.769-2.795
	c-1.634-1.088-3.272-2.206-4.902-3.313c-2.653,1.461-5.348,2.837-8.091,4.12c-0.237-0.367-0.485-0.726-0.718-1.11
	c1.11-0.509,2.216-1.047,3.315-1.596c-0.637-1.504-0.099-3.192,0.625-4.541c0.74-1.394,1.828-2.819,1.637-4.469
	c-0.083-0.842,1.217-0.936,1.311-0.102c0.184,1.687-0.657,3.167-1.468,4.576c-0.663,1.18-1.366,2.581-0.92,3.926
	c1.331-0.677,2.658-1.384,3.976-2.101l0.011-0.008c4.648-2.548,9.175-5.318,13.657-8.152c-0.012-0.041-0.023-0.08-0.024-0.128
	c0.272-4.795,2.878-9.001,5.785-12.676c0.374-0.483,0.773-0.95,1.154-1.423c-0.041-0.083-0.083-0.167-0.088-0.244
	c-3.379-3.432-5.981-7.529-7.621-12.049c-0.291-0.795,0.938-1.225,1.228-0.43c1.594,4.359,4.106,8.326,7.377,11.625
	c0,0,0,0,0.008,0.011c1.061-1.278,2.122-2.555,3.109-3.895c1.411-1.888,2.669-3.928,2.836-6.339c0.05-0.837,1.344-0.59,1.287,0.237
	c-0.154,2.29-1.258,4.32-2.546,6.154c-1.53,2.18-3.284,4.176-4.964,6.233c-2.869,3.52-5.567,7.452-6.154,12.047
	c0.871-0.552,1.731-1.098,2.591-1.642c9.838-6.289,19.678-12.691,30.312-17.57c0.251-0.125,0.517-0.228,0.776-0.342
	c0.67-1.217,1.332-2.444,1.991-3.654c0.417-0.768,1.054-1.753,0.746-2.665c-0.251-0.807,0.985-1.225,1.247-0.427
	c0.374,1.171-0.092,2.31-0.643,3.349c-0.459,0.847-0.93,1.701-1.389,2.547c4.544-1.93,9.225-3.569,14.012-4.753
	c-0.004-0.029-0.011-0.04-0.015-0.069c0.042-1.988,1.004-3.71,2.252-5.23c1.359-1.66,3.063-3.076,4.081-4.999
	c0.395-0.754,1.584-0.193,1.189,0.56c-0.964,1.838-2.475,3.232-3.839,4.768c-1.142,1.301-2.253,2.854-2.364,4.649
	c4.226-0.972,8.52-1.59,12.861-1.743c0.85-0.025,0.952,1.286,0.102,1.311c-1.349,0.047-2.692,0.123-4.028,0.258
	c-10.969,1.065-21.472,4.97-31.239,9.941c-1.836,0.946-3.672,1.94-5.473,2.958c3.223-0.121,6.396,0.917,9.416,2.013
	c3.735,1.341,7.773,2.89,11.798,1.928c0.815-0.193,1.251,1.047,0.427,1.247c-2.224,0.523-4.429,0.374-6.599-0.071
	c1.205,1.096,2.209,2.41,2.947,3.876C1190.49,705.379,1190.225,705.786,1189.93,705.894z" class="colorFFF svgShape"></path><path fill="#1a8dbb" d="M264.998,751.067l-37.314-454.769l37.314-37.314h195.583v83.245l-37.314,37.314l-100.664-37.314v116.475
	h119.102v83.245l-37.314,37.314l-81.787-37.314v209.119l-37.314,37.314L264.998,751.067z" class="colorE28F3B svgShape"></path><path fill="#4fb7e3" d="M227.684,788.381V296.297h195.583v83.245H285.289v116.475H404.39v83.245H285.289v209.119H227.684z" class="colorF2A857 svgShape"></path><ellipse cx="344.133" cy="280.958" fill="#e6d5c8" rx="90.519" ry="12.674" class="colorE6D5C8 svgShape"></ellipse><path fill="#1a8dbb" d="M835.102,764.701l-23.68,23.68l-38.984-23.68l-24.91-111.776H633.486l-23.548,111.776l-23.68,23.68
	l-37.427-23.68l87.442-468.404l23.68-23.68h60.913L835.102,764.701z M729.039,570.016l-39.312-182.602l-38.533,182.602H729.039z" class="colorE28F3B svgShape"></path><path fill="#4fb7e3" d="M811.422,788.381h-62.664l-24.91-111.776H609.805l-23.548,111.776H525.15l111.122-492.084h60.913
	L811.422,788.381z M705.359,593.696l-39.312-182.602l-38.533,182.602H705.359z" class="colorF2A857 svgShape"></path><path fill="#1a8dbb" d="M1124.034,702.268c14.139,17.455,29.514,31.332,46.123,41.622l-21.213,70.154l-23.68,23.68
	c-5.37-3.596,3.402-37.223-1.814-42.141c-1.819-1.568-14.596-16.112-38.338-43.637c-18.682,14.098-39.378,21.147-62.081,21.147
	c-43.854,0-78.203-22.264-103.046-66.797c-24.847-44.528-37.268-107.077-37.268-187.636c0-80.334,12.455-142.825,37.366-187.468
	c24.91-44.643,58.705-66.965,101.392-66.965c42.294,0,75.831,22.322,100.614,66.965c24.779,44.643,37.17,107.134,37.17,187.468
	c0,42.519-3.439,79.888-10.314,112.112C1143.754,655.39,1135.449,679.222,1124.034,702.268z M1077.717,646.212
	c7.395-14.99,12.942-33.116,16.639-54.378c3.698-21.257,5.546-45.651,5.546-73.175c0-56.838-7.267-99.299-21.796-127.384
	c-14.532-28.08-33.54-42.126-57.021-42.126c-23.484,0-42.523,14.098-57.118,42.294c-14.596,28.195-21.894,70.604-21.894,127.216
	c0,57.514,7.298,100.531,21.894,129.063c14.596,28.532,33.05,42.797,55.367,42.797c8.301,0,16.153-2.349,23.548-7.049
	C1049.834,679.639,1065.382,668.158,1077.717,646.212z" class="colorE28F3B svgShape"></path><path fill="#4fb7e3" d="M1100.354,725.948c14.14,17.455,29.514,31.332,46.123,41.622l-21.213,70.154
	c-8.694-4.479-17.192-10.631-25.494-18.461c-1.819-1.569-14.596-16.112-38.338-43.637c-18.682,14.098-39.378,21.147-62.081,21.147
	c-43.854,0-78.203-22.264-103.046-66.797c-24.846-44.528-37.268-107.077-37.268-187.636c0-80.334,12.455-142.825,37.365-187.468
	c24.91-44.643,58.705-66.965,101.392-66.965c42.294,0,75.831,22.322,100.614,66.965c24.779,44.643,37.17,107.134,37.17,187.468
	c0,42.519-3.439,79.888-10.314,112.112C1120.073,679.07,1111.769,702.902,1100.354,725.948z M1054.036,669.892
	c7.395-14.99,12.942-33.116,16.639-54.378c3.698-21.257,5.546-45.651,5.546-73.175c0-56.838-7.267-99.299-21.796-127.384
	c-14.532-28.08-33.54-42.126-57.021-42.126c-23.484,0-42.522,14.098-57.118,42.294c-14.596,28.195-21.894,70.604-21.894,127.216
	c0,57.514,7.298,100.531,21.894,129.063c14.596,28.532,33.05,42.797,55.367,42.797c8.301,0,16.153-2.349,23.548-7.049
	C1026.154,703.319,1041.702,691.838,1054.036,669.892z" class="colorF2A857 svgShape"></path><ellipse cx="983.905" cy="275.232" fill="#e6d5c8" rx="54.138" ry="14.861" class="colorE6D5C8 svgShape"></ellipse><path fill="#2e3342" d="M989.44,147.618c0,0-9.575-6.976-3.283-17.234c6.292-10.258,20.244-7.386,22.866-2.006
	c5.175-0.866,9.213,2.607,11.468,5.836c1.777,2.546,3.059,7.478,1.299,17.645c-1.538,8.883,9.976,16.425,13.611,22.431
	c4.616,7.628,6.263,25.04-9.855,26.922c-8.822,1.03-38.823-17.412-38.823-17.412C974.37,179.653,991.017,162.8,989.44,147.618z" class="color2E3342 svgShape"></path><path fill="#e3c0c1" d="M928.955,364.989c3.824-19.376,5.912-35.219,5.38-49.177c-0.377-10.237-1.389-19.633-2.212-29.081
	l59.366-33.985l18.863-10.802h-36.148c0,0-51.564,16.718-60.309,31.292c-5.881,9.808-4.664,31.91-1.903,51.954
	c2.915,21.022,7.545,39.798,7.545,39.798H928.955z" class="colorE3C0C1 svgShape"></path><path fill="#1f2430" d="M929.103,364.56l3.043,9.952l-1.905,15.469l-3.063,0.149l-2.794-13.542l-4.945,8.992
	c-1.332,2.421-3.331,4.402-6.071,4.757c-7.227,0.937-21.351,1.18-21.936-3.562c-0.602-4.873,13.088-5.082,17.087-10.44
	c3.872-5.189,8.527-11.977,8.527-11.977L929.103,364.56z" class="color1F2430 svgShape"></path><path fill="#1d4e8f" d="M911.992,325.192l12.295,2.023l10.049-11.402l44.379-50.326l12.775-12.74l10.821-10.802h-28.106
	c0,0-51.564,16.718-60.309,31.292C908.014,283.045,909.231,305.147,911.992,325.192z" class="color1D4E8F svgShape"></path><path fill="#ffcbc7" d="M918.292,365.565c10.803-9.26,17.981-20.997,23.589-34.355c3.635-8.659,6.465-17.952,8.832-27.606
	c0,0,55.01-4.647,69.483-25.703c9.86-14.352,1.955-35.956,1.955-35.956c-9.397,0.291-21.726-1.766-29.511,0.754
	c-29.34,9.482-60.84,21.982-68.162,42.284c-4.321,11.986-7.305,25.24-10.289,39.935c-2.469,12.139-4.694,26.247-7.952,40.445
	L918.292,365.565z" class="colorFFCBC7 svgShape"></path><path fill="#2a5fa3" d="M914.187,324.918l18.348,4.166l9.345,2.126c3.635-8.659,6.465-17.952,8.832-27.606
	c0,0,32.392-2.743,53.998-13.512c6.55-3.275,12.123-7.287,15.484-12.191c9.02-13.134,3.172-32.356,2.109-35.511
	c-0.103-0.292-0.155-0.446-0.155-0.446h-0.068c-9.397,0.274-22.773-2.658-30.54-0.137c-29.34,9.482-61.15,22.462-68.472,42.764
	C918.731,296.557,917.171,310.223,914.187,324.918z" class="color2A5FA3 svgShape"></path><path fill="#1a4d8f" d="M1004.711,290.093c6.55-3.275,12.123-7.287,15.484-12.191c9.02-13.134,3.172-32.356,2.109-35.511
	c-0.103-0.292-0.155-0.446-0.155-0.446h-0.068l-9.191,3.823C1019.437,262.367,1015.701,276.943,1004.711,290.093z" class="color1A4D8F svgShape"></path><path fill="#ffda82" d="M986.507,203.89c-6.175,7.461-17.212,16.11-23.534,23.448c-3.116-2.702-6.746-4.04-9.355-7.482
	c10.62-16.105,22.436-32.365,36.006-46.177C987.093,184.188,989.46,193.534,986.507,203.89z" class="colorED475E svgShape"></path><path fill="#ffda82" d="M971.598,242.819c14.541-1.938,26.476,4.098,41.292,2.949c1.783-0.137,3.618-0.377,5.487-0.737
	c3.447-0.686,5.848-3.841,5.487-7.339l-4.887-47.668l-4.304-14.661l-0.994-3.36l-7.707-4.133l-8.476,0.293
	c-12.638,5.487-21.354,20.336-13.689,36.745C991.249,220.854,971.598,242.819,971.598,242.819z" class="colorED475E svgShape"></path><path fill="#ffcbc7" d="M997.126,168.292c0,4.797,4.455,4.797,8.922,0l-1.049-5.798l-0.648-3.607l-6.719,3.359l-0.495,5.916
	L997.126,168.292z" class="colorFFCBC7 svgShape"></path><path fill="#e2a10b" d="M1008.517,202.078c3.378,9.191,6.808,31.122,4.373,43.69c1.783-0.137,3.618-0.377,5.487-0.737
	c3.447-0.686,5.848-3.841,5.487-7.339l-4.887-47.668l-4.304-14.661c-3.789,2.984-5.965,6.684-5.965,6.684
	S1004.367,190.882,1008.517,202.078z" class="colorD94156 svgShape"></path><path fill="#ffcbc7" d="M967.741,226.492c3.858,5.868,6.217,4.811,11.387,5.124c6.737-0.386,13.959,0.65,20.768,0.118
	c8.216-0.642,20.296,2.012,26.982-3.446c6.685-5.458-1.786-32.39-3.761-38.448c-2.622-8.044-5.559-11.551-9.424-17.917
	c1.733,6.167,3.466,12.055,5.201,18.113c-1.089,9.38-2.003,18.811-2.972,28.189c-6.642,0.897-11.632,1.488-18.644,2.679
	c-6.189,1.051-14.637,2.494-21.081,4.255C970.513,222.067,963.883,220.624,967.741,226.492z" class="colorFFCBC7 svgShape"></path><path fill="#ffda82" d="M997.052,220.076c0.692,3.748,1.955,8.745,2.926,12.639c8.69,0.408,19.146,2.121,27.247-4.698
	c8.102-6.819,2.647-34.444-0.625-42c-3.514-8.112-6.444-10.697-12.93-14.126c-12.409,12.476,0.626,29.804,2.218,46.346
	C1009.742,219.017,1003.168,219.081,997.052,220.076z" class="colorED475E svgShape"></path><path fill="#e3afb0" d="M997.295,166.28c0.459,0.059,1.942,0.59,2.477,0.496c2.784-0.491,4.025-1.76,5.227-4.282l-0.648-3.607
	l-6.719,3.359L997.295,166.28z" class="colorE3AFB0 svgShape"></path><path fill="#ffcbc7" d="M989.284,134.614c8.852-2.226,6.616,10.892,15.958,10.638c0,0,3.837-4.186,5.494-1.569
	c1.657,2.616-2.355,7.237-2.355,7.237c-0.46,7.601-5.93,13.632-11.598,12.208C983.894,159.889,989.284,134.614,989.284,134.614z" class="colorFFCBC7 svgShape"></path><path fill="#2e3342" d="M918.292,365.565l3.043,9.952l-1.905,15.469l-3.063,0.149l-2.793-13.542l-4.946,8.991
	c-1.332,2.421-3.331,4.402-6.071,4.757c-7.227,0.937-21.351,1.181-21.936-3.561c-0.601-4.874,13.089-5.083,17.087-10.441
	c3.872-5.189,8.526-11.977,8.526-11.977L918.292,365.565z" class="color2E3342 svgShape"></path><path fill="#4fb7e3" d="M987.872,248.564l-10.033-30.118c-1.028-1.849-2.977-2.996-5.092-2.996h-44.828
	c-4.216,0-7.036,4.339-5.323,8.19l11.658,26.229c1.006,2.265,3.252,3.724,5.73,3.724h44.263
	C986.854,253.593,988.696,251.039,987.872,248.564z" class="colorF2A857 svgShape"></path><circle cx="953.335" cy="236.523" r="4.254" fill="#ffffff" class="colorFFF svgShape"></circle><path fill="#f1cccd" d="M784.766,698.444c1.737,9.112,2.699,17.263,3.065,24.818c0.949,19.302-0.869,48.877-4.8,67.447l-8.654-1.353
	c0,0-10.047-51.106-14.708-77.22c-1.202-6.626-1.401-12.266-1.808-16.713c-2.391-25.387,14.667-93.527,15.706-98.118l-1.557-3.215
	l3.675-0.138l31.577-3.918C823.633,640.993,801.022,652.627,784.766,698.444z" class="colorF1CCCD svgShape"></path><path fill="#1d4e8f" d="M803.088,657.978c-5.448,11.296-10.847,23.619-16.855,40.541c3.992,10.762,4.177,67.903,0.678,84.246
	c-6.424,1.031-12.586,0.895-18.578,0c-1.201-6.626-11.004-78.095-11.411-82.542c-2.391-25.387,14.007-101.366,15.046-105.956
	l0.043-0.176l0.014-0.065l35.238-3.991C817.598,622.181,812.407,638.669,803.088,657.978z" class="color1D4E8F svgShape"></path><path fill="#2e3342" d="M773.852,788.044c-13.475,5.646-28.331,4.842-29.445,18.531l42.171-1.091
	c0.575-5.801-0.198-11.566-2.319-17.298L773.852,788.044z" class="color2E3342 svgShape"></path><path fill="#0d3c70" d="M786.236,698.519c3.99,10.76,4.17,67.9,0.67,84.25c-2.88,0.47-5.72,0.69-8.51,0.71
	c2.89-2.55,6.25-6.85,6.11-12.94c-0.23-10.59,3.53-30.178,0.356-44.41c-2.11-9.463-1.766-28.53-6.706-29.71
	c-4.94-1.17,13.88-8.7,11.76-24c-2.11-15.29-5.17-29.41-2.11-36.23c1.82-4.06,6.06,12.5,9.19,34.98
	C793.546,679.059,790.006,687.879,786.236,698.519z" class="color0D3C70 svgShape"></path><path fill="#f1cccd" d="M831.357,797.638l15.209-24.274c0,0-15.67-27.738-28.35-46.181c-3.01-4.414-5.85-8.272-8.277-11.13
	c-17.364-20.383-26.432-123.108-26.432-123.108h28.708c22.506,23.448,16.838,55.732,17.502,87.626
	c0.23,11.054,3.367,21.713,8.635,31.021c1.061,1.875,2.06,3.774,3.003,5.719c6.566,13.581,10.46,29.508,14.053,55.669l7.12,9.785
	L831.357,797.638z" class="colorF1CCCD svgShape"></path><path fill="#2a5fa3" d="M858.969,762.863c-5.68,4.076-12.141,6.332-19.004,7.648c-3.009-4.413-33.388-59.579-36.41-64.418
	c-14.183-22.712-22.192-113.552-22.192-113.552l29.629,0.384l1.223,0.021c21.753,22.663,17.185,53.582,17.455,84.424
	c0.11,12.586,5.07,20.26,10.425,31.062C855.224,738.949,858.207,761.287,858.969,762.863z" class="color2A5FA3 svgShape"></path><path fill="#2e3342" d="M845.76,773.271c-10.207,11.297-24.52,18.204-20.512,31.225l38.942-21.106
	c-1.334-6.624-4.42-11.063-8.901-13.596L845.76,773.271z" class="color2E3342 svgShape"></path><path fill="#ffcbc7" d="M722.637,513.631c0,0,7.525,42.369,18.514,45.294c4.974,1.324,11.364,0.213,17.464-1.852
	c10.316-3.491,19.799-9.699,20.127-11.394l10.466-31.77c-6.024,2.596-40.345,22.161-43.149,24.035
	c-4.54-6.817-14.388-24.553-14.711-25.855c0,0,2.125-9.558,0.248-12.248c-1.668-2.381-2.282,5.427-2.986,4.48
	c-0.767-1.042-5.314-12.095-8.337-8.866C713.559,502.652,722.637,513.631,722.637,513.631z" class="colorFFCBC7 svgShape"></path><path fill="#e8b94b" d="M751.851,533.445c0.787,8.291,5.594,19.499,6.095,24.693c10.317-3.491,22.754-4.659,23.082-6.354
	l8.18-37.875C783.184,516.505,763.826,526.339,751.851,533.445z" class="colorFF7171 svgShape"></path><path fill="#ffda82" d="M830.73,541.676c-0.248,18.343-4.767,50.147-6.483,61.588c-0.248,1.658-1.163,3.088-2.46,3.985
	c-0.706,0.495-1.545,0.839-2.441,0.972c-8.218,1.221-16.264,1.888-24.101,1.869c-7.055,0-13.938-0.533-20.631-1.697
	c-2.612-0.458-4.614-2.555-4.901-5.187c-0.934-8.656,1.781-27.647,1.343-46.124c-0.286-11.688,3.382-41.606,25.208-46.313
	l12.786-0.116c14.339,3.718,20.345,14.682,21.336,22.346C830.692,535.27,830.787,538.244,830.73,541.676z" class="colorED475E svgShape"></path><path fill="#2e3342" d="M800.114,497.979c4.625,1.43,6.493,3.739,12.408,1.067c9-4.066,16.596-19.643,4.645-26.688
	c-0.827-2.466-2.023-3.766-5.172-4.45c-3.149-0.683-5.951,0.993-10.191,1.926c-4.425,0.974-6.118,1.412-15.265-0.647
	c0,0,0.324,11.529,11.137,15.772C802.924,487.019,800.853,493.43,800.114,497.979z" class="color2E3342 svgShape"></path><path fill="#ffcbc7" d="M809.232,510.687c-4.652,4.652-9.041,5.543-12.967,0.082l1.106-8.974l0.462-3.779h10.295l0.198,2.343
	L809.232,510.687z" class="colorFFCBC7 svgShape"></path><path fill="#f0b4b4" d="M808.471,502.029c-2.544,3.061-9.554,3.947-11.455,2.635l0.815-6.647l10.353-4.345L808.471,502.029z" class="colorF0B4B4 svgShape"></path><path fill="#ffcbc7" d="M791.566,476.348c-2.105,5.933-4.168,19.05,0.867,23.928c3.187,3.087,14.753,1.893,17.114-6.598
	c2.789-2.02,4.837-6.945,2.267-9.18c-1.833-1.592-4.173,2.616-7.369,1.92c-1.213-0.264,1.937-7.708-1.848-9.112
	C798.812,475.901,795.382,478.285,791.566,476.348z" class="colorFFCBC7 svgShape"></path><ellipse cx="685.198" cy="382.088" fill="#eceeef" rx="55.293" ry="55.292" transform="rotate(-55.646 685.211 382.067)" class="color58595B svgShape"></ellipse><path fill="#4c73af" d="M665.74,321.33c-33.763,10.413-52.797,46.231-42.43,79.845c10.367,33.613,46.269,52.489,80.032,42.076
	c33.763-10.413,52.796-46.232,42.43-79.845C735.405,329.792,699.503,310.917,665.74,321.33z M700.45,433.873
	c-28.614,8.825-58.933-7.114-67.719-35.603c-8.786-28.488,7.287-58.737,35.902-67.562c28.614-8.825,58.933,7.115,67.72,35.603
	C745.138,394.8,729.064,425.047,700.45,433.873z" class="color326AB3 svgShape"></path><rect width="19.134" height="29.182" x="696.737" y="437.127" fill="#4c73af" transform="rotate(-17.138 706.368 451.717)" class="color326AB3 svgShape"></rect><path fill="#4c73af" d="M725.037,461.086c0.049,0.16,0.102,0.329,0.141,0.491l3.519,12.883l29.014,106.083l4.746,17.362
	c1.542,5.635-1.68,11.478-7.285,13.206c-5.605,1.729-11.559-1.283-13.468-6.805l-5.858-17.019l-35.769-104l-4.348-12.627
	c-2.827-8.196,1.727-17.11,10.055-19.678C713.944,448.465,722.55,453.021,725.037,461.086z" class="color326AB3 svgShape"></path><path fill="#4891d4" d="M748.834 583.283l8.879-2.738 4.744 17.361c1.545 5.636-1.678 11.479-7.283 13.208-1.586.489-3.203.596-4.746.376 2.915-2.661 4.258-6.807 3.154-10.846L748.834 583.283zM725.035 461.085c.049.161.101.33.143.493l3.517 12.881-8.875 2.737-3.521-12.88c-.038-.165-.09-.333-.139-.494-2.014-6.532-8.048-10.762-14.604-10.794 1.266-.872 2.679-1.57 4.23-2.048C713.942 448.464 722.548 453.023 725.035 461.085z" class="color14548E svgShape"></path><polygon fill="#366ea0" points="728.695 474.46 757.713 580.544 748.834 583.283 719.821 477.197" class="color11416D svgShape"></polygon><polygon fill="#194a7f" points="719.821 477.197 748.834 583.283 735.849 587.287 700.081 483.285" class="color194A7F svgShape"></polygon><path fill="gray" d="M646.36,387.478c0.169-8.797,0.89-17.787,5.363-25.582c3.811-6.641,10.429-12.327,17.789-14.611
	c4.152-1.288,2.38-7.832-1.802-6.535c-8.875,2.753-16.829,9.319-21.573,17.271c-5.315,8.91-6.359,19.299-6.555,29.457
	C639.499,391.841,646.276,391.841,646.36,387.478L646.36,387.478z" class="colorgray svgShape"></path><path fill="#e2a10b" d="M824.396,541.009c0,0-1.706,24.359-23.534,34.708c-15.573,7.383-22.986,18.322-31.326,21.132
	c0.13-6.37,0.87-14.92,1.28-24.15L824.396,541.009z" class="colorD94156 svgShape"></path><path fill="#ffcbc7" d="M822.319,547.753c0,0-11.433,13.768-21.811,21.342c-2.483,1.796-4.888,3.236-7.072,4.067
	c-15.124,5.741-49.735,3.814-49.735,3.814c-10.995,5.609-13.094,1.118-15.567-3.192c-6.103-10.639,6.211-2.849,7.951-7.279
	c0,0-7.027-2.141-4.703-5.431c2.307-3.311,15.23,4.312,15.23,4.312c16.351-3.045,25.113-7.701,38.051-10.274
	c1.114-1.565,2.229-3.129,3.379-4.67c8.33-11.064,17.989-21.134,31.127-27.825C825.534,530.94,825.346,539.341,822.319,547.753z" class="colorFFCBC7 svgShape"></path><path fill="#e8b94b" d="M803.747,569.459l-18.051-20.173c8.331-11.064,24.284-35.313,35.409-25.637
	C835.918,536.533,814.126,561.886,803.747,569.459z" class="colorFF7171 svgShape"></path><path fill="#4fb7e3" d="M838.731 270.571h-36.242v-3.624c0-6.168.699-11.174 2.098-15.021 1.399-3.847 3.481-7.36 6.247-10.539 2.766-3.179 8.981-8.774 18.645-16.786 5.15-4.196 7.725-8.043 7.725-11.54 0-3.497-1.033-6.215-3.1-8.154-2.066-1.939-5.198-2.909-9.394-2.909-4.514 0-8.25 1.494-11.206 4.483-2.957 2.988-4.848 8.202-5.675 15.641l-37.004-4.578c1.272-13.606 6.215-24.558 14.83-32.856 8.615-8.297 21.824-12.446 39.627-12.446 13.861 0 25.051 2.893 33.571 8.679 11.572 7.821 17.358 18.248 17.358 31.282 0 5.404-1.494 10.618-4.483 15.641-2.988 5.023-9.092 11.159-18.312 18.407-6.422 5.087-10.475 9.171-12.16 12.255C839.573 261.59 838.731 265.611 838.731 270.571zM801.249 280.203h38.817v34.239h-38.817V280.203zM531.888 480.148h-35.796v-3.58c0-6.092.691-11.037 2.072-14.836 1.382-3.799 3.438-7.269 6.17-10.409 2.732-3.14 8.871-8.666 18.416-16.579 5.087-4.145 7.63-7.944 7.63-11.398 0-3.454-1.02-6.139-3.061-8.054-2.041-1.915-5.134-2.873-9.279-2.873-4.459 0-8.148 1.476-11.069 4.427-2.92 2.952-4.788 8.101-5.605 15.448l-36.549-4.521c1.256-13.439 6.138-24.256 14.648-32.452 8.509-8.195 21.556-12.293 39.139-12.293 13.69 0 24.743 2.858 33.158 8.572 11.429 7.724 17.144 18.023 17.144 30.897 0 5.338-1.476 10.488-4.427 15.449-2.951 4.961-8.98 11.021-18.086 18.18-6.343 5.024-10.346 9.059-12.01 12.105C532.72 471.278 531.888 475.25 531.888 480.148zM494.868 489.662h38.339v33.817h-38.339V489.662zM1238.425 343.475h-22.96v-2.296c0-3.907.443-7.079 1.329-9.516.886-2.437 2.205-4.662 3.957-6.676 1.752-2.014 5.69-5.559 11.812-10.634 3.263-2.659 4.894-5.095 4.894-7.311 0-2.215-.655-3.937-1.964-5.166-1.309-1.229-3.293-1.843-5.951-1.843-2.86 0-5.226.947-7.1 2.84-1.873 1.893-3.071 5.196-3.595 9.909l-23.443-2.9c.805-8.62 3.937-15.558 9.395-20.815 5.458-5.257 13.826-7.885 25.105-7.885 8.781 0 15.871 1.833 21.268 5.498 7.331 4.955 10.996 11.56 10.996 19.818 0 3.424-.947 6.727-2.84 9.909-1.893 3.182-5.76 7.069-11.601 11.661-4.068 3.222-6.636 5.81-7.704 7.764C1238.959 337.785 1238.425 340.333 1238.425 343.475zM1214.68 349.577h24.591v21.691h-24.591V349.577zM166.254 366.915h-22.96v-2.296c0-3.907.443-7.079 1.329-9.516.886-2.437 2.205-4.662 3.958-6.676 1.752-2.014 5.69-5.559 11.812-10.634 3.263-2.658 4.894-5.095 4.894-7.311 0-2.215-.655-3.938-1.964-5.166-1.309-1.228-3.293-1.843-5.951-1.843-2.86 0-5.226.947-7.1 2.84-1.873 1.893-3.071 5.196-3.595 9.909l-23.443-2.9c.806-8.62 3.937-15.558 9.395-20.815 5.458-5.257 13.826-7.885 25.105-7.885 8.781 0 15.87 1.833 21.268 5.498 7.331 4.954 10.997 11.56 10.997 19.818 0 3.424-.947 6.727-2.84 9.909-1.893 3.182-5.76 7.069-11.601 11.661-4.068 3.222-6.636 5.81-7.704 7.764C166.787 361.225 166.254 363.773 166.254 366.915zM142.508 373.017H167.1v21.691h-24.591V373.017z" class="colorF2A857 svgShape"></path><path fill="#ef984b" d="M1143.394,109.926h-33.197c-18.147,0-32.847,11.96-32.847,27.544l-0.011,0.674
	c0,8.217,4.093,15.611,10.619,20.768c-2.157,6.293-5.151,11.088-15.553,12.801c13.331,1.772,20.915-0.468,28.599-6.478
	c2.918,0.729,6.001,1.128,9.193,1.128h33.197c18.147,0,32.845-12.313,32.845-27.898l0.013-0.321
	C1176.253,122.56,1161.542,109.926,1143.394,109.926z" class="color8EBCEF svgShape"></path><path fill="#ffffff" d="M1087.347 130.031c0-2.337 1.895-4.232 4.232-4.232 2.338 0 4.232 1.895 4.232 4.232 0 2.338-1.895 4.232-4.232 4.232C1089.242 134.263 1087.347 132.368 1087.347 130.031zM1100.696 130.031c0-2.337 1.895-4.232 4.232-4.232 2.338 0 4.232 1.895 4.232 4.232 0 2.338-1.895 4.232-4.232 4.232C1102.591 134.263 1100.696 132.368 1100.696 130.031zM1114.045 130.031c0-2.337 1.895-4.232 4.232-4.232 2.338 0 4.232 1.895 4.232 4.232 0 2.338-1.895 4.232-4.232 4.232C1115.94 134.263 1114.045 132.368 1114.045 130.031zM1128.473 130.031c0-2.337 1.895-4.232 4.233-4.232 2.338 0 4.232 1.895 4.232 4.232 0 2.338-1.895 4.232-4.232 4.232C1130.368 134.263 1128.473 132.368 1128.473 130.031zM1141.823 130.031c0-2.337 1.895-4.232 4.232-4.232 2.338 0 4.232 1.895 4.232 4.232 0 2.338-1.895 4.232-4.232 4.232C1143.717 134.263 1141.823 132.368 1141.823 130.031zM1155.172 130.031c0-2.337 1.895-4.232 4.232-4.232 2.337 0 4.232 1.895 4.232 4.232 0 2.338-1.895 4.232-4.232 4.232C1157.066 134.263 1155.172 132.368 1155.172 130.031zM1087.347 146.594c0-2.337 1.895-4.232 4.232-4.232 2.338 0 4.232 1.895 4.232 4.232 0 2.338-1.895 4.232-4.232 4.232C1089.242 150.826 1087.347 148.931 1087.347 146.594zM1100.696 146.594c0-2.337 1.895-4.232 4.232-4.232 2.338 0 4.232 1.895 4.232 4.232 0 2.338-1.895 4.232-4.232 4.232C1102.591 150.826 1100.696 148.931 1100.696 146.594z" class="colorFFF svgShape"></path><circle cx="1118.277" cy="146.594" r="4.232" fill="#ffffff" class="colorFFF svgShape"></circle><path fill="#ffffff" d="M1128.473,146.594c0-2.337,1.895-4.232,4.233-4.232c2.338,0,4.232,1.895,4.232,4.232
	c0,2.338-1.895,4.232-4.232,4.232C1130.368,150.826,1128.473,148.931,1128.473,146.594z" class="colorFFF svgShape"></path><circle cx="1146.055" cy="146.594" r="4.232" fill="#ffffff" class="colorFFF svgShape"></circle><path fill="#ffffff" d="M1155.172,146.594c0-2.337,1.895-4.232,4.232-4.232c2.337,0,4.232,1.895,4.232,4.232
	c0,2.338-1.895,4.232-4.232,4.232C1157.066,150.826,1155.172,148.931,1155.172,146.594z" class="colorFFF svgShape"></path><path fill="#e8b94b" d="M494.449,94.768h-33.197c-18.147,0-32.847,11.96-32.847,27.544l-0.011,0.674
	c0,8.217,4.093,15.611,10.619,20.768c-2.157,6.294-5.151,11.088-15.553,12.801c13.331,1.772,20.915-0.468,28.6-6.478
	c2.918,0.729,6.001,1.128,9.193,1.128h33.197c18.147,0,32.845-12.313,32.845-27.898l0.013-0.321
	C527.308,107.401,512.596,94.768,494.449,94.768z" class="colorFF7171 svgShape"></path><path fill="#ffffff" d="M438.402 114.872c0-2.337 1.895-4.232 4.232-4.232 2.337 0 4.232 1.895 4.232 4.232 0 2.338-1.895 4.232-4.232 4.232C440.297 119.104 438.402 117.21 438.402 114.872zM451.751 114.872c0-2.337 1.895-4.232 4.232-4.232 2.338 0 4.232 1.895 4.232 4.232 0 2.338-1.895 4.232-4.232 4.232C453.646 119.104 451.751 117.21 451.751 114.872zM465.1 114.872c0-2.337 1.895-4.232 4.232-4.232 2.337 0 4.232 1.895 4.232 4.232 0 2.338-1.895 4.232-4.232 4.232C466.995 119.104 465.1 117.21 465.1 114.872zM479.528 114.872c0-2.337 1.895-4.232 4.232-4.232 2.338 0 4.232 1.895 4.232 4.232 0 2.338-1.895 4.232-4.232 4.232C481.423 119.104 479.528 117.21 479.528 114.872zM492.877 114.872c0-2.337 1.895-4.232 4.232-4.232 2.338 0 4.232 1.895 4.232 4.232 0 2.338-1.895 4.232-4.232 4.232C494.772 119.104 492.877 117.21 492.877 114.872zM506.226 114.872c0-2.337 1.895-4.232 4.232-4.232 2.337 0 4.232 1.895 4.232 4.232 0 2.338-1.895 4.232-4.232 4.232C508.121 119.104 506.226 117.21 506.226 114.872zM438.402 131.435c0-2.337 1.895-4.232 4.232-4.232 2.337 0 4.232 1.895 4.232 4.232 0 2.338-1.895 4.232-4.232 4.232C440.297 135.668 438.402 133.773 438.402 131.435zM451.751 131.435c0-2.337 1.895-4.232 4.232-4.232 2.338 0 4.232 1.895 4.232 4.232 0 2.338-1.895 4.232-4.232 4.232C453.646 135.668 451.751 133.773 451.751 131.435zM465.1 131.435c0-2.337 1.895-4.232 4.232-4.232 2.337 0 4.232 1.895 4.232 4.232 0 2.338-1.895 4.232-4.232 4.232C466.995 135.668 465.1 133.773 465.1 131.435zM479.528 131.435c0-2.337 1.895-4.232 4.232-4.232 2.338 0 4.232 1.895 4.232 4.232 0 2.338-1.895 4.232-4.232 4.232C481.423 135.668 479.528 133.773 479.528 131.435zM492.877 131.435c0-2.337 1.895-4.232 4.232-4.232 2.338 0 4.232 1.895 4.232 4.232 0 2.338-1.895 4.232-4.232 4.232C494.772 135.668 492.877 133.773 492.877 131.435zM506.226 131.435c0-2.337 1.895-4.232 4.232-4.232 2.337 0 4.232 1.895 4.232 4.232 0 2.338-1.895 4.232-4.232 4.232C508.121 135.668 506.226 133.773 506.226 131.435z" class="colorFFF svgShape"></path><path fill="#e8b94b" d="M958.661,442.427h-33.197c-18.147,0-32.847,11.96-32.847,27.544l-0.011,0.674
	c0,8.217,4.093,15.611,10.619,20.768c-2.157,6.293-5.151,11.088-15.553,12.801c13.331,1.772,20.915-0.468,28.599-6.478
	c2.918,0.729,6.001,1.128,9.193,1.128h33.197c18.147,0,32.845-12.313,32.845-27.898l0.013-0.321
	C991.519,455.06,976.808,442.427,958.661,442.427z" class="colorFF7171 svgShape"></path><path fill="#ffffff" d="M902.613 462.531c0-2.337 1.895-4.233 4.232-4.233 2.338 0 4.232 1.895 4.232 4.233s-1.895 4.232-4.232 4.232C904.508 466.763 902.613 464.869 902.613 462.531zM915.963 462.531c0-2.337 1.895-4.233 4.232-4.233 2.337 0 4.232 1.895 4.232 4.233s-1.895 4.232-4.232 4.232C917.857 466.763 915.963 464.869 915.963 462.531zM929.312 462.531c0-2.337 1.895-4.233 4.232-4.233 2.338 0 4.232 1.895 4.232 4.233s-1.895 4.232-4.232 4.232C931.206 466.763 929.312 464.869 929.312 462.531zM943.74 462.531c0-2.337 1.895-4.233 4.232-4.233 2.338 0 4.232 1.895 4.232 4.233s-1.895 4.232-4.232 4.232C945.635 466.763 943.74 464.869 943.74 462.531zM957.089 462.531c0-2.337 1.895-4.233 4.232-4.233s4.232 1.895 4.232 4.233-1.895 4.232-4.232 4.232S957.089 464.869 957.089 462.531zM970.438 462.531c0-2.337 1.895-4.233 4.232-4.233 2.337 0 4.232 1.895 4.232 4.233s-1.895 4.232-4.232 4.232C972.333 466.763 970.438 464.869 970.438 462.531zM902.613 479.094c0-2.337 1.895-4.233 4.232-4.233 2.338 0 4.232 1.895 4.232 4.233 0 2.338-1.895 4.232-4.232 4.232C904.508 483.327 902.613 481.432 902.613 479.094zM915.963 479.094c0-2.337 1.895-4.233 4.232-4.233 2.337 0 4.232 1.895 4.232 4.233 0 2.338-1.895 4.232-4.232 4.232C917.857 483.327 915.963 481.432 915.963 479.094zM929.312 479.094c0-2.337 1.895-4.233 4.232-4.233 2.338 0 4.232 1.895 4.232 4.233 0 2.338-1.895 4.232-4.232 4.232C931.206 483.327 929.312 481.432 929.312 479.094zM943.74 479.094c0-2.337 1.895-4.233 4.232-4.233 2.338 0 4.232 1.895 4.232 4.233 0 2.338-1.895 4.232-4.232 4.232C945.635 483.327 943.74 481.432 943.74 479.094zM957.089 479.094c0-2.337 1.895-4.233 4.232-4.233s4.232 1.895 4.232 4.233c0 2.338-1.895 4.232-4.232 4.232S957.089 481.432 957.089 479.094zM970.438 479.094c0-2.337 1.895-4.233 4.232-4.233 2.337 0 4.232 1.895 4.232 4.233 0 2.338-1.895 4.232-4.232 4.232C972.333 483.327 970.438 481.432 970.438 479.094z" class="colorFFF svgShape"></path><path fill="#ef984b" d="M404.27,570.404h33.197c18.147,0,32.847,11.96,32.847,27.544l0.011,0.674
	c0,8.217-4.092,15.611-10.619,20.768c2.157,6.294,5.151,11.088,15.553,12.801c-13.331,1.772-20.915-0.468-28.599-6.478
	c-2.918,0.729-6.001,1.128-9.193,1.128H404.27c-18.147,0-32.845-12.313-32.845-27.898l-0.013-0.321
	C371.411,583.038,386.123,570.404,404.27,570.404z" class="color8EBCEF svgShape"></path><path fill="#ffffff" d="M460.317,590.509c0-2.337-1.895-4.232-4.232-4.232c-2.338,0-4.233,1.895-4.233,4.232
	c0,2.338,1.895,4.232,4.233,4.232C458.422,594.741,460.317,592.846,460.317,590.509z" class="colorFFF svgShape"></path><circle cx="442.736" cy="590.509" r="4.232" fill="#ffffff" class="colorFFF svgShape"></circle><path fill="#ffffff" d="M433.619 590.509c0-2.337-1.895-4.232-4.232-4.232-2.338 0-4.232 1.895-4.232 4.232 0 2.338 1.895 4.232 4.232 4.232C431.724 594.741 433.619 592.846 433.619 590.509zM419.191 590.509c0-2.337-1.895-4.232-4.232-4.232-2.338 0-4.232 1.895-4.232 4.232 0 2.338 1.895 4.232 4.232 4.232C417.296 594.741 419.191 592.846 419.191 590.509z" class="colorFFF svgShape"></path><circle cx="401.61" cy="590.509" r="4.232" fill="#ffffff" class="colorFFF svgShape"></circle><path fill="#ffffff" d="M392.493 590.509c0-2.337-1.895-4.232-4.232-4.232-2.337 0-4.232 1.895-4.232 4.232 0 2.338 1.895 4.232 4.232 4.232C390.598 594.741 392.493 592.846 392.493 590.509zM460.317 607.072c0-2.337-1.895-4.232-4.232-4.232-2.338 0-4.233 1.895-4.233 4.232 0 2.338 1.895 4.232 4.233 4.232C458.422 611.304 460.317 609.41 460.317 607.072zM446.968 607.072c0-2.337-1.895-4.232-4.232-4.232-2.337 0-4.232 1.895-4.232 4.232 0 2.338 1.895 4.232 4.232 4.232C445.073 611.304 446.968 609.41 446.968 607.072zM433.619 607.072c0-2.337-1.895-4.232-4.232-4.232-2.338 0-4.232 1.895-4.232 4.232 0 2.338 1.895 4.232 4.232 4.232C431.724 611.304 433.619 609.41 433.619 607.072zM419.191 607.072c0-2.337-1.895-4.232-4.232-4.232-2.338 0-4.232 1.895-4.232 4.232 0 2.338 1.895 4.232 4.232 4.232C417.296 611.304 419.191 609.41 419.191 607.072zM405.842 607.072c0-2.337-1.895-4.232-4.232-4.232-2.338 0-4.232 1.895-4.232 4.232 0 2.338 1.895 4.232 4.232 4.232C403.947 611.304 405.842 609.41 405.842 607.072zM392.493 607.072c0-2.337-1.895-4.232-4.232-4.232-2.337 0-4.232 1.895-4.232 4.232 0 2.338 1.895 4.232 4.232 4.232C390.598 611.304 392.493 609.41 392.493 607.072z" class="colorFFF svgShape"></path><path fill="#124180" d="M323.995,240.817c0.39-1.838-26.993-0.387-35.624,5.24c-0.527,0.343,62.601,28.447,62.601,28.447
	l60.464-28.404c-8.738-3.027-18.641-5.439-29.21-7.5L323.995,240.817z" class="color124180 svgShape"></path><path fill="#ffcbc7" d="M336.225,284.262c-0.161,0.002-0.323,0.003-0.477,0.006c-0.098,0-0.196,0.001-0.294,0.001
	c-8.101,0.093-13.39-0.108-13.39-0.108s-0.389,0.087-1.098,0.233c-6.926,1.437-44.269,8.551-41.087-5.52
	c2.789-12.355,25.194-10.819,34.178-9.685c0.035,0,0.062,0.006,0.089,0.012c2.242,0.286,3.624,0.539,3.624,0.539
	s4.458-1.917,11.493-4.646c0.29-0.115,0.588-0.234,0.884-0.348c23.176-8.995,71.919-26.044,84.536-15.798
	c-0.001,0.007-0.001,0.007-0.001,0.007c0.139,0.106,0.275,0.225,0.404,0.344c0.008-0.006,0.02,0.004,0.024,0.018
	c0.134,0.126,0.261,0.258,0.387,0.389c0.111,0.107,0.219,0.228,0.317,0.359c0.041,0.037,0.08,0.087,0.118,0.137
	c0.138,0.176,0.275,0.358,0.397,0.545c-0.001,0.007,0.005,0.008,0.005,0.008c0.132,0.203,0.257,0.411,0.374,0.624
	c0.111,0.205,0.207,0.414,0.295,0.628c0.205,0.463,0.361,0.957,0.476,1.478c0.113,0.528,0.208,1.044,0.271,1.554
	c0.117,0.913,0.163,1.797,0.122,2.663C416.858,280.426,362.634,283.912,336.225,284.262z" class="colorFFCBC7 svgShape"></path><path fill="#245ba3" d="M418.478,264.791c-8.634,13.758-47.61,18.226-73.12,19.883c-8.184,0.529-14.981,0.773-18.946,0.937
	c-1.588,0.064-3.091-0.471-4.267-1.445l-0.005-0.005c-0.73-0.609-1.329-1.376-1.736-2.276c-1.572-3.457-2.308-7.051-2.371-10.767
	c-0.011-0.535,0.053-1.059,0.169-1.561c0.482-2.006,1.927-3.695,3.917-4.447c1.869-0.704,3.907-1.44,6.077-2.197
	c8.83-3.086,19.888-6.516,31.121-9.534c2.853-0.768,5.712-1.503,8.549-2.202c10.704-2.641,21.084-4.722,29.321-5.569
	c7.067-0.725,12.556-0.545,15.33,0.969c3.176,1.731,5.659,5.214,6.162,6.268C420.887,257.454,420.601,261.408,418.478,264.791z" class="color245BA3 svgShape"></path><path fill="#353640" d="M321.998,284.245c-0.487,0.138-4.304,1.196-9.603,2.324c-14.515,3.081-40.146,6.633-38.722-7.162
	c0.302-2.959,1.715-5.203,3.864-6.882c10.132-7.935,36.589-3.388,39.881-2.784c-2.08-0.339-13.059-1.694-13.869,7.845
	C302.655,288.146,320.897,284.472,321.998,284.245z" class="color353640 svgShape"></path><path fill="#24252b" d="M312.395,286.568c-14.515,3.081-40.146,6.633-38.722-7.162c0.302-2.959,1.715-5.203,3.864-6.882
	c0,0-2.922,8.332,0.445,10.714c3.362,2.382,7.194-0.106,10.767,2.588C292.322,288.522,312.395,286.568,312.395,286.568z" class="color24252B svgShape"></path><path fill="#1c5199" d="M397.187 245.607c.005.111-.011.233-.048.365-.09.371-.318.842-.778 1.429-1.868 2.382-5.908.831-9.221 2.594-3.314 1.757-7.146.831-12.011 1.244-1.63.138-3.446.132-5.14.064-.741-.037-1.456-.079-2.123-.127C378.57 248.534 388.951 246.454 397.187 245.607zM418.478 264.791c-8.634 13.758-47.61 18.226-73.12 19.883-.508-.206-.995-.402-1.461-.593h-.005c-3.706-1.54-6.215-2.774-6.622-3.43-1.371-2.229-4.907-9.274-8.004-15.558-.36-.741-.72-1.472-1.069-2.181 8.83-3.086 19.888-6.516 31.121-9.534.561.122 1.159.291 1.784.519h.005c1.44.524 2.991 1.35 4.494 2.657 4.881 4.235 14.891 1.826 16.611 4.727 1.72 2.901 3.065 3.689 5.86 4.123 2.8.434 16.262-2.535 21.026-.794 2.075.762 4.007 1.191 5.754 1.149C416.175 265.733 417.393 265.426 418.478 264.791z" class="color1C5199 svgShape"></path><path fill="#ffcbc7" d="M380.523,202.402c-8.29,10.421-0.873,38.951-0.873,38.951h-55.656c1.541-1.953,5.871-26.539-3.891-40.097
	c-15.748-21.866,1.223-38.865,1.223-38.865l23.143-3.768l0.534-2.393l0.942-4.204l0.879-3.929l0.138-0.616l0.238-1.057h10.412
	l0.376,1.981l0.328,1.753l0.487,2.564l1.207,6.374l1.059,0.204l20.216,3.929C381.286,163.228,399.511,178.521,380.523,202.402z" class="colorFFCBC7 svgShape"></path><path fill="#f5aba1" d="M361.07,159.3c-0.397,0.445-0.683,0.763-0.683,0.763s-2.176-4.607-2.795-5.194
	c-0.625-0.588-3.007,1.204-5.489,1.237c-2.488,0.028-2.764-1.825-4.801-1.455c-0.921,0.171-1.715,0.858-2.298,1.578l0.942-4.204
	l0.879-3.929c1.059-0.161,1.932-0.275,2.17-0.275c0.418,0,5.378,1.223,9.322,2.336l0.487,2.564l1.207,6.374L361.07,159.3z" class="colorF5ABA1 svgShape"></path><path fill="#ffda82" d="M380.521,202.408c-8.293,10.421-0.867,38.945-0.867,38.945h-55.659c1.309-1.661,4.641-19.752-0.426-33.442
	c-0.883-2.398-2.024-4.646-3.469-6.661c-15.747-21.863,0.853-38.7,0.853-38.7c3.447-1.533,15.059-3.426,23.522-3.937
	c1.147,12.951,13.829,12.739,15.535,0.477c7.759,0.679,14.861,2.047,21.272,4.141C381.282,163.232,399.51,178.515,380.521,202.408z" class="colorED475E svgShape"></path><path fill="#c4626e" d="M323.995,240.817c1.309-1.856,4.641-22.063-0.426-37.354c10.975-3.189,9.122,27.274,27.404,37.354H323.995z" class="colorC4626E svgShape"></path><path fill="#ffcbc7" d="M410.792,224.086c-0.578,3.228-3.118,6.729-6.877,10.189c-9.616,8.84-29.201,8.446-42.636,11.66
	l-1.402-6.408c0,0,23.984-6.056,29.143-13.589c0.548-0.804,0.928-1.553,1.081-2.22c1.749-7.506-7.958-16.891-7.958-16.891
	l-1.033-43.576C381.108,163.25,413.713,207.671,410.792,224.086z" class="colorFFCBC7 svgShape"></path><path fill="#ffda82" d="M411.997,223.605c-0.132,10.155-17.329,17.183-17.329,17.183l-1.738-3.137l-2.36-4.258l-4.395-7.932
	c0.551-0.805,3.401-1.314,3.552-1.993c1.747-7.499-13.801-19.109-13.801-19.109l3.674-41.652c2.431,0.429,5.153,2.298,7.993,5.242
	c3.82,3.957,7.857,9.859,11.705,16.825c0.151,0.259,0.292,0.518,0.433,0.782c0,0,0.01,0.024,0.024,0.047
	c0.975,1.79,1.912,3.617,2.788,5.459c5.398,11.234,8.997,23.042,9.406,30.781C411.992,222.456,412.002,223.045,411.997,223.605z" class="colorED475E svgShape"></path><path fill="#ffcbc7" d="M343.556,239.634l0.244,4.261c0.43-0.134,0.395-0.693-0.051-0.775c-11.973-2.215-31.652,0.849-41.233-6.435
	c-5.904-4.495-9.128-10.029-9.889-14.293c-2.921-16.415,28.882-59.972,28.882-59.972l-1.175,43.52c0,0-9.708,9.386-7.958,16.891
	c0.304,1.335,1.491,2.984,3.211,4.781C322.767,235.16,343.556,239.634,343.556,239.634z" class="colorFFCBC7 svgShape"></path><path fill="#ffda82" d="M312.374,222.832c0.302,1.336,2.335,2.502,4.055,4.298c-2.816,4.242-5.982,8.421-10.799,10.729
	c-0.297,0.142-0.609,0.232-0.926,0.275c-0.842,0.114-1.72-0.109-2.372-0.644c-5.59-4.588-11.852-11.54-13.048-15.369
	c-2.006-6.402,3.25-16.26,8.067-27.122c0.021-0.062,0.032-0.09,0.032-0.09c1.17-2.64,2.34-5.227,3.526-7.725
	c6.178-13.014,12.731-23.487,21.55-24.98l3.525,44.159C325.984,206.364,310.622,215.325,312.374,222.832z" class="colorED475E svgShape"></path><path fill="#e2a10b" d="M305.635 236.4c.027.626-.355 1.208-.931 1.734-.842.114-1.72-.109-2.372-.644-5.59-4.588-11.852-11.54-13.048-15.369-2.006-6.402 3.25-16.26 8.067-27.122.021-.062.032-.09.032-.09 1.17-2.64 2.34-5.227 3.526-7.725.011 2.403-.476 5.606-2.281 9.284-4.007 8.161-8.237 20.274-6.188 24.852 2.043 4.573 4.802 3.769 4.802 3.769.521 2.844-3.553 2.349.936 5.979C300.872 233.249 305.54 234.206 305.635 236.4zM330.398 185.158c0 0-16.807 27.843-23.988 27.29 0 0 1.968.777 4.16 5.576 1.148 2.513 8.631 6.628 9.045 6.766.414.138 8.562-13.257 8.562-13.257s.552-2.204 1.657-14.362C330.528 189.535 330.398 185.158 330.398 185.158zM371.252 185.158c0 0 16.808 27.843 23.988 27.29 0 0-1.968.777-4.16 5.576-1.148 2.513-8.631 6.628-9.045 6.766-.414.138-8.562-13.257-8.562-13.257s-.552-2.204-1.657-14.362C371.122 189.535 371.252 185.158 371.252 185.158z" class="colorD94156 svgShape"></path><path fill="#ffcbc7" d="M422.286,277.303c3.352,14.306-34.734,7.371-41.801,5.965c-0.723-0.143-1.12-0.227-1.12-0.227
	s-5.519,0.257-13.937,0.224c-0.164,0-0.329,0-0.492-0.001c-12.221-0.064-30.299-0.732-46.497-3.622
	c-19.873-3.54-36.928-10.406-36.898-23.569c0.001-0.029,0.003-0.051-0.001-0.071c0.005-0.537,0.037-1.079,0.101-1.636
	c0.004-0.015,0.002-0.022,0.001-0.028c0.069-0.572,0.165-1.15,0.286-1.74c0.113-0.531,0.268-1.036,0.472-1.509
	c0.088-0.219,0.184-0.433,0.295-0.643c0.117-0.218,0.242-0.431,0.375-0.639c0,0,0.007-0.002,0.005-0.008
	c0.123-0.191,0.261-0.378,0.4-0.558c0.039-0.051,0.078-0.102,0.119-0.14c0.099-0.136,0.208-0.259,0.32-0.369
	c0.128-0.135,0.255-0.27,0.392-0.399c0.004-0.015,0.016-0.025,0.024-0.02c1.538-1.433,3.69-2.401,6.332-2.99
	c18.168-4.041,59.404,10.097,80.307,18.011c0.303,0.113,0.607,0.232,0.903,0.346c7.188,2.722,11.744,4.636,11.744,4.636
	s1.405-0.27,3.687-0.58c0.027-0.006,0.056-0.005,0.09-0.012C396.536,266.495,419.335,264.744,422.286,277.303z" class="colorFFCBC7 svgShape"></path><path fill="#4c73af" d="M380.904,279.787c-0.079,0.206-0.159,0.413-0.249,0.619c-1.382,3.25-3.838,5.669-7.919,5.712
	c-13.054-0.291-36.885-1.503-50.003-3.933c-21.486-4.208-46.488-13.859-42.084-27.802c0.466-1.477,1.26-3.001,2.424-4.574
	c3.891-5.251,10.836-6.998,19.459-6.665c16.918,0.651,40.273,9.317,59.6,15.224c5.304,1.62,10.307,3.033,14.785,4.012
	c2.996,0.826,4.971,3.721,5.204,6.823C382.371,272.45,382.143,276.479,380.904,279.787z" class="color326AB3 svgShape"></path><path fill="#353640" d="M423.184,277.749c-0.132,15.5-27.33,9.872-38.796,6.813c-3.065-0.821-5.008-1.456-5.008-1.456
	s18.104,3.6,17.744-7.527c-0.249-7.718-13.493-7.199-13.493-7.199c2.043-0.863,17.622-3.705,28.606-1.26c0,0,0,0,0.005,0.005
	C418.483,268.512,423.237,271.609,423.184,277.749z" class="color353640 svgShape"></path><path fill="#295c9e" d="M380.656 280.407c-1.382 3.25-3.838 5.669-7.919 5.712-13.054-.291-36.885-1.503-50.003-3.933-21.486-4.208-46.488-13.859-42.084-27.802.122.503 2.763 11.678 9.343 13.515 6.733 1.874 10.656 3.409 16.262 7.575 5.606 4.166 15.536 3.52 20.819 4.764 5.278 1.239 35.613 4.114 39.008 3.383 3.211-.692 2.723-3.456 2.21-5.387.164.138 1.719 3.415 2.311 5.35C371.365 286.076 379.441 283.177 380.656 280.407zM362.133 258.37c-3.51-.148-7.206-1.039-9.376-.816-5.077.519-14.915-7.976-17.504-5.075-2.589 2.901-7.972 3.314-7.972 3.314 2.589-1.969 4.558-4.658 1.138-5.283-3.42-.619-13.567-.725-21.958-3.314-4.076-1.255-4.531-2.795-3.928-4.05C319.452 243.796 342.807 252.462 362.133 258.37z" class="color295C9E svgShape"></path><path fill="#24252b" d="M423.184,277.749c-0.132,15.5-27.33,9.872-38.796,6.813c7.099,0.434,18.842,3.407,22.709-0.184
	c4.095-3.803,12.703-1.991,13.947-7.242c1.228-5.172-8.547-9.836-8.801-10.011C418.483,268.512,423.237,271.609,423.184,277.749z" class="color24252B svgShape"></path><path fill="#ffffff" d="M392.905,198.46l-4.626,45.619c-0.221,2.178-2.318,3.927-4.685,3.927h-67.383
	c-2.367,0-4.464-1.749-4.685-3.927L306.9,198.46c-0.281-2.769,1.688-5.042,4.4-5.042h77.204
	C391.216,193.418,393.185,195.691,392.905,198.46z" class="colorFFF svgShape"></path><path fill="#d7e0fa" d="M342.737,222.566c-0.069-3.869,3.139-7.061,7.166-7.061c4.027,0,7.235,3.191,7.166,7.061
	c-0.068,3.795-3.276,6.82-7.166,6.82C346.013,229.386,342.805,226.361,342.737,222.566z" class="colorD7E0FA svgShape"></path><path fill="#d7e0fa" d="M392.905,198.46l-4.626,45.619c-0.221,2.178-2.318,3.927-4.685,3.927h-67.383
	c-2.367,0-4.464-1.749-4.685-3.927c68.633,2.874,77.409-6.465,76.979-50.661C391.216,193.418,393.185,195.691,392.905,198.46z" class="colorD7E0FA svgShape"></path><path fill="#353640" d="M338.88,136.823c0,0-7.098-10.258-1.462-19.33c2.856-4.597,9.365-9.81,20.718-6.281
	c3.868,1.202,9.956,6.596,15.216,4.383c0,0,1.453,9.343-4.595,14.799c0,0,0.918,3.227-1.216,6.43
	C365.405,140.025,338.88,136.823,338.88,136.823z" class="color353640 svgShape"></path><path fill="#ffcbc7" d="M339.554,134.884c0,0-4.237-4.226-4.595-0.614c-0.425,4.274,4.688,6.457,4.688,6.457
	s2.253,13.215,13.402,13.215c11.06,0,11.898-13.266,11.898-13.266s5.817-1.587,4.583-6.609c-0.585-2.385-3.618,0.052-3.618,0.052
	v-3.228c0,0-1.411-5.191-7.895-5.796c-4.412-0.412-7.699-0.451-11.294,0.294C342.588,126.245,339.388,128.855,339.554,134.884z" class="colorFFCBC7 svgShape"></path><path fill="#e2a10b" d="M411.997,223.605c-0.132,10.155-17.329,17.183-17.329,17.183l-1.738-3.137l-2.36-4.258
	c3.076-1.945,9.356-1.229,13.308-5.805c8.755-10.137-1.474-13.178-2.597-31.057c-0.38-6.059-9.482-21.544-13.688-28.582
	c3.82,3.957,7.857,9.859,11.705,16.825c0.151,0.259,0.292,0.518,0.433,0.782c0,0,0.01,0.024,0.024,0.047
	c0.975,1.79,1.912,3.617,2.788,5.459c5.398,11.234,8.997,23.042,9.406,30.781C411.992,222.456,412.002,223.045,411.997,223.605z" class="colorD94156 svgShape"></path><path fill="#ffcbc7" d="M524.373,679.199l-0.994,4.167l-2.472,29.105c0,0,0.924,2.007-0.224,4.917
	c-2.599,6.615-12.59,14.475-17.713,14.004c-15.918-1.463-32.707-30.736-32.707-30.736c-4.014-2.344-8.607-11.948-7.028-17.953
	c3.369-12.764,5.168,5.062,11.231,6.571c1.337,0.347,2.638-5.953,4.594-3.119c1.278,1.851-1.099,9.299-1.099,9.299
	s22.342,17.329,22.88,17.308c0.157-0.015,3.095-3.681,4.57-7.482c3.044-7.93,8.716-20.887,15.924-24.928
	C522.299,679.782,523.342,679.395,524.373,679.199z" class="colorFFCBC7 svgShape"></path><path fill="#e8b94b" d="M523.379,683.367l7.754,23.484c0,0-8.253,11.71-9.4,14.622c-7.845-4.53-15.109-9.082-19.64-13.738
	c5.063-7.574,15.871-28.798,23.079-32.838L523.379,683.367z" class="colorFF7171 svgShape"></path><rect width="4.671" height="34.765" x="467.244" y="667.908" fill="#2e3342" transform="rotate(-28.756 469.546 685.253)" class="color2E3342 svgShape"></rect><path fill="#2e3342" d="M531.491,645.114c6.127,12.49,12.014,21.123,23.498,27.74c15.25,8.787,13.432,27.875,0.202,26.663
	c-11.661-1.068-11.715-15.351-21.209-16.765c-9.494-1.414-7.474-18.381-7.474-18.381L531.491,645.114z" class="color2E3342 svgShape"></path><path fill="#2e3342" d="M507.827,662.753c0,0-7.243-5.518-4.425-14.986c2.975-9.992,16.13-11.904,21.717-9.06
	c10.075,5.128,10.863,19.564,2.14,27.172L507.827,662.753z" class="color2E3342 svgShape"></path><path fill="#ffcbc7" d="M553.996,687.52c-4.726,17.1,0.588,24.339,1.33,37.543c0.971,10.176-1.005,26.595-5.471,38.855
	c-9.225-1.286-27.8-3.865-37.028-5.14l-6.414,8.003c3.41-3.27,30.664-32.98,24.302-45.809c-11.663-24.262-8.278-43.585-8.278-43.585
	c-0.823-1.438-3.826-6.741-4.695-8.274l7.818-5.076c1.983,2.159,6.36,6.892,8.379,9.084
	C535.67,675.392,552.583,687.022,553.996,687.52z" class="colorFFCBC7 svgShape"></path><path fill="#ffda82" d="M498.635,762.801c14.249,8.997,33.904,2.109,51.409,1.154c10.798-37.187,19.72-84.025-16.103-90.835
	c-5.969,9.414-10.298,12.689-11.505,4.267c-17.702,20.096,5.303,50.222-9.322,67.884C508.795,750.82,502.85,755.547,498.635,762.801
	z" class="colorED475E svgShape"></path><path fill="#e2a10b" d="M513.112,745.27c3.054,0.208,6.466,0.768,9.666,1.381c0.517,0.1,1.028,0.201,1.533,0.298
	c6.497,1.279,12.63-4.409,14.293-8.828c1.665-4.413,4.941-2.425,9.279-5.926c2.833-2.281,4.245-14.94,4.885-23.466
	c0.341-4.55,0.463-7.918,0.463-7.918l-1.167-0.55l-20.103-9.45c-3.239,1.524-5.847,6.126-7.9,11.291
	c-2.854,7.164-4.648,15.413-5.599,18.06c-0.14,0.387-0.437,0.872-0.861,1.431l0.176,0.807
	C520.194,733.185,517.481,739.651,513.112,745.27z" class="colorD94156 svgShape"></path><path fill="#f7bdba" d="M529.039,667.81c-2.325,3.643-5.67,6.097-7.836,7.408l-3.461-6.106l7.818-5.076L529.039,667.81z" class="colorF7BDBA svgShape"></path><path fill="#ffcbc7" d="M527.436,655.992c0,0,2.982-4.275,0.566-6.49c-2.755-2.525-5.997,4.103-5.997,4.103
	c-4.833,1.837-8.87,0.895-14.463-1.907c-1.294-0.647-2.763,0.511-2.429,1.919c1.389,5.851,4.596,16.93,9.32,18.854
	c2.619,1.068,5.209,0.474,7.499-0.792C526.939,668.909,527.485,656.527,527.436,655.992z" class="colorFFCBC7 svgShape"></path><path fill="#2e3342" d="M507.827,662.753c0,0-0.568-7.965-1.265-11.371c0,0,1.785,5.512,10.341,6.49
	c6.536,0.747,7.267,7.347,7.267,7.347c0.793-5.518-0.437-7.752-2.165-11.614l-3.177-4.762c0,0-4.578-0.957-4.638-1.232
	c-0.06-0.277-8.774,0.046-8.774,0.046l-1.732,4.84L507.827,662.753z" class="color2E3342 svgShape"></path><path fill="#f9e6bc" d="M464.062,680.09c3.493-3.774,2.679,7.225,9.908,10.056c0.717,0.281,1.913-4.725,3.31-3.895
	c2.406,1.43-0.611,6.964,0.847,9.828c0.748,1.47,40.393,25.102,40.393,25.102l8.488-14.927c0,0,11.006-14.532,16.266-13.725
	c9.004,1.382,9.986,13.642,0.097,27.402c-8.877,12.307-16.206,18.985-19.989,19.609c-14.678,2.424-44.111-28.409-49.848-33.687
	C472.931,705.293,456.723,688.021,464.062,680.09z" class="colorFFDBD9 svgShape"></path><path fill="#e8b94b" d="M541.149,727.477c-8.184-2.063-15.367-6.138-20.956-12.855c0,0,12.44-40.428,27.924-28.051
	C558.805,695.114,551.037,713.718,541.149,727.477z" class="colorFF7171 svgShape"></path><path fill="#ffcbc7" d="M333.508,775.465c0.186,1.124,0.292,11.319,0.292,11.319c6.558-0.326,13.505,0.124,20.49,0.005
	c2.034-0.033,4.074-0.118,6.103-0.281c0.197-0.017,0.388-0.034,0.585-0.05c30.106-2.675,62.016-2.951,95.69-2.939
	c5.395,0,10.835,0.011,16.326,0.022c13.549,0.017,27.38,0.034,41.486-0.09l-24.351-32.219c-16.219,1.635-32.23,3.456-47.999,5.474
	c-28.179,3.602-55.604,7.845-82.118,12.841c-0.242,0.045-0.484,0.09-0.725,0.141C350.677,771.351,341.916,773.689,333.508,775.465z" class="colorFFCBC7 svgShape"></path><path fill="#2c5e9e" d="M359.287,769.688c-0.006,0.084-0.006,0.169,0,0.253l0.736,11.628l0.281,4.451
	c0.012,0.169,0.039,0.337,0.09,0.489c0.303,1.006,1.309,1.669,2.394,1.501c75.246-11.504,136.317,16.275,161.045-5.39
	l-33.703-31.387c-16.241,1.641-32.387,3.265-48.32,5.036c-27.735,3.074-54.839,6.598-80.764,11.414
	C360.057,767.867,359.338,768.704,359.287,769.688z" class="color2C5E9E svgShape"></path><path fill="#46668e" d="M360.023,781.568l0.281,4.451c0.012,0.169,0.039,0.337,0.09,0.489c0.303,1.006,1.309,1.669,2.394,1.501
	c75.246-11.504,136.317,16.275,161.045-5.39l-33.703-31.387c-16.241,1.641-32.387,3.265-48.32,5.036
	c0.106,0.146,0.214,0.286,0.32,0.438c4.349,6.008,10.824,16.062,18.248,18.714c5.884,2.102,11.453,5.71,12.617,8.121
	c0.623,1.281-0.006,2.231-2.501,2.433c-3.22,0.264-8.52-1.09-13.825-2.456c-6.536-1.669-13.083-3.349-15.792-2.012
	c-4.912,2.417-32.326,1.978-32.107-2.568c0,0-0.657,4.029-5.277,4.029c-4.62,0-33.501,1.686-38.924-1.096
	C362.99,781.057,361.434,781.102,360.023,781.568z" class="color22528F svgShape"></path><path fill="#2e3342" d="M335.686,786.873l-9.203,4.191l-15.145,0.123l-0.531-2.932l12.693-4.405l-9.289-3.627
	c-2.501-0.977-4.662-2.652-5.352-5.247c-1.817-6.844-3.839-20.419,0.656-21.583c4.619-1.197,6.554,11.966,12.221,15.14
	c5.49,3.073,12.618,6.698,12.618,6.698L335.686,786.873z" class="color2E3342 svgShape"></path><path fill="#ffcbc7" d="M549.908,764.039c-58.562,72.847-91.201-25.551-108.774-22.1c-17.573,3.451-41.844,26.571-45.801,28.967
	c-4.626,1.319-13.763,2.979-12.392-2.476c2.511-4.377,3.488-6.666,6.102-11.171c0.005-0.015,0.392-1.626,0.392-1.626
	c3.054-6.526,34.405-37.245,44.866-38.643c28.945-3.868,47.207,23.704,68.087,32.976C523.267,759.237,532.729,756.5,549.908,764.039
	z" class="colorFFCBC7 svgShape"></path><path fill="#4c73af" d="M389.119,754.501c-0.875,1.357-0.562,3.152,0.727,4.125c1.196,0.902,2.786,2.04,4.497,3.216
	c3.108,2.141,6.62,4.406,8.89,5.609c6.508-6.716,31.36-20.209,34.203-20.968c5.823-1.557,34.529,43.172,66.18,45.392
	c13.454,0.944,36.209-3.777,46.426-27.92c-7.002-2.484-16.163-7.12-26.436-12.605c-31.14-16.635-65.73-41.47-87.844-37.598
	C424.592,715.714,396.95,742.367,389.119,754.501z" class="color326AB3 svgShape"></path><path fill="#265b9e" d="M394.344,761.842c3.108,2.141,6.62,4.406,8.89,5.609c6.508-6.716,31.36-20.209,34.203-20.968
	c5.823-1.557,34.529,43.172,66.18,45.392c13.454,0.944,36.209-3.777,46.426-27.92c-7.002-2.484-16.163-7.12-26.436-12.605
	c1.849,4.67,5.817,9.494,8.548,15.236c5.335,11.216-18.853,24.075-28.311,20.225c-9.453-3.85-14.792-6.374-21.88-8.018
	c-13.745-3.189-25.787-26.534-33.042-29.523c-10.006-4.123-9.126-9.899-9.126-15.064c0,0-2.695,9.62-7.203,10.722
	c-4.507,1.096-21.333,9.537-25.07,15.157C404.831,764.135,397.924,762.663,394.344,761.842z" class="color265B9E svgShape"></path><path fill="#2e3342" d="M395.721,770.832c0.023,3.16,0.689,4.096,0.473,7.787c-0.216,3.692-1.387,10.135-1.829,14.345
	c-1.026,0.138-1.991,0.088-2.993,0.156c-0.858-4.378-1.668-8.789-2.557-13.14c-1.376,2.656-3.605,6.054-4.831,8.558
	c-1.227,2.506-3.951,4.204-5.891,4.544c-5.117,0.897-19.749,2.274-20.741-3.562c-0.991-5.837,13.048-6.094,16.022-9.983
	c2.974-3.889,6.122-7.68,9.181-11.438C386.959,768.995,391.322,769.926,395.721,770.832z" class="color2E3342 svgShape"></path></svg></g></svg>