<svg id="SvgjsSvg1001" width="360" height="360" xmlns="http://www.w3.org/2000/svg" version="1.1" xmlns:xlink="http://www.w3.org/1999/xlink" xmlns:svgjs="http://svgjs.com/svgjs"><defs id="SvgjsDefs1002"></defs><g id="SvgjsG1008" transform="matrix(1,0,0,1,0,0)"><svg xmlns="http://www.w3.org/2000/svg" viewBox="0 0 506.21 506.72" width="360" height="360"><g data-name="Layer 2" fill="#000000" class="color000 svgShape"><g data-name="Layer 1" fill="#000000" class="color000 svgShape"><rect width="66.69" height="46.96" x="347.87" y="383.88" fill="none" stroke="#008ef8" stroke-linecap="round" stroke-linejoin="round" transform="rotate(149.83 381.216 407.343)" class="colorStroke008ef8 svgStroke"></rect><circle cx="405.4" cy="429.06" r="29.82" fill="#c0eaff" class="colorc1e3f7 svgShape"></circle><path fill="#fff6e5" d="M229.34,101.73,506.21,0,495.37,41.43a110.93,110.93,0,0,0-.06,55.89l2.58,10a111,111,0,0,1-2.37,63.54h0a111,111,0,0,0-.83,68.91l11.52,36.73L229.34,111.12Z" class="colorfff8e9 svgShape"></path><path fill="#49b4e6" d="M259.05,499.8a253.7,253.7,0,0,1-89.9,4.24q-4.41-.59-8.81-1.32t-8.89-1.66q-2.92-.58-5.84-1.26l.18-2.65.54-7.66.31-4.44.74-10.7.75-10.71.5-7.19.34-4.9.78-11.23.82-11.72.82-11.78.84-12.1.78-11.24.82-11.72.73-10.52.84-12.1.79-11.25.81-11.72.85-12.13.75-10.79.73-10.58.6-8.61.76-10.86.69-9.91.7-10.12.84-12,.84-12.1.78-11.24h0l.81-11.72.25-3.57h73.44l17,243.93,2.53,36.32Z" class="color008ef8 svgShape"></path><path fill="#489ee0" d="M259.05,499.8a253.7,253.7,0,0,1-89.9,4.24q-4.41-.59-8.81-1.32t-8.89-1.66q-2.92-.58-5.84-1.26l.18-2.65.54-7.66.31-4.44.74-10.7.75-10.71.5-7.19q2.69.58,5.38,1.1c2.73.53,5.47,1,8.21,1.45s5.61.86,8.42,1.2A253.78,253.78,0,0,0,256,456.45l2.53,36.32Z" class="color489ee0 svgShape"></path><path fill="#1e3a73" d="M168.81 212.52a5.8 5.8 0 01-1.37 2.13 5.66 5.66 0 01-2.08 1.44 6.39 6.39 0 013.45-3.57zM178.87 213a107.64 107.64 0 01-14.33 14.83 93.21 93.21 0 016.8-7.76A95.06 95.06 0 01178.87 213zM178.87 223.42a118.84 118.84 0 01-15.11 15.64 103.44 103.44 0 017.19-8.17A105.6 105.6 0 01178.87 223.42zM178.87 234.64c-2.38 3-5 5.84-7.62 8.61s-5.39 5.43-8.33 7.91c2.37-3 5-5.84 7.61-8.61S175.93 237.12 178.87 234.64zM178.87 282.44c-1.48 1.83-3 3.58-4.61 5.32s-3.18 3.45-4.8 5.14-3.28 3.36-5 5L162 300.31c-.88.79-1.73 1.6-2.62 2.36.73-.92 1.51-1.8 2.26-2.7l2.35-2.62c1.56-1.75 3.18-3.45 4.8-5.14s3.27-3.36 5-5S177.09 284 178.87 282.44zM178.87 292.26c-1.54 1.89-3.16 3.71-4.79 5.51s-3.31 3.57-5 5.33-3.39 3.48-5.15 5.17l-2.63 2.53c-.91.81-1.79 1.65-2.71 2.45.76-.95 1.57-1.86 2.35-2.79l2.44-2.72c1.62-1.82 3.3-3.58 5-5.33s3.4-3.48 5.15-5.17S177 293.87 178.87 292.26zM178.87 302.27c-1.61 2-3.29 3.84-5 5.71s-3.43 3.7-5.17 5.52-3.52 3.61-5.34 5.36l-2.73 2.63c-.93.85-1.85 1.72-2.8 2.55.79-1 1.63-1.93 2.45-2.89l2.53-2.82c1.68-1.88 3.42-3.7 5.17-5.52s3.52-3.61 5.34-5.36S177 303.94 178.87 302.27zM178.87 313.53c-1.68 2-3.43 4-5.19 5.93s-3.57 3.84-5.39 5.74-3.66 3.75-5.55 5.58l-2.83 2.73c-1 .89-1.92 1.8-2.91 2.66.83-1 1.7-2 2.55-3l2.64-2.93c1.76-1.95 3.57-3.84 5.38-5.74s3.67-3.75 5.55-5.58S176.9 315.27 178.87 313.53zM178.87 324.41c-1.74 2.1-3.56 4.12-5.4 6.14s-3.7 4-5.58 5.95-3.8 3.89-5.76 5.79l-2.93 2.84c-1 .92-2 1.86-3 2.76.86-1.06 1.77-2.07 2.66-3.11l2.73-3c1.83-2 3.71-4 5.59-5.95s3.8-3.89 5.75-5.79S176.83 326.22 178.87 324.41zM178.87 334.84c-1.81 2.17-3.7 4.26-5.59 6.34s-3.84 4.12-5.79 6.16-3.93 4-6 6l-3 2.94c-1 1-2 1.94-3.11 2.87.89-1.09 1.84-2.14 2.75-3.21L161 352.8c1.89-2.09 3.84-4.12 5.78-6.16s3.93-4 5.95-6S176.76 336.72 178.87 334.84zM178.87 346.07c-1.88 2.24-3.84 4.41-5.8 6.56s-4 4.27-6 6.37-4.07 4.18-6.16 6.21l-3.14 3.05c-1.07 1-2.12 2-3.21 3 .93-1.13 1.91-2.21 2.86-3.32l2.94-3.24c2-2.16 4-4.27 6-6.37s4.07-4.18 6.16-6.21S176.69 348 178.87 346.07zM178.87 355.83c-1.94 2.3-4 4.53-6 6.75s-4.1 4.39-6.17 6.56-4.19 4.31-6.35 6.4l-3.23 3.15c-1.1 1-2.18 2.07-3.3 3.07 1-1.16 2-2.27 2.95-3.41l3-3.34c2-2.22 4.1-4.39 6.18-6.56s4.19-4.31 6.34-6.4S176.63 357.85 178.87 355.83zM178.87 366.7c-2 2.37-4.09 4.67-6.19 7s-4.24 4.54-6.38 6.78-4.33 4.44-6.55 6.61l-3.33 3.25c-1.14 1.06-2.25 2.14-3.41 3.18 1-1.19 2-2.34 3.05-3.52l3.14-3.44c2.09-2.3 4.23-4.54 6.38-6.78s4.33-4.44 6.55-6.61S176.56 368.79 178.87 366.7zM178.87 377.14c-2.07 2.44-4.22 4.81-6.39 7.16s-4.36 4.67-6.57 7-4.46 4.58-6.75 6.81l-3.43 3.35c-1.17 1.09-2.31 2.21-3.5 3.28 1-1.23 2.1-2.41 3.15-3.62l3.23-3.54c2.16-2.36 4.37-4.67 6.58-7s4.46-4.58 6.74-6.81S176.5 379.3 178.87 377.14zM178.87 388.36c-2.14 2.51-4.36 4.95-6.6 7.38s-4.5 4.82-6.78 7.2-4.6 4.72-7 7L155 413.43c-1.21 1.13-2.39 2.28-3.61 3.39 1.06-1.26 2.17-2.48 3.26-3.73l3.33-3.65c2.23-2.44 4.51-4.82 6.79-7.2s4.6-4.72 6.95-7S176.43 390.59 178.87 388.36zM178.87 399.3c-2.21 2.58-4.5 5.09-6.8 7.59s-4.64 5-7 7.41-4.74 4.86-7.16 7.24l-3.64 3.57c-1.24 1.16-2.45 2.35-3.71 3.49 1.1-1.3 2.24-2.55 3.36-3.83l3.44-3.76c2.29-2.51 4.64-5 7-7.41s4.73-4.86 7.16-7.24S176.36 401.6 178.87 399.3zM178.87 451.68c-2.54 2.92-5.16 5.77-7.79 8.61s-5.31 5.61-8 8.42-5.4 5.54-8.14 8.26l-4.13 4.08c-1.4 1.33-2.78 2.69-4.2 4 1.26-1.47 2.57-2.89 3.85-4.34l3.93-4.27c2.63-2.84 5.32-5.61 8-8.42s5.4-5.54 8.14-8.26S176 454.32 178.87 451.68zM145.79 497.15c1.3-1.5 2.64-3 4-4.45l4-4.38c2.7-2.91 5.46-5.76 8.19-8.64s5.54-5.68 8.35-8.48l4.24-4.19c1.43-1.37 2.85-2.76 4.31-4.11-1.3 1.51-2.64 3-4 4.45l-4 4.38c-2.69 2.91-5.45 5.76-8.18 8.64s-5.54 5.69-8.35 8.49S148.69 494.44 145.79 497.15zM151.45 501.06c.63-.75 1.28-1.49 1.93-2.22s1.28-1.48 2-2.2l4-4.34a.41.41 0 01.29-.13h0l-.31.13c3.14-3.38 6.36-6.7 9.6-10 1.62-1.65 3.28-3.26 4.93-4.88s3.33-3.2 5-4.77c-1.51 1.75-3 3.49-4.6 5.19s-3.11 3.42-4.7 5.09c-3.17 3.36-6.37 6.69-9.64 9.95h0a.46.46 0 01-.3.12h0l.31-.13-4.2 4.12c-.69.69-1.41 1.35-2.12 2S152.17 500.4 151.45 501.06zM160.34 502.72c1.39-1.74 2.87-3.41 4.36-5.06s3-3.27 4.54-4.88 3.11-3.18 4.72-4.71l2.42-2.3c.83-.74 1.63-1.51 2.49-2.23-.69.88-1.43 1.71-2.14 2.57l-2.22 2.49c-1.48 1.66-3 3.27-4.55 4.88s-3.1 3.18-4.71 4.71S162 501.27 160.34 502.72zM169.15 504a43 43 0 014.5-5.38 42.38 42.38 0 015.22-4.69A49.36 49.36 0 01169.15 504zM178.87 410.17c-2.28 2.66-4.64 5.24-7 7.8s-4.78 5.1-7.19 7.62-4.87 5-7.37 7.46l-3.74 3.67c-1.27 1.2-2.52 2.42-3.81 3.6 1.13-1.34 2.31-2.63 3.46-3.94l3.54-3.86c2.36-2.58 4.78-5.1 7.2-7.62s4.87-5 7.36-7.46S176.29 412.54 178.87 410.17zM178.87 420.6c-2.35 2.72-4.77 5.37-7.2 8s-4.91 5.23-7.39 7.82-5 5.14-7.56 7.66l-3.84 3.77c-1.3 1.23-2.59 2.49-3.91 3.7 1.16-1.37 2.37-2.69 3.56-4l3.64-4c2.42-2.65 4.9-5.24 7.39-7.82s5-5.14 7.56-7.66S176.23 423 178.87 420.6zM148.13 463.64c2.41-2.8 4.9-5.52 7.41-8.22s5-5.38 7.6-8 5.14-5.28 7.77-7.87l3.94-3.88c1.34-1.27 2.66-2.56 4-3.81-1.2 1.4-2.45 2.76-3.67 4.15L171.46 440c-2.5 2.72-5.05 5.38-7.6 8s-5.15 5.28-7.77 7.87S150.84 461.13 148.13 463.64zM147.38 474.35c2.47-2.86 5-5.64 7.59-8.41s5.2-5.48 7.79-8.22 5.28-5.4 8-8.06l4-4c1.38-1.3 2.72-2.62 4.12-3.9-1.23 1.44-2.51 2.83-3.76 4.24l-3.84 4.17c-2.57 2.76-5.2 5.47-7.79 8.21s-5.27 5.41-8 8.06S150.15 471.78 147.38 474.35zM178.87 275.22c-1.44 1.72-3 3.35-4.47 5s-3.08 3.22-4.65 4.79-3.17 3.13-4.82 4.63l-2.46 2.26c-.85.72-1.67 1.48-2.54 2.18.71-.87 1.46-1.68 2.19-2.53l2.27-2.45c1.52-1.64 3.08-3.22 4.66-4.79s3.17-3.13 4.81-4.63S177.14 276.64 178.87 275.22zM178.87 264.88c-1.37 1.67-2.82 3.27-4.28 4.85s-3 3.13-4.46 4.66-3 3-4.62 4.5l-2.38 2.19c-.81.71-1.6 1.44-2.44 2.12.67-.84 1.4-1.64 2.1-2.46l2.17-2.39c1.45-1.59 3-3.13 4.46-4.66s3.05-3 4.63-4.5S177.21 266.26 178.87 264.88zM178.87 255.7c-2.64 3.21-5.49 6.2-8.39 9.15s-5.91 5.79-9.1 8.44c2.63-3.21 5.48-6.21 8.39-9.15S175.67 258.35 178.87 255.7zM178.87 246.21c-2.52 3.1-5.26 6-8 8.83s-5.67 5.58-8.75 8.13c2.51-3.1 5.25-6 8-8.83S175.79 248.76 178.87 246.21z" class="color2428bb svgShape"></path><rect width="73.48" height="49.92" x="165.57" y="162.6" fill="#c0eaff" class="colorc1e3f7 svgShape"></rect><rect width="54.9" height="40.44" x="174.86" y="122.16" fill="#49b4e6" class="color008ef8 svgShape"></rect><rect width="35.28" height="40.86" x="184.67" y="81.3" fill="#c0eaff" class="colorc1e3f7 svgShape"></rect><path fill="#49b4e6" d="M225.75,89.31H178.86a43.66,43.66,0,0,1,6-22.07l17.46-29.78,17.45,29.78a43.66,43.66,0,0,1,6,22.07Z" class="color008ef8 svgShape"></path><path fill="#c0eaff" d="M239.9 224.79a15.44 15.44 0 00-28.1 10.11l3.44 38.41 27.87-2.5zM245.59 306.53a15.41 15.41 0 00-12.28-4.45h0a15.44 15.44 0 00-14 16.76l3.44 38.4L249 354.9zM251.58 392.5a15.45 15.45 0 00-6.39-.78h0a15.44 15.44 0 00-14 16.76l3.44 38.4 20.6-1.84z" class="colorc1e3f7 svgShape"></path><rect width="9.39" height="9.39" x="219.95" y="101.73" fill="#6784e4" class="color0234c1 svgShape"></rect><path fill="#a0c2ea" d="M33.93 149.88a190.83 190.83 0 0029.41-22.75c2.26-2.12 4.44-4.33 6.61-6.54 1-1.14 2.16-2.24 3.16-3.4s2-2.37 2.93-3.59c3.77-4.91 7.34-10 10.92-15.08L97.7 83.28c1.8-2.53 3.59-5.08 5.46-7.57a47.66 47.66 0 016.2-7A32.73 32.73 0 01126.26 61 48.5 48.5 0 01144.81 62a49.31 49.31 0 00-18.47-.58 32.15 32.15 0 00-16.47 7.77 52.3 52.3 0 00-6 7c-1.84 2.49-3.61 5-5.4 7.59L87.77 99.09c-3.6 5.07-7.19 10.14-11 15.07-1 1.22-1.93 2.44-3 3.62s-2.14 2.27-3.21 3.41c-2.18 2.22-4.4 4.41-6.71 6.5A178 178 0 0149.49 139.6 174.28 174.28 0 0133.93 149.88zM103.77 111a54 54 0 014.46-12.14 44.24 44.24 0 017.59-10.53 38.77 38.77 0 0110.51-7.67 112.88 112.88 0 0112-4.86 114.62 114.62 0 0011.91-4.91 108.45 108.45 0 0011.21-6.33A110.27 110.27 0 00171.89 57c3.36-2.7 6.54-5.61 9.64-8.61A112.77 112.77 0 01161.9 65.2a103.1 103.1 0 01-23.19 11.54 114.07 114.07 0 00-12 4.73 40 40 0 00-10.38 7.4C110.22 94.86 106.16 102.74 103.77 111zM30.33 301.08A139.33 139.33 0 0058.11 288.7c4.38-2.56 8.59-5.39 12.71-8.37s8.22-6 12.06-9.26a64.52 64.52 0 005.46-5.25 31.51 31.51 0 004.47-6 15 15 0 002-7 13.66 13.66 0 00-2.1-7c-2.58-4.19-6.86-7.56-11.75-8.27a11.89 11.89 0 00-7.1 1.26 15 15 0 00-5.44 4.88A14.26 14.26 0 0066 250.48a14.51 14.51 0 00.21 3.66 17.61 17.61 0 001.13 3.52 18 18 0 0010.65 9.74c4.76 1.52 10 1 14.81-.22a70.51 70.51 0 0014.11-5.45A108.74 108.74 0 00119.92 254a77.92 77.92 0 0011.54-9.85A88.45 88.45 0 00148.41 219a88.76 88.76 0 01-16.6 25.46 78.11 78.11 0 01-11.53 10 110.65 110.65 0 01-13.07 7.93A68.87 68.87 0 0193 268a38.15 38.15 0 01-7.61 1.17 22.28 22.28 0 01-7.69-.92 19 19 0 01-11.24-10.22 18.48 18.48 0 01-1.21-3.73A15.58 15.58 0 0165 250.4a15.16 15.16 0 012.67-7.32 16 16 0 015.81-5.19 12.83 12.83 0 017.68-1.33 16.19 16.19 0 017.16 3 20.19 20.19 0 015.24 5.73 14.57 14.57 0 012.21 7.45 15.92 15.92 0 01-2.17 7.45c-2.56 4.53-6.33 8.12-10.19 11.44s-8 6.27-12.2 9.19a149.13 149.13 0 01-12.83 8.28A139 139 0 0130.33 301.08z" class="colora0c2ea svgShape"></path><path fill="#ff9c76" d="M273.68,24.92c.55,2.62.91,5.25,1.2,7.88s.49,5.28.65,7.92.22,5.29.21,7.94a79.17,79.17,0,0,1-.36,8c-.55-2.63-.91-5.26-1.2-7.89s-.49-5.28-.65-7.92-.22-5.29-.2-7.94A78.83,78.83,0,0,1,273.68,24.92Z" class="colorf46534 svgShape"></path><path fill="#ff9c76" d="M290.39 39.92a78.74 78.74 0 01-7.89 1.21c-2.63.3-5.27.48-7.92.64s-5.29.23-7.94.21a79 79 0 01-8-.35 78.74 78.74 0 017.89-1.21c2.63-.3 5.27-.48 7.92-.64s5.29-.22 7.94-.21S287.72 39.65 290.39 39.92zM294.61 44.36a36.16 36.16 0 011.06 5.29c.24 1.78.42 3.55.51 5.33s.12 3.56.07 5.35a36.35 36.35 0 01-.49 5.38 36.2 36.2 0 01-1.07-5.29c-.24-1.78-.41-3.55-.51-5.33s-.11-3.56-.06-5.35A36.35 36.35 0 01294.61 44.36z" class="colorf46534 svgShape"></path><path fill="#ff9c76" d="M305.86 54.46a36.29 36.29 0 01-5.3 1.06c-1.77.25-3.54.42-5.32.51s-3.57.12-5.35.07a36.61 36.61 0 01-5.39-.49 38 38 0 015.3-1.07c1.77-.24 3.55-.41 5.33-.5s3.56-.12 5.35-.07A36.35 36.35 0 01305.86 54.46zM33.26 309.23a78.74 78.74 0 011.21 7.89c.3 2.63.48 5.28.65 7.92s.22 5.29.2 7.94a76 76 0 01-.35 8 75.92 75.92 0 01-1.2-7.89c-.3-2.63-.49-5.27-.65-7.91s-.22-5.29-.2-7.95A78.93 78.93 0 0133.26 309.23z" class="colorf46534 svgShape"></path><path fill="#ff9c76" d="M50 324.24c-2.62.55-5.25.91-7.89 1.2s-5.28.49-7.92.65-5.29.22-7.94.21-5.31-.08-8-.35a78.74 78.74 0 017.89-1.21c2.63-.3 5.27-.49 7.91-.65s5.29-.22 7.95-.2A79 79 0 0150 324.24zM54.2 328.67a38 38 0 011.06 5.3c.24 1.77.41 3.55.51 5.33s.12 3.56.07 5.35a36.35 36.35 0 01-.49 5.38 35.3 35.3 0 01-1.07-5.3c-.24-1.77-.42-3.55-.51-5.33s-.11-3.56-.06-5.35A36.47 36.47 0 0154.2 328.67z" class="colorf46534 svgShape"></path><path fill="#ff9c76" d="M65.45 338.78a38 38 0 01-5.3 1.06c-1.77.24-3.55.41-5.33.51s-3.56.12-5.35.07a36.47 36.47 0 01-5.38-.49 35.3 35.3 0 015.3-1.07c1.77-.24 3.55-.42 5.33-.51s3.56-.11 5.35-.06A36.35 36.35 0 0165.45 338.78zM467.14 289.81c.55 2.62.91 5.26 1.2 7.89s.49 5.28.65 7.92.22 5.29.21 7.94a78.84 78.84 0 01-.36 8c-.55-2.62-.91-5.25-1.2-7.89s-.49-5.27-.65-7.91-.22-5.29-.2-8A79 79 0 01467.14 289.81z" class="colorf46534 svgShape"></path><path fill="#ff9c76" d="M483.85 304.82c-2.62.55-5.25.91-7.89 1.2s-5.27.49-7.92.65-5.29.23-7.94.21a79 79 0 01-8-.35 78.74 78.74 0 017.89-1.21c2.63-.3 5.27-.49 7.92-.65s5.29-.22 7.94-.2A79 79 0 01483.85 304.82zM488.07 309.25a36.56 36.56 0 011.06 5.3c.24 1.77.42 3.55.51 5.33s.12 3.56.07 5.35a36.35 36.35 0 01-.49 5.38 36.6 36.6 0 01-1.07-5.3c-.24-1.77-.41-3.54-.51-5.32s-.11-3.57-.06-5.36A36.6 36.6 0 01488.07 309.25z" class="colorf46534 svgShape"></path><path fill="#ff9c76" d="M499.32,319.36a36.29,36.29,0,0,1-5.3,1.06c-1.77.24-3.54.42-5.32.51s-3.57.12-5.35.07a36.61,36.61,0,0,1-5.39-.49,36.6,36.6,0,0,1,5.3-1.07c1.77-.24,3.55-.42,5.33-.51s3.56-.11,5.35-.06A36.35,36.35,0,0,1,499.32,319.36Z" class="colorf46534 svgShape"></path><path fill="#ffe7b8" d="M329.28 440.33L349 474.23a31.14 31.14 0 01-3.56-1.88l-16.29-28A28.26 28.26 0 01329.28 440.33zM330 451.22l9.9 17A33.38 33.38 0 01330 451.22zM330.56 433.86l24.69 42.48c-1-.24-2-.52-3-.85l-22.5-38.69A22.27 22.27 0 01330.56 433.86zM332.67 428.54l28.24 48.58a19.48 19.48 0 01-2.61-.24l-26.72-46A20.6 20.6 0 01332.67 428.54zM335.3 424.12L366.05 477a23.42 23.42 0 01-2.39.14l-29.66-51c0-.09.11-.18.17-.29C334.52 425.24 334.91 424.67 335.3 424.12zM338.28 420.49l32.4 55.73c-.74.18-1.46.34-2.21.45l-31.68-54.5A19.86 19.86 0 01338.28 420.49zM341.54 417.44l33.39 57.45c-.68.27-1.35.51-2 .72l-33-56.73A17 17 0 01341.54 417.44zM345.22 414.82L379 473a17.14 17.14 0 01-1.91 1L343.43 416C344 415.58 344.61 415.18 345.22 414.82zM349.24 412.74l33.6 57.8c-.56.42-1.14.83-1.76 1.21l-33.77-58.09A17 17 0 01349.24 412.74zM353.61 411.16l32.76 56.36c-.51.52-1.06 1-1.61 1.48l-33.25-57.19C352.2 411.58 352.9 411.35 353.61 411.16zM358.25 410.19L389.5 464a19.15 19.15 0 01-1.44 1.77L356 410.58A20.54 20.54 0 01358.25 410.19zM363.3 409.89l29 49.81c-.28.54-.57 1.05-.87 1.55-.12.19-.25.39-.37.56l-30.16-51.88C361.67 409.88 362.47 409.86 363.3 409.89zM368.69 410.41l25.8 44.37a21.92 21.92 0 01-1 2.51L366 410A19.14 19.14 0 01368.69 410.41zM374.68 412.06L396 448.76a24.05 24.05 0 01-.66 3.12l-23.73-40.83A27.92 27.92 0 01374.68 412.06zM382.17 416l14.08 24.22a28.06 28.06 0 01.15 4.5l-18.06-31.06c.71.38 1.45.79 2.14 1.23S381.63 415.65 382.17 416zM394.66 432.84L387.78 421A33.46 33.46 0 01394.66 432.84z" class="colorffedc5 svgShape"></path><path fill="#bdbcbc" d="M163.43,432.16h76.06a74.06,74.06,0,0,1,74.06,74.06v0a0,0,0,0,1,0,0H89.37a0,0,0,0,1,0,0v0A74.06,74.06,0,0,1,163.43,432.16Z" class="colora3a3a3 svgShape"></path><path fill="#e2e2e2" d="M119 484.14a4.12 4.12 0 11-8.23 0c0-2.27 2.84-2.12 5.12-2.12S119 481.87 119 484.14zM158.54 460.35c0 4.31-4.49 5.8-8.79 5.8a7.8 7.8 0 010-15.6C154.05 450.55 158.54 456.05 158.54 460.35zM226.68 461.28a7.8 7.8 0 01-7.8 7.8c-4.3 0-6.8-1.49-6.8-5.8s2.5-9.8 6.8-9.8A7.8 7.8 0 01226.68 461.28zM299.21 488.86c0 4.31-4.49 5.8-8.8 5.8a7.8 7.8 0 01-7.8-7.8c0-4.3 4.5-5.79 8.8-5.79A7.8 7.8 0 01299.21 488.86zM186.71 491.13a7.8 7.8 0 01-7.8 7.8c-4.31 0-8.8-5.49-8.8-9.8a7.8 7.8 0 017.8-7.8C182.21 481.33 186.71 486.83 186.71 491.13zM248.66 490.42c0 2.15-1.74 1.74-3.9 1.74s-2.89.26-2.89-1.9a3.9 3.9 0 013.89-3.9C247.92 486.36 248.66 488.26 248.66 490.42zM268.38 449.59c0 2.15-.75 5.89-2.9 5.89a3.9 3.9 0 01-3.9-3.89c0-2.16.75-5.9 2.9-5.9A3.9 3.9 0 01268.38 449.59zM197.94 442.71c0 2.56-3.08 2.63-5.64 2.63a4.64 4.64 0 010-9.27C194.86 436.07 197.94 440.15 197.94 442.71z" class="color7f7f7f svgShape"></path><ellipse cx="64.99" cy="471.99" fill="none" stroke="#f7bb66" stroke-miterlimit="10" rx="19.68" ry="34.1" class="colorStrokeffcd52 svgStroke"></ellipse><path fill="#ffcd52" d="M81.87,487c2.8-6.46.69-10.42.69-15,0-9.63-3.22-20.54-9-27.38a52.9,52.9,0,0,0-2.45,15.14C71.14,469.37,76.13,480.14,81.87,487Z" class="colorffcd52 svgShape"></path><ellipse cx="95.27" cy="459.81" fill="#ffffff" rx="19.68" ry="34.1" class="colorfff svgShape"></ellipse><path fill="#ffcd52" d="M47,473.06c0,3.8-1.54,6.84.57,12,9-7.21,15.83-19.31,15.83-31.78a56.08,56.08,0,0,0-1.9-13C52.4,447.41,47,460.59,47,473.06Z" class="colorffcd52 svgShape"></path><ellipse cx="40.15" cy="451.31" fill="#ffffff" rx="19.68" ry="34.1" class="colorfff svgShape"></ellipse><line x1="64.99" x2="64.99" y1="506.09" y2="454.95" fill="none" stroke="#f7bb66" stroke-linecap="round" stroke-linejoin="round" class="colorStrokeffcd52 svgStroke"></line><line x1="64.99" x2="57.02" y1="474.98" y2="465.87" fill="none" stroke="#f7bb66" stroke-linecap="round" stroke-linejoin="round" class="colorStrokeffcd52 svgStroke"></line><line x1="64.99" x2="53.5" y1="485.86" y2="472.73" fill="none" stroke="#f7bb66" stroke-linecap="round" stroke-linejoin="round" class="colorStrokeffcd52 svgStroke"></line><line x1="64.99" x2="53.13" y1="497.07" y2="483.51" fill="none" stroke="#f7bb66" stroke-linecap="round" stroke-linejoin="round" class="colorStrokeffcd52 svgStroke"></line><line x1="64.99" x2="74.65" y1="475" y2="463.95" fill="none" stroke="#f7bb66" stroke-linecap="round" stroke-linejoin="round" class="colorStrokeffcd52 svgStroke"></line><line x1="64.99" x2="76.85" y1="485.88" y2="472.32" fill="none" stroke="#f7bb66" stroke-linecap="round" stroke-linejoin="round" class="colorStrokeffcd52 svgStroke"></line><line x1="64.99" x2="76.85" y1="497.09" y2="483.53" fill="none" stroke="#f7bb66" stroke-linecap="round" stroke-linejoin="round" class="colorStrokeffcd52 svgStroke"></line><ellipse cx="40.15" cy="451.31" fill="none" stroke="#008ef8" stroke-miterlimit="10" rx="19.68" ry="34.1" class="colorStroke008ef8 svgStroke"></ellipse><polyline fill="none" stroke="#008ef8" stroke-linecap="round" stroke-linejoin="round" points="40.15 434.27 40.15 485.41 40.15 506.22"></polyline><line x1="40.15" x2="30.51" y1="454.3" y2="443.27" fill="none" stroke="#008ef8" stroke-linecap="round" stroke-linejoin="round" class="colorStroke008ef8 svgStroke"></line><line x1="40.15" x2="28.29" y1="465.18" y2="451.62" fill="none" stroke="#008ef8" stroke-linecap="round" stroke-linejoin="round" class="colorStroke008ef8 svgStroke"></line><line x1="40.15" x2="28.29" y1="476.39" y2="462.83" fill="none" stroke="#008ef8" stroke-linecap="round" stroke-linejoin="round" class="colorStroke008ef8 svgStroke"></line><line x1="40.15" x2="49.82" y1="454.32" y2="443.27" fill="none" stroke="#008ef8" stroke-linecap="round" stroke-linejoin="round" class="colorStroke008ef8 svgStroke"></line><line x1="40.15" x2="52.01" y1="465.2" y2="451.64" fill="none" stroke="#008ef8" stroke-linecap="round" stroke-linejoin="round" class="colorStroke008ef8 svgStroke"></line><line x1="40.15" x2="52.01" y1="476.41" y2="462.85" fill="none" stroke="#008ef8" stroke-linecap="round" stroke-linejoin="round" class="colorStroke008ef8 svgStroke"></line><ellipse cx="95.27" cy="459.81" fill="none" stroke="#ff5a6c" stroke-linecap="round" stroke-linejoin="round" rx="19.68" ry="34.1" class="colorStrokeff5061 svgStroke"></ellipse><polyline fill="none" stroke="#ff5061" stroke-linecap="round" stroke-linejoin="round" points="95.27 442.77 95.27 493.91 95.27 506.22"></polyline><line x1="95.27" x2="85.62" y1="462.8" y2="451.77" fill="none" stroke="#ff5a6c" stroke-linecap="round" stroke-linejoin="round" class="colorStrokeff5061 svgStroke"></line><line x1="95.27" x2="83.41" y1="473.68" y2="460.12" fill="none" stroke="#ff5a6c" stroke-linecap="round" stroke-linejoin="round" class="colorStrokeff5061 svgStroke"></line><line x1="95.27" x2="83.41" y1="484.89" y2="471.33" fill="none" stroke="#ff5a6c" stroke-linecap="round" stroke-linejoin="round" class="colorStrokeff5061 svgStroke"></line><line x1="95.27" x2="104.94" y1="462.83" y2="451.77" fill="none" stroke="#ff5a6c" stroke-linecap="round" stroke-linejoin="round" class="colorStrokeff5061 svgStroke"></line><line x1="95.27" x2="107.13" y1="473.7" y2="460.14" fill="none" stroke="#ff5a6c" stroke-linecap="round" stroke-linejoin="round" class="colorStrokeff5061 svgStroke"></line><line x1="95.27" x2="107.13" y1="484.92" y2="471.36" fill="none" stroke="#ff5a6c" stroke-linecap="round" stroke-linejoin="round" class="colorStrokeff5061 svgStroke"></line><line x1=".5" x2="390.32" y1="506.22" y2="506.22" fill="none" stroke="#ffffff" stroke-linecap="round" stroke-linejoin="round" class="colorStroke545454 svgStroke"></line></g></g></svg></g></svg>