<svg id="SvgjsSvg1001" width="150" height="150" xmlns="http://www.w3.org/2000/svg" version="1.1" xmlns:xlink="http://www.w3.org/1999/xlink" xmlns:svgjs="http://svgjs.com/svgjs"><defs id="SvgjsDefs1002"></defs><g id="SvgjsG1008"><svg xmlns="http://www.w3.org/2000/svg" enable-background="new 0 0 80 80" viewBox="0 0 80 80" width="150" height="150"><linearGradient id="a" x1="17.146" x2="62.854" y1="38.751" y2="38.751" gradientUnits="userSpaceOnUse"><stop offset="0" stop-color="#f3f3f3" class="stopColorf1f5fd svgShape"></stop><stop offset="1" stop-color="#8ee1fb" class="stopColoraac8f9 svgShape"></stop></linearGradient><path fill="url(#a)" d="M59.8,23.9H20.2c-1.7,0-3.1,1.4-3.1,3.1v23.5c0,1.7,1.4,3.1,3.1,3.1h39.6c1.7,0,3.1-1.4,3.1-3.1V27
		C62.9,25.3,61.5,23.9,59.8,23.9z"></path><path fill="#ffffff" d="M20.2,49.7c-1,0-1.8-0.8-1.8-1.8V27c0-1,0.8-1.8,1.8-1.8h39.6c1,0,1.8,0.8,1.8,1.8v21c0,1-0.8,1.8-1.8,1.8
		H20.2z" class="colorFFF svgShape"></path><linearGradient id="b" x1="40" x2="40" y1="35.44" y2="49.29" gradientUnits="userSpaceOnUse"><stop offset="0" stop-color="#78d5ff" class="stopColord9dff6 svgShape"></stop><stop offset="1" stop-color="#b8e0f5" class="stopColorb9c4fc svgShape"></stop></linearGradient><path fill="url(#b)" d="M43.5,49.7c-2.4-6.3-3-15.6-3-15.6l-0.1,0.1L40,33.9l-0.3,0.4l-0.1-0.1c0,0-0.7,9.2-3,15.6H43.5z"></path><linearGradient id="c" x1="44.073" x2="44.073" y1="35.44" y2="49.29" gradientUnits="userSpaceOnUse"><stop offset="0" stop-color="#78d5ff" class="stopColord9dff6 svgShape"></stop><stop offset="1" stop-color="#b8e0f5" class="stopColorb9c4fc svgShape"></stop></linearGradient><path fill="url(#c)" d="M47,49.7c-2-7.1-2.6-17.9-2.6-17.9l-0.1,0.1l-0.3-0.4l-0.3,0.4l-0.1-0.1c0,0-0.6,10.9-2.6,17.9
					H47z"></path><linearGradient id="d" x1="35.927" x2="35.927" y1="35.44" y2="49.29" gradientUnits="userSpaceOnUse"><stop offset="0" stop-color="#78d5ff" class="stopColord9dff6 svgShape"></stop><stop offset="1" stop-color="#b8e0f5" class="stopColorb9c4fc svgShape"></stop></linearGradient><path fill="url(#d)" d="M38.9,49.7c-2-7.1-2.6-17.9-2.6-17.9l-0.1,0.1l-0.3-0.4l-0.3,0.4l-0.1-0.1c0,0-0.6,10.9-2.6,17.9
					H38.9z"></path><linearGradient id="e" x1="30.138" x2="30.138" y1="47.132" y2="49.623" gradientUnits="userSpaceOnUse"><stop offset="0" stop-color="#78d5ff" class="stopColord9dff6 svgShape"></stop><stop offset="1" stop-color="#b8e0f5" class="stopColorb9c4fc svgShape"></stop></linearGradient><path fill="url(#e)" d="M37.8,49.7H22.4c0.2-1.2,1.3-2.2,2.6-2.2c0.9,0,1.7,0.4,2.1,1.1c0.2-0.1,0.5-0.2,0.8-0.2
					c0.5,0,1,0.2,1.3,0.6c0.4-0.6,1-0.9,1.7-0.9c0.5,0,0.9,0.2,1.2,0.4c0.6-0.9,1.5-1.5,2.6-1.5C36.3,47.1,37.6,48.2,37.8,49.7z"></path><linearGradient id="f" x1="49.863" x2="49.863" y1="47.132" y2="49.623" gradientUnits="userSpaceOnUse"><stop offset="0" stop-color="#78d5ff" class="stopColord9dff6 svgShape"></stop><stop offset="1" stop-color="#b8e0f5" class="stopColorb9c4fc svgShape"></stop></linearGradient><path fill="url(#f)" d="M57.6,49.7H42.2c0.3-1.5,1.5-2.6,3.1-2.6c1.1,0,2.1,0.6,2.6,1.4c0.3-0.3,0.8-0.4,1.2-0.4
					c0.7,0,1.3,0.4,1.7,0.9c0.3-0.4,0.8-0.6,1.3-0.6c0.3,0,0.6,0.1,0.8,0.2c0.5-0.7,1.2-1.1,2.1-1.1C56.3,47.6,57.3,48.5,57.6,49.7z
					"></path><linearGradient id="g" x1="34.91" x2="36.945" y1="32.693" y2="32.693" gradientUnits="userSpaceOnUse"><stop offset="0" stop-color="#416d99" class="stopColor416d99 svgShape"></stop><stop offset="1" stop-color="#244d77" class="stopColor244d77 svgShape"></stop></linearGradient><path fill="url(#g)" d="M36.6,33.3h-1.4c-0.2,0-0.3-0.2-0.3-0.4l0.2-0.8h1.7l0.2,0.8C37,33.1,36.8,33.3,36.6,33.3z"></path><linearGradient id="h" x1="37.584" x2="42.416" y1="21.998" y2="21.998" gradientUnits="userSpaceOnUse"><stop offset="0" stop-color="#b8e2fb" class="stopColor99a9fa svgShape"></stop><stop offset="1" stop-color="#4fb7e3" class="stopColor797efc svgShape"></stop></linearGradient><path fill="url(#h)" d="M42.4,31.6V18.2c0-1.3-1.1-5.8-2.4-5.8l0,0c-1.3,0-2.4,4.5-2.4,5.8v13.4H42.4z"></path><linearGradient id="i" x1="43.056" x2="45.091" y1="32.693" y2="32.693" gradientUnits="userSpaceOnUse"><stop offset="0" stop-color="#416d99" class="stopColor416d99 svgShape"></stop><stop offset="1" stop-color="#244d77" class="stopColor244d77 svgShape"></stop></linearGradient><path fill="url(#i)" d="M44.8,33.3h-1.4c-0.2,0-0.3-0.2-0.3-0.4l0.2-0.8h1.7l0.2,0.8C45.1,33.1,45,33.3,44.8,33.3z"></path><linearGradient id="j" x1="42.416" x2="45.731" y1="26.392" y2="26.392" gradientUnits="userSpaceOnUse"><stop offset="0" stop-color="#b8e2fb" class="stopColor99a9fa svgShape"></stop><stop offset="1" stop-color="#4fb7e3" class="stopColor797efc svgShape"></stop></linearGradient><path fill="url(#j)" d="M45.2,32.6c0.3,0,0.6-0.2,0.6-0.6v-7.9c0-0.9-0.7-4-1.7-4h0c-0.9,0-1.7,3.1-1.7,4V32
				c0,0.3,0.2,0.6,0.6,0.6H45.2z"></path><linearGradient id="k" x1="34.27" x2="37.584" y1="26.392" y2="26.392" gradientUnits="userSpaceOnUse"><stop offset="0" stop-color="#b8e2fb" class="stopColor99a9fa svgShape"></stop><stop offset="1" stop-color="#4fb7e3" class="stopColor797efc svgShape"></stop></linearGradient><path fill="url(#k)" d="M37,32.6c0.3,0,0.6-0.2,0.6-0.6v-7.9c0-0.9-0.7-4-1.7-4l0,0c-0.9,0-1.7,3.1-1.7,4V32
			c0,0.3,0.2,0.6,0.6,0.6H37z"></path><linearGradient id="l" x1="40" x2="40" y1="17.319" y2="31.542" gradientUnits="userSpaceOnUse"><stop offset="0" stop-color="#f3f3f3" class="stopColorf1f5fd svgShape"></stop><stop offset="1" stop-color="#8ee1fb" class="stopColoraac8f9 svgShape"></stop></linearGradient><path fill="url(#l)" d="M41.7,31.6h-3.4V20.7c0-0.9,0.8-4.1,1.7-4.1h0c0.9,0,1.7,3.1,1.7,4.1V31.6z"></path><linearGradient id="m" x1="44.353" x2="44.353" y1="31.551" y2="22.141" gradientUnits="userSpaceOnUse"><stop offset="0" stop-color="#f3f3f3" class="stopColorf1f5fd svgShape"></stop><stop offset="1" stop-color="#8ee1fb" class="stopColoraac8f9 svgShape"></stop></linearGradient><path fill="url(#m)" d="M41.7,22c0,0,0.9,3.2,1.8,4.4c0.9,1.3,3.6,2.4,3.6,5.2h-5.3V22z"></path><linearGradient id="n" x1="6525.379" x2="6525.379" y1="31.551" y2="22.141" gradientTransform="matrix(-1 0 0 1 6561.026 0)" gradientUnits="userSpaceOnUse"><stop offset="0" stop-color="#f3f3f3" class="stopColorf1f5fd svgShape"></stop><stop offset="1" stop-color="#8ee1fb" class="stopColoraac8f9 svgShape"></stop></linearGradient><path fill="url(#n)" d="M38.3,22c0,0-0.9,3.2-1.8,4.4c-0.9,1.3-3.6,2.4-3.6,5.2h5.3V22z"></path><path fill="#cfeafb" d="M40.8,19.2c0,0.5-0.4-0.2-0.8-0.2c-0.5,0-0.8,0.7-0.8,0.2s0.4-0.8,0.8-0.8C40.5,18.4,40.8,18.8,40.8,19.2z
			" class="colorAAC8F9 svgShape"></path><linearGradient id="o" x1="38.684" x2="41.316" y1="34.665" y2="34.665" gradientUnits="userSpaceOnUse"><stop offset="0" stop-color="#416d99" class="stopColor416d99 svgShape"></stop><stop offset="1" stop-color="#244d77" class="stopColor244d77 svgShape"></stop></linearGradient><path fill="url(#o)" d="M40.9,35.5h-1.8c-0.3,0-0.4-0.2-0.4-0.5l0.2-1.1h2.2l0.2,1.1C41.4,35.2,41.2,35.5,40.9,35.5z"></path><linearGradient id="p" x1="37.856" x2="42.144" y1="32.595" y2="32.595" gradientUnits="userSpaceOnUse"><stop offset="0" stop-color="#f3f3f3" class="stopColorf1f5fd svgShape"></stop><stop offset="1" stop-color="#8ee1fb" class="stopColoraac8f9 svgShape"></stop></linearGradient><path fill="url(#p)" d="M37.9,32.2v1.6c0,0.4,0.3,0.7,0.7,0.7h2.9c0.4,0,0.7-0.3,0.7-0.7v-1.6c0-0.9-0.7-1.6-1.6-1.6h-1.2
			C38.6,30.6,37.9,31.3,37.9,32.2z"></path><circle cx="39.7" cy="51.7" r=".8" fill="#ffffff" class="colorFFF svgShape"></circle><g fill="#000000" class="color000 svgShape"><linearGradient id="q" x1="6376.162" x2="6377.86" y1="-3235.743" y2="-3230.127" gradientTransform="matrix(-.7853 .6196 .62 .7848 7043.439 -1359.675)" gradientUnits="userSpaceOnUse"><stop offset="0" stop-color="#ffb50b" class="stopColorf099dd svgShape"></stop><stop offset="1" stop-color="#ffd894" class="stopColord34ac0 svgShape"></stop></linearGradient><path fill="url(#q)" d="M29.9,55.5c1.1,2.4,3.8,6,4.7,5.6c0.9-0.4-0.3-4.8-1.5-7.1c-1.1-2.4-2.3-3-3.2-2.6
			C29,51.8,28.8,53.2,29.9,55.5z"></path><linearGradient id="r" x1="6380.794" x2="6378.767" y1="-3234.556" y2="-3225.488" gradientTransform="matrix(-.7853 .6196 .62 .7848 7043.439 -1359.675)" gradientUnits="userSpaceOnUse"><stop offset="0" stop-color="#ffb50b" class="stopColorf099dd svgShape"></stop><stop offset="1" stop-color="#ffd894" class="stopColord34ac0 svgShape"></stop></linearGradient><path fill="url(#r)" d="M30.7,56c1.8,1.5,4.4,4.5,3.9,5.1s-4-1.3-5.8-2.7c-1.8-1.5-2.1-2.6-1.6-3.3
			C27.7,54.5,28.9,54.5,30.7,56z"></path></g><g fill="#000000" class="color000 svgShape"><linearGradient id="s" x1="1881.734" x2="1882.807" y1="316.355" y2="319.902" gradientTransform="matrix(.7853 .6196 -.62 .7848 -1232.01 -1359.675)" gradientUnits="userSpaceOnUse"><stop offset="0" stop-color="#64c2e1" class="stopColor64c2e1 svgShape"></stop><stop offset="1" stop-color="#1897b5" class="stopColor1897b5 svgShape"></stop></linearGradient><path fill="url(#s)" d="M49.7,57.1c-0.7,1.5-2.4,3.8-2.9,3.5c-0.6-0.3,0.2-3,0.9-4.5c0.7-1.5,1.5-1.9,2-1.6
			C50.3,54.8,50.5,55.6,49.7,57.1z"></path><linearGradient id="t" x1="1884.66" x2="1883.38" y1="317.105" y2="322.833" gradientTransform="matrix(.7853 .6196 -.62 .7848 -1232.01 -1359.675)" gradientUnits="userSpaceOnUse"><stop offset="0" stop-color="#64c2e1" class="stopColor64c2e1 svgShape"></stop><stop offset="1" stop-color="#1897b5" class="stopColor1897b5 svgShape"></stop></linearGradient><path fill="url(#t)" d="M49.2,57.4c-1.1,0.9-2.8,2.8-2.4,3.3c0.3,0.4,2.5-0.8,3.7-1.7c1.1-0.9,1.3-1.7,1-2.1
			S50.4,56.5,49.2,57.4z"></path></g><linearGradient id="u" x1="40" x2="40" y1="60.235" y2="53.087" gradientUnits="userSpaceOnUse"><stop offset="0" stop-color="#f3f3f3" class="stopColorf1f5fd svgShape"></stop><stop offset="1" stop-color="#8ee1fb" class="stopColoraac8f9 svgShape"></stop></linearGradient><path fill="url(#u)" d="M48.4,59.1c0,0.4-0.3,0.7-0.7,0.7H32.4c-0.4,0-0.7-0.3-0.7-0.7c0-0.4,0.3-0.7,0.7-0.7h0.1
		c0.9,0,1.6-0.6,1.9-1.4l0.9-3.4h9.4l0.9,3.4c0.2,0.8,1,1.4,1.9,1.4h0.1C48,58.4,48.4,58.7,48.4,59.1z"></path><g fill="#000000" class="color000 svgShape"><linearGradient id="v" x1="22.252" x2="26.673" y1="30.856" y2="30.856" gradientUnits="userSpaceOnUse"><stop offset="0" stop-color="#f3f3f3" class="stopColorf1f5fd svgShape"></stop><stop offset="1" stop-color="#8ee1fb" class="stopColoraac8f9 svgShape"></stop></linearGradient><circle cx="24.5" cy="30.9" r="2.2" fill="url(#v)"></circle><linearGradient id="w" x1="-609.634" x2="-607.503" y1="37.028" y2="37.028" gradientTransform="translate(626.497)" gradientUnits="userSpaceOnUse"><stop offset="0" stop-color="#f9c7a5" class="stopColorf9c7a5 svgShape"></stop><stop offset="1" stop-color="#f9a395" class="stopColorf9a395 svgShape"></stop></linearGradient><path fill="url(#w)" d="M18.3,35.5c0.2,0.1,0.4,0.3,0.5,0.6c0.1,0.2,0.1,0.5,0,0.8c-0.1,0.3-0.3,0.5-0.6,0.5
				c0,0.4,0.1,0.8,0.1,1.2c-0.4,0-0.9,0-1.3,0c-0.1-0.7-0.1-1.3-0.3-2C17.4,36.2,17.9,35.8,18.3,35.5C18.4,35.5,18.4,35.5,18.3,35.5
				z"></path><path fill="#fdddbe" d="M13.8,44.2c0,0,0,0.3-0.1,0.7c-0.1,0.4-0.1,0.9-0.2,1.5c-0.1,0.5-0.2,1-0.4,1.4
						c-0.1,0.4-0.2,0.6-0.2,0.6c-0.6,0.1-0.5,0.4-0.2,0.5c0.3,0.2,0.8,0.2,0.9-0.1c0,0,0.2-0.2,0.4-0.6c0.2-0.4,0.5-0.9,0.7-1.5
						c0.2-0.5,0.4-1.1,0.5-1.5c0.1-0.4,0.2-0.7,0.2-0.7L13.8,44.2z" class="colorF9A395 svgShape"></path><path fill="#ff9e49" d="M17.4,40.8c0,0-0.2,0.1-0.4,0.4c-0.3,0.3-0.6,0.7-0.8,1.2c-0.3,0.5-0.5,1-0.6,1.5
						c-0.1,0.4-0.2,0.7-0.2,0.7l-1.5-0.4c0,0,0-0.3,0.1-0.8c0.1-0.5,0.2-1.1,0.4-1.8c0.2-0.7,0.5-1.3,0.9-1.8
						c0.3-0.5,0.6-0.8,0.6-0.8c0.3-0.3,0.7-0.4,1-0.3c0.3,0.1,0.5,0.3,0.7,0.6c0.1,0.3,0.2,0.6,0.2,0.8
						C17.7,40.4,17.6,40.6,17.4,40.8z" class="colorEE6B6B svgShape"></path><linearGradient id="x" x1="-606.853" x2="-606.853" y1="58.758" y2="46.778" gradientTransform="translate(626.497)" gradientUnits="userSpaceOnUse"><stop offset="0" stop-color="#7ec1f2" class="stopColor7ec1f2 svgShape"></stop><stop offset="1" stop-color="#4fb7e3" class="stopColor009fdd svgShape"></stop></linearGradient><path fill="url(#x)" d="M20,58.9c0,0,0-0.7,0-1.8c0-1.1-0.1-2.5-0.2-3.9c-0.1-0.7-0.2-1.4-0.4-1.9
						c-0.2-0.5-0.4-1-0.7-1.5c-0.5-0.8-1-1.4-1.1-1.6c-0.4-0.5-0.3-1.7,0.4-2.2c0.7-0.5,1.9-0.2,2.3,0.5c0.1,0.1,0.5,0.9,1,2.1
						c0.2,0.6,0.4,1.4,0.5,2.2c0.1,0.8,0.1,1.6,0,2.4c-0.3,3-1,5.8-1,5.8L20,58.9z"></path><linearGradient id="y" x1="-606.694" x2="-604.729" y1="59.316" y2="59.316" gradientTransform="translate(626.497)" gradientUnits="userSpaceOnUse"><stop offset="0" stop-color="#416d99" class="stopColor416d99 svgShape"></stop><stop offset="1" stop-color="#244d77" class="stopColor244d77 svgShape"></stop></linearGradient><path fill="url(#y)" d="M20,58.9l-0.2,0.3c-0.1,0.1,0,0.2,0.2,0.2l1.5,0.2c0.2,0,0.3-0.2,0.1-0.3L20.8,59L20,58.9z"></path><linearGradient id="z" x1="-609.801" x2="-609.801" y1="58.758" y2="46.778" gradientTransform="translate(626.497)" gradientUnits="userSpaceOnUse"><stop offset="0" stop-color="#7ec1f2" class="stopColor7ec1f2 svgShape"></stop><stop offset="1" stop-color="#4fb7e3" class="stopColor009fdd svgShape"></stop></linearGradient><path fill="url(#z)" d="M14.6,58.8c0,0,0.2-0.7,0.4-1.7c0.2-1,0.5-2.4,0.7-3.7c0.2-1.4,0.2-2.7,0.1-3.8
					c-0.1-1-0.2-1.8-0.2-1.9c0-0.6,0.6-1.5,1.5-1.6c0.9-0.1,1.7,0.8,1.7,1.5c0,0.2,0,1-0.2,2.2c-0.2,1.2-0.5,2.7-1,4
					c-0.5,1.4-1.1,2.7-1.5,3.7c-0.5,0.9-0.8,1.6-0.8,1.6L14.6,58.8z"></path><linearGradient id="A" x1="-612.181" x2="-610.295" y1="59.335" y2="59.335" gradientTransform="translate(626.497)" gradientUnits="userSpaceOnUse"><stop offset="0" stop-color="#416d99" class="stopColor416d99 svgShape"></stop><stop offset="1" stop-color="#244d77" class="stopColor244d77 svgShape"></stop></linearGradient><path fill="url(#A)" d="M14.6,58.8L14.4,59c-0.1,0.1,0,0.2,0.1,0.3l1.5,0.5c0.2,0.1,0.4-0.1,0.2-0.3l-0.8-0.5L14.6,58.8z
				"></path><linearGradient id="B" x1="-608.566" x2="-608.566" y1="41.599" y2="47.148" gradientTransform="translate(626.497)" gradientUnits="userSpaceOnUse"><stop offset="0" stop-color="#ffb075" class="stopColoree6b6b svgShape"></stop><stop offset="1" stop-color="#f3811d" class="stopColorc43737 svgShape"></stop></linearGradient><path fill="url(#B)" d="M20.5,46.7c0.1,1.1-4.9,1.5-4.9,0.5c0-1.1-1.2-6.9,0.5-8.5c0.5-0.4,1.7-0.8,2.7-0.4
						C22.3,39.6,19.8,42.1,20.5,46.7z"></path><g fill="#000000" class="color000 svgShape"><linearGradient id="C" x1="-602.779" x2="-602.848" y1="31.234" y2="35.762" gradientTransform="translate(626.497)" gradientUnits="userSpaceOnUse"><stop offset="0" stop-color="#f9c7a5" class="stopColorf9c7a5 svgShape"></stop><stop offset="1" stop-color="#f9a395" class="stopColorf9a395 svgShape"></stop></linearGradient><path fill="url(#C)" d="M24.3,36.2c0,0,0-0.1,0.1-0.3c0-0.2,0.1-0.4,0-0.7c0-0.5-0.1-1.1-0.2-1.6
						c-0.2-1.1-0.4-2.2-0.4-2.2c0.8-1-1-0.6-0.9,0.1c0,0,0,1.1,0,2.3c0,0.6,0,1.2,0,1.5c0,0.3-0.1,0.4-0.1,0.4L24.3,36.2z"></path><g fill="#000000" class="color000 svgShape"><path fill="#ff9e49" d="M19.2,38.5c0,0,1-0.8,2.1-1.5c0.3-0.2,0.5-0.4,0.8-0.6c0.2-0.2,0.4-0.3,0.5-0.4
							c0.1-0.1,0.2-0.2,0.2-0.3c0-0.1,0.1-0.1,0.1-0.1l1.5,0.5c0,0,0,0.1-0.1,0.3c-0.1,0.2-0.2,0.4-0.4,0.7
							c-0.2,0.3-0.4,0.5-0.6,0.7c-0.2,0.2-0.4,0.5-0.7,0.7c-0.9,0.9-1.8,1.9-1.8,1.9C19.7,41.3,18.1,39.4,19.2,38.5z" class="colorEE6B6B svgShape"></path></g></g><linearGradient id="D" x1="-608.619" x2="-609.752" y1="33.911" y2="37.902" gradientTransform="translate(626.497)" gradientUnits="userSpaceOnUse"><stop offset="0" stop-color="#416d99" class="stopColor416d99 svgShape"></stop><stop offset="1" stop-color="#244d77" class="stopColor244d77 svgShape"></stop></linearGradient><path fill="url(#D)" d="M18.3,35.9c0.5,0,0.9-0.5,0.9-0.9c0-0.3-0.1-0.7-0.4-0.9c-0.2-0.2-0.6-0.3-0.9-0.3
				c-0.3,0-0.6,0.1-0.9,0.2c-0.5,0.2-0.8,0.7-1,1.1c-0.2,0.5-0.2,1-0.1,1.6c0.1,0.4,0.3,0.8,0.5,1.1c0.2,0.2,0.4,0.4,0.7,0.5
				c0.2,0.1,0.5,0.1,0.7,0c0.2-0.1,0.4-0.2,0.4-0.5c0-0.2-0.1-0.3-0.2-0.5s-0.2-0.3-0.3-0.5c0-0.2,0.1-0.4,0.2-0.4
				c0.1,0,0.3,0.1,0.4,0.1c0.1,0,0.1-0.2,0.1-0.3C18.4,36,18.3,36,18.3,35.9z"></path></g><path fill="#fdfdfd" d="M5.7,59.9c1,2.9,16,5.2,34.3,5.2s33.3-2.3,34.3-5.2H5.7z" class="colorF1F5FD svgShape"></path><g fill="#000000" class="color000 svgShape"><rect width="5.4" height=".3" x="53.1" y="29.7" fill="#f1f1f1" class="colorD2E1F9 svgShape"></rect><rect width="3.9" height=".3" x="53.1" y="30.6" fill="#f1f1f1" class="colorD2E1F9 svgShape"></rect><linearGradient id="E" x1="50.228" x2="52.077" y1="30.299" y2="30.299" gradientUnits="userSpaceOnUse"><stop offset="0" stop-color="#64c2e1" class="stopColor64c2e1 svgShape"></stop><stop offset="1" stop-color="#1897b5" class="stopColor1897b5 svgShape"></stop></linearGradient><circle cx="51.2" cy="30.3" r=".9" fill="url(#E)"></circle></g><g fill="#000000" class="color000 svgShape"><rect width="5.4" height=".3" x="53.1" y="32.9" fill="#f1f1f1" class="colorD2E1F9 svgShape"></rect><rect width="3.9" height=".3" x="53.1" y="33.8" fill="#f1f1f1" class="colorD2E1F9 svgShape"></rect><linearGradient id="F" x1="50.228" x2="52.077" y1="33.519" y2="33.519" gradientUnits="userSpaceOnUse"><stop offset="0" stop-color="#ffb50b" class="stopColorf099dd svgShape"></stop><stop offset="1" stop-color="#ffd894" class="stopColord34ac0 svgShape"></stop></linearGradient><circle cx="51.2" cy="33.5" r=".9" fill="url(#F)"></circle></g><g fill="#000000" class="color000 svgShape"><rect width="5.4" height=".3" x="53.1" y="36.2" fill="#f1f1f1" class="colorD2E1F9 svgShape"></rect><rect width="3.9" height=".3" x="53.1" y="37" fill="#f1f1f1" class="colorD2E1F9 svgShape"></rect><linearGradient id="G" x1="50.228" x2="52.077" y1="36.739" y2="36.739" gradientUnits="userSpaceOnUse"><stop offset="0" stop-color="#ffb668" class="stopColorfaa34d svgShape"></stop><stop offset="1" stop-color="#ff8824" class="stopColoref7b1b svgShape"></stop></linearGradient><circle cx="51.2" cy="36.7" r=".9" fill="url(#G)"></circle></g><g fill="#000000" class="color000 svgShape"><rect width="5.4" height=".3" x="53.1" y="39.4" fill="#f1f1f1" class="colorD2E1F9 svgShape"></rect><rect width="3.9" height=".3" x="53.1" y="40.2" fill="#f1f1f1" class="colorD2E1F9 svgShape"></rect><linearGradient id="H" x1="50.228" x2="52.077" y1="39.959" y2="39.959" gradientUnits="userSpaceOnUse"><stop offset="0" stop-color="#f9c7a5" class="stopColorf9c7a5 svgShape"></stop><stop offset="1" stop-color="#f9a395" class="stopColorf9a395 svgShape"></stop></linearGradient><circle cx="51.2" cy="40" r=".9" fill="url(#H)"></circle></g><g fill="#000000" class="color000 svgShape"><rect width="5.4" height=".3" x="53.1" y="42.6" fill="#f1f1f1" class="colorD2E1F9 svgShape"></rect><rect width="3.9" height=".3" x="53.1" y="43.4" fill="#f1f1f1" class="colorD2E1F9 svgShape"></rect><circle cx="51.2" cy="43.2" r=".9" fill="#f1f1f1" class="colorD2E1F9 svgShape"></circle></g><linearGradient id="I" x1="4675.968" x2="4675.968" y1="18.846" y2="16.204" gradientTransform="matrix(-1 0 0 1 4699.14 0)" gradientUnits="userSpaceOnUse"><stop offset="0" stop-color="#ffffff" class="stopColorfff svgShape"></stop><stop offset="1" stop-color="#f3f3f3" class="stopColorf1f5fd svgShape"></stop></linearGradient><path fill="url(#I)" d="M18.8,18.9h8.7c0,0,0,0,0,0c0-0.7-0.6-1.3-1.3-1.3c-0.1,0-0.3,0-0.4,0.1c-0.3-0.9-1.2-1.6-2.2-1.6
		c-1,0-1.8,0.6-2.2,1.4c-0.3-0.1-0.6-0.2-0.9-0.2C19.7,17.2,18.9,17.9,18.8,18.9z"></path><linearGradient id="J" x1="4644.911" x2="4644.911" y1="18.411" y2="14.843" gradientTransform="matrix(-1 0 0 1 4699.14 0)" gradientUnits="userSpaceOnUse"><stop offset="0" stop-color="#ffffff" class="stopColorfff svgShape"></stop><stop offset="1" stop-color="#f3f3f3" class="stopColorf1f5fd svgShape"></stop></linearGradient><path fill="url(#J)" d="M48.4,18.5h11.8c0,0,0,0,0,0c0-0.9-0.8-1.7-1.7-1.7c-0.2,0-0.4,0-0.5,0.1c-0.4-1.3-1.6-2.2-3-2.2
		c-1.3,0-2.4,0.8-2.9,1.9c-0.3-0.2-0.8-0.3-1.2-0.3C49.5,16.2,48.4,17.2,48.4,18.5z"></path></svg></g></svg>
