<svg id="visual" viewBox="0 0 1920 710" width="1920" height="710" xmlns="http://www.w3.org/2000/svg" xmlns:xlink="http://www.w3.org/1999/xlink" version="1.1"><g stroke-width="1" stroke-linejoin="bevel"><path d="M861.9 466.3L864.9 710L1065.1 710Z" fill="#a1d4ee" stroke="#a1d4ee"></path><path d="M1065.1 710L1130.1 510.3L861.9 466.3Z" fill="#8fcdeb" stroke="#8fcdeb"></path><path d="M1130.1 510.3L1117.1 256.7L861.9 466.3Z" fill="#f0f8fc" stroke="#f0f8fc"></path><path d="M1322.4 710L1316.4 493.3L1130.1 510.3Z" fill="#68bee6" stroke="#68bee6"></path><path d="M1130.1 510.3L1316.4 493.3L1117.1 256.7Z" fill="#e1f1f9" stroke="#e1f1f9"></path><path d="M1065.1 710L1322.4 710L1130.1 510.3Z" fill="#b2dbf1" stroke="#b2dbf1"></path><path d="M1117.1 256.7L829.9 214.7L861.9 466.3Z" fill="#c2e2f4" stroke="#c2e2f4"></path><path d="M861.9 466.3L559.6 497.3L864.9 710Z" fill="#4fb7e3" stroke="#4fb7e3"></path><path d="M829.9 214.7L559.6 497.3L861.9 466.3Z" fill="#a1d4ee" stroke="#a1d4ee"></path><path d="M559.6 497.3L549.6 710L864.9 710Z" fill="#4fb7e3" stroke="#4fb7e3"></path><path d="M829.9 214.7L562.6 217.7L559.6 497.3Z" fill="#d2e9f7" stroke="#d2e9f7"></path><path d="M559.6 497.3L303.3 710L549.6 710Z" fill="#d2e9f7" stroke="#d2e9f7"></path><path d="M1606.7 471.3L1379.4 221.7L1316.4 493.3Z" fill="#b2dbf1" stroke="#b2dbf1"></path><path d="M1316.4 493.3L1379.4 221.7L1117.1 256.7Z" fill="#d2e9f7" stroke="#d2e9f7"></path><path d="M1117.1 0L841.9 0L829.9 214.7Z" fill="#ffffff" stroke="#ffffff"></path><path d="M1117.1 0L829.9 214.7L1117.1 256.7Z" fill="#8fcdeb" stroke="#8fcdeb"></path><path d="M829.9 214.7L570.6 0L562.6 217.7Z" fill="#a1d4ee" stroke="#a1d4ee"></path><path d="M1379.4 221.7L1117.1 0L1117.1 256.7Z" fill="#d2e9f7" stroke="#d2e9f7"></path><path d="M1322.4 710L1606.7 471.3L1316.4 493.3Z" fill="#4fb7e3" stroke="#4fb7e3"></path><path d="M243.3 459.3L303.3 710L559.6 497.3Z" fill="#8fcdeb" stroke="#8fcdeb"></path><path d="M1322.4 710L1640.7 710L1606.7 471.3Z" fill="#c2e2f4" stroke="#c2e2f4"></path><path d="M841.9 0L570.6 0L829.9 214.7Z" fill="#4fb7e3" stroke="#4fb7e3"></path><path d="M562.6 217.7L243.3 459.3L559.6 497.3Z" fill="#4fb7e3" stroke="#4fb7e3"></path><path d="M1601.7 232.7L1360.4 0L1379.4 221.7Z" fill="#4fb7e3" stroke="#4fb7e3"></path><path d="M1379.4 221.7L1360.4 0L1117.1 0Z" fill="#8fcdeb" stroke="#8fcdeb"></path><path d="M1669.7 0L1601.7 232.7L1920 200.7Z" fill="#a1d4ee" stroke="#a1d4ee"></path><path d="M1606.7 471.3L1601.7 232.7L1379.4 221.7Z" fill="#e1f1f9" stroke="#e1f1f9"></path><path d="M246.3 213.7L243.3 459.3L562.6 217.7Z" fill="#4fb7e3" stroke="#4fb7e3"></path><path d="M327.3 0L246.3 213.7L562.6 217.7Z" fill="#ffffff" stroke="#ffffff"></path><path d="M570.6 0L327.3 0L562.6 217.7Z" fill="#8fcdeb" stroke="#8fcdeb"></path><path d="M1920 440.3L1601.7 232.7L1606.7 471.3Z" fill="#ffffff" stroke="#ffffff"></path><path d="M1601.7 232.7L1669.7 0L1360.4 0Z" fill="#8fcdeb" stroke="#8fcdeb"></path><path d="M1640.7 710L1920 440.3L1606.7 471.3Z" fill="#e1f1f9" stroke="#e1f1f9"></path><path d="M1920 710L1920 440.3L1640.7 710Z" fill="#d2e9f7" stroke="#d2e9f7"></path><path d="M0 274.7L243.3 459.3L246.3 213.7Z" fill="#b2dbf1" stroke="#b2dbf1"></path><path d="M0 274.7L0 493.3L243.3 459.3Z" fill="#4fb7e3" stroke="#4fb7e3"></path><path d="M243.3 459.3L0 710L303.3 710Z" fill="#4fb7e3" stroke="#4fb7e3"></path><path d="M0 493.3L0 710L243.3 459.3Z" fill="#ffffff" stroke="#ffffff"></path><path d="M0 0L0 274.7L246.3 213.7Z" fill="#68bee6" stroke="#68bee6"></path><path d="M1920 440.3L1920 200.7L1601.7 232.7Z" fill="#b2dbf1" stroke="#b2dbf1"></path><path d="M1920 200.7L1920 0L1669.7 0Z" fill="#c2e2f4" stroke="#c2e2f4"></path><path d="M327.3 0L0 0L246.3 213.7Z" fill="#7dc5e9" stroke="#7dc5e9"></path></g></svg>