<svg id="SvgjsSvg1549" width="360" height="360" xmlns="http://www.w3.org/2000/svg" version="1.1" xmlns:xlink="http://www.w3.org/1999/xlink" xmlns:svgjs="http://svgjs.com/svgjs"><defs id="SvgjsDefs1550"></defs><g id="SvgjsG1551"><svg xmlns="http://www.w3.org/2000/svg" width="360" height="360" fill="none" viewBox="0 0 3000 3000"><path fill="#ffda82" d="M1913.3 1131.45C1984.5 1001.25 2199.64 980.871 2392.24 1086.2C2584.85 1191.52 2683.78 1383.64 2612.58 1513.85C2541.38 1644.05 2326.86 1664.77 2133.64 1559.11C1940.42 1453.44 1841.77 1262.27 1913.3 1131.45Z" opacity=".2" class="colorFFE767 svgShape"></path><path fill="#2dce89" d="M328.209 1756.94C324.581 1736.07 368.577 1711.13 426.635 1701.15C484.692 1691.17 534.585 1699.79 538.214 1720.65C541.842 1741.52 497.846 1766.46 439.788 1776.44C381.731 1786.42 331.838 1777.35 328.209 1756.94Z" class="color2CC974 svgShape"></path><path fill="#5d6162" fill-rule="evenodd" d="M382 1744.92C446.844 1718.33 513.695 1716.38 539.179 1718.74L538.717 1723.72C513.869 1721.41 447.853 1723.32 383.897 1749.54L382 1744.92Z" clip-rule="evenodd" class="color000 svgShape"></path><path fill="#ffffff" d="M294.496 1317.98V896.155C294.496 889.267 295.86 882.447 298.51 876.088C301.159 869.73 305.042 863.96 309.934 859.11C314.826 854.261 320.629 850.428 327.01 847.834C333.391 845.239 340.223 843.934 347.111 843.994H1207.09C1220.92 843.994 1234.19 849.489 1243.97 859.272C1253.75 869.054 1259.25 882.321 1259.25 896.155V1317.98C1259.13 1331.78 1253.6 1344.97 1243.84 1354.73C1234.08 1364.49 1220.88 1370.02 1207.09 1370.14H347.111C333.235 1370.14 319.92 1364.66 310.066 1354.89C300.212 1345.12 294.616 1331.85 294.496 1317.98Z" class="colorfff svgShape"></path><path fill="#5d6162" d="M1207.09 1372.4H347.11C332.632 1372.4 318.741 1366.68 308.462 1356.49C298.182 1346.3 292.347 1332.45 292.228 1317.98V896.152C292.347 881.675 298.182 867.831 308.462 857.637C318.741 847.442 332.632 841.722 347.11 841.723H1207.09C1221.52 841.723 1235.37 847.457 1245.57 857.664C1255.78 867.872 1261.52 881.716 1261.52 896.152V1317.98C1261.52 1332.41 1255.78 1346.25 1245.57 1356.46C1235.37 1366.67 1221.52 1372.4 1207.09 1372.4ZM347.11 846.258C333.835 846.258 321.098 851.5 311.669 860.844C302.24 870.188 296.883 882.878 296.763 896.152V1317.98C296.883 1331.25 302.24 1343.94 311.669 1353.28C321.098 1362.63 333.835 1367.87 347.11 1367.87H1207.09C1220.32 1367.87 1233.01 1362.61 1242.37 1353.25C1251.72 1343.9 1256.98 1331.21 1256.98 1317.98V896.152C1256.98 882.919 1251.72 870.228 1242.37 860.872C1233.01 851.515 1220.32 846.258 1207.09 846.258H347.11Z" class="color000 svgShape"></path><path fill="#5d6162" d="M1157.64 1351.99H333.047C329.919 1351.99 326.919 1350.75 324.708 1348.54C322.496 1346.33 321.254 1343.33 321.254 1340.2V878.916C321.252 875.745 322.48 872.697 324.679 870.413C326.878 868.129 329.878 866.787 333.047 866.67H1157.64C1160.81 866.787 1163.81 868.129 1166.01 870.413C1168.21 872.697 1169.44 875.745 1169.44 878.916V1340.2C1169.44 1343.33 1168.19 1346.33 1165.98 1348.54C1163.77 1350.75 1160.77 1351.99 1157.64 1351.99ZM333.047 871.206C331.081 871.321 329.235 872.185 327.885 873.618C326.536 875.052 325.786 876.947 325.79 878.916V1340.2C325.79 1342.13 326.554 1343.97 327.915 1345.33C329.276 1346.69 331.122 1347.46 333.047 1347.46H1157.64C1159.57 1347.46 1161.41 1346.69 1162.78 1345.33C1164.14 1343.97 1164.9 1342.13 1164.9 1340.2V878.916C1164.9 876.947 1164.16 875.052 1162.81 873.618C1161.46 872.185 1159.61 871.321 1157.64 871.206H333.047Z" class="color000 svgShape"></path><path fill="#6be4ff" d="M746.253 946.498L592.038 1215.47H900.468L746.253 946.498Z" class="color6BE4FF svgShape"></path><path fill="#ffda82" d="M779.363 1146.98C779.363 1128.94 784.71 1111.32 794.728 1096.32C804.746 1081.33 818.984 1069.65 835.643 1062.75C852.302 1055.85 870.633 1054.04 888.318 1057.56C906.003 1061.08 922.247 1069.76 934.997 1082.51C947.748 1095.26 956.431 1111.5 959.948 1129.19C963.466 1146.87 961.66 1165.2 954.76 1181.86C947.86 1198.52 936.175 1212.76 921.182 1222.78C906.19 1232.8 888.563 1238.14 870.532 1238.14C846.352 1238.14 823.163 1228.54 806.066 1211.44C788.969 1194.34 779.363 1171.15 779.363 1146.98Z" class="colorFFE767 svgShape"></path><path fill="#45b3e8" d="M852.843 1104.34H689.557V1267.54H852.843V1104.34Z" class="colorFF7245 svgShape"></path><path fill="#5d6162" d="M2855.19 1510.81H2152.15V789.627H2855.19V1510.81ZM2156.68 1506.27H2850.65V794.163H2156.68V1506.27Z" class="color000 svgShape"></path><path fill="#5d6162" d="M2249.67 791.895H2245.13V1508.54H2249.67V791.895zM2335.85 791.895H2331.31V1508.54H2335.85V791.895zM2421.57 791.895H2417.03V1508.54H2421.57V791.895zM2505.94 791.895H2501.4V1508.54H2505.94V791.895zM2592.12 791.895H2587.58V1508.54H2592.12V791.895zM2678.29 791.895H2673.76V1508.54H2678.29V791.895zM2769.01 791.895H2764.47V1508.54H2769.01V791.895z" class="color000 svgShape"></path><path fill="#5d6162" d="M2852.92 881.254H2154.42V885.79H2852.92V881.254zM2852.92 971.971H2154.42V976.506H2852.92V971.971zM2852.92 1062.68H2154.42V1067.22H2852.92V1062.68zM2852.92 1153.4H2154.42V1157.93H2852.92V1153.4zM2852.92 1244.12H2154.42V1248.65H2852.92V1244.12zM2852.5 1334.83H2154V1339.36H2852.5V1334.83zM2852.5 1416.47H2154V1421.01H2852.5V1416.47zM1492.2 2236.27H789.161V1515.08H1492.2V2236.27zM793.697 2231.73H1487.66V1519.62H793.697V2231.73z" class="color000 svgShape"></path><path fill="#5d6162" d="M886.68 1517.35H882.145V2234H886.68V1517.35zM972.859 1517.35H968.323V2234H972.859V1517.35zM1059.04 1517.35H1054.5V2234H1059.04V1517.35zM1142.95 1517.35H1138.41V2234H1142.95V1517.35zM1229.13 1517.35H1224.59V2234H1229.13V1517.35zM1315.31 1517.35H1310.77V2234H1315.31V1517.35zM1406.02 1517.35H1401.49V2234H1406.02V1517.35z" class="color000 svgShape"></path><path fill="#5d6162" d="M1489.93 1606.7H791.43V1611.24H1489.93V1606.7zM1489.93 1697.42H791.43V1701.95H1489.93V1697.42zM1489.93 1788.13H791.43V1792.67H1489.93V1788.13zM1489.93 1878.85H791.43V1883.38H1489.93V1878.85zM1489.93 1969.56H791.43V1974.1H1489.93V1969.56zM1487.86 2060.28H789.357V2064.81H1487.86V2060.28zM1487.86 2141.92H789.357V2146.46H1487.86V2141.92z" class="color000 svgShape"></path><path fill="#6be4ff" d="M975 2346.5C975 2221.07 1165.61 2119 1400.5 2119C1635.39 2119 1826 2221.07 1826 2346.5C1826 2471.93 1635.39 2574 1400.5 2574C1165.61 2574 975 2471.93 975 2346.5Z" opacity=".2" class="color6BE4FF svgShape"></path><path fill="#ffffff" d="M2590.03 1155.59H970.771V2144.38H2590.03V1155.59Z" class="colorfff svgShape"></path><path fill="#5d6162" d="M2592.3 2146.65H968.505V1153.32H2592.3V2146.65ZM973.041 2142.12H2587.76V1157.86H973.041V2142.12Z" class="color000 svgShape"></path><path fill="#ffffff" d="M2521.54 1215.92H1029.29V2086.56H2521.54V1215.92Z" class="colorfff svgShape"></path><path fill="#5d6162" d="M2523.81 2089.05H1027.02V1213.65H2523.81V2089.05ZM1031.55 2084.52H2519.28V1218.19H1031.55V2084.52Z" class="color000 svgShape"></path><path fill="#6be4ff" d="M1731.42 1394.17L1485.58 1823.25H1977.25L1731.42 1394.17Z" class="color6BE4FF svgShape"></path><path fill="#ffda82" d="M1784.03 1714.4C1783.94 1685.58 1792.4 1657.39 1808.35 1633.38C1824.29 1609.38 1847 1590.65 1873.59 1579.56C1900.19 1568.47 1929.48 1565.52 1957.75 1571.09C1986.03 1576.65 2012.01 1590.49 2032.42 1610.83C2052.83 1631.17 2066.74 1657.12 2072.39 1685.37C2078.05 1713.63 2075.19 1742.92 2064.18 1769.56C2053.18 1796.19 2034.52 1818.95 2010.56 1834.97C1986.61 1850.99 1958.44 1859.54 1929.63 1859.54C1891.09 1859.54 1854.13 1844.26 1826.83 1817.06C1799.54 1789.85 1784.15 1752.93 1784.03 1714.4Z" class="colorFFE767 svgShape"></path><path fill="#45b3e8" d="M1901.51 1645.9H1641.15V1906.39H1901.51V1645.9Z" class="colorFF7245 svgShape"></path><path fill="#ffffff" d="M1188.94 2402.19V1930.93C1188.94 1925.23 1190.07 1919.59 1192.27 1914.33C1194.46 1909.08 1197.67 1904.3 1201.72 1900.3C1205.77 1896.29 1210.58 1893.13 1215.86 1890.99C1221.14 1888.85 1226.79 1887.78 1232.49 1887.84H1485.58C1491.28 1887.78 1496.93 1888.85 1502.21 1890.99C1507.49 1893.13 1512.29 1896.29 1516.34 1900.3C1520.39 1904.3 1523.61 1909.08 1525.8 1914.33C1527.99 1919.59 1529.12 1925.23 1529.12 1930.93V2402.19C1529.12 2413.74 1524.54 2424.81 1516.37 2432.98C1508.2 2441.15 1497.13 2445.73 1485.58 2445.73H1232.49C1220.94 2445.73 1209.86 2441.15 1201.7 2432.98C1193.53 2424.81 1188.94 2413.74 1188.94 2402.19Z" class="colorfff svgShape"></path><path fill="#5d6162" d="M1485.58 2448H1232.49C1226.47 2448 1220.51 2446.81 1214.96 2444.51C1209.4 2442.21 1204.35 2438.84 1200.09 2434.58C1195.84 2430.33 1192.47 2425.28 1190.16 2419.72C1187.86 2414.16 1186.68 2408.2 1186.68 2402.19V1930.93C1186.8 1918.85 1191.68 1907.32 1200.25 1898.83C1208.83 1890.33 1220.42 1885.57 1232.49 1885.57H1485.58C1497.65 1885.57 1509.24 1890.33 1517.82 1898.83C1526.39 1907.32 1531.27 1918.85 1531.39 1930.93V2402.19C1531.39 2408.2 1530.21 2414.16 1527.91 2419.72C1525.6 2425.28 1522.23 2430.33 1517.98 2434.58C1513.72 2438.84 1508.67 2442.21 1503.11 2444.51C1497.55 2446.81 1491.6 2448 1485.58 2448ZM1232.49 1890.1C1227.09 1890.04 1221.73 1891.06 1216.73 1893.08C1211.72 1895.1 1207.17 1898.1 1203.33 1901.9C1199.49 1905.7 1196.44 1910.22 1194.36 1915.2C1192.28 1920.18 1191.21 1925.53 1191.21 1930.93V2402.19C1191.21 2413.14 1195.56 2423.63 1203.3 2431.38C1211.04 2439.12 1221.54 2443.46 1232.49 2443.46H1485.58C1496.53 2443.46 1507.03 2439.12 1514.77 2431.38C1522.51 2423.63 1526.86 2413.14 1526.86 2402.19V1930.93C1526.86 1925.53 1525.79 1920.18 1523.71 1915.2C1521.63 1910.22 1518.58 1905.7 1514.74 1901.9C1510.9 1898.1 1506.35 1895.1 1501.34 1893.08C1496.34 1891.06 1490.98 1890.04 1485.58 1890.1H1232.49Z" class="color000 svgShape"></path><path fill="#6be4ff" d="M1341.34 2075.62L1254.26 2228.02H1428.88L1341.34 2075.62Z" class="color6BE4FF svgShape"></path><path fill="#ffda82" d="M1360.39 2189.46C1360.39 2179.23 1363.43 2169.24 1369.11 2160.73C1374.79 2152.23 1382.87 2145.6 1392.31 2141.69C1401.76 2137.78 1412.16 2136.75 1422.19 2138.75C1432.22 2140.74 1441.43 2145.67 1448.66 2152.9C1455.9 2160.13 1460.82 2169.34 1462.82 2179.37C1464.81 2189.4 1463.79 2199.8 1459.87 2209.25C1455.96 2218.7 1449.33 2226.77 1440.83 2232.45C1432.33 2238.14 1422.33 2241.17 1412.1 2241.17C1405.31 2241.17 1398.59 2239.83 1392.31 2237.23C1386.04 2234.63 1380.34 2230.83 1375.54 2226.02C1370.74 2221.22 1366.93 2215.52 1364.33 2209.25C1361.73 2202.98 1360.39 2196.25 1360.39 2189.46Z" class="colorFFE767 svgShape"></path><path fill="#45b3e8" d="M1402.12 2164.97H1309.59V2257.63H1402.12V2164.97Z" class="colorFF7245 svgShape"></path><path fill="#ffffff" d="M2460.76 1679.93V1342.93C2460.76 1331.46 2465.29 1320.45 2473.36 1312.3C2481.42 1304.14 2492.38 1299.5 2503.85 1299.38H2675.76C2687.31 1299.38 2698.38 1303.97 2706.55 1312.14C2714.71 1320.3 2719.3 1331.38 2719.3 1342.93V1679.93C2719.3 1691.48 2714.71 1702.56 2706.55 1710.72C2698.38 1718.89 2687.31 1723.47 2675.76 1723.47H2503.85C2492.38 1723.35 2481.42 1718.71 2473.36 1710.56C2465.29 1702.41 2460.76 1691.4 2460.76 1679.93Z" class="colorfff svgShape"></path><path fill="#5d6162" d="M2675.76 1725.74H2504.31C2492.16 1725.74 2480.51 1720.92 2471.91 1712.33C2463.32 1703.73 2458.5 1692.08 2458.5 1679.93V1342.93C2458.5 1330.78 2463.32 1319.12 2471.91 1310.53C2480.51 1301.94 2492.16 1297.12 2504.31 1297.12H2675.76C2687.91 1297.12 2699.56 1301.94 2708.15 1310.53C2716.74 1319.12 2721.57 1330.78 2721.57 1342.93V1679.93C2721.57 1692.08 2716.74 1703.73 2708.15 1712.33C2699.56 1720.92 2687.91 1725.74 2675.76 1725.74ZM2504.31 1301.65C2493.36 1301.65 2482.86 1306 2475.12 1313.74C2467.38 1321.48 2463.03 1331.98 2463.03 1342.93V1679.93C2462.97 1685.37 2464 1690.76 2466.05 1695.8C2468.1 1700.83 2471.14 1705.41 2474.99 1709.25C2478.83 1713.1 2483.4 1716.14 2488.44 1718.19C2493.48 1720.24 2498.87 1721.27 2504.31 1721.21H2675.76C2686.7 1721.21 2697.2 1716.86 2704.94 1709.12C2712.68 1701.38 2717.03 1690.88 2717.03 1679.93V1342.93C2717.03 1331.98 2712.68 1321.48 2704.94 1313.74C2697.2 1306 2686.7 1301.65 2675.76 1301.65H2504.31Z" class="color000 svgShape"></path><path fill="#6be4ff" d="M2576.88 1442.26L2510.2 1558.37H2643.1L2576.88 1442.26Z" class="color6BE4FF svgShape"></path><path fill="#ffda82" d="M2590.94 1528.88C2590.94 1521.08 2593.25 1513.45 2597.59 1506.96C2601.93 1500.47 2608.09 1495.41 2615.3 1492.43C2622.51 1489.44 2630.44 1488.66 2638.1 1490.18C2645.75 1491.7 2652.78 1495.46 2658.3 1500.98C2663.82 1506.5 2667.58 1513.53 2669.1 1521.18C2670.63 1528.84 2669.84 1536.77 2666.86 1543.98C2663.87 1551.19 2658.81 1557.36 2652.32 1561.69C2645.83 1566.03 2638.2 1568.34 2630.4 1568.34C2619.93 1568.34 2609.9 1564.19 2602.5 1556.79C2595.1 1549.39 2590.94 1539.35 2590.94 1528.88Z" class="colorFFE767 svgShape"></path><path fill="#45b3e8" d="M2622.69 1510.29H2552.39V1580.73H2622.69V1510.29Z" class="colorFF7245 svgShape"></path><path fill="#5d6162" d="M2685.28 2073.18H2680.75V2233.11H2685.28V2073.18Z" class="color000 svgShape"></path><path fill="#5d6162" d="M2683.92 2228.75H2561.46V2233.28H2683.92V2228.75zM210.585 769.152H206.049V918.832H210.585V769.152z" class="color000 svgShape"></path><path fill="#5d6162" d="M329.873 769.152H207.408V773.688H329.873V769.152zM1529.12 1935.46H1188.94V1940H1529.12V1935.46zM2718.85 1333.85H2461.22V1338.39H2718.85V1333.85zM1827.03 1328.05C1825.67 1311.27 1815.69 1224.18 1762.17 1118.5 1695.94 987.869 1593.44 856.269 1457.36 785.965 1290.45 699.785 1162.09 739.7 1083.62 788.686 1031.14 821.782 986.174 865.509 951.628 917.048L948 914.78C982.855 862.661 1028.29 818.462 1081.35 785.057 1160.73 735.618 1290.9 694.796 1459.18 781.882 1596.16 852.64 1699.57 985.148 1765.79 1116.68 1819.77 1222.82 1830.2 1310.81 1831.56 1327.6L1827.03 1328.05zM1841.63 2041.88H1818.96V2037.34H1841.63V2041.88zM1764.53 2041.88H1710.1V2037.34H1764.53V2041.88zM1655.67 2041.88H1601.24V2037.34H1655.67V2041.88zM1546.81 2041.88H1492.38V2037.34H1546.81V2041.88z" class="color000 svgShape"></path><path fill="#5d6162" d="M1841.64 2039.61H1837.1V1989.72H1841.64V2039.61zM1843 1935.29H1838.46L1839.37 1880.86H1843.9L1843 1935.29zM2501.13 1474.91H2446.7V1470.38H2501.13V1474.91zM2392.27 1474.91H2337.85V1470.38H2392.27V1474.91zM2283.42 1474.91H2228.99V1470.38H2283.42V1474.91zM2204.04 1632.3H2199.51V1577.87H2204.04V1632.3zM2204.04 1523.44H2199.51V1472.64H2204.04V1523.44zM1291.52 1335.57H1286.98V1281.14H1291.52V1335.57zM1291.52 1226.71H1286.98V1172.28H1291.52V1226.71zM1291.52 1117.85H1286.98V1063.42H1291.52V1117.85zM1291.93 1004.91H1239.86V1000.38H1291.93V1004.91zM1185.43 1004.91H1131V1000.38H1185.43V1004.91zM1084.14 1034.4H1079.15C1074.95 1033.78 1070.92 1032.3 1067.33 1030.03 1063.73 1027.77 1060.66 1024.77 1058.29 1021.24 1053.56 1014.35 1051.62 1005.92 1052.85 997.657 1054.4 989.411 1059.1 982.095 1065.96 977.266 1072.83 972.437 1081.3 970.477 1089.59 971.803 1093.68 972.462 1097.6 973.928 1101.12 976.114 1104.64 978.301 1107.69 981.165 1110.1 984.541 1112.51 987.917 1114.22 991.737 1115.13 995.779 1116.05 999.822 1116.15 1004.01 1115.44 1008.09 1114.16 1015.46 1110.32 1022.14 1104.59 1026.95 1098.86 1031.76 1091.62 1034.4 1084.14 1034.4zM1084.14 975.432C1078.45 975.333 1072.88 977.084 1068.27 980.421 1062.44 984.646 1058.53 991.007 1057.38 998.11 1056.33 1005.25 1058.11 1012.53 1062.35 1018.38 1066.59 1024.22 1072.95 1028.18 1080.06 1029.41 1087.22 1030.55 1094.54 1028.8 1100.41 1024.55 1106.28 1020.3 1110.22 1013.89 1111.36 1006.73 1112.5 999.571 1110.75 992.253 1106.5 986.383 1102.25 980.514 1095.84 976.575 1088.68 975.432H1084.14z" class="color000 svgShape"></path><path fill="#5d6162" d="M2203.13 1618.69C2184.99 1618.69 2184.99 1645.45 2203.13 1645.91 2206.74 1645.91 2210.2 1644.47 2212.75 1641.92 2215.31 1639.37 2216.74 1635.91 2216.74 1632.3 2216.74 1628.69 2215.31 1625.23 2212.75 1622.68 2210.2 1620.12 2206.74 1618.69 2203.13 1618.69zM1841.63 1865.89C1838.03 1865.89 1834.57 1867.32 1832.01 1869.87 1829.46 1872.43 1828.03 1875.89 1828.03 1879.5 1828.03 1883.1 1829.46 1886.57 1832.01 1889.12 1834.57 1891.67 1838.03 1893.1 1841.63 1893.1 1845.24 1893.1 1848.7 1891.67 1851.26 1889.12 1853.81 1886.57 1855.24 1883.1 1855.24 1879.5 1855.24 1875.89 1853.81 1872.43 1851.26 1869.87 1848.7 1867.32 1845.24 1865.89 1841.63 1865.89zM1288.61 1326C1285 1326 1281.54 1327.43 1278.99 1329.99 1276.43 1332.54 1275 1336 1275 1339.61 1275 1343.22 1276.43 1346.68 1278.99 1349.23 1281.54 1351.78 1285 1353.21 1288.61 1353.21 1292.22 1353.21 1295.68 1351.78 1298.23 1349.23 1300.78 1346.68 1302.21 1343.22 1302.21 1339.61 1302.21 1336 1300.78 1332.54 1298.23 1329.99 1295.68 1327.43 1292.22 1326 1288.61 1326zM1854.7 1239L1827.47 1326.96 1831.8 1328.3 1859.03 1240.34 1854.7 1239z" class="color000 svgShape"></path><path fill="#5d6162" d="M1772.03 1252L1768.47 1254.81L1828.07 1330.27L1831.62 1327.46L1772.03 1252Z" class="color000 svgShape"></path><path fill="#ffda82" d="M430.537 1402.25C430.537 1383.41 436.124 1365 446.59 1349.33C457.056 1333.67 471.933 1321.46 489.337 1314.25C506.742 1307.04 525.893 1305.15 544.37 1308.83C562.847 1312.51 579.819 1321.58 593.14 1334.9C606.461 1348.22 615.533 1365.19 619.208 1383.67C622.884 1402.15 620.997 1421.3 613.788 1438.7C606.578 1456.11 594.37 1470.98 578.706 1481.45C563.042 1491.91 544.626 1497.5 525.788 1497.5C500.526 1497.5 476.298 1487.47 458.435 1469.6C440.572 1451.74 430.537 1427.51 430.537 1402.25Z" class="colorFFE767 svgShape"></path><path fill="#5d6162" d="M606.071 1861.26C580.671 1745.6 529.417 1500.22 528.964 1497.95L533.5 1497.04C533.953 1499.31 585.207 1744.69 610.607 1859.9L606.071 1861.26zM597.001 1884.85C594.733 1842.21 593.825 1820.89 516.264 1687.09 438.703 1553.28 277.231 1601.82 275.417 1602.27L274.51 1598.19C275.87 1597.73 443.693 1552.83 520.347 1684.82 597.001 1816.81 599.269 1841.3 601.536 1884.85H597.001z" class="color000 svgShape"></path><path fill="#45b3e8" d="M651.021 1983.73V1821.81H548.514V1981.92C524.474 2005.96 504.517 2046.33 493.178 2100.3C468.231 2219.14 495.899 2356.57 554.864 2407.37L561.214 2412.36H564.842C574.492 2411.15 584.264 2411.3 593.871 2412.81C595.103 2412.09 596.531 2411.77 597.953 2411.91L606.118 2411L613.828 2413.27C614.736 2411.45 615.643 2410.55 617.457 2410.55C623.227 2409.04 629.192 2408.43 635.146 2408.73L641.95 2410.55H642.404C670.525 2388.32 693.658 2344.78 706.358 2284.91C730.397 2170.61 705.45 2038.62 651.021 1983.73Z" class="colorFF7245 svgShape"></path><path fill="#9278ff" d="M172 1570.52C172 1551.69 177.587 1533.27 188.053 1517.61C198.519 1501.94 213.395 1489.73 230.8 1482.52C248.205 1475.31 267.356 1473.43 285.833 1477.1C304.31 1480.78 321.282 1489.85 334.603 1503.17C347.924 1516.49 356.996 1533.46 360.671 1551.94C364.346 1570.42 362.46 1589.57 355.251 1606.97C348.041 1624.38 335.833 1639.26 320.169 1649.72C304.505 1660.19 286.089 1665.77 267.251 1665.77C241.989 1665.77 217.761 1655.74 199.898 1637.88C182.035 1620.01 172 1595.79 172 1570.52Z" class="color8568FC svgShape"></path><path fill="#5d6162" d="M914.501 2408.27H398.787V2412.81H914.501V2408.27Z" class="color000 svgShape"></path><path fill="#5d6162" d="M262.262 1526.52C251.377 1517.45 235.048 1516.54 221.441 1517.9C215.145 1519.47 209.384 1522.69 204.757 1527.24C200.131 1531.79 196.807 1537.49 195.134 1543.76C190.598 1558.27 188.33 1575.96 197.402 1589.11C202.455 1594.42 208.9 1598.19 215.998 1600C225.268 1600.67 234.463 1597.93 241.852 1592.29C247.335 1587.12 251.263 1580.52 253.191 1573.24C253.672 1566.92 252.25 1560.6 249.109 1555.1C247.287 1551.2 244.703 1547.71 241.509 1544.82C238.315 1541.94 234.576 1539.73 230.512 1538.31C225.869 1537.69 221.151 1538.65 217.12 1541.04C213.088 1543.43 209.977 1547.1 208.287 1551.47C206.414 1555.53 205.76 1560.05 206.405 1564.48C207.049 1568.91 208.963 1573.05 211.916 1576.41C212.583 1577.04 213.369 1577.52 214.226 1577.83C215.083 1578.14 215.994 1578.28 216.905 1578.23C219.431 1578.9 222.09 1578.9 224.616 1578.23C226.43 1576.87 224.616 1573.24 222.348 1574.15C220.08 1575.05 215.544 1574.15 214.184 1572.33C212.823 1570.52 210.555 1548.75 220.987 1543.76C223.255 1542.85 230.059 1541.94 231.42 1543.3C236.626 1545.92 240.997 1549.94 244.043 1554.91C247.088 1559.88 248.685 1565.6 248.655 1571.43C248.055 1575.2 246.701 1578.82 244.676 1582.07C242.65 1585.31 239.994 1588.12 236.863 1590.32C233.733 1592.52 230.193 1594.07 226.453 1594.87C222.713 1595.68 218.849 1595.73 215.091 1595.01C205.112 1591.38 197.855 1585.94 196.041 1574.15C194.226 1562.35 200.576 1530.15 217.358 1524.25C224.604 1521.5 232.515 1521.03 240.037 1522.89C245.48 1523.35 256.366 1525.61 260.448 1531.06C264.53 1536.5 273.602 1551.47 273.148 1565.08C273.945 1577.1 270.405 1589.01 263.17 1598.64C256.82 1608.62 241.852 1614.51 229.605 1614.51C229.174 1614.6 228.77 1614.78 228.426 1615.06C228.082 1615.33 227.81 1615.68 227.632 1616.08C227.454 1616.48 227.375 1616.92 227.403 1617.36C227.43 1617.8 227.564 1618.22 227.791 1618.6C230.593 1619.5 233.607 1619.5 236.409 1618.6C244.156 1617.16 251.55 1614.24 258.18 1609.98C264.886 1604.81 270.06 1597.91 273.148 1590.02C281.313 1569.16 279.952 1541.94 262.262 1526.52Z" opacity=".95" class="color000 svgShape"></path><path fill="#5d6162" d="M572.503 1368.23C571.143 1356.89 562.525 1347.37 553 1341.47 534.857 1334.22 513.085 1337.84 496.303 1347.37 479.521 1356.89 473.624 1368.69 473.171 1383.66 472.717 1398.62 488.592 1409.51 502.653 1413.14 510.436 1415.48 518.608 1416.25 526.693 1415.41 526.954 1415.31 527.19 1415.16 527.385 1414.97 527.579 1414.77 527.726 1414.53 527.813 1414.27 527.901 1414 527.927 1413.73 527.89 1413.45 527.853 1413.18 527.754 1412.91 527.6 1412.68 527.6 1411.78 526.692 1411.32 525.785 1411.32H515.353C501.292 1409.96 485.871 1404.52 479.521 1390.91 473.171 1377.31 486.325 1359.62 499.025 1351.45 511.725 1343.29 540.753 1339.21 553.454 1347.37 558.999 1351.58 563.499 1357.01 566.607 1363.24 568.875 1370.5 569.782 1377.76 567.061 1382.75 562.392 1388.8 555.751 1393.02 548.292 1394.67 540.833 1396.33 533.03 1395.32 526.239 1391.82 514.9 1388.19 503.106 1374.13 509.91 1363.7 516.714 1353.27 525.785 1352.36 536.671 1355.53 539.242 1356.5 541.537 1358.08 543.356 1360.13 545.175 1362.19 546.462 1364.66 547.103 1367.33 547.557 1371.86 548.01 1371.41 545.289 1375.49 543.679 1377.66 541.542 1379.38 539.082 1380.49 536.621 1381.6 533.919 1382.07 531.228 1381.84 528.812 1380.24 527.044 1377.82 526.239 1375.04 526.693 1374.58 526.239 1372.77 525.785 1372.32 525.5 1371.94 525.102 1371.65 524.647 1371.51 524.193 1371.37 523.705 1371.37 523.254 1371.53 522.802 1371.68 522.41 1371.96 522.131 1372.35 521.853 1372.74 521.703 1373.2 521.703 1373.68 521.747 1376.29 522.539 1378.83 523.987 1381 525.434 1383.17 527.475 1384.88 529.867 1385.92 534.577 1386.6 539.376 1385.61 543.434 1383.13 547.492 1380.64 550.555 1376.82 552.093 1372.32 552.294 1368.14 551.289 1364 549.197 1360.38 547.106 1356.76 544.017 1353.82 540.3 1351.91 536.014 1350.07 531.353 1349.28 526.701 1349.59 522.049 1349.91 517.538 1351.32 513.539 1353.72 500.839 1362.79 500.385 1376.4 511.271 1387.74 516.881 1393.14 523.85 1396.92 531.438 1398.68 539.025 1400.43 546.947 1400.1 554.36 1397.72 561.485 1395.03 567.537 1390.1 571.597 1383.66 573.248 1378.84 573.561 1373.67 572.503 1368.69M1402.12 1913.69H1310.04V1918.22H1402.12V1913.69zM2614.98 1314.8H2560.55V1319.33H2614.98V1314.8zM1529.12 2376.78H1188.94V2381.32H1529.12V2376.78zM2718.85 1674.03H2461.22V1678.57H2718.85V1674.03z" class="color000 svgShape"></path><path fill="#ffffff" d="M2056.63 2144.38H1589.45V2230.7H2056.63V2144.38Z" class="colorfff svgShape"></path><path fill="#5d6162" d="M2058.9 2233.29H1587.18V2142.12H2058.9V2233.29ZM1591.72 2228.75H2054.36V2146.65H1591.72V2228.75Z" class="color000 svgShape"></path><path fill="#ffffff" d="M2187.71 2221.04H1529.12V2277.83H2187.71V2221.04Z" class="colorfff svgShape"></path><path fill="#5d6162" d="M2189.53 2280.46H1526.86V2218.77H2189.53V2280.46zM1531.39 2275.92H2184.99V2223.31H1531.39V2275.92zM1211.17 1133.82C1207.95 1133.82 1204.77 1133.19 1201.8 1131.96 1198.83 1130.73 1196.12 1128.92 1193.85 1126.65 1191.58 1124.38 1189.77 1121.68 1188.54 1118.7 1187.31 1115.73 1186.68 1112.55 1186.68 1109.33 1186.68 1106.11 1187.31 1102.93 1188.54 1099.96 1189.77 1096.99 1191.58 1094.29 1193.85 1092.01 1196.12 1089.74 1198.83 1087.93 1201.8 1086.7 1204.77 1085.47 1207.95 1084.84 1211.17 1084.84 1217.63 1084.95 1223.79 1087.57 1228.36 1092.14 1232.93 1096.71 1235.55 1102.87 1235.66 1109.33 1235.66 1115.83 1233.08 1122.06 1228.49 1126.65 1223.9 1131.24 1217.67 1133.82 1211.17 1133.82zM1211.17 1089.37C1205.88 1089.37 1200.8 1091.48 1197.06 1095.22 1193.31 1098.96 1191.21 1104.04 1191.21 1109.33 1191.21 1114.62 1193.31 1119.7 1197.06 1123.44 1200.8 1127.19 1205.88 1129.29 1211.17 1129.29 1216.46 1129.29 1221.54 1127.19 1225.28 1123.44 1229.02 1119.7 1231.13 1114.62 1231.13 1109.33 1231.13 1104.04 1229.02 1098.96 1225.28 1095.22 1221.54 1091.48 1216.46 1089.37 1211.17 1089.37zM2076.58 2143.02C2076.29 2142.99 2075.99 2143.02 2075.7 2143.11 2075.41 2143.19 2075.15 2143.34 2074.91 2143.52 2074.68 2143.71 2074.49 2143.95 2074.35 2144.21 2074.21 2144.48 2074.12 2144.76 2074.09 2145.06 2074.06 2145.36 2074.09 2145.66 2074.18 2145.95 2074.26 2146.23 2074.4 2146.5 2074.59 2146.73 2074.78 2146.96 2075.02 2147.16 2075.28 2147.3 2075.54 2147.44 2075.83 2147.53 2076.13 2147.56 2078.85 2147.56 2079.31 2143.02 2076.58 2143.02z" class="color000 svgShape"></path><path fill="#5d6162" fill-rule="evenodd" d="M2444.96 2014L2368.73 1937.77L2372.27 1934.23L2448.5 2010.46V1974C2448.5 1972.62 2449.62 1971.5 2451 1971.5C2452.38 1971.5 2453.5 1972.62 2453.5 1974V2016.5C2453.5 2017.88 2452.38 2019 2451 2019H2408.5C2407.12 2019 2406 2017.88 2406 2016.5C2406 2015.12 2407.12 2014 2408.5 2014H2444.96Z" clip-rule="evenodd" class="color000 svgShape"></path><path fill="#ffe5d2" d="M2247.29 604H1874V974.706H2247.29V604Z" class="colorFFDCC4 svgShape"></path><path fill="#5d6162" fill-rule="evenodd" d="M2181.47 661.001C2182.85 660.968 2183.99 662.061 2184.02 663.442L2184.55 705.936C2184.58 707.316 2183.49 708.461 2182.11 708.493 2180.73 708.525 2179.58 707.433 2179.55 706.052L2179.17 669.592 1947 912.86 1983.46 912.475C1984.84 912.443 1985.99 913.536 1986.02 914.916 1986.05 916.297 1984.96 917.442 1983.58 917.474L1941.08 917.999C1939.7 918.032 1938.56 916.939 1938.53 915.558L1938 873.064C1937.97 871.684 1939.06 870.539 1940.44 870.507 1941.82 870.475 1942.97 871.567 1943 872.948L1943.38 909.408 2175.55 666.14 2139.09 666.525C2137.71 666.557 2136.56 665.464 2136.53 664.084 2136.5 662.703 2137.59 661.558 2138.97 661.526L2181.47 661.001zM1106.54 1289L1182.77 1365.23 1179.23 1368.77 1103 1292.54 1103 1329C1103 1330.38 1101.88 1331.5 1100.5 1331.5 1099.12 1331.5 1098 1330.38 1098 1329L1098 1286.5C1098 1285.12 1099.12 1284 1100.5 1284L1143 1284C1144.38 1284 1145.5 1285.12 1145.5 1286.5 1145.5 1287.88 1144.38 1289 1143 1289L1106.54 1289z" clip-rule="evenodd" class="color000 svgShape"></path><path fill="#228abd" d="M540 1820H658V1851H540V1820Z" class="colorFFA451 svgShape"></path><path fill="#5d6162" fill-rule="evenodd" d="M654 1824H544V1847H654V1824ZM540 1820V1851H658V1820H540Z" clip-rule="evenodd" class="color000 svgShape"></path></svg></g></svg>