<svg id="SvgjsSvg1336" width="360" height="360" xmlns="http://www.w3.org/2000/svg" version="1.1" xmlns:xlink="http://www.w3.org/1999/xlink" xmlns:svgjs="http://svgjs.com/svgjs"><defs id="SvgjsDefs1337"></defs><g id="SvgjsG1338"><svg xmlns="http://www.w3.org/2000/svg" width="360" height="360" viewBox="0 0 2000 1500"><g fill="none" fill-rule="evenodd" transform="translate(120 241.532)"><path fill="#ffffff" d="M45 646.468002L479 646.468002C476.25445 590.468002 450.190285 562.468002 400.807505 562.468002 326.733334 562.468002 281.241002 633.90502 183.242597 604.468002 117.910327 584.843323 71.8294615 598.843323 45 646.468002zM553 138.173348C553 138.173348 742.666667 138.173348 1122 138.173348 1117.03955 101.184634 1091.74815 82.6902768 1046.1258 82.6902768 977.692266 82.6902768 915.387843 10.1733485 837.5 10.1733485 759.612157 10.1733485 759.23035 73.4282881 695.929165 82.6902768 632.627981 91.9522655 553 91.9522655 553 138.173348zM1225 552.468002L1659 552.468002C1656.25445 496.468002 1630.19029 468.468002 1580.8075 468.468002 1506.73333 468.468002 1461.241 539.90502 1363.2426 510.468002 1297.91033 490.843323 1251.82946 504.843323 1225 552.468002z" class="colorFFF svgShape"></path><line x1=".793" x2="1759.586" y1="1048.468" y2="1048.468" stroke="#bfbfbf" stroke-width="3" class="colorStroke151C24 svgStroke"></line><polygon stroke="#ffffff" stroke-width="3" points="355 103.468 355 801.186 1404.162 801.186 1404.162 103.468" fill="#5a5e5f" class="color000 svgShape colorStrokeB4B1FF svgStroke"></polygon><circle cx="391.205" cy="132.996" r="10.577" stroke="#ffffff" stroke-width="3" fill="#5a5e5f" class="color000 svgShape colorStrokeB4B1FF svgStroke"></circle><line x1="399.216" x2="1404.162" y1="163.854" y2="163.854" stroke="#ffffff" stroke-width="3" class="colorStrokeB4B1FF svgStroke"></line><line x1="418.138" x2="463.747" y1="143.573" y2="143.573" stroke="#ffffff" stroke-width="3" class="colorStrokeB4B1FF svgStroke"></line><circle cx="1107.001" cy="471.99" r="183.001" fill="#f8f1eb" stroke="#ffffff" stroke-width="3" class="colorF8F1EB svgShape colorStrokeB4B1FF svgStroke"></circle><polygon stroke="#ffffff" stroke-width="3" points="484.882 236.128 1106.605 236.128 1106.605 707.852 484.882 707.852" fill="#5a5e5f" class="color000 svgShape colorStrokeB4B1FF svgStroke"></polygon><polygon fill="#f8f1eb" stroke="#ffffff" stroke-width="3" points="469.081 220.327 500.683 220.327 500.683 251.929 469.081 251.929" class="colorF8F1EB svgShape colorStrokeB4B1FF svgStroke"></polygon><polygon fill="#f8f1eb" stroke="#ffffff" stroke-width="3" points="469.081 692.051 500.683 692.051 500.683 723.653 469.081 723.653" class="colorF8F1EB svgShape colorStrokeB4B1FF svgStroke"></polygon><polygon fill="#f8f1eb" stroke="#ffffff" stroke-width="3" points="1090.805 220.327 1122.406 220.327 1122.406 251.929 1090.805 251.929" class="colorF8F1EB svgShape colorStrokeB4B1FF svgStroke"></polygon><polygon fill="#f8f1eb" stroke="#ffffff" stroke-width="3" points="1090.805 692.051 1122.406 692.051 1122.406 723.653 1090.805 723.653" class="colorF8F1EB svgShape colorStrokeB4B1FF svgStroke"></polygon><polygon fill="#f8f1eb" stroke="#ffffff" stroke-width="3" points="783.98 590.594 783.98 573.272 760.942 571.367 754.88 565.824 754.88 372.861 797.491 372.861 802.687 377.364 808.75 415.299 833.174 415.299 833.174 352.594 628.604 352.594 628.604 415.299 653.028 415.299 659.091 377.364 664.46 372.861 706.898 372.861 706.898 565.824 701.009 571.367 677.798 573.272 677.798 590.594" class="colorF8F1EB svgShape colorStrokeB4B1FF svgStroke"></polygon><circle cx="628.604" cy="352.594" r="8.604" fill="#f8f1eb" stroke="#ffffff" stroke-width="3" class="colorF8F1EB svgShape colorStrokeB4B1FF svgStroke"></circle><circle cx="833.174" cy="352.594" r="8.604" fill="#f8f1eb" stroke="#ffffff" stroke-width="3" class="colorF8F1EB svgShape colorStrokeB4B1FF svgStroke"></circle><circle cx="628.604" cy="415.106" r="8.604" fill="#f8f1eb" stroke="#ffffff" stroke-width="3" class="colorF8F1EB svgShape colorStrokeB4B1FF svgStroke"></circle><circle cx="833.174" cy="415.106" r="8.604" fill="#f8f1eb" stroke="#ffffff" stroke-width="3" class="colorF8F1EB svgShape colorStrokeB4B1FF svgStroke"></circle><circle cx="784.086" cy="590.594" r="8.604" fill="#f8f1eb" stroke="#ffffff" stroke-width="3" class="colorF8F1EB svgShape colorStrokeB4B1FF svgStroke"></circle><circle cx="678.259" cy="590.594" r="8.604" fill="#f8f1eb" stroke="#ffffff" stroke-width="3" class="colorF8F1EB svgShape colorStrokeB4B1FF svgStroke"></circle><path fill="#f98fae" d="M439.869133,392.995466 L436.957676,413.703939 L448.918336,419.355069 C450.780478,419.782366 439.698565,457.723014 419.225881,455.183486 L418.604999,455.10135 C398.099937,452.219552 402.342922,409.911492 405.085327,410.179641 L406.563468,383.903158 L439.869133,392.995466 Z" class="colorFF8B98 svgShape"></path><path fill="#f98fae" d="M436.261201,329.449176 C450.446161,331.442742 460.329238,344.558028 458.335672,358.742987 L456.856588,369.264924 L460.979872,379.106576 C461.493476,380.332543 460.915991,381.742743 459.690024,382.256347 C459.499736,382.336066 459.299986,382.390986 459.09569,382.419757 L454.925416,383.005924 L453.446417,393.531846 C452.613964,399.455053 447.13742,403.581926 441.214213,402.749473 C440.940467,402.711001 440.668295,402.662062 440.398294,402.602763 L419.93127,398.107753 C411.768446,396.315017 406.153785,388.809078 406.739403,380.472253 L408.759635,351.712305 C409.695931,338.383229 421.2603,328.336896 434.589376,329.273192 C435.148521,329.312469 435.706133,329.371166 436.261201,329.449176 Z" class="colorFF8B98 svgShape"></path><path fill="#252727" d="M448.610506,355.318811 L458.736645,355.674912 C464.642789,351.725695 466.230241,346.722041 463.499002,340.663949 C459.402143,331.576811 437.430763,318.710609 423.061973,327.29306 C401.096473,330.472307 393.8636,341.194445 401.363354,359.459474 L406.182721,382.113417 C406.242928,382.396426 406.260293,384.283762 406.234816,387.775423 C406.215197,390.464107 408.321446,392.672597 410.981351,392.805571 L411.234683,392.811906 L411.234683,392.811906 L417.346072,392.811906 C420.070689,392.811906 422.648634,391.577623 424.357044,389.455155 L425.37396,388.197761 C431.470355,380.696996 435.401693,376.556823 437.167975,375.777242 C437.981016,375.418392 441.379423,376.002111 442.339005,373.928407 C445.158127,367.836145 447.180234,355.202184 448.610506,355.318811 Z" class="color273237 svgShape"></path><path fill="#f98fae" d="M438.705621,364.068612 C439.328835,364.156199 439.763046,364.732417 439.675459,365.35563 L437.564771,380.373956 L436.436343,380.215366 C431.97754,379.588722 428.870962,375.466153 429.497606,371.00735 C430.124249,366.548547 434.246819,363.441969 438.705621,364.068612 Z" class="colorFF8B98 svgShape"></path><path fill="#ffffff" stroke="#bfbfbf" stroke-width="3" d="M271.980493,693.409133 L270.777818,793.477669 C270.662302,803.089172 269.161612,812.633812 266.322062,821.817018 L206,1016.90073 L295.388275,1016.90073 L379.875072,846.64098 C383.064704,840.21316 385.553216,833.460695 387.29761,826.500256 L436.680116,629.45543 L271.980493,693.409133 Z" class="colorFFF svgShape colorStroke151C24 svgStroke"></path><path fill="#151c24" d="M321.340058,695.997751 L411.778058,728.348751 L388.350818,821.827203 C387.641725,824.656608 386.810012,827.450308 385.85889,830.200617 L321.340058,695.997751 Z" class="color151C24 svgShape"></path><path fill="#ffffff" stroke="#bfbfbf" stroke-width="3" d="M291.525659,685.205236 L439.866602,625.468002 L522.427032,740.841553 C530.452781,752.057084 536.071877,764.811481 538.931173,778.303153 L589.397526,1016.43016 L589.397526,1016.43016 L500.142257,1016.43016 L438.227761,842.736175 C433.11777,828.400682 424.803149,815.420643 413.917357,804.784954 L333.560182,726.274006 L333.560182,726.274006" class="colorFFF svgShape colorStroke151C24 svgStroke"></path><path fill="#151c24" d="M500.5 1016.05455L569.397526 1016.05455 574.237167 1020.3239C577.358683 1023.07759 581.421135 1024.51135 585.569195 1024.33481L585.984255 1024.31177C597.95463 1023.49252 608.32267 1032.53229 609.141923 1044.50267 609.19756 1045.31561 609.207406 1046.13087 609.171468 1046.9446L609.13593 1047.55455 516.470089 1047.55455C513.493665 1047.55455 510.842723 1045.67234 509.861447 1042.86233L500.5 1016.05455zM206 1016.05455L275.820177 1016.05455 270.700654 1024.77075 277.406906 1024.31177C289.37728 1023.49252 299.745321 1032.53229 300.564573 1044.50267 300.620211 1045.31561 300.630057 1046.13087 300.594119 1046.9446L300.558581 1047.55455 214.23449 1047.55455C207.054788 1047.55455 201.23449 1041.73425 201.23449 1034.55455 201.23449 1033.34663 201.402839 1032.14461 201.734678 1030.98317L206 1016.05455z" class="color151C24 svgShape"></path><path fill="#f98fae" d="M407.172742,485.892033 L358.21547,545.483512 C356.44046,547.644079 356.121524,550.653725 357.40428,553.138327 L415.803286,666.252808 L392.878652,684.03852 L301.180156,580.732953 C288.121639,566.021506 284.902535,545.020227 292.955065,527.072851 L332.503993,438.926708 C342.505346,416.635821 368.683379,406.673185 390.974265,416.674538 C392.842622,417.512822 394.650517,418.479826 396.384906,419.568573 C417.32195,432.711616 423.640236,460.338984 410.497193,481.276028 C409.488037,482.883628 408.377644,484.425409 407.172742,485.892033 Z" class="colorFF8B98 svgShape"></path><path fill="#ff8854" d="M359.812537,543.671884 L297.051136,518.276873 L332.321611,437.731719 C339.737237,420.797081 357.306001,410.654712 375.679473,412.70142 L380.50407,413.238854 C396.528324,415.023872 410.236954,425.557073 416.088956,440.580956 C421.960176,455.654178 419.159244,472.728452 408.779988,485.135881 L359.812537,543.671884 Z" class="colorFF5F13 svgShape"></path><path fill="#ff8854" d="M270,694.468002 L490.300173,694.468002 L490.300173,556.072983 L492.810454,485.046707 C494.342929,441.686111 460.434553,405.293072 417.073957,403.760579 C415.997937,403.722549 414.921287,403.706645 413.844688,403.711559 L412.768133,403.726478 L412.768133,403.726478 C366.616683,404.626058 327.077778,436.998115 317.087199,482.06422 L270,694.468002 Z" class="colorFF5F13 svgShape"></path><path fill="#f98fae" d="M485.141124,435.382402 L552.328615,473.247951 C554.764585,474.620816 557.783891,474.412287 560.007998,472.717572 L661.263135,395.563655 L682.759463,415.051556 L596.946616,523.295769 C584.726257,538.710514 564.603026,545.527546 545.530004,540.713881 L451.855399,517.072208 C428.166444,511.09357 413.809396,487.043234 419.788033,463.354279 C420.289145,461.36874 420.927521,459.420393 421.698554,457.523294 C431.006245,434.622066 457.116733,423.602327 480.017961,432.910017 C481.776376,433.624686 483.487552,434.450481 485.141124,435.382402 Z" class="colorFF8B98 svgShape"></path><polygon fill="#4fb7e3" points="671.541 312.989 729.327 342.432 702.314 395.447 644.528 366.004" class="color5F5AFF svgShape"></polygon><polygon fill="#ffda82" points="795 214.468 859.855 214.468 859.855 273.968 795 273.968" class="colorF9C21D svgShape"></polygon><polygon fill="#ff0033" points="826.855 468.468 891.71 468.468 891.71 527.968 826.855 527.968" class="colorF03 svgShape"></polygon><polygon fill="#00d3bd" points="870 503.468 934.855 503.468 934.855 562.968 870 562.968" class="color00D3BD svgShape"></polygon><polygon fill="#ff8854" points="949.195 299.14 1014.05 299.14 1014.05 358.64 949.195 358.64" class="colorFF5F13 svgShape"></polygon><path fill="#f98fae" d="M660.426727,396.034343 L657.850482,385.707774 C656.854736,381.716448 657.59994,377.496629 659.888062,374.09293 L660.114303,373.766122 L668.395275,377.687193 L678.420906,353.82569 C679.081198,352.254163 680.858642,351.477435 682.460447,352.060445 C684.040216,352.635434 684.854752,354.38221 684.279763,355.961979 L675.642788,379.691872 C675.530395,380.000671 675.689612,380.342114 675.998411,380.454508 C676.311952,380.568628 676.65999,380.417583 676.790788,380.110624 L686.88407,356.423502 C687.453567,355.086995 688.968934,354.42934 690.334103,354.926221 C691.678622,355.415586 692.371861,356.902242 691.882496,358.246761 L683.131371,382.29028 C682.996397,382.661118 683.187603,383.07116 683.55844,383.206133 C683.949896,383.348612 684.38766,383.197738 684.608212,382.844333 L698.263098,360.964198 C698.934568,359.888257 700.316499,359.503153 701.447649,360.076757 C702.552291,360.636918 702.995563,361.985176 702.438836,363.091553 L690.70572,386.408622 C690.562517,386.693207 690.67713,387.039998 690.961715,387.183201 L691.023713,387.209973 C691.379548,387.339486 691.777545,387.203562 691.979821,386.883442 L702.133424,370.814431 C702.714379,369.895016 703.90319,369.574536 704.867554,370.077365 C705.81938,370.573657 706.207037,371.734722 705.744304,372.703307 L697.659936,389.625361 L696.067866,403.655956 C695.608581,407.703539 692.95006,411.165913 689.158319,412.654728 L682.531642,415.256674 L660.426727,396.034343 Z" class="colorFF8B98 svgShape"></path><path fill="#ff8854" d="M550.267182,471.989733 L536.156381,538.207444 L450.710235,517.459327 C432.745162,513.09703 419.706095,497.556379 418.531189,479.106634 L418.222676,474.262009 C417.197993,458.171235 425.190692,442.841798 438.970139,434.469831 C452.794838,426.07037 470.096093,425.863834 484.117363,433.930878 L550.267182,471.989733 Z" class="colorFF5F13 svgShape"></path><path fill="#ff8854" d="M413.844688,403.710691 C414.921287,403.706645 415.997937,403.722549 417.073957,403.760579 C438.998616,404.535462 458.506651,414.223046 472.238395,429.217481 C476.346081,430.193219 480.350112,431.763415 484.117363,433.930878 L550.267182,471.989733 L536.156381,538.207444 L491.316,527.318691 L490.300173,556.072983 L490.300173,694.468002 L270,694.468002 L308.071,522.735691 L297.051136,518.276873 L332.321611,437.731719 C339.462224,421.425112 356.016868,411.416326 373.639096,412.523727 C385.401052,407.221542 398.322232,404.138526 411.825133,403.74926 L412.768133,403.726478 L413.844688,403.710691 Z" class="colorFF5F13 svgShape"></path><line x1="488.62" x2="444.266" y1="525.534" y2="512.535" stroke="#273237" stroke-linecap="round" stroke-linejoin="round" stroke-width="2" class="colorStroke273237 svgStroke"></line><line x1="309.407" x2="314.839" y1="522.03" y2="489.297" stroke="#273237" stroke-linecap="round" stroke-linejoin="round" stroke-width="2" class="colorStroke273237 svgStroke"></line><polygon fill="#252727" points="1394.384 688.048 1394.384 964.888 1327.877 964.888 1298.342 796.708 1251.156 688.048" class="color273237 svgShape"></polygon><path fill="#f7ba9f" d="M1334.94944,964.888259 L1393.619,964.888259 L1393.0114,1033.45479 L1331.28558,1033.45479 C1329.62872,1033.45479 1328.28558,1032.11164 1328.28558,1030.45479 C1328.28558,1029.2127 1329.05101,1028.09905 1330.21062,1027.65399 L1349.33831,1020.31274 L1334.94944,964.888259 Z" class="colorFDC9AB svgShape"></path><path fill="#151c24" d="M1302.49152,1033.31478 C1296.39419,1035.03898 1292.15202,1040.53784 1292.00755,1046.84676 L1292.00375,1047.17954 L1386.63153,1047.17954 C1390.49752,1047.17954 1393.63153,1044.04553 1393.63153,1040.17954 L1393.63153,1033.03418 L1331.9057,1033.03418 C1330.24885,1033.03418 1328.9057,1031.69103 1328.9057,1030.03418 C1328.9057,1028.79208 1329.67114,1027.67844 1330.83075,1027.23338 L1302.49152,1033.31478 Z" class="color151C24 svgShape"></path><path fill="#f7ba9f" d="M1256.92039,961.847047 L1322.02783,948.179536 L1342.63819,1013.57794 L1283.93345,1032.65227 C1282.35768,1033.16426 1280.66522,1032.30191 1280.15323,1030.72615 C1279.7694,1029.54485 1280.15323,1028.24918 1281.11856,1027.46756 L1297.0415,1014.57484 L1256.92039,961.847047 Z" class="colorFDC9AB svgShape"></path><path fill="#151c24" d="M1250.71617,1046.47243 L1250.81539,1046.7901 L1284.8359,1046.7901 L1340.81175,1028.60244 C1344.48853,1027.40778 1346.50069,1023.4587 1345.30603,1019.78193 L1343.09799,1012.98628 L1284.39325,1032.06061 C1282.81748,1032.57261 1281.12502,1031.71026 1280.61303,1030.13449 C1280.2292,1028.95319 1280.61303,1027.65752 1281.57836,1026.8759 L1266.04112,1035.88673 C1265.48734,1036.20789 1262.11719,1036.20789 1255.93067,1035.88673 C1249.48557,1036.36848 1250.10639,1044.43838 1250.71617,1046.47243 Z" class="color151C24 svgShape"></path><path fill="#252727" d="M1208.81958,688.047744 L1295.68526,688.047744 C1329.92691,688.047744 1357.68526,715.806089 1357.68526,750.047744 C1357.68526,759.366994 1355.58442,768.566359 1351.53896,776.961755 L1320.44588,841.488137 L1327.87672,964.888259 L1234.64133,964.888259 C1202.92144,896.224497 1187.06149,846.0184 1187.06149,814.269969 C1187.06149,782.521538 1194.31419,740.447463 1208.81958,688.047744 Z" class="color273237 svgShape"></path><path fill="#f7ba9f" d="M1281.47525,406.750752 L1281.61448,427.459224 L1271.71808,433.110355 C1269.71026,433.537652 1281.65916,471.4783 1303.73351,468.938772 L1304.40297,468.856636 C1326.51224,465.974837 1321.9373,423.666778 1318.98035,423.934926 L1317.38656,397.658443 L1281.47525,406.750752 Z" class="colorFDC9AB svgShape"></path><path fill="#f7ba9f" d="M1285.24898,343.204461 C1270.01451,345.198027 1259.4002,358.313313 1261.54127,372.498273 L1263.12979,383.02021 L1258.70143,392.861861 C1258.14983,394.087828 1258.77004,395.498029 1260.08671,396.011632 C1260.29108,396.091351 1260.50561,396.146272 1260.72502,396.175043 L1265.20384,396.76121 L1266.79227,407.287132 C1267.68631,413.210339 1273.56805,417.337211 1279.9295,416.504759 C1280.2235,416.466286 1280.51581,416.417347 1280.80579,416.358049 L1302.78712,411.863039 C1311.55389,410.070303 1317.58397,402.564363 1316.95503,394.227539 L1314.78532,365.467591 C1313.77975,352.138515 1301.35976,342.092182 1287.0445,343.028478 C1286.44398,343.067755 1285.84511,343.126451 1285.24898,343.204461 Z" class="colorFDC9AB svgShape"></path><path fill="#f7ba9f" d="M1283.29629,377.068612 C1282.67308,377.156199 1282.23887,377.732417 1282.32646,378.35563 L1284.43714,393.373956 L1285.56557,393.215366 C1290.02437,392.588722 1293.13095,388.466153 1292.50431,384.00735 C1291.87767,379.548547 1287.7551,376.441969 1283.29629,377.068612 Z" class="colorFDC9AB svgShape"></path><path fill="#00d3bd" d="M1295.25552,420.409791 C1357.6925,420.409791 1378.78003,484.499006 1382.96479,547.736678 L1383.24716,551.967896 L1383.69121,558.485348 C1386.40289,597.804944 1389.96703,640.992409 1394.38362,688.047744 L1208.88362,688.047744 L1211.09846,671.005183 C1217.1493,624.192983 1221.73528,586.521846 1224.85639,557.991773 C1212.30523,537.043348 1197.69834,527.146091 1203.42026,508.11625 C1208.27577,491.967902 1257.18562,420.409791 1295.25552,420.409791 Z" class="color00D3BD svgShape"></path><path fill="#0b8e7f" d="M1224.74004,559.053337 L1294.70599,629.021403 L1235.67998,688.047696 L1231.43698,688.047696 L1290.463,629.021002 L1224.31784,562.874618 L1224.74004,559.053337 L1224.74004,559.053337 Z M1389.96527,638.966228 L1339.671,638.967002 L1339.67098,688.047696 L1336.67098,688.047696 L1336.67174,635.968002 L1389.70844,635.968002 L1389.96527,638.966228 L1389.96527,638.966228 Z M1361.26629,460.910902 L1306.832,475.498002 L1337.918,591.512002 L1385.1468,578.856399 L1385.37276,581.90139 L1385.37276,581.90139 L1335.79727,595.186284 L1303.15843,473.376467 L1359.70774,458.221739 C1360.23771,459.106662 1360.75717,460.003195 1361.26629,460.910902 Z M1302.97122,420.750029 L1251.14427,510.51704 L1213.64298,488.867054 C1214.17405,488.041203 1214.72204,487.201604 1215.28625,486.349878 L1250.046,506.418002 L1299.6414,420.517715 C1300.76536,420.573693 1301.87525,420.65127 1302.97122,420.750029 Z" class="color00BAA7 svgShape"></path><path fill="#f7ba9f" d="M1208.02123,517.861696 L1233.87623,560.232696 L1224.85639,567.991773 L1220.9461,590.594179 L1199.51722,585.814042 C1189.49838,583.579141 1182.37323,574.689457 1182.37323,564.424375 C1182.37323,553.308653 1186.366,542.569862 1193.6126,534.158669 L1194.0111,533.702196 L1208.02123,517.861696 Z" class="colorFDC9AB svgShape"></path><polyline stroke="#273237" stroke-linecap="round" stroke-linejoin="round" stroke-width="2" points="1207.493 516.994 1234.641 561.487 1300.388 505.447" fill="#5a5e5f" class="color000 svgShape"></polyline><path fill="#252727" d="M1269.08236,373.655421 C1271.96916,373.736062 1275.21064,373.468985 1278.80682,372.85419 C1283.90324,371.982917 1280.89684,381.719618 1287.14998,382.019415 L1287.44995,382.026479 C1291.38569,382.026479 1292.58914,389.207491 1290.11352,396.537388 L1290.00191,396.86084 C1285.74353,408.944935 1264.6051,456.885453 1315.26064,456.885453 C1365.91617,456.885453 1341.07886,423.116198 1333.19419,405.968002 C1325.30953,388.819805 1333.64006,342.468002 1305.84666,342.468002 L1301.01631,342.471917 C1291.53273,342.487578 1283.11193,342.550223 1275.7539,342.659851 C1267.65736,342.780523 1260.91825,348.912405 1260.0359,356.961626 L1259.42114,362.569648 C1258.81934,368.059609 1262.78196,372.997964 1268.27193,373.599774 C1268.54121,373.629292 1268.81157,373.647857 1269.08236,373.655421 Z" class="color273237 svgShape"></path><path fill="#f7ba9f" d="M1288.9741,376.533922 C1288.35089,376.621509 1287.91668,377.197726 1288.00427,377.82094 L1290.11495,392.839266 L1291.24338,392.680676 C1295.70218,392.054032 1298.80876,387.931463 1298.18212,383.47266 C1297.55548,379.013857 1293.43291,375.907278 1288.9741,376.533922 Z" class="colorFDC9AB svgShape"></path><circle cx="300.08" cy="155.253" r="145.08" fill="#4fb7e3" class="color5F5AFF svgShape"></circle><path fill="#ffffff" fill-rule="nonzero" d="M280.866714,72.1174116 L281.902558,72.7628358 C334.077259,104.909908 335.169486,150.180211 287.718189,194.725956 L286.265415,196.075591 C256.593347,223.357055 245.589968,262.097936 253.260806,292.608952 C252.109656,292.22061 250.965348,291.814406 249.827749,291.39435 C242.908,260.437395 254.115096,222.079041 283.268558,194.691914 L284.198548,193.82761 C331.239262,150.576848 331.169325,107.570033 281.81145,76.3064767 L280.300668,75.3627026 C257.629218,61.3938491 244.964513,43.6086227 242.339693,22.1226527 C243.309239,21.6971373 244.285965,21.2856484 245.26807,20.8846139 C247.514313,41.532893 259.3695,58.5712123 280.866714,72.1174116 Z M375.920152,223.244764 C384.136152,235.394812 378.997717,250.596477 365.185045,262.319849 C352.073569,273.448089 335.01435,278.06019 324.022755,272.190605 C308.507075,263.905127 310.546648,242.809716 329.290057,209.357382 L330.139479,207.851821 L331.219074,207.459069 C349.437049,200.991156 364.469873,206.311772 375.920152,223.244764 Z M215.584097,271.925605 L215.534323,273.166185 C214.532677,272.446714 213.540575,271.714795 212.558241,270.970656 C213.55031,232.74149 197.439187,210.968001 163.937754,205.496085 C163.542834,204.432398 163.161715,203.361279 162.792908,202.284446 C198.831997,207.5464 216.540617,230.406093 215.617765,270.699264 L215.584097,271.925605 Z M333.239653,209.993457 L332.74111,210.16198 L332.243351,210.334664 L331.440016,211.771852 C314.280502,242.691845 312.286475,261.64854 324.680387,269.055643 L325.060364,269.276566 L325.461224,269.496877 C335.145199,274.668185 350.951923,270.394707 363.208995,259.991635 C375.971059,249.159956 380.565879,235.566533 373.390482,224.955355 C362.91855,209.469171 349.659615,204.537136 333.239653,209.993457 Z M412.794741,138.858746 C417.51447,141.679889 422.870335,149.903429 430.046776,164.362504 L431.017746,166.333424 L431.760191,167.859539 C433.926587,172.335744 436.294498,177.426422 439.24588,183.913446 L441.330746,188.508886 C440.956497,190.104643 440.555904,191.690254 440.129452,193.265234 L436.809379,185.932654 L434.775189,181.475031 L433.747205,179.240215 C431.751661,174.915885 430.026612,171.263904 428.400532,167.932988 L427.311417,165.720138 L426.708188,164.51123 L425.806148,162.728727 C419.661121,150.693266 414.936132,143.696421 411.227972,141.479927 C400.573427,135.111341 389.386818,135.085175 383.987084,141.093727 C377.991463,147.765354 379.570128,160.728945 390.396255,177.835671 L391.067148,178.882785 C401.604538,195.131515 408.489599,218.126611 411.746247,247.879524 C410.849851,248.96096 409.938071,250.027223 409.011272,251.079942 C405.986509,220.876896 399.311012,197.624044 389.008776,181.331055 L388.505007,180.544347 C376.411938,161.896749 374.457638,147.129015 381.715757,139.052544 C388.244561,131.787618 401.014828,131.817489 412.794741,138.858746 Z M217.290698,95.6669601 L217.957449,96.186936 L219.154119,97.0963114 C229.393915,104.992529 232.792771,117.236343 229.641326,131.155551 C226.732134,144.00478 218.381164,157.267377 207.194262,166.944206 C195.269838,177.259001 181.3471,182.544271 168.134177,180.963987 C164.209071,180.494539 160.404039,179.43711 156.743445,177.786541 C156.550881,176.577635 156.377197,175.363085 156.218653,174.143782 C160.148727,176.1672 164.252995,177.424284 168.496824,177.931852 C180.774363,179.400263 193.876603,174.426465 205.196452,164.634636 C215.906735,155.37009 223.903188,142.67052 226.662965,130.481221 C229.56599,117.659227 226.516189,106.645227 217.311768,99.5319088 L216.09558,98.6074765 C203.874118,89.1887562 195.08695,76.6720277 189.722157,61.0748069 C190.487935,60.1754148 191.264992,59.2877883 192.052597,58.4098175 C197.084319,73.9525104 205.500253,86.3643671 217.290698,95.6669601 Z M329.967376,13.2551457 C330.993266,13.4699853 332.015173,13.6956617 333.03297,13.9320499 C334.630581,51.8564194 349.271421,67.1206974 377.102048,60.642079 L377.966626,60.4348687 C392.519355,56.8479438 402.46675,57.8003058 409.533398,63.0741075 C415.185298,67.2920906 418.533046,73.3257665 422.802446,85.1620818 L426.137778,94.594941 L427.121069,97.3211588 L427.30945,97.8311883 C429.088365,102.602348 430.792101,106.64153 432.710742,110.494847 C435.404785,115.905449 438.450879,120.771911 442.04876,125.241059 C442.480909,127.279916 442.867137,129.335543 443.209528,131.405964 C442.789461,130.874922 442.362399,130.35248 441.925987,129.83872 L441.517991,129.364076 C436.952741,124.115625 433.212983,118.354745 429.977118,111.855971 C428.136803,108.15996 426.495155,104.312441 424.809982,99.8612575 L424.115102,97.9921267 L422.465642,93.3844664 C421.627919,91.0230147 420.787079,88.6326254 420.383115,87.4804047 L419.507459,85.0385155 L419.095538,83.9304386 L418.681355,82.8410363 C415.182357,73.7481557 412.206319,68.8792974 407.70696,65.5214492 C401.672078,61.0176491 392.989778,60.0674368 379.934255,63.1035498 L378.697434,63.3998773 C348.062048,70.9508201 331.77834,54.198429 330.000248,14.0939037 L329.967376,13.2551457 Z" class="colorFFF svgShape"></path><polygon fill="#ffda82" points="1182.373 0 1524.373 0 1524.373 279 1182.373 279" class="colorF9C21D svgShape"></polygon><path fill="#ffffff" fill-rule="nonzero" d="M1270.97008,272.258212 C1270.65745,274.547388 1270.37639,276.795624 1270.12689,279.002966 L1267.10962,279.002966 C1267.3702,276.662825 1267.66622,274.279322 1267.99767,271.852277 C1276.52668,209.399645 1248.29441,182.447278 1182.37489,190.514675 L1182.37489,187.500665 C1249.93047,179.408651 1279.77013,207.820976 1270.97008,272.258212 Z M1336.54149,59.4443224 L1337.5591,60.0783874 C1388.81554,91.6596825 1389.88855,136.133244 1343.27238,179.895 L1341.84517,181.220881 C1311.7314,208.908465 1301.19074,248.610634 1310.2292,279.001635 L1307.09615,279.001635 C1298.27736,247.93166 1308.94621,208.001517 1338.90106,179.86156 L1339.81468,179.012464 C1386.0275,136.5229 1385.95879,94.27299 1337.4696,63.5596615 L1335.9854,62.6324974 C1310.17669,46.7306387 1297.56811,25.7945095 1298.21033,0.000856788959 L1301.20701,0.000856788959 C1300.57556,24.4345646 1312.33757,44.1925286 1336.54149,59.4443224 Z M1466.14763,125.011033 C1470.78429,127.782525 1476.04589,135.861333 1483.09603,150.065933 L1484.04991,152.002167 L1484.80561,153.555817 C1486.92674,157.940089 1489.24575,162.926193 1492.13324,169.272786 L1503.00288,193.270064 L1504.50743,196.541725 L1505.39495,198.457378 C1512.59879,213.962096 1518.7264,226.052246 1524.37397,235.473089 L1524.37397,241.180723 L1523.69409,240.107547 C1517.2181,229.794028 1510.23592,216.093711 1501.7929,197.819191 L1497.68491,188.822717 L1489.73962,171.256456 L1487.74123,166.877287 C1485.21387,161.366255 1483.13149,156.94257 1481.18034,152.963636 L1480.40882,151.399674 L1479.80742,150.194545 C1473.34026,137.306729 1468.42587,129.867896 1464.60843,127.586082 C1454.1414,121.329581 1443.15168,121.303875 1437.84698,127.206679 C1431.89738,133.827092 1433.53985,146.754236 1444.46842,163.812484 L1444.80243,164.330663 C1460.14332,187.986416 1467.60438,226.197299 1467.2621,278.999773 L1464.26185,278.999773 C1464.5979,227.310061 1457.41275,189.877096 1442.78029,166.735844 L1442.28538,165.962983 C1430.40515,147.643575 1428.48524,133.135748 1435.61562,125.20142 C1442.02952,118.064354 1454.57504,118.0937 1466.14763,125.011033 Z M1429.92202,207.911887 C1437.99342,219.848098 1432.94542,234.78222 1419.37585,246.299265 C1406.49513,257.231651 1389.73614,261.762581 1378.938,255.996298 C1363.69539,247.856641 1365.69906,227.132502 1384.1126,194.268918 L1384.94707,192.789854 L1386.00766,192.404014 C1403.90501,186.049934 1418.67326,191.27691 1429.92202,207.911887 Z M1387.99268,194.893799 L1387.50291,195.059355 L1387.01391,195.229 L1386.22472,196.640894 C1369.3672,227.016706 1367.40827,245.63977 1379.58406,252.91651 L1379.95734,253.133545 L1380.35115,253.349979 C1389.86469,258.430274 1405.39322,254.232008 1417.43457,244.012026 C1429.97203,233.370981 1434.48598,220.016797 1427.43687,209.592373 C1417.25212,194.530875 1404.3839,189.631448 1388.47568,194.736052 L1387.99268,194.893799 Z M1431.93247,47.9673882 C1446.22908,44.4435919 1456.00141,45.3791926 1462.94368,50.5601772 C1468.49611,54.7039253 1471.78494,60.6314106 1475.9792,72.2594111 L1479.25583,81.5262552 L1480.22182,84.2044925 L1480.22182,84.2044925 L1480.40688,84.7055458 C1482.15449,89.3927352 1483.82824,93.3608284 1485.71311,97.1463283 C1488.64435,103.033299 1491.99982,108.264555 1496.04611,113.036055 L1496.62888,113.714591 C1504.26168,122.489661 1509.10766,133.604939 1512.76088,148.529256 L1512.95897,149.347096 C1513.65154,152.236664 1514.29982,155.245006 1514.99295,158.728659 L1515.60008,161.837743 L1517.02478,169.357002 L1517.51566,171.89211 L1517.88313,173.730995 C1519.98518,184.090529 1521.74434,189.913466 1524.37379,194.273056 L1524.37379,199.351344 C1523.74984,198.655277 1523.15902,197.893469 1522.59974,197.066476 C1518.93535,191.648041 1516.92347,184.737044 1514.20575,170.587289 L1512.65426,162.405327 L1512.21023,160.120609 L1512.21023,160.120609 L1511.89342,158.528399 L1511.55406,156.863983 C1511.0487,154.41934 1510.55716,152.197376 1510.0416,150.046331 C1506.53304,135.407821 1501.93315,124.586966 1494.76617,116.149756 L1494.36536,115.683466 C1489.88045,110.527385 1486.20652,104.867895 1483.0276,98.4834971 C1481.21967,94.8525344 1479.60692,91.0727305 1477.95141,86.6998865 L1477.26875,84.8636517 L1476.2939,82.1522435 C1475.29329,79.3472229 1474.10447,75.968839 1473.60245,74.5369323 L1472.7422,72.1380194 C1468.93855,61.7986827 1465.91303,56.5195278 1461.14939,52.9644466 C1455.03545,48.4016451 1446.15559,47.551489 1432.65042,50.8802136 C1401.93974,58.4497149 1385.90974,41.1587358 1384.72112,0.000876658207 L1387.70869,0.000876658207 C1388.79454,39.3189313 1403.48275,54.9796148 1431.93247,47.9673882 Z M1274.7394,83.0902317 L1275.91501,83.9836024 C1285.97459,91.7408494 1289.31363,103.769177 1286.21765,117.443411 C1283.35966,130.066499 1275.15566,143.095679 1264.16564,152.602198 C1252.45109,162.735457 1238.77338,167.927709 1225.793,166.375237 C1211.07824,164.61533 1198.08123,154.443823 1188.13211,135.579077 L1187.81223,134.967521 C1186.01545,131.50397 1184.20238,127.965665 1182.37341,124.355458 L1182.37341,117.685255 C1185.10824,123.144778 1187.80987,128.448183 1190.47523,133.586048 C1200.036,152.015845 1212.34061,161.744931 1226.14927,163.396466 C1238.21073,164.839033 1251.08237,159.952773 1262.20299,150.333277 C1272.72478,141.231783 1280.5805,128.755721 1283.2917,116.780949 C1286.14269,104.188812 1283.14951,93.3716667 1274.11412,86.3833166 L1272.9103,85.4681715 C1250.12097,67.9051077 1239.48694,39.3769891 1240.92814,0.00148921317 L1243.92772,0.00148921317 C1242.49171,38.5130139 1252.78891,66.1700586 1274.7394,83.0902317 Z" class="colorFFF svgShape"></path><path stroke="#FFF" stroke-linecap="round" stroke-linejoin="round" stroke-width="2" d="M1327.87672,964.888259 C1312.6226,875.756355 1304.99554,827.716444 1304.99554,820.768525 C1304.99554,810.346646 1338.17174,746.321393 1338.17174,727.086506" fill="#5a5e5f" class="color000 svgShape colorStrokeFFF svgStroke"></path><path fill="#b9430b" d="M301.61543,566.306473 C344.791031,566.306473 379.791771,601.307214 379.791771,644.482815 C379.791771,663.492778 373.006566,680.917972 361.725877,694.469509 L357.766388,694.469509 C369.600807,681.185157 376.791771,663.673756 376.791771,644.482815 C376.791771,602.964068 343.134177,569.306473 301.61543,569.306473 C300.310313,569.306473 299.012965,569.339731 297.724185,569.405445 L298.396008,566.371559 C299.46377,566.328308 300.53705,566.306473 301.61543,566.306473 Z M490.17521,540.236646 L490.858185,540.241577 L490.752889,543.238819 L490.17521,543.236646 L490.17521,543.236646 C448.656463,543.236646 414.998868,576.894241 414.998868,618.412988 C414.998868,659.931735 448.656463,693.589329 490.17521,693.589329 L490.299185,693.587577 L490.300173,694.468002 L472.020742,694.470463 C437.599915,686.284926 411.998868,655.338679 411.998868,618.412988 C411.998868,575.237386 446.999609,540.236646 490.17521,540.236646 Z M431.357856,405.571763 L431.409243,405.648757 C439.633635,418.026641 444.425236,432.882475 444.425236,448.857447 C444.425236,492.033049 409.424496,527.033789 366.248895,527.033789 C341.87,527.033789 320.097449,515.874707 305.760503,498.385806 L307.118708,495.285721 C320.882777,512.791045 342.252894,524.033789 366.248895,524.033789 C407.767642,524.033789 441.425236,490.376194 441.425236,448.857447 C441.425236,432.382738 436.125794,417.145779 427.138596,404.758257 C428.558341,404.992422 429.965279,405.263706 431.357856,405.571763 Z M463.970893,421.402257 L463.905838,421.592068 C461.419602,429.060553 460.073298,437.049857 460.073298,445.353606 C460.073298,486.872353 493.730892,520.529948 535.249639,520.529948 C536.829921,520.529948 538.398815,520.481188 539.954897,520.38509 L539.307015,523.426472 C537.963238,523.495176 536.610499,523.529948 535.249639,523.529948 C492.074038,523.529948 457.073298,488.529207 457.073298,445.353606 C457.073298,436.271377 458.622062,427.550881 461.469892,419.441817 C462.317989,420.078889 463.151394,420.7325 463.970893,421.402257 Z" class="colorB9430B svgShape"></path></g></svg></g></svg>