<svg id="visual" viewBox="0 0 1920 710" width="1920" height="710" xmlns="http://www.w3.org/2000/svg" xmlns:xlink="http://www.w3.org/1999/xlink" version="1.1"><rect x="0" y="0" width="1920" height="710" fill="#4fb7e3"></rect><path d="M0 434L32 404.5C64 375 128 316 192 328.3C256 340.7 320 424.3 384 425.8C448 427.3 512 346.7 576 354.3C640 362 704 458 768 503C832 548 896 542 960 504.7C1024 467.3 1088 398.7 1152 373.3C1216 348 1280 366 1344 372.8C1408 379.7 1472 375.3 1536 371.5C1600 367.7 1664 364.3 1728 364.2C1792 364 1856 367 1888 368.5L1920 370L1920 711L1888 711C1856 711 1792 711 1728 711C1664 711 1600 711 1536 711C1472 711 1408 711 1344 711C1280 711 1216 711 1152 711C1088 711 1024 711 960 711C896 711 832 711 768 711C704 711 640 711 576 711C512 711 448 711 384 711C320 711 256 711 192 711C128 711 64 711 32 711L0 711Z" fill="#ffffff"></path><path d="M0 340L32 345.3C64 350.7 128 361.3 192 404C256 446.7 320 521.3 384 531.2C448 541 512 486 576 461.7C640 437.3 704 443.7 768 458C832 472.3 896 494.7 960 518.5C1024 542.3 1088 567.7 1152 541.5C1216 515.3 1280 437.7 1344 394.8C1408 352 1472 344 1536 366.7C1600 389.3 1664 442.7 1728 466.2C1792 489.7 1856 483.3 1888 480.2L1920 477L1920 711L1888 711C1856 711 1792 711 1728 711C1664 711 1600 711 1536 711C1472 711 1408 711 1344 711C1280 711 1216 711 1152 711C1088 711 1024 711 960 711C896 711 832 711 768 711C704 711 640 711 576 711C512 711 448 711 384 711C320 711 256 711 192 711C128 711 64 711 32 711L0 711Z" fill="#dee8f2"></path><path d="M0 580L32 582.5C64 585 128 590 192 556.2C256 522.3 320 449.7 384 447C448 444.3 512 511.7 576 533.7C640 555.7 704 532.3 768 498.8C832 465.3 896 421.7 960 420.3C1024 419 1088 460 1152 484.8C1216 509.7 1280 518.3 1344 514.5C1408 510.7 1472 494.3 1536 504C1600 513.7 1664 549.3 1728 539.3C1792 529.3 1856 473.7 1888 445.8L1920 418L1920 711L1888 711C1856 711 1792 711 1728 711C1664 711 1600 711 1536 711C1472 711 1408 711 1344 711C1280 711 1216 711 1152 711C1088 711 1024 711 960 711C896 711 832 711 768 711C704 711 640 711 576 711C512 711 448 711 384 711C320 711 256 711 192 711C128 711 64 711 32 711L0 711Z" fill="#bdd1e4"></path><path d="M0 577L32 559.7C64 542.3 128 507.7 192 514.5C256 521.3 320 569.7 384 562.8C448 556 512 494 576 479.8C640 465.7 704 499.3 768 517.5C832 535.7 896 538.3 960 532.3C1024 526.3 1088 511.7 1152 521.5C1216 531.3 1280 565.7 1344 585.7C1408 605.7 1472 611.3 1536 608.5C1600 605.7 1664 594.3 1728 593.8C1792 593.3 1856 603.7 1888 608.8L1920 614L1920 711L1888 711C1856 711 1792 711 1728 711C1664 711 1600 711 1536 711C1472 711 1408 711 1344 711C1280 711 1216 711 1152 711C1088 711 1024 711 960 711C896 711 832 711 768 711C704 711 640 711 576 711C512 711 448 711 384 711C320 711 256 711 192 711C128 711 64 711 32 711L0 711Z" fill="#9bbbd7"></path><path d="M0 661L32 632.5C64 604 128 547 192 533.3C256 519.7 320 549.3 384 553C448 556.7 512 534.3 576 522.3C640 510.3 704 508.7 768 517.5C832 526.3 896 545.7 960 554.3C1024 563 1088 561 1152 570.5C1216 580 1280 601 1344 603.3C1408 605.7 1472 589.3 1536 582.5C1600 575.7 1664 578.3 1728 570.2C1792 562 1856 543 1888 533.5L1920 524L1920 711L1888 711C1856 711 1792 711 1728 711C1664 711 1600 711 1536 711C1472 711 1408 711 1344 711C1280 711 1216 711 1152 711C1088 711 1024 711 960 711C896 711 832 711 768 711C704 711 640 711 576 711C512 711 448 711 384 711C320 711 256 711 192 711C128 711 64 711 32 711L0 711Z" fill="#78a5ca"></path><path d="M0 560L32 572.8C64 585.7 128 611.3 192 610.3C256 609.3 320 581.7 384 585.8C448 590 512 626 576 637.8C640 649.7 704 637.3 768 628.7C832 620 896 615 960 606C1024 597 1088 584 1152 583.8C1216 583.7 1280 596.3 1344 600C1408 603.7 1472 598.3 1536 587C1600 575.7 1664 558.3 1728 550.3C1792 542.3 1856 543.7 1888 544.3L1920 545L1920 711L1888 711C1856 711 1792 711 1728 711C1664 711 1600 711 1536 711C1472 711 1408 711 1344 711C1280 711 1216 711 1152 711C1088 711 1024 711 960 711C896 711 832 711 768 711C704 711 640 711 576 711C512 711 448 711 384 711C320 711 256 711 192 711C128 711 64 711 32 711L0 711Z" fill="#5090bc"></path><path d="M0 617L32 625.2C64 633.3 128 649.7 192 654.2C256 658.7 320 651.3 384 654C448 656.7 512 669.3 576 674.7C640 680 704 678 768 670.5C832 663 896 650 960 648.2C1024 646.3 1088 655.7 1152 656.3C1216 657 1280 649 1344 648.2C1408 647.3 1472 653.7 1536 656.7C1600 659.7 1664 659.3 1728 650.2C1792 641 1856 623 1888 614L1920 605L1920 711L1888 711C1856 711 1792 711 1728 711C1664 711 1600 711 1536 711C1472 711 1408 711 1344 711C1280 711 1216 711 1152 711C1088 711 1024 711 960 711C896 711 832 711 768 711C704 711 640 711 576 711C512 711 448 711 384 711C320 711 256 711 192 711C128 711 64 711 32 711L0 711Z" fill="#0c7caf"></path></svg>