<svg id="SvgjsSvg1403" width="360" height="360" xmlns="http://www.w3.org/2000/svg" version="1.1" xmlns:xlink="http://www.w3.org/1999/xlink" xmlns:svgjs="http://svgjs.com/svgjs"><defs id="SvgjsDefs1404"></defs><g id="SvgjsG1405"><svg xmlns="http://www.w3.org/2000/svg" enable-background="new 0 0 1364 960" viewBox="0 0 1364 960" width="360" height="360"><path fill="#aedff5" d="M404.209 182.085c.223-2.676-1.427-5.298-3.742-6.651-2.315-1.353-5.172-1.558-7.799-1.015-2.627.542-5.06 1.777-7.359 3.16-3.805 2.29-7.429 5.146-9.85 8.824-1.191-6.407-1.886-12.908-2.081-19.43-.018-.593-.025-1.187-.034-1.78 4.646.189 9.291.378 13.936.566 3.099.126 6.288.239 9.211-.801 2.923-1.041 5.556-3.525 5.814-6.62.222-2.676-1.427-5.298-3.742-6.651-2.315-1.353-5.172-1.558-7.799-1.015-2.626.542-5.06 1.777-7.359 3.16-3.924 2.362-7.659 5.326-10.076 9.174.005-7.243.616-14.483 1.83-21.623 4.714.011 9.427.021 14.142.031 3.102.007 6.292-.003 9.174-1.155 2.882-1.152 5.417-3.735 5.556-6.838.12-2.682-1.629-5.239-3.994-6.502-2.365-1.263-5.228-1.358-7.832-.715-2.604.642-4.988 1.969-7.233 3.44-3.593 2.355-7.001 5.232-9.282 8.83.996-5.144 2.299-10.228 3.921-15.212.48-1.476.997-2.938 1.532-4.393 4.848-.149 9.697-.298 14.545-.447 3.1-.095 6.289-.209 9.131-1.456 2.842-1.246 5.292-3.911 5.329-7.017.031-2.685-1.801-5.182-4.206-6.366-2.405-1.185-5.27-1.185-7.852-.457-2.581.728-4.922 2.132-7.116 3.676-3.137 2.206-6.108 4.824-8.248 7.97 1.991-4.869 4.293-9.61 6.897-14.186 4.087-2.378 8.175-4.757 12.262-7.136 2.683-1.561 5.434-3.181 7.342-5.631 1.908-2.45 2.797-5.96 1.354-8.708-1.248-2.376-4.047-3.698-6.726-3.593-2.679.105-5.2 1.47-7.125 3.34-1.926 1.87-3.317 4.22-4.514 6.623-2.207 4.428-3.852 9.33-3.545 14.24-.01.015-.02.026-.029.041-2.78 4.866-5.218 9.919-7.31 15.113.143-3.988-.834-8.037-2.215-11.816-.921-2.521-2.041-5.01-3.745-7.081-1.704-2.072-4.057-3.707-6.708-4.108-2.651-.401-5.58.604-7.086 2.826-1.742 2.571-1.251 6.158.371 8.804 1.622 2.646 4.176 4.56 6.667 6.408 3.794 2.815 7.589 5.63 11.383 8.444-2.37 6.43-4.215 13.053-5.523 19.784-.769-4.13-2.803-8.026-5.199-11.52-1.517-2.213-3.22-4.345-5.384-5.928-2.164-1.583-4.849-2.582-7.517-2.311-2.668.271-5.257 1.972-6.165 4.499-1.051 2.923.314 6.275 2.542 8.435 2.228 2.16 5.176 3.379 8.048 4.55 4.372 1.782 8.744 3.565 13.116 5.347-.036.213-.077.424-.112.637-1.145 6.981-1.718 14.051-1.726 21.12-1.445-4.48-4.519-8.348-7.935-11.632-1.934-1.859-4.032-3.602-6.472-4.712-2.441-1.111-5.272-1.545-7.83-.739-2.558.806-4.75 2.997-5.129 5.655-.438 3.075 1.577 6.08 4.195 7.743 2.619 1.662 5.753 2.259 8.803 2.823 4.792.886 9.584 1.773 14.377 2.66.001.098.004.197.005.296l-.114.078c.039.002.077.003.116.005.107 6.878.755 13.746 1.955 20.524-2.776-3.19-6.515-5.551-10.367-7.385-2.468-1.175-5.057-2.185-7.774-2.475-2.717-.29-5.596.2-7.812 1.799-2.216 1.599-3.633 4.418-3.145 7.107.564 3.111 3.478 5.367 6.545 6.133 3.067.766 6.291.336 9.422-.098 4.447-.616 8.895-1.232 13.342-1.848.136.006.272.011.409.017 1.519 7.429 3.711 14.712 6.568 21.735.302.742 1.518.412 1.212-.339-2.81-6.905-4.97-14.055-6.483-21.343 4.407.179 8.814.358 13.221.537 3.099.126 6.288.239 9.211-.801C401.318 187.665 403.951 185.181 404.209 182.085zM1063.76 689.042c2.685-.027 5.142-1.914 6.274-4.344 1.132-2.431 1.07-5.295.286-7.859-.784-2.565-2.239-4.873-3.83-7.034-2.634-3.575-5.814-6.918-9.702-8.987 6.268-1.782 12.676-3.077 19.153-3.878.589-.073 1.179-.135 1.769-.2.244 4.643.488 9.285.732 13.928.163 3.098.346 6.283 1.654 9.097 1.308 2.814 4.026 5.205 7.132 5.173 2.685-.027 5.142-1.913 6.274-4.344 1.132-2.431 1.07-5.294.286-7.859-.784-2.565-2.239-4.873-3.831-7.034-2.716-3.688-6.015-7.13-10.071-9.18 7.212-.668 14.478-.733 21.699-.188.428 4.695.855 9.389 1.283 14.083.282 3.089.588 6.265 2.003 9.027 1.415 2.762 4.223 5.047 7.325 4.896 2.682-.13 5.065-2.109 6.102-4.582 1.038-2.472.866-5.332-.016-7.865-.882-2.533-2.424-4.784-4.098-6.882-2.679-3.359-5.86-6.484-9.654-8.421 5.214.513 10.397 1.339 15.51 2.49 1.514.341 3.018.72 4.517 1.117.599 4.813 1.198 9.627 1.797 14.44.383 3.078.793 6.243 2.299 8.956 1.505 2.714 4.386 4.905 7.482 4.654 2.676-.218 4.992-2.274 5.948-4.779.956-2.505.691-5.358-.274-7.86-.965-2.503-2.581-4.702-4.322-6.744-2.488-2.918-5.371-5.633-8.703-7.472 5.034 1.53 9.967 3.381 14.766 5.548 2.748 3.849 5.497 7.697 8.245 11.546 1.804 2.526 3.672 5.115 6.289 6.787 2.617 1.672 6.195 2.231 8.797.538 2.249-1.464 3.306-4.373 2.952-7.031-.353-2.658-1.947-5.041-3.988-6.784-2.041-1.743-4.51-2.91-7.014-3.879-4.615-1.786-9.647-2.968-14.508-2.206-.015-.008-.027-.018-.044-.025-5.103-2.315-10.361-4.274-15.727-5.873 3.984-.228 7.925-1.577 11.559-3.304 2.424-1.152 4.799-2.498 6.703-4.388 1.904-1.89 3.314-4.384 3.466-7.06.153-2.677-1.12-5.5-3.473-6.793-2.722-1.496-6.248-.673-8.732 1.188-2.484 1.861-4.152 4.582-5.761 7.234-2.45 4.039-4.9 8.079-7.35 12.118-6.623-1.762-13.389-2.984-20.211-3.66 4.041-1.15 7.731-3.537 10.987-6.248 2.062-1.717 4.027-3.61 5.402-5.912 1.375-2.302 2.12-5.068 1.602-7.699-.518-2.631-2.452-5.051-5.052-5.72-3.008-.774-6.219.896-8.162 3.315-1.943 2.419-2.883 5.468-3.782 8.436-1.368 4.519-2.736 9.038-4.105 13.556-.215-.016-.43-.037-.645-.052-7.057-.491-14.15-.404-21.189.245 4.327-1.855 7.892-5.275 10.844-8.982 1.671-2.098 3.211-4.349 4.09-6.882.879-2.533 1.048-5.393.008-7.865-1.04-2.472-3.425-4.451-6.107-4.581-3.102-.15-5.908 2.135-7.32 4.897-1.412 2.762-1.714 5.938-1.992 9.027-.437 4.854-.875 9.708-1.312 14.562-.098.01-.196.022-.294.033l-.088-.107c.002.039.004.077.006.115-6.838.746-13.616 2.03-20.254 3.855 2.918-3.06 4.922-7.002 6.39-11.009.94-2.566 1.705-5.238 1.741-7.971.036-2.733-.719-5.553-2.517-7.611-1.798-2.057-4.737-3.206-7.369-2.471-3.045.851-5.021 3.962-5.498 7.087-.477 3.125.25 6.295.973 9.372 1.027 4.371 2.053 8.742 3.08 13.113.007.136.014.272.021.408-7.255 2.203-14.303 5.062-21.03 8.56-.711.369-.27 1.55.45 1.175 6.614-3.439 13.532-6.255 20.648-8.438.231 4.404.463 8.809.694 13.213.163 3.097.346 6.283 1.654 9.097C1057.937 686.683 1060.654 689.073 1063.76 689.042z" class="colorB9B8FF svgShape"></path><path fill="#9adaf5" d="M261.217,229.09c-12.767-5.441-25.884-8.456-38.526-9.941c-0.233-0.019-0.418-0.057-0.652-0.076
	c-4.141-0.478-8.238-0.776-12.242-0.913c2.534,5.948,1.651,11.324-1.259,16.358c0.082-7.648-3.676-12.991-10.952-16.212
	c-0.306-0.13-0.676-0.208-1.006-0.188c-10.112,0.317-19.381,1.395-27.295,2.689c-0.229,0.064-0.442,0.094-0.656,0.124
	c-13.704,2.327-23.106,5.32-25.155,5.974c-0.277,0.085-0.423,0.142-0.423,0.142s0.059,0.146,0.19,0.403
	c1.366,2.835,10.252,20.783,26.668,40.128c0.141,0.141,0.268,0.316,0.409,0.456c4.569,5.327,9.692,10.769,15.383,16.01
	c6.239,4.429,12.262,2.851,15.732,0.75c-1.84,3.28-4.304,5.568-8.186,5.804c9.662,7.82,20.693,14.974,33.12,20.269
	c0.341,0.145,0.715,0.305,1.07,0.416l0.715,0.305c6.546,2.67,13.188,4.735,19.815,6.272c0.218,0.054,0.404,0.091,0.588,0.131
	c46.162,10.62,90.825-3.374,95.555-4.939c0.277-0.083,0.422-0.142,0.422-0.142s-0.059-0.145-0.19-0.403
	c-1.196-2.479-7.852-15.936-20.048-31.875c-0.126-0.175-0.234-0.301-0.36-0.476c-3.854-5.021-8.253-10.275-13.23-15.494
	c-0.248-0.267-0.497-0.534-0.746-0.8c-6.623-6.925-14.168-13.762-22.719-19.941c-1.582,3.43-2.971,6.217-2.971,6.217l-5.224-11.721
	C273.479,234.96,267.515,231.774,261.217,229.09z M156.39,241.342c-0.415-0.821-0.062-1.838,0.744-2.218
	c0.82-0.414,1.803-0.077,2.217,0.744c0.414,0.821,0.076,1.803-0.744,2.218C157.802,242.465,156.805,242.161,156.39,241.342z
	 M160.412,245.308c0.566-1.328,2.071-1.934,3.399-1.368c1.328,0.566,1.967,2.086,1.401,3.414c-0.566,1.327-2.12,1.953-3.447,1.387
	C160.437,248.175,159.847,246.636,160.412,245.308z M207.857,282.464c0.392-0.919,1.446-1.315,2.365-0.923
	c0.885,0.377,1.33,1.411,0.938,2.331c-0.392,0.919-1.445,1.315-2.331,0.937C207.91,284.417,207.466,283.383,207.857,282.464z
	 M211.358,290.391c0.682-1.6,2.527-2.342,4.093-1.674c1.6,0.682,2.343,2.527,1.661,4.126c-0.668,1.567-2.513,2.309-4.113,1.627
	C211.433,293.803,210.691,291.958,211.358,290.391z M213.749,221.534c0.189-0.443,0.674-0.638,1.116-0.449
	c0.443,0.189,0.673,0.688,0.484,1.131c-0.188,0.442-0.708,0.623-1.151,0.434C213.756,222.462,213.561,221.976,213.749,221.534z
	 M194.776,225.275c0.435-1.021,1.6-1.49,2.622-1.055c1.021,0.435,1.49,1.601,1.055,2.622c-0.435,1.022-1.601,1.49-2.622,1.055
	C194.81,227.462,194.341,226.297,194.776,225.275z M200.462,230.434c0.174-0.408,0.674-0.638,1.117-0.449
	c0.443,0.189,0.657,0.723,0.483,1.131c-0.189,0.443-0.722,0.657-1.165,0.469C200.454,231.395,200.274,230.877,200.462,230.434z" class="colorB2B0FB svgShape"></path><path fill="#ffffff" d="M230.41,241.909l8.063-11.368l0.453,0.354l-8.291,11.714l8.507,25.066l28.462,12.129l-9.311-28.466
	l0.52-0.181l9.506,28.952l49.332,21.023l-7.692-37.27c0.249,0.266,0.498,0.534,0.746,0.8l4.888,23.646l8.341-8.152
	c0.126,0.175,0.234,0.301,0.36,0.476l-8.559,8.381l2.562,12.395l26.351,11.23l-0.233,0.546l-38.301-16.322l-16.477,7.42
	l-0.249-0.548l16.011-7.176l-26.487-11.288l-20.96,10.86c-2.196,5.058-6.742,15.633-9.398,21.863
	c-0.185-0.04-0.37-0.077-0.588-0.131c2.815-6.605,7.666-17.893,9.15-21.283l-28.965,15.011l-0.715-0.305l50.761-26.32
	l-52.838-22.517l-14.226,10.632l-0.327-0.46l13.94-10.433l-22.402-9.547l-32.026,15.397c-0.141-0.141-0.268-0.315-0.409-0.456
	l15.933-7.651c-6.283-2.155-15.24-5.208-15.808-5.29l0.033-0.267l-0.035-0.015l-0.267-0.033l0.136-0.224
	c0.16-0.093,0.32-0.186,16.698,5.467l15.03-7.233l-58.388-24.882c-0.132-0.257-0.19-0.403-0.19-0.403s0.146-0.058,0.423-0.142
	l45.826,19.529l-20.671-25.503c0.214-0.03,0.427-0.06,0.656-0.124l21.172,26.12l47.97,20.443l-16.388-48.297
	c0.233,0.018,0.419,0.057,0.652,0.076L230.41,241.909z" class="colorFFF svgShape"></path><path fill="#ffe4b6" d="M327.48,161.937c-6.954-12.01-15.643-22.289-24.869-31.059c-0.175-0.155-0.3-0.297-0.476-0.452
	c-3.027-2.865-6.127-5.561-9.25-8.072c-1.539,6.279-5.469,10.052-10.817,12.336c4.652-6.072,4.849-12.6,0.957-19.542
	c-0.167-0.288-0.416-0.572-0.693-0.753c-8.282-5.81-16.346-10.506-23.455-14.216c-0.221-0.086-0.41-0.19-0.599-0.295
	c-12.362-6.356-21.68-9.599-23.713-10.304c-0.273-0.099-0.424-0.139-0.424-0.139s-0.04,0.152-0.09,0.437
	c-0.607,3.088-4.259,22.779-2.723,48.104c0.028,0.197,0.025,0.414,0.054,0.61c0.462,7.003,1.298,14.43,2.71,22.037
	c2.337,7.286,8.102,9.635,12.14,10.034c-3.44,1.521-6.783,1.875-10.032-0.264c3.042,12.051,7.58,24.391,14.349,36.081
	c0.186,0.32,0.389,0.673,0.607,0.975l0.389,0.673c3.637,6.061,7.714,11.698,12.096,16.901c0.143,0.174,0.268,0.315,0.392,0.457
	c30.572,36.181,74.706,51.766,79.429,53.35c0.271,0.099,0.423,0.139,0.423,0.139s0.04-0.151,0.09-0.436
	c0.53-2.702,3.274-17.462,3.071-37.53c0.004-0.215-0.007-0.381-0.003-0.596c-0.074-6.33-0.443-13.172-1.296-20.332
	c-0.039-0.362-0.078-0.725-0.117-1.088c-1.147-9.514-3.085-19.509-6.222-29.582c-3.323,1.796-6.106,3.194-6.106,3.194l2.849-12.512
	C333.773,173.987,330.91,167.862,327.48,161.937z M236.246,108.879c0.161-0.906,1.053-1.507,1.926-1.329
	c0.905,0.16,1.488,1.02,1.328,1.925c-0.161,0.905-1.02,1.489-1.925,1.329C236.702,110.625,236.086,109.784,236.246,108.879z
	 M237.086,114.466c1.25-0.724,2.817-0.306,3.541,0.943c0.723,1.249,0.324,2.849-0.926,3.573c-1.248,0.723-2.868,0.291-3.591-0.957
	C235.387,116.775,235.837,115.189,237.086,114.466z M252.772,172.65c0.865-0.501,1.945-0.185,2.446,0.679
	c0.482,0.833,0.218,1.927-0.647,2.428c-0.865,0.501-1.945,0.185-2.427-0.648C251.643,174.245,251.908,173.151,252.772,172.65z
	 M250.82,181.094c1.505-0.871,3.426-0.359,4.279,1.114c0.872,1.505,0.36,3.427-1.145,4.298c-1.474,0.853-3.395,0.341-4.267-1.165
	C248.834,183.869,249.346,181.947,250.82,181.094z M294.025,127.425c0.417-0.241,0.922-0.106,1.163,0.31
	c0.241,0.417,0.126,0.954-0.291,1.196c-0.416,0.241-0.941,0.074-1.182-0.342C293.474,128.172,293.61,127.666,294.025,127.425z
	 M276.599,119.041c0.961-0.556,2.174-0.233,2.731,0.728c0.556,0.96,0.233,2.174-0.728,2.731c-0.961,0.556-2.175,0.232-2.731-0.728
	C275.314,120.811,275.638,119.598,276.599,119.041z M278.056,126.579c0.384-0.222,0.922-0.106,1.163,0.31
	c0.241,0.416,0.092,0.972-0.292,1.195c-0.417,0.242-0.972,0.093-1.213-0.323C277.473,127.344,277.639,126.821,278.056,126.579z" class="colorFBBFF6 svgShape"></path><path fill="#ffffff" d="M295.14,153.721l13.269-4.262l0.15,0.555l-13.659,4.402l-8.224,25.161l15.503,26.774l9.619-28.364
	l0.525,0.167l-9.755,28.869l26.871,46.407l16.194-34.437c0.039,0.363,0.078,0.725,0.117,1.088l-10.268,21.854l11.564-1.521
	c-0.004,0.215,0.007,0.381,0.003,0.596l-11.875,1.574l-5.382,11.456l14.353,24.788l-0.513,0.297l-20.862-36.03l-17.635-3.943
	l0.129-0.588l17.116,3.859l-14.427-24.916l-23.286-3.879c-4.791,2.731-14.77,8.467-20.631,11.86
	c-0.124-0.143-0.25-0.284-0.392-0.457c6.213-3.598,16.864-9.722,20.085-11.545l-32.181-5.357l-0.389-0.673l56.405,9.377
	l-28.78-49.705l-17.76-0.023l0.015-0.564l17.412,0.011l-12.202-21.074l-34.862-6.884c-0.029-0.197-0.025-0.413-0.054-0.61
	l17.338,3.432c-3.735-5.492-9.072-13.307-9.479-13.713l0.187-0.194l-0.019-0.032l-0.194-0.187l0.243-0.098
	c0.184,0.021,0.367,0.043,10.084,14.388l16.365,3.225l-31.803-54.926c0.049-0.285,0.09-0.437,0.09-0.437s0.151,0.041,0.424,0.139
	l24.961,43.108l-1.248-32.804c0.189,0.104,0.377,0.208,0.599,0.295l1.28,33.599l26.129,45.126l15.848-48.477
	c0.175,0.155,0.301,0.297,0.476,0.452L295.14,153.721z" class="colorFFF svgShape"></path><path fill="#ffe4b6" d="M1126.691,609.987c11.673-7.506,21.536-16.664,29.866-26.289c0.147-0.182,0.283-0.314,0.429-0.496
	c2.721-3.158,5.269-6.38,7.632-9.616c-6.344-1.245-10.295-4.995-12.826-10.231c6.282,4.364,12.812,4.256,19.565,0.046
	c0.28-0.18,0.551-0.443,0.72-0.727c5.418-8.543,9.733-16.818,13.108-24.092c0.076-0.225,0.171-0.419,0.266-0.612
	c5.773-12.644,8.578-22.104,9.188-24.167c0.086-0.277,0.12-0.43,0.12-0.43s-0.154-0.034-0.44-0.069
	c-3.113-0.462-22.953-3.193-48.178-0.478c-0.196,0.038-0.412,0.044-0.607,0.082c-6.973,0.788-14.354,1.969-21.886,3.733
	c-7.169,2.674-9.247,8.543-9.458,12.594c-1.679-3.365-2.189-6.688-0.203-10.033c-11.896,3.601-24.012,8.708-35.373,16.014
	c-0.312,0.2-0.654,0.42-0.945,0.651l-0.654,0.42c-5.885,3.916-11.326,8.251-16.319,12.87c-0.167,0.15-0.302,0.283-0.439,0.413
	c-34.717,32.225-48.229,77.036-49.591,81.829c-0.087,0.276-0.119,0.429-0.119,0.429s0.153,0.033,0.44,0.07
	c2.723,0.403,17.595,2.456,37.632,1.319c0.215-0.006,0.38-0.024,0.596-0.031c6.319-0.368,13.137-1.056,20.25-2.242
	c0.36-0.056,0.721-0.111,1.081-0.168c9.45-1.589,19.344-3.991,29.26-7.594c-1.948-3.236-3.475-5.951-3.475-5.951l12.631,2.263
	C1114.947,616.835,1120.933,613.69,1126.691,609.987z M1175.44,516.38c0.913,0.118,1.555,0.981,1.417,1.862
	c-0.118,0.911-0.949,1.534-1.861,1.417c-0.911-0.118-1.535-0.95-1.417-1.861C1173.718,516.917,1174.529,516.263,1175.44,516.38z
	 M1169.899,517.479c0.781,1.214,0.437,2.8-0.777,3.581c-1.214,0.781-2.831,0.456-3.612-0.758c-0.78-1.214-0.425-2.851,0.789-3.631
	C1167.513,515.89,1169.119,516.266,1169.899,517.479z M1112.509,535.86c0.54,0.841,0.276,1.935-0.564,2.475
	c-0.809,0.52-1.915,0.307-2.455-0.533c-0.54-0.84-0.276-1.934,0.533-2.455C1110.863,534.807,1111.968,535.02,1112.509,535.86z
	 M1103.983,534.303c0.941,1.463,0.518,3.406-0.914,4.326c-1.463,0.941-3.406,0.519-4.347-0.944
	c-0.921-1.432-0.499-3.376,0.964-4.317C1101.119,532.449,1103.062,532.871,1103.983,534.303z M1159.607,574.961
	c0.26,0.405,0.149,0.916-0.255,1.176c-0.405,0.26-0.947,0.17-1.208-0.235c-0.26-0.404-0.118-0.936,0.287-1.197
	C1158.835,574.445,1159.347,574.557,1159.607,574.961z M1167.17,557.163c0.6,0.934,0.334,2.161-0.6,2.762
	c-0.933,0.6-2.161,0.334-2.762-0.6c-0.601-0.934-0.333-2.162,0.6-2.762C1165.342,555.962,1166.569,556.229,1167.17,557.163z
	 M1159.708,558.969c0.24,0.373,0.149,0.916-0.255,1.176c-0.405,0.26-0.967,0.138-1.207-0.236c-0.26-0.405-0.138-0.967,0.267-1.227
	C1158.916,558.422,1159.447,558.564,1159.708,558.969z" class="colorFBBFF6 svgShape"></path><path fill="#ffffff" d="M1133.391,577.3l4.876,13.056l-0.547,0.176l-5.033-13.439l-25.516-7.042l-26.023,16.734l28.781,8.287
	l-0.142,0.532l-29.292-8.399l-45.105,29.004l35.155,14.572c-0.36,0.056-0.721,0.112-1.081,0.168l-22.309-9.239l2.059,11.48
	c-0.215,0.006-0.38,0.024-0.596,0.031l-2.125-11.789l-11.694-4.843l-24.093,15.492l-0.321-0.499l35.019-22.518l3.117-17.8
	l0.593,0.102l-3.057,17.277l24.217-15.572l2.79-23.441c-2.951-4.658-9.146-14.359-12.809-20.056
	c0.137-0.131,0.272-0.263,0.439-0.413c3.883,6.039,10.497,16.393,12.468,19.526l3.852-32.396l0.654-0.42l-6.739,56.78l48.31-31.065
	l-0.805-17.742l0.564-0.012l0.801,17.393l20.482-13.171l5.252-35.145c0.195-0.038,0.411-0.045,0.607-0.082l-2.62,17.479
	c5.312-3.987,12.87-9.682,13.256-10.107l0.202,0.178l0.032-0.02l0.177-0.202l0.109,0.238c-0.013,0.185-0.026,0.369-13.903,10.744
	l-2.459,16.498l53.384-34.328c0.287,0.036,0.44,0.069,0.44,0.069s-0.034,0.153-0.12,0.43l-41.898,26.942l32.71-2.775
	c-0.095,0.193-0.19,0.387-0.266,0.612l-33.502,2.844l-43.859,28.203l49.162,13.572c-0.146,0.182-0.282,0.314-0.429,0.496
	L1133.391,577.3z" class="colorFFF svgShape"></path><path fill="#bee3ff" d="M1155.366,228.736l-7.379-3.065c1.871-10.44,2.122-20.95,0.862-31.171l8.659-3.577
	c12.938-5.344,19.093-20.165,13.748-33.104c-5.345-12.938-20.166-19.093-33.104-13.748l-7.395,3.055
	c-5.903-8.504-13.079-16.148-21.412-22.649c-0.003-0.002-0.005-0.004-0.008-0.006l3.593-8.652
	c5.369-12.928-0.758-27.76-13.686-33.129c-12.928-5.369-27.76,0.758-33.129,13.686l-3.065,7.381
	c-10.439-1.871-20.949-2.122-31.17-0.864l-3.577-8.659c-5.345-12.938-20.166-19.093-33.104-13.748
	c-12.938,5.345-19.093,20.166-13.748,33.104l3.054,7.392c-8.505,5.904-16.151,13.081-22.653,21.415
	c-0.002,0.003-0.003,0.005-0.005,0.007l-8.648-3.592c-12.928-5.369-27.76,0.758-33.129,13.686
	c-5.369,12.928,0.758,27.76,13.686,33.129l7.375,3.063c-1.872,10.441-2.123,20.953-0.864,31.175l-8.653,3.575
	c-12.938,5.345-19.093,20.166-13.748,33.104c5.345,12.938,20.166,19.093,33.104,13.748l7.369-3.044
	c0.001,0.002,0.003,0.004,0.004,0.006c5.912,8.483,13.11,16.138,21.434,22.662l-3.583,8.628
	c-5.369,12.928,0.758,27.76,13.686,33.129c12.928,5.369,27.76-0.759,33.129-13.686l3.063-7.374
	c10.442,1.872,20.954,2.122,31.175,0.863l3.575,8.653c5.345,12.938,20.166,19.093,33.104,13.748
	c12.937-5.345,19.093-20.166,13.748-33.103l-3.046-7.372c0.001,0,0.001,0,0.002-0.001c8.484-5.912,16.139-13.111,22.663-21.435
	l8.632,3.585c12.928,5.369,27.76-0.758,33.129-13.686C1174.421,248.937,1168.294,234.105,1155.366,228.736z M1114.255,236.131
	c-15.982,38.482-60.161,56.733-98.643,40.751c-38.482-15.982-56.734-60.16-40.752-98.643c15.991-38.504,60.161-56.733,98.643-40.751
	C1111.986,153.47,1130.246,197.627,1114.255,236.131z" class="colorAEBEFF svgShape"></path><path fill="#bee3ff" d="M1000.508 188.891c-10.104 24.328 1.428 52.241 25.756 62.344 24.328 10.104 52.263-1.418 62.366-25.746 10.104-24.328-1.44-52.272-25.769-62.376C1038.533 153.009 1010.612 164.563 1000.508 188.891zM1239.239 411.993l-4.449-1.848c1.128-6.294 1.279-12.63.52-18.792l5.22-2.156c7.8-3.222 11.51-12.157 8.288-19.957-3.222-7.799-12.157-11.51-19.957-8.288l-4.458 1.842c-3.559-5.127-7.885-9.735-12.909-13.654-.002-.001-.003-.002-.005-.004l2.166-5.216c3.237-7.794-.457-16.735-8.251-19.972-7.794-3.237-16.736.457-19.972 8.251l-1.848 4.45c-6.294-1.128-12.63-1.279-18.791-.521l-2.156-5.22c-3.222-7.8-12.157-11.511-19.957-8.288s-11.51 12.157-8.288 19.957l1.841 4.457c-5.127 3.559-9.737 7.886-13.657 12.91-.001.002-.002.003-.003.004l-5.214-2.165c-7.793-3.237-16.735.457-19.972 8.251-3.237 7.794.457 16.736 8.251 19.972l4.446 1.847c-1.129 6.295-1.28 12.632-.521 18.794l-5.217 2.155c-7.8 3.222-11.51 12.157-8.288 19.957 3.222 7.8 12.157 11.511 19.957 8.288l4.442-1.835c.001.001.001.002.002.004 3.564 5.114 7.904 9.729 12.922 13.662l-2.16 5.202c-3.237 7.794.457 16.736 8.251 19.972 7.794 3.237 16.735-.457 19.972-8.251l1.846-4.446c6.295 1.129 12.632 1.279 18.794.52l2.155 5.217c3.222 7.8 12.157 11.51 19.957 8.288 7.8-3.222 11.51-12.157 8.288-19.957l-1.836-4.444c0 0 .001 0 .001-.001 5.115-3.564 9.73-7.904 13.663-12.923l5.204 2.161c7.794 3.237 16.736-.457 19.972-8.251C1250.727 424.172 1247.033 415.23 1239.239 411.993zM1214.455 416.451c-9.635 23.2-36.269 34.202-59.468 24.567-23.199-9.635-34.203-36.268-24.568-59.468 9.64-23.213 36.269-34.202 59.468-24.567C1213.087 366.618 1224.095 393.239 1214.455 416.451z" class="colorAEBEFF svgShape"></path><path fill="#bee3ff" d="M1145.881 387.972c-6.091 14.666.861 31.494 15.527 37.585 14.667 6.091 31.507-.855 37.599-15.522 6.091-14.667-.869-31.513-15.535-37.604C1168.805 366.341 1151.972 373.306 1145.881 387.972zM308.733 530.243l-4.449-1.848c1.128-6.294 1.279-12.63.52-18.792l5.22-2.156c7.8-3.222 11.51-12.157 8.288-19.957-3.222-7.8-12.157-11.51-19.957-8.288l-4.458 1.842c-3.559-5.127-7.885-9.735-12.909-13.654-.002-.001-.003-.002-.005-.004l2.166-5.216c3.237-7.794-.457-16.736-8.251-19.972-7.794-3.237-16.736.457-19.972 8.251l-1.848 4.449c-6.294-1.128-12.63-1.279-18.791-.521l-2.156-5.22c-3.222-7.799-12.157-11.51-19.957-8.288-7.8 3.222-11.51 12.157-8.288 19.957l1.841 4.457c-5.127 3.559-9.737 7.886-13.657 12.91-.001.001-.002.003-.003.004l-5.214-2.165c-7.794-3.237-16.735.457-19.972 8.251-3.237 7.794.457 16.736 8.251 19.972l4.446 1.847c-1.129 6.295-1.28 12.632-.521 18.794l-5.217 2.155c-7.8 3.222-11.511 12.157-8.288 19.957 3.222 7.8 12.157 11.511 19.957 8.288l4.442-1.835c.001.001.002.003.002.004 3.564 5.114 7.903 9.729 12.922 13.662l-2.16 5.202c-3.237 7.794.457 16.736 8.251 19.972 7.794 3.237 16.736-.457 19.972-8.251l1.846-4.446c6.295 1.129 12.632 1.279 18.794.52l2.155 5.217c3.222 7.8 12.157 11.51 19.957 8.288 7.799-3.222 11.51-12.157 8.288-19.957l-1.836-4.444c.001 0 .001 0 .001-.001 5.115-3.564 9.73-7.904 13.663-12.923l5.204 2.161c7.794 3.237 16.736-.457 19.973-8.251C320.221 542.422 316.527 533.48 308.733 530.243zM283.949 534.701c-9.635 23.2-36.269 34.202-59.468 24.567-23.199-9.635-34.203-36.268-24.568-59.468 9.641-23.213 36.269-34.202 59.468-24.567C282.581 484.868 293.589 511.489 283.949 534.701z" class="colorAEBEFF svgShape"></path><path fill="#bee3ff" d="M215.375,506.222c-6.091,14.666,0.861,31.494,15.527,37.585c14.666,6.091,31.507-0.855,37.598-15.521
	c6.091-14.667-0.868-31.513-15.535-37.604C238.299,484.59,221.466,491.555,215.375,506.222z" class="colorAEBEFF svgShape"></path><rect width="750.857" height="481.544" x="289.044" y="207.498" fill="#ffffff" class="colorFFF svgShape"></rect><rect width="129.666" height="149.92" x="604.392" y="702.109" fill="#47a6ce" class="color7E97FB svgShape"></rect><path fill="#3886a2" d="M734.058,702.109v149.92H716.55c1.24-14.988,2.635-60.107-21.067-94.692
	c-21.96-31.99-69.133-35.669-91.091-35.398v-19.83H734.058z" class="color6E88F0 svgShape"></path><path fill="#4d4d4d" d="M799.372,852.029H539.076c-21.47,0-38.873,17.405-38.873,38.875l0,0h338.045l0,0
	C838.247,869.434,820.842,852.029,799.372,852.029z" class="color4D4D4D svgShape"></path><path fill="#47a6ce" d="M799.372 852.029H539.076c-21.47 0-38.873 17.405-38.873 38.875l0 0h338.045l0 0C838.247 869.434 820.842 852.029 799.372 852.029zM1044.813 194.024H293.63c-6.177 0-11.19 5.013-11.19 11.189v493.336c0 6.177 5.013 11.189 11.19 11.189h751.183c6.185 0 11.189-5.012 11.189-11.189V205.213C1056.002 199.036 1050.999 194.024 1044.813 194.024zM1037.35 655.651c0 6.59-5.322 11.93-11.893 11.93H308.47c-6.571 0-11.903-5.341-11.903-11.93v-434.18c0-6.589 5.332-11.93 11.903-11.93h716.987c6.571 0 11.893 5.341 11.893 11.93V655.651z" class="color7E97FB svgShape"></path><path fill="#ffffff" d="M1007.931,689.172h-30.309c-2.421,0-4.384-1.963-4.384-4.385l0,0c0-2.421,1.964-4.385,4.384-4.385h30.309
	c2.421,0,4.385,1.964,4.385,4.385l0,0C1012.316,687.209,1010.352,689.172,1007.931,689.172z" class="colorFFF svgShape"></path><path fill="#dfe2ed" d="M1010.008,680.997c0.344,0.625,0.593,1.31,0.593,2.076c0,2.421-1.962,4.385-4.384,4.385H975.91
	c-0.768,0-1.452-0.249-2.077-0.595c0.745,1.354,2.134,2.308,3.79,2.308h30.309c2.421,0,4.385-1.963,4.385-4.385
	C1012.316,683.132,1011.362,681.742,1010.008,680.997z" class="colorDFE2ED svgShape"></path><path fill="#ffffff" d="M964.726,689.172H947.29c-2.422,0-4.385-1.963-4.385-4.385l0,0c0-2.421,1.963-4.385,4.385-4.385h17.435
	c2.421,0,4.385,1.964,4.385,4.385l0,0C969.11,687.209,967.147,689.172,964.726,689.172z" class="colorFFF svgShape"></path><path fill="#dfe2ed" d="M965.946,680.649c0.606,0.752,1.021,1.669,1.021,2.71c0,2.422-1.963,4.384-4.385,4.384h-17.436
	c-0.432,0-0.825-0.129-1.22-0.247c0.804,0.998,1.984,1.676,3.364,1.676h17.435c2.421,0,4.383-1.963,4.383-4.385
	C969.109,682.798,967.761,681.187,965.946,680.649z" class="colorDFE2ED svgShape"></path><path fill="#ffffff" d="M933.188,689.403h-17.435c-2.423,0-4.385-1.963-4.385-4.385l0,0c0-2.421,1.962-4.385,4.385-4.385h17.435
	c2.421,0,4.383,1.964,4.383,4.385l0,0C937.571,687.44,935.608,689.403,933.188,689.403z" class="colorFFF svgShape"></path><path fill="#dfe2ed" d="M933.188,680.633h-0.657c0.526,0.722,0.897,1.566,0.897,2.529c0,2.421-1.962,4.383-4.384,4.383h-16.779
	c0.798,1.098,2.028,1.858,3.488,1.858h17.435c2.421,0,4.383-1.963,4.383-4.385C937.571,682.597,935.608,680.633,933.188,680.633z" class="colorDFE2ED svgShape"></path><path fill="#ffffff" d="M892.536,684.787c0-3.723,3.019-6.74,6.742-6.74c3.723,0,6.742,3.017,6.742,6.74
	c0,3.724-3.019,6.742-6.742,6.742C895.555,691.528,892.536,688.511,892.536,684.787z" class="colorFFF svgShape"></path><path fill="#dfe2ed" d="M902.914,679.124c0.675,1.05,1.078,2.293,1.078,3.637c0,3.721-3.017,6.74-6.742,6.74
	c-1.342,0-2.584-0.403-3.634-1.078c1.199,1.865,3.281,3.106,5.662,3.106c3.723,0,6.742-3.017,6.742-6.742
	C906.02,682.405,904.778,680.323,902.914,679.124z" class="colorDFE2ED svgShape"></path><path fill="#3886a2" d="M799.372,852.029H539.076c-12.082,0-22.875,5.512-30.005,14.157c4.704-2.02,9.883-3.149,15.329-3.149
	h260.295c17.644,0,32.52,11.763,37.269,27.867h16.283l0,0C838.247,869.434,820.842,852.029,799.372,852.029z" class="color6E88F0 svgShape"></path><path fill="#bee3ff" d="M929.396,579.268H423.701c-3.233,0-5.855-2.621-5.855-5.855l0,0c0-3.233,2.621-5.855,5.855-5.855h505.695
	c3.234,0,5.855,2.621,5.855,5.855l0,0C935.25,576.646,932.629,579.268,929.396,579.268z" class="colorAEBEFF svgShape"></path><path fill="#67c0ec" d="M537.819,579.268H423.701c-3.233,0-5.855-2.621-5.855-5.855l0,0c0-3.233,2.621-5.855,5.855-5.855h114.118
	c3.233,0,5.855,2.621,5.855,5.855l0,0C543.673,576.646,541.052,579.268,537.819,579.268z" class="color768DEB svgShape"></path><path fill="#bee3ff" d="M557.259 430.894l30.092-33.119-14.445-3.139c12.19-39.775 47.018-68.78 89.784-72.82 48.117-4.545 93.901 25.453 108.864 71.33.96 2.943 3.822 4.734 6.781 4.455.469-.044.942-.141 1.409-.293 3.411-1.112 5.274-4.779 4.161-8.19-8.119-24.892-24.666-46.628-46.595-61.203-22.255-14.791-49.189-21.55-75.841-19.032-26.617 2.515-51.785 14.174-70.866 32.831-14.236 13.919-24.677 31.295-30.369 50.169l-16.609-3.609L557.259 430.894zM803.566 447.43l-18.305-40.832-26.209 36.268 15.931 1.633c-8.323 45.023-45.958 80.396-92.691 84.811-52.679 4.977-100.701-30.235-111.705-81.905-.748-3.509-4.198-5.749-7.706-5-3.508.747-5.747 4.197-5 7.706 12.378 58.12 66.388 97.729 125.633 92.132 52.91-4.998 95.442-45.288 104.421-96.415L803.566 447.43z" class="colorAEBEFF svgShape"></path><path fill="#67c0ec" d="M617.778 415.596h7.086v13.692c0 1.358-.212 2.64-.636 3.846-.422 1.206-1.087 2.261-1.991 3.164-.904.903-1.853 1.538-2.845 1.903-1.379.512-3.036.768-4.969.768-1.119 0-2.339-.078-3.66-.235-1.323-.157-2.427-.467-3.316-.932-.888-.465-1.702-1.125-2.438-1.982-.736-.856-1.241-1.739-1.513-2.647-.439-1.462-.658-2.757-.658-3.885v-13.692h7.086v14.018c0 1.253.347 2.232 1.042 2.936.695.705 1.659 1.057 2.892 1.057 1.224 0 2.182-.347 2.877-1.041.695-.694 1.043-1.679 1.043-2.952V415.596zM629.534 415.596h11.805c2.571 0 4.496.611 5.776 1.834 1.28 1.223 1.921 2.963 1.921 5.22 0 2.32-.697 4.133-2.093 5.44-1.395 1.306-3.525 1.959-6.387 1.959h-3.888v8.528h-7.133V415.596zM636.667 425.394h1.741c1.369 0 2.329-.238 2.884-.713.553-.476.831-1.085.831-1.827 0-.721-.241-1.332-.721-1.834-.481-.501-1.385-.752-2.712-.752h-2.023V425.394zM652.845 415.596h10.55c2.08 0 3.76.282 5.04.846 1.28.565 2.339 1.374 3.175 2.43.836 1.056 1.442 2.284 1.818 3.684.376 1.401.564 2.885.564 4.452 0 2.456-.28 4.361-.839 5.714-.559 1.353-1.334 2.487-2.328 3.402-.992.914-2.058 1.523-3.198 1.826-1.558.418-2.968.627-4.233.627h-10.55V415.596zM659.948 420.8v12.556h1.739c1.484 0 2.539-.165 3.167-.494.627-.329 1.117-.904 1.474-1.725.355-.82.532-2.15.532-3.99 0-2.435-.396-4.102-1.191-5-.795-.899-2.111-1.348-3.951-1.348H659.948zM690.473 434.783h-8.062l-1.12 3.794h-7.251l8.637-22.982h7.746l8.636 22.982h-7.436L690.473 434.783zM689 429.814l-2.537-8.261-2.51 8.261H689zM697.491 415.596h21.587v5.675h-7.243v17.306h-7.101v-17.306h-7.243V415.596zM722.275 415.596h19.032v4.907h-11.914v3.653h11.052v4.687h-11.052v4.531h12.259v5.204h-19.377V415.596z" class="color768DEB svgShape"></path><circle cx="996.848" cy="248.144" r="8.714" fill="#bee3ff" class="colorAEBEFF svgShape"></circle><circle cx="996.848" cy="280.743" r="8.714" fill="#bee3ff" class="colorAEBEFF svgShape"></circle><circle cx="996.848" cy="313.342" r="8.714" fill="#bee3ff" transform="rotate(-76.714 996.93 313.336)" class="colorAEBEFF svgShape"></circle><path fill="#bee3ff" d="M394.351,300.188h-2.307c-0.657-2.991-1.754-5.821-3.222-8.407l1.913-1.913c2.858-2.858,2.858-7.491,0-10.35
	c-2.858-2.858-7.492-2.858-10.35,0l-1.634,1.634c-2.516-1.614-5.276-2.858-8.218-3.668c-0.001,0-0.002-0.001-0.003-0.001v-2.705
	c0-4.042-3.277-7.318-7.318-7.318c-4.042,0-7.318,3.276-7.318,7.318v2.307c-2.991,0.657-5.821,1.754-8.407,3.222l-1.913-1.913
	c-2.858-2.858-7.492-2.858-10.35,0c-2.858,2.858-2.858,7.492,0,10.349l1.633,1.633c-1.614,2.516-2.858,5.277-3.669,8.219
	c0,0.001,0,0.001-0.001,0.002h-2.704c-4.042,0-7.318,3.276-7.318,7.318s3.276,7.318,7.318,7.318h2.306
	c0.657,2.992,1.754,5.822,3.222,8.408l-1.912,1.911c-2.858,2.858-2.858,7.492,0,10.35c2.858,2.858,7.492,2.858,10.35,0l1.628-1.628
	c0.001,0,0.001,0.001,0.002,0.001c2.516,1.607,5.283,2.851,8.225,3.669v2.698c0,4.042,3.276,7.318,7.318,7.318
	c4.042,0,7.318-3.276,7.318-7.318v-2.306c2.992-0.657,5.823-1.754,8.409-3.222l1.911,1.912c2.858,2.858,7.492,2.858,10.35,0
	c2.858-2.858,2.858-7.492,0-10.35l-1.628-1.628c0,0,0,0,0,0c1.608-2.516,2.852-5.283,3.669-8.225h2.699
	c4.042,0,7.318-3.277,7.318-7.318C401.669,303.464,398.393,300.188,394.351,300.188z M384.208,306.712
	c0,12.031-9.759,21.79-21.79,21.79c-12.031,0-21.79-9.759-21.79-21.79c0-12.038,9.759-21.79,21.79-21.79
	C374.449,284.922,384.208,294.674,384.208,306.712z" class="colorAEBEFF svgShape"></path><path fill="#bee3ff" d="M348.646 306.712c0 7.606 6.166 13.772 13.772 13.772 7.606 0 13.779-6.166 13.779-13.772 0-7.606-6.173-13.779-13.779-13.779C354.811 292.933 348.646 299.106 348.646 306.712zM446.54 265.29h-1.675c-.477-2.172-1.274-4.226-2.339-6.104l1.389-1.389c2.075-2.075 2.075-5.439 0-7.514-2.075-2.075-5.439-2.075-7.514 0l-1.186 1.186c-1.826-1.172-3.831-2.075-5.966-2.663-.001 0-.001 0-.002-.001v-1.964c0-2.934-2.379-5.313-5.313-5.313-2.935 0-5.313 2.379-5.313 5.313v1.675c-2.171.477-4.226 1.273-6.104 2.339l-1.389-1.389c-2.075-2.075-5.439-2.075-7.514 0-2.075 2.075-2.075 5.439 0 7.514l1.186 1.186c-1.172 1.827-2.075 3.831-2.664 5.967 0 .001 0 .001 0 .002h-1.963c-2.935 0-5.313 2.379-5.313 5.313 0 2.935 2.379 5.313 5.313 5.313h1.674c.477 2.172 1.274 4.227 2.339 6.105l-1.388 1.388c-2.075 2.075-2.075 5.439 0 7.514 2.075 2.075 5.439 2.075 7.514 0l1.182-1.182c0 0 .001.001.001.001 1.827 1.167 3.836 2.07 5.972 2.664v1.958c0 2.935 2.379 5.314 5.313 5.314 2.935 0 5.313-2.379 5.313-5.314v-1.674c2.172-.477 4.227-1.274 6.105-2.34l1.388 1.388c2.075 2.075 5.439 2.075 7.514 0 2.075-2.075 2.075-5.439 0-7.514l-1.182-1.182c0 0 0 0 0 0 1.167-1.827 2.07-3.836 2.664-5.972h1.96c2.935 0 5.313-2.379 5.313-5.313C451.853 267.669 449.474 265.29 446.54 265.29zM439.176 270.027c0 8.735-7.086 15.821-15.821 15.821s-15.821-7.085-15.821-15.821c0-8.74 7.086-15.821 15.821-15.821S439.176 261.287 439.176 270.027z" class="colorAEBEFF svgShape"></path><path fill="#bee3ff" d="M413.356,270.027c0,5.522,4.477,9.999,9.999,9.999s10.004-4.477,10.004-9.999
	c0-5.522-4.482-10.004-10.004-10.004S413.356,264.505,413.356,270.027z" class="colorAEBEFF svgShape"></path><path fill="#edc0c1" d="M528.081,258.837c-3.276-15.688-5.111-28.525-4.804-39.855c0.215-8.31,0.952-15.943,1.536-23.617
	l-48.47-27.047l-15.401-8.597l29.329-0.322c0,0,41.986,13.106,49.211,24.854c4.859,7.906,4.069,25.851,2.007,42.14
	c-2.178,17.083-5.767,32.359-5.767,32.359L528.081,258.837z" class="colorEDC0C1 svgShape"></path><path fill="#237796" d="M527.957,258.491l-2.38,8.102l1.684,12.535l2.487,0.094l2.146-11.013l4.093,7.252
	c1.102,1.953,2.741,3.542,4.968,3.806c5.872,0.696,17.334,0.768,17.766-3.086c0.444-3.96-10.665-4.007-13.957-8.319
	c-3.188-4.176-7.025-9.642-7.025-9.642L527.957,258.491z" class="color1B1970 svgShape"></path><path fill="#1d6386" d="M541.49,226.394l-9.958,1.751l-8.255-9.163l-36.456-40.44l-10.478-10.224l-8.876-8.668l22.804-0.25
	c0,0,41.986,13.106,49.211,24.854C544.342,192.16,543.551,210.105,541.49,226.394z" class="color161470 svgShape"></path><path fill="#f1cccd" d="M536.738,259.21c-8.848-7.417-14.777-16.877-19.445-27.666c-3.027-6.994-5.405-14.509-7.412-22.321
	c0,0-44.675-3.28-56.605-20.237c-8.128-11.558-1.906-29.158-1.906-29.158c7.627,0.152,17.612-1.627,23.951,0.349
	c23.89,7.432,49.559,17.295,55.681,33.703c3.613,9.687,6.152,20.415,8.704,32.312c2.112,9.828,4.042,21.255,6.812,32.747
	L536.738,259.21z" class="colorF1CCCD svgShape"></path><path fill="#184a67" d="M539.707,226.191l-14.85,3.544l-7.564,1.808c-3.027-6.994-5.405-14.509-7.412-22.321
	c0,0-26.306-1.937-43.933-10.483c-5.344-2.599-9.901-5.805-12.672-9.754c-7.435-10.577-2.862-26.226-2.027-28.795
	c0.081-0.238,0.121-0.363,0.121-0.363l0.055-0.001c7.627,0.139,18.453-2.36,24.778-0.383c23.89,7.433,49.814,17.681,55.936,34.089
	C535.767,203.219,537.155,214.294,539.707,226.191z" class="color1F1C80 svgShape"></path><path fill="#1d6386" d="M465.949,198.74c-5.344-2.599-9.901-5.805-12.672-9.754c-7.435-10.577-2.862-26.226-2.027-28.795
	c0.081-0.238,0.121-0.363,0.121-0.363l0.055-0.001l7.491,3.02C453.753,176.374,456.914,188.168,465.949,198.74z" class="color161470 svgShape"></path><path fill="#184a67" d="M477.554,70.034c-2.072-2.043-5.556-2.666-8.011-1.103c-1.823,1.161-2.882,3.275-4.719,4.412
	c-2.786,1.725-6.464,0.741-9.59,1.724c-2.972,0.935-5.233,3.798-5.453,6.906c-0.158,2.236,0.625,4.617-0.309,6.655
	c-0.773,1.687-2.531,2.675-4.232,3.415c-4.165,1.812-8.867,2.96-11.945,6.3c-0.918,0.996-1.685,2.28-1.535,3.627
	c0.152,1.361,1.205,2.49,1.38,3.848c0.195,1.512-0.76,2.967-1.965,3.902c-1.205,0.934-2.655,1.485-3.99,2.222
	c-3.743,2.066-7.509,9.458-1.052,14.245c2.752,2.04,9.27-3.637,10.942,1.524c0.38,1.173,4.341,4.677,5.548,4.928
	c11.39,2.369,22.229-14.998,24.701-22.302c7.009-8.409,8.106-15.458,5.763-23.58c2.117-1.997,6.148-5.79,6.703-8.647
	C480.342,75.256,479.627,72.078,477.554,70.034z" class="color1F1C80 svgShape"></path><path fill="#ffbe29" d="M480.093,129.118c5.077,5.999,13.966,12.433,19.161,18.33c2.504-2.22,5.437-3.338,7.524-6.155
	c-8.76-12.973-19.087-26.904-30.22-37.99C478.704,111.808,477.605,120.741,480.093,129.118z" class="colorFF8CE7 svgShape"></path><path fill="#ffc077" d="M492.394,160.086c-11.815-1.442-21.446,3.561-33.477,2.761c-1.448-0.095-2.939-0.274-4.459-0.549
	c-2.803-0.526-4.779-3.065-4.517-5.906l3.54-38.722l3.362-11.935L457.62,103l6.217-3.423l6.879,0.162
	c10.303,4.34,17.507,16.311,11.434,29.694C476.254,142.438,492.394,160.086,492.394,160.086z" class="colorFF73E2 svgShape"></path><path fill="#f1cccd" d="M471.017,99.841c0.043,3.892-3.572,3.932-7.239,0.08l0.799-4.714l0.494-2.932l5.481,2.665l0.454,4.796
	L471.017,99.841z" class="colorF1CCCD svgShape"></path><path fill="#af7c09" d="M462.076,127.358c-2.659,7.488-5.247,25.313-3.159,35.49c-1.448-0.095-2.939-0.274-4.459-0.549
	c-2.803-0.526-4.779-3.065-4.517-5.906l3.54-38.722l3.362-11.935c3.101,2.387,4.899,5.37,4.899,5.37
	S465.343,118.235,462.076,127.358z" class="colorF06CD4 svgShape"></path><path fill="#f1cccd" d="M495.378,146.803c-3.078,4.796-5.002,3.96-9.194,4.259c-5.469-0.253-11.321,0.652-16.85,0.281
	c-6.671-0.448-16.45,1.813-21.923-2.556c-5.472-4.369,1.161-26.298,2.709-31.231c2.056-6.551,4.407-9.422,7.487-14.622
	c-1.351,5.019-2.705,9.813-4.058,14.743c0.967,7.601,1.793,15.246,2.663,22.847c5.397,0.669,9.452,1.104,15.151,2.008
	c5.031,0.798,11.898,1.893,17.142,3.264C493.09,143.238,498.455,142.008,495.378,146.803z" class="colorF1CCCD svgShape"></path><path fill="#ffbe29" d="M471.185,142.496c-0.528,3.047-1.098,5.844-1.851,9.012c-7.047,0.408-15.572,2.524-22.207-2.937
	c-6.634-5.462-2.455-27.926,0.133-34.086c2.779-6.613,5.133-8.737,10.365-11.577c10.18,10.014-0.243,24.19-1.387,37.626
	C461.233,141.113,466.215,141.743,471.185,142.496z" class="colorFF8CE7 svgShape"></path><path fill="#a9e5ff" d="M479.241,164.893l7.873-24.528c0.817-1.51,2.388-2.458,4.105-2.477l36.372-0.399
	c3.42-0.038,5.747,3.458,4.392,6.599l-9.226,21.387c-0.796,1.846-2.605,3.05-4.615,3.072l-35.913,0.394
	C480.112,168.965,478.595,166.908,479.241,164.893z" class="colorD2D1FF svgShape"></path><path fill="#279fb7" d="M480.174,167.497l35.913-0.394c2.011-0.022,3.82-1.226,4.616-3.073l9.225-21.387
	c0.75-1.737,0.369-3.58-0.696-4.877c2.463,0.876,3.874,3.717,2.751,6.321l-9.226,21.387c-0.796,1.846-2.605,3.05-4.616,3.072
	l-35.913,0.394c-1.167,0.013-2.135-0.617-2.675-1.513C479.754,167.467,479.958,167.5,480.174,167.497z" class="colorC0BFF5 svgShape"></path><path fill="#f1babb" d="M470.862,98.21c-0.372,0.052-1.547,0.076-1.982,0.004c-2.264-0.374-3.305-0.972-4.303-3.007l0.494-2.932
	l5.481,2.665L470.862,98.21z" class="colorF1BABB svgShape"></path><path fill="#f1cccd" d="M475.398,78.619c0,0-2.221,4.844-9.837,6.715c0,0-2.411-2.573-3.422-0.937
	c-1.011,1.636,1.512,4.479,1.512,4.479c0.337,4.717,3.775,8.425,7.285,7.502C478.917,94.279,475.398,78.619,475.398,78.619z" class="colorF1CCCD svgShape"></path><path fill="#184a67" d="M536.738,259.21l-2.38,8.102l1.683,12.535l2.487,0.094l2.146-11.013l4.093,7.251
	c1.102,1.953,2.742,3.542,4.968,3.806c5.872,0.695,17.334,0.767,17.766-3.086c0.445-3.96-10.665-4.008-13.957-8.32
	c-3.187-4.176-7.025-9.642-7.025-9.642L536.738,259.21z" class="color1F1C80 svgShape"></path><path fill="#ffffff" d="M504.741,157.282c-1.363-1.333-1.387-3.519-0.054-4.882c1.333-1.363,3.519-1.387,4.882-0.054
	c1.363,1.333,1.387,3.519,0.054,4.882C508.29,158.592,506.104,158.616,504.741,157.282z" class="colorFFF svgShape"></path><path fill="#1f78af" d="M1133.366,686.846c0,0-23.257,3.44-22.86,3.21c0.397-0.231,42.566,21.396,42.566,21.396l41.55-18.617
	l-20.601-5.99H1133.366z" class="color414C96 svgShape"></path><path fill="#f7c1ce" d="M1142.299,718.58c-0.118,0.001-0.235,0.002-0.348,0.004c-0.072,0-0.143,0-0.215,0.001
	c-5.917,0.068-9.781-0.079-9.781-0.079s-0.284,0.064-0.802,0.17c-5.059,1.049-32.335,6.246-30.011-4.032
	c2.037-9.024,18.402-7.902,24.965-7.074c0.025,0,0.045,0.004,0.065,0.008c1.638,0.209,2.647,0.394,2.647,0.394
	s3.256-1.4,8.395-3.393c0.211-0.084,0.429-0.171,0.646-0.254c16.928-6.57,52.531-19.023,61.747-11.539
	c-0.001,0.005-0.001,0.005-0.001,0.005c0.101,0.077,0.201,0.164,0.295,0.251c0.006-0.004,0.015,0.003,0.018,0.013
	c0.098,0.092,0.19,0.188,0.283,0.285c0.081,0.078,0.16,0.166,0.232,0.263c0.03,0.027,0.058,0.063,0.087,0.1
	c0.101,0.129,0.201,0.262,0.29,0.398c-0.001,0.005,0.004,0.006,0.004,0.006c0.097,0.148,0.188,0.3,0.273,0.456
	c0.081,0.149,0.151,0.302,0.215,0.458c0.149,0.338,0.264,0.699,0.347,1.079c0.083,0.385,0.152,0.763,0.198,1.135
	c0.085,0.667,0.119,1.313,0.089,1.945C1201.195,715.778,1161.589,718.324,1142.299,718.58z" class="colorF7C1CE svgShape"></path><path fill="#0c548a" d="M1142.606 720.515l-.655-1.931-.284-.842c-.004-.006-.003-.01-.003-.01l-4.45-13.153-.639-1.886c16.945-6.577 53.651-17.727 63.025-9.923l.004.006c.105.084.204.171.297.267.006-.004.015.003.018.013.098.092.19.188.283.285.081.078.16.166.232.263.03.027.058.063.087.1.101.129.201.262.29.398-.001.005.004.006.004.006.097.148.188.3.273.456.081.149.151.302.215.458.149.338.264.699.347 1.079.083.385.152.763.198 1.135.085.667.119 1.313.089 1.945C1201.255 715.985 1161.905 720.261 1142.606 720.515zM1128.808 708.018c0 0-30.856-6.029-32.2 7.015-1.444 14.013 35.337 3.521 35.337 3.521s-14.186 3.104-13.512-4.852C1119.084 706.004 1128.808 708.018 1128.808 708.018z" class="color323B7D svgShape"></path><path fill="#f7c1ce" d="M1174.656,655.066c-6.055,8.504-0.639,31.78-0.639,31.78h-40.652c1.123-1.592,4.288-21.655-2.841-32.714
	c-11.505-17.841,0.89-31.712,0.89-31.712l16.906-3.073l1.079-5.382l0.741-3.707l0.174-0.862h7.604l0.276,1.617l0.595,3.524
	l0.881,5.198l15.541,3.374C1175.213,623.107,1188.523,635.585,1174.656,655.066z" class="colorF7C1CE svgShape"></path><path fill="#43abf7" d="M1174.654,655.072c-6.057,8.502-0.634,31.774-0.634,31.774h-40.654c0.956-1.355,3.39-16.115-0.311-27.284
	c-0.645-1.956-1.478-3.79-2.534-5.435c-11.502-17.838,0.889-31.708,0.889-31.708l16.915-3.078c0.649,3.783,9.872,3.56,11.347,0.389
	l15.537,3.378C1175.21,623.109,1188.524,635.578,1174.654,655.072z" class="color5651E2 svgShape"></path><path fill="#d89999" d="M1133.366,686.846c0.956-1.355,3.39-16.115-0.311-27.284c8.016-2.329,6.663,19.922,20.016,27.284H1133.366z" class="colorC4626E svgShape"></path><path fill="#f7c1ce" d="M1196.764,672.758c-0.422,2.634-2.278,5.49-5.024,8.313c-7.023,7.212-21.329,6.891-31.142,9.513
	l-1.025-5.228c0,0,17.519-4.941,21.287-11.087c0.4-0.656,0.678-1.267,0.789-1.811c1.278-6.123-5.813-13.781-5.813-13.781
	l-0.754-35.553C1175.082,623.124,1198.898,659.366,1196.764,672.758z" class="colorF7C1CE svgShape"></path><path fill="#43abf7" d="M1196.998,672.757c-0.455,2.478-1.941,5.591-4.414,8.306c-0.261,0.286-0.692,0.334-1.017,0.126l-3.011-1.956
	l-7.894-5.115c0.401-0.654,0.605-1.312,0.716-1.859c1.278-6.122-10.082-15.594-10.082-15.594l2.73-33.76
	c3.659-0.165,9.67,8.185,14.661,18.422c0,0,0.005,0.014,0.014,0.038C1194.104,652.438,1198.295,665.704,1196.998,672.757z" class="color5651E2 svgShape"></path><path fill="#f7c1ce" d="M1147.653,685.444l0.178,3.477c0.314-0.109,0.288-0.565-0.037-0.632c-8.746-1.807-23.119,0.693-30.118-5.25
	c-4.312-3.668-6.667-8.183-7.223-11.661c-2.134-13.392,21.096-48.93,21.096-48.93l-0.858,35.507c0,0-7.091,7.658-5.813,13.781
	c0.222,1.09,1.089,2.434,2.345,3.901C1132.469,681.794,1147.653,685.444,1147.653,685.444z" class="colorF7C1CE svgShape"></path><path fill="#43abf7" d="M1124.876,671.735c0.223,1.089,1.709,2.043,2.962,3.509l-7.333,6.098l-2.948,2.449
	c-4.313-3.669-6.844-8.364-7.792-11.757c-1.466-5.223,0.62-14.148,4.138-23.01c0.014-0.048,0.024-0.073,0.024-0.073
	c5.31-13.373,13.852-26.577,18.314-26.684l2.575,36.03C1134.818,658.3,1123.598,665.613,1124.876,671.735z" class="color5651E2 svgShape"></path><path fill="#f7c1ce" d="M1205.16,713.497c2.448,10.449-25.37,5.384-30.532,4.357c-0.528-0.104-0.818-0.166-0.818-0.166
	s-4.032,0.188-10.18,0.163c-0.12,0-0.24,0-0.36,0c-8.927-0.046-22.131-0.534-33.963-2.645c-14.515-2.586-26.973-7.601-26.951-17.216
	c0-0.021,0.002-0.037-0.001-0.052c0.004-0.392,0.027-0.788,0.074-1.195c0.003-0.011,0.001-0.016,0.001-0.021
	c0.05-0.418,0.12-0.84,0.209-1.271c0.082-0.388,0.195-0.757,0.345-1.102c0.064-0.16,0.135-0.316,0.216-0.469
	c0.085-0.159,0.177-0.315,0.274-0.466c0,0,0.005-0.001,0.004-0.006c0.09-0.14,0.19-0.276,0.292-0.408
	c0.028-0.037,0.057-0.075,0.087-0.102c0.072-0.099,0.152-0.189,0.234-0.27c0.093-0.099,0.186-0.197,0.286-0.291
	c0.003-0.011,0.011-0.018,0.018-0.014c1.123-1.047,2.695-1.754,4.625-2.184c13.27-2.952,43.39,7.375,58.658,13.155
	c0.221,0.083,0.443,0.17,0.66,0.253c5.25,1.988,8.578,3.386,8.578,3.386s1.027-0.197,2.693-0.424
	c0.02-0.004,0.041-0.003,0.066-0.009C1186.351,705.602,1203.005,704.324,1205.16,713.497z" class="colorF7C1CE svgShape"></path><path fill="#1f78af" d="M1168.972 701.62l-.635 1.926-4.707 14.304-.651 1.971c-8.101-.038-19.674-.745-30.535-2.759 0 0 0 0-.006-.004-15.815-2.929-30.137-8.628-30.081-19.07 0-.021.002-.037-.001-.052.004-.392.031-.794.074-1.195.003-.011.001-.016.001-.021.05-.418.12-.84.209-1.271.082-.388.195-.757.345-1.102.064-.16.135-.316.216-.469.085-.159.177-.315.274-.466 0 0 .005-.001.004-.006.09-.14.19-.276.292-.408.028-.037.057-.075.087-.102.072-.099.152-.189.234-.27.093-.099.186-.197.286-.291.003-.011.011-.018.018-.014 1.16-1.118 2.816-1.895 4.853-2.385C1122.894 686.607 1153.734 695.854 1168.972 701.62zM1176.924 706.98c0 0 31.376-6.398 32.855 6.875 1.589 14.26-35.961 3.883-35.961 3.883s13.717 2.598 12.964-5.499C1186.054 704.403 1176.924 706.98 1176.924 706.98z" class="color414C96 svgShape"></path><path fill="#ffffff" d="M1182.115,655.478v33.367c0,1.796-1.457,3.253-3.253,3.253h-51.125c-1.796,0-3.253-1.457-3.253-3.253
	v-33.367c0-1.796,1.457-3.253,3.253-3.253h51.125C1180.658,652.225,1182.115,653.682,1182.115,655.478z" class="colorFFF svgShape"></path><path fill="#b8e6ff" d="M1148.208,672.162c0-2.812,2.28-5.091,5.091-5.091c2.812,0,5.091,2.279,5.091,5.091
	c0,2.812-2.279,5.091-5.091,5.091C1150.488,677.253,1148.208,674.974,1148.208,672.162z" class="colorD7E0FA svgShape"></path><path fill="#b8e6ff" d="M1182.115,655.478v33.367c0,1.796-1.457,3.253-3.253,3.253h-51.125c-1.796,0-3.253-1.457-3.253-3.253
	c51.707,2.374,57.631-5.21,54.378-36.62C1180.658,652.225,1182.115,653.682,1182.115,655.478z" class="colorD7E0FA svgShape"></path><path fill="#147db7" d="M1196.998,672.757c-0.455,2.478-1.941,5.591-4.414,8.306c-0.261,0.286-0.692,0.334-1.017,0.126l-3.011-1.956
	c1.583-2.745,3.917-4.921,5.013-9.17c2.935-11.372-4.466-27.716-4.868-28.699C1194.104,652.438,1198.295,665.704,1196.998,672.757z" class="color4743DE svgShape"></path><path fill="#184a67" d="M1143.641,600.155c0,0-6.092-6.527-1.15-15.199c0,0,1.493,2.704,3.263,1.958c0,0,0.093-6.34,12.962-7.646
	c0,0-0.933,2.517-0.466,3.171c4.243-1.865,8.36,2.766,12.496,1.025c0,0,1.142,7.347-3.613,11.636c0,0,0.722,2.537-0.956,5.055
	C1164.498,602.673,1143.641,600.155,1143.641,600.155z" class="color1F1C80 svgShape"></path><path fill="#f7c1ce" d="M1145.559,598.185c0,0-2.78-2.718-3.041-0.08c-0.311,3.122,3.406,5.444,3.406,5.444s0.906,9.653,9.05,9.653
	c8.078,0,9.43-9.69,9.43-9.69s4.249-1.159,3.347-4.828c-0.427-1.742-2.643,0.038-2.643,0.038v-4.585c0,0-2.265,1.151-6.636-0.724
	c-3.165-1.359-4.293-3.245-6.998-3.138C1148.392,590.398,1145.438,593.781,1145.559,598.185z" class="colorF7C1CE svgShape"></path><path fill="#ffffff" d="M1251.095,810.938h-196.118c-0.315-0.132-0.624-0.27-0.926-0.416c-0.315-0.145-0.624-0.296-0.932-0.46
	c-0.252-0.132-0.504-0.265-0.756-0.409c-0.264-0.151-0.529-0.302-0.787-0.466c-0.221-0.132-0.441-0.271-0.655-0.409
	c-0.227-0.151-0.454-0.303-0.674-0.46c-0.195-0.138-0.39-0.277-0.579-0.416c-0.201-0.151-0.397-0.302-0.592-0.46
	c-0.176-0.139-0.346-0.277-0.51-0.416c-0.182-0.151-0.359-0.302-0.535-0.46c-0.151-0.132-0.302-0.271-0.447-0.409
	c-0.17-0.151-0.334-0.309-0.497-0.466c-0.069-0.069-0.139-0.138-0.208-0.208c-0.07-0.069-0.132-0.132-0.195-0.201
	c-0.151-0.151-0.296-0.302-0.435-0.46c-0.132-0.132-0.258-0.271-0.384-0.416c-0.132-0.151-0.271-0.302-0.397-0.46
	c-0.12-0.132-0.233-0.27-0.34-0.409c-0.126-0.151-0.252-0.309-0.371-0.466c-0.107-0.133-0.208-0.271-0.309-0.41
	c-0.113-0.151-0.227-0.302-0.334-0.46c-0.101-0.138-0.201-0.277-0.29-0.415c-0.107-0.151-0.208-0.309-0.309-0.46
	c-0.088-0.139-0.176-0.271-0.258-0.41c-0.095-0.151-0.189-0.308-0.284-0.466c-0.082-0.139-0.164-0.277-0.239-0.416h-0.031v-24.923
	h0.019c0.076-0.139,0.157-0.277,0.239-0.409c0.088-0.158,0.183-0.315,0.284-0.466c0.082-0.138,0.17-0.271,0.258-0.409
	c0.095-0.151,0.195-0.309,0.302-0.46c0.094-0.139,0.189-0.277,0.29-0.416c0.107-0.157,0.22-0.308,0.333-0.46
	c0.101-0.138,0.202-0.277,0.309-0.409c0.12-0.157,0.246-0.315,0.365-0.466c0.113-0.139,0.227-0.278,0.34-0.41
	c0.132-0.157,0.264-0.308,0.403-0.46c0.12-0.145,0.246-0.283,0.378-0.416c0.139-0.157,0.284-0.309,0.435-0.46
	c0.132-0.138,0.271-0.277,0.409-0.416c0.157-0.151,0.322-0.309,0.485-0.46c0.145-0.139,0.296-0.277,0.454-0.409
	c0.176-0.157,0.359-0.315,0.541-0.466c0.164-0.139,0.328-0.277,0.498-0.409c0.195-0.157,0.391-0.309,0.592-0.46
	c0.189-0.139,0.378-0.277,0.573-0.416c0.22-0.157,0.447-0.308,0.674-0.46c0.214-0.138,0.428-0.277,0.649-0.409
	c0.258-0.164,0.523-0.315,0.787-0.466c0.252-0.145,0.504-0.283,0.762-0.416c0.302-0.157,0.605-0.309,0.913-0.453
	c0.302-0.145,0.611-0.283,0.926-0.416h195.821c-0.044,0.132-0.095,0.271-0.139,0.416c-0.05,0.145-0.095,0.296-0.145,0.453
	c-0.044,0.132-0.082,0.271-0.126,0.416c-0.044,0.151-0.088,0.302-0.139,0.466c-0.031,0.132-0.069,0.271-0.113,0.409
	c-0.038,0.151-0.082,0.302-0.12,0.46c-0.038,0.132-0.069,0.271-0.107,0.416c-0.038,0.151-0.076,0.302-0.113,0.46
	c-0.032,0.132-0.063,0.271-0.095,0.409c-0.038,0.151-0.069,0.309-0.107,0.466c-0.032,0.132-0.063,0.271-0.088,0.409
	c-0.032,0.151-0.063,0.302-0.095,0.46c-0.032,0.138-0.057,0.271-0.082,0.416c-0.031,0.145-0.063,0.303-0.088,0.46
	c-0.031,0.132-0.057,0.271-0.082,0.416c-0.025,0.151-0.057,0.302-0.082,0.46c-0.025,0.132-0.044,0.271-0.069,0.41
	c-0.025,0.151-0.051,0.308-0.076,0.466c-0.019,0.132-0.038,0.271-0.057,0.409c-0.025,0.151-0.05,0.302-0.069,0.46
	c-0.025,0.139-0.044,0.277-0.063,0.416c-0.019,0.151-0.038,0.302-0.063,0.46c-0.012,0.132-0.031,0.271-0.05,0.409
	c-0.019,0.151-0.038,0.309-0.057,0.466c-0.013,0.132-0.031,0.271-0.044,0.409c-0.019,0.151-0.038,0.302-0.057,0.46
	c-0.013,0.132-0.025,0.271-0.038,0.416c-0.019,0.151-0.031,0.302-0.044,0.46c-0.013,0.132-0.025,0.271-0.038,0.409
	c-0.013,0.151-0.025,0.309-0.038,0.466c-0.013,0.139-0.025,0.271-0.031,0.41c-0.012,0.151-0.025,0.302-0.038,0.46
	c-0.012,0.139-0.019,0.277-0.025,0.416c-0.012,0.151-0.025,0.302-0.032,0.46c-0.006,0.139-0.019,0.271-0.019,0.409
	c-0.013,0.151-0.025,0.309-0.025,0.466c-0.012,0.139-0.019,0.277-0.019,0.416c-0.013,0.151-0.019,0.302-0.019,0.453
	c-0.012,0.139-0.019,0.277-0.019,0.416c-0.007,0.151-0.013,0.309-0.019,0.466c0,0.132-0.006,0.271-0.006,0.409
	c-0.006,0.151-0.013,0.308-0.013,0.46c-0.007,0.138-0.007,0.277-0.007,0.415c-0.006,0.151-0.006,0.302-0.006,0.46
	c0,0.139-0.006,0.271,0,0.41c-0.006,0.151-0.006,0.308-0.006,0.466v0.409c0,0.151,0,0.309,0.006,0.459c0,0.139,0,0.277,0.006,0.416
	c-0.006,0.151,0,0.302,0.007,0.46c0,0.132,0,0.271,0.006,0.409c0,0.157,0.006,0.309,0.012,0.466c0,0.132,0,0.271,0.006,0.409
	c0.006,0.151,0.013,0.303,0.019,0.46c0,0.139,0.006,0.277,0.012,0.416c0.006,0.151,0.013,0.309,0.013,0.46
	c0.013,0.138,0.019,0.277,0.025,0.416c0.006,0.151,0.013,0.302,0.025,0.459c0,0.139,0.013,0.271,0.019,0.41
	c0.006,0.157,0.019,0.308,0.025,0.466c0.006,0.132,0.019,0.271,0.031,0.409c0,0.151,0.013,0.309,0.026,0.46
	c0.006,0.139,0.019,0.277,0.031,0.416c0.006,0.151,0.019,0.302,0.032,0.46c0.006,0.132,0.019,0.271,0.031,0.409
	c0.006,0.157,0.019,0.309,0.038,0.466c0.006,0.139,0.019,0.271,0.031,0.409c0.013,0.151,0.025,0.302,0.044,0.46
	c0.006,0.139,0.019,0.277,0.038,0.416c0.013,0.151,0.025,0.309,0.044,0.46c0.013,0.138,0.025,0.271,0.038,0.409
	c0.013,0.151,0.032,0.309,0.051,0.466c0.012,0.138,0.025,0.271,0.044,0.409c0.012,0.151,0.031,0.302,0.05,0.46
	c0.013,0.138,0.031,0.277,0.044,0.416c0.019,0.157,0.038,0.309,0.057,0.46c0.013,0.138,0.032,0.277,0.051,0.416
	c0.019,0.151,0.038,0.302,0.057,0.46c0.013,0.139,0.032,0.271,0.05,0.41c0.019,0.158,0.038,0.309,0.063,0.466
	c0.019,0.132,0.038,0.271,0.057,0.409c0.019,0.151,0.038,0.309,0.063,0.46c0.019,0.139,0.038,0.277,0.057,0.416
	c0.019,0.151,0.044,0.308,0.069,0.466c0.019,0.139,0.038,0.271,0.063,0.41c0.019,0.151,0.044,0.309,0.069,0.46
	c0.018,0.138,0.038,0.277,0.063,0.415c0.019,0.151,0.044,0.302,0.076,0.46c0.019,0.139,0.037,0.271,0.069,0.41
	c0.019,0.157,0.044,0.308,0.076,0.466c0.019,0.132,0.038,0.271,0.063,0.409c0.025,0.151,0.051,0.302,0.082,0.46
	c0.019,0.139,0.044,0.278,0.075,0.416c0.019,0.151,0.044,0.302,0.082,0.46c0.019,0.139,0.044,0.271,0.069,0.409
	c0.025,0.157,0.057,0.309,0.088,0.466c0.019,0.138,0.044,0.271,0.076,0.409c0.025,0.151,0.057,0.308,0.088,0.46
	c0.019,0.139,0.051,0.277,0.076,0.416c0.032,0.151,0.057,0.309,0.088,0.46c0.031,0.138,0.057,0.277,0.082,0.416
	c0.032,0.151,0.063,0.309,0.094,0.46c0.032,0.138,0.057,0.271,0.088,0.409c0.032,0.158,0.063,0.308,0.095,0.466
	c0.025,0.139,0.057,0.271,0.088,0.409c0.032,0.151,0.063,0.302,0.095,0.46C1251.031,810.661,1251.063,810.799,1251.095,810.938z" class="colorFFF svgShape"></path><path fill="#ffda82" d="M1254.086,805.794c0.687,0.68,1.109,1.625,1.109,2.671c0,2.084-1.688,3.779-3.779,3.779h-190.178
	c-3.483,0-6.802-0.7-9.819-1.972c-0.315-0.132-0.623-0.271-0.926-0.416c-0.315-0.145-0.624-0.296-0.932-0.46
	c-0.252-0.132-0.504-0.264-0.756-0.409c-0.265-0.151-0.529-0.302-0.787-0.466c-0.221-0.132-0.441-0.271-0.655-0.409
	c-0.227-0.151-0.453-0.302-0.674-0.46c-0.195-0.139-0.391-0.278-0.58-0.416c-0.201-0.151-0.397-0.302-0.592-0.46
	c-0.176-0.139-0.346-0.277-0.51-0.416c-0.183-0.151-0.359-0.302-0.536-0.46c-0.151-0.132-0.302-0.27-0.447-0.409
	c-0.17-0.151-0.334-0.309-0.498-0.466c-0.069-0.069-0.138-0.138-0.208-0.208c-0.069-0.069-0.132-0.132-0.195-0.202
	c-0.151-0.151-0.296-0.302-0.434-0.46c-0.132-0.132-0.258-0.271-0.384-0.415c-0.132-0.151-0.271-0.303-0.397-0.46
	c-0.12-0.132-0.233-0.27-0.34-0.409c-0.126-0.151-0.252-0.308-0.372-0.466c-0.107-0.132-0.208-0.271-0.309-0.41
	c-0.113-0.151-0.227-0.302-0.334-0.459c-0.101-0.139-0.202-0.278-0.29-0.416c-0.107-0.152-0.208-0.309-0.309-0.46
	c-0.088-0.139-0.176-0.271-0.258-0.409c-0.094-0.151-0.189-0.309-0.283-0.466c-0.082-0.138-0.164-0.277-0.239-0.416
	c-0.012-0.019-0.025-0.037-0.032-0.057c-2.066-3.672-3.244-7.904-3.244-12.414c0-4.51,1.178-8.742,3.244-12.414
	c0.007-0.013,0.013-0.026,0.019-0.038c0.075-0.139,0.157-0.277,0.239-0.409c0.088-0.158,0.183-0.315,0.284-0.466
	c0.082-0.138,0.17-0.271,0.258-0.409c0.094-0.151,0.195-0.308,0.302-0.46c0.095-0.138,0.189-0.277,0.29-0.416
	c0.107-0.158,0.22-0.308,0.333-0.46c0.101-0.138,0.202-0.277,0.309-0.409c0.12-0.157,0.245-0.315,0.365-0.466
	c0.113-0.139,0.227-0.277,0.34-0.409c0.132-0.157,0.265-0.308,0.403-0.46c0.12-0.145,0.246-0.283,0.378-0.415
	c0.139-0.158,0.283-0.309,0.435-0.46c0.132-0.139,0.271-0.277,0.409-0.416c0.157-0.152,0.321-0.309,0.485-0.46
	c0.145-0.139,0.296-0.277,0.453-0.409c0.176-0.158,0.359-0.315,0.542-0.466c0.164-0.138,0.328-0.277,0.498-0.409
	c0.195-0.158,0.39-0.308,0.592-0.46c0.189-0.139,0.378-0.277,0.573-0.416c0.221-0.158,0.447-0.309,0.674-0.46
	c0.214-0.138,0.428-0.277,0.649-0.409c0.258-0.164,0.523-0.315,0.787-0.466c0.252-0.145,0.504-0.283,0.762-0.416
	c0.302-0.157,0.605-0.309,0.913-0.453c0.302-0.145,0.611-0.283,0.926-0.416c3.036-1.285,6.374-1.997,9.876-1.997h190.178
	c1.046,0,1.99,0.422,2.671,1.109c0.687,0.68,1.109,1.625,1.109,2.67c0,2.091-1.688,3.779-3.779,3.779h-189.517
	c-0.636,0-1.266,0.032-1.883,0.095c-0.92,0.088-1.814,0.245-2.689,0.46c-0.479,0.12-0.957,0.258-1.423,0.415
	c-0.422,0.139-0.838,0.29-1.247,0.46c-0.302,0.126-0.611,0.265-0.907,0.409c-0.309,0.145-0.611,0.296-0.913,0.466
	c-0.239,0.126-0.472,0.258-0.706,0.409c-0.245,0.145-0.491,0.296-0.73,0.46c-0.202,0.132-0.403,0.271-0.598,0.416
	c-0.208,0.152-0.403,0.302-0.605,0.46c-0.17,0.132-0.334,0.271-0.498,0.409c-0.176,0.151-0.353,0.302-0.523,0.466
	c-0.145,0.132-0.29,0.271-0.435,0.409c-0.157,0.151-0.308,0.302-0.453,0.46c-0.132,0.139-0.258,0.277-0.378,0.416
	c-0.139,0.151-0.271,0.302-0.391,0.46c-0.12,0.132-0.233,0.271-0.334,0.41c-0.126,0.151-0.239,0.309-0.353,0.466
	c-0.107,0.138-0.208,0.277-0.302,0.416c-0.101,0.151-0.202,0.302-0.296,0.454c-0.094,0.138-0.183,0.277-0.258,0.415
	c-0.101,0.151-0.189,0.309-0.277,0.466c-0.082,0.139-0.157,0.271-0.22,0.409c-0.088,0.151-0.164,0.302-0.239,0.46
	c-0.069,0.139-0.139,0.277-0.195,0.416c-0.076,0.151-0.145,0.302-0.208,0.46c-0.063,0.138-0.113,0.271-0.164,0.409
	c-0.069,0.158-0.126,0.309-0.176,0.466c-0.057,0.132-0.101,0.271-0.145,0.409c-0.057,0.151-0.107,0.302-0.145,0.46
	c-0.05,0.138-0.088,0.277-0.126,0.416c-0.044,0.151-0.082,0.309-0.12,0.46c-0.037,0.132-0.069,0.271-0.094,0.409
	c-0.038,0.151-0.069,0.309-0.095,0.466c-0.031,0.132-0.057,0.271-0.075,0.41c-0.031,0.151-0.05,0.302-0.069,0.46
	c-0.025,0.139-0.044,0.277-0.057,0.416c-0.019,0.151-0.032,0.302-0.044,0.46c-0.019,0.139-0.025,0.277-0.031,0.416
	c-0.013,0.151-0.019,0.302-0.019,0.46c-0.013,0.132-0.019,0.271-0.013,0.409c-0.006,0.076-0.006,0.145-0.006,0.221
	c0,0.082,0,0.164,0.006,0.246c0,0.138,0,0.277,0.013,0.409c0,0.157,0.006,0.308,0.019,0.46c0.006,0.139,0.019,0.277,0.038,0.416
	c0.006,0.158,0.019,0.308,0.044,0.46c0.012,0.138,0.031,0.277,0.057,0.409c0.012,0.157,0.038,0.315,0.069,0.466
	c0.019,0.139,0.044,0.278,0.076,0.416c0.025,0.151,0.057,0.302,0.094,0.454c0.025,0.138,0.057,0.277,0.094,0.415
	c0.038,0.157,0.076,0.309,0.12,0.466c0.038,0.138,0.082,0.277,0.126,0.409c0.044,0.158,0.088,0.309,0.151,0.46
	c0.038,0.139,0.082,0.277,0.139,0.409c0.05,0.157,0.113,0.309,0.176,0.466c0.05,0.138,0.107,0.271,0.17,0.409
	c0.063,0.157,0.132,0.309,0.208,0.46c0.057,0.139,0.126,0.277,0.195,0.416c0.076,0.157,0.151,0.309,0.239,0.46
	c0.069,0.138,0.145,0.271,0.22,0.409c0.088,0.157,0.176,0.315,0.277,0.466c0.082,0.139,0.164,0.277,0.258,0.409
	c0.095,0.157,0.196,0.309,0.302,0.46c0.094,0.138,0.195,0.277,0.302,0.416c0.107,0.158,0.227,0.309,0.346,0.46
	c0.107,0.139,0.214,0.277,0.334,0.41c0.126,0.157,0.258,0.315,0.403,0.466c0.12,0.145,0.246,0.277,0.378,0.415
	c0.145,0.151,0.296,0.309,0.447,0.453c0.145,0.145,0.296,0.284,0.441,0.416c0.17,0.164,0.347,0.315,0.529,0.466
	c0.164,0.138,0.328,0.277,0.498,0.409c0.201,0.157,0.403,0.315,0.611,0.46c0.195,0.145,0.397,0.283,0.599,0.416
	c0.239,0.163,0.479,0.315,0.73,0.459c0.233,0.145,0.472,0.283,0.718,0.41c0.296,0.17,0.605,0.321,0.913,0.466
	c0.296,0.145,0.605,0.284,0.913,0.409c0.416,0.17,0.838,0.321,1.266,0.46c0.479,0.164,0.964,0.302,1.461,0.415
	c0.945,0.233,1.921,0.384,2.916,0.46c0.51,0.051,1.021,0.07,1.543,0.07h189.517C1252.461,804.685,1253.406,805.107,1254.086,805.794
	z" class="color87A8F5 svgShape"></path><path fill="#fdce7d" d="M1242.539,761.553H1051.94c-11.612,0-21.025-9.413-21.025-21.025l0,0c0-11.612,9.413-21.025,21.025-21.025
	h190.599c11.612,0,21.025,9.413,21.025,21.025l0,0C1263.564,752.139,1254.151,761.553,1242.539,761.553z" class="colorA4BDF5 svgShape"></path><rect width="13.759" height="42.05" x="1053.932" y="719.502" fill="#ffffff" class="colorFFF svgShape"></rect><rect width="13.759" height="42.05" x="1075.575" y="719.502" fill="#ffffff" class="colorFFF svgShape"></rect><polygon fill="#fdce7d" points="1176.545 801.537 1170.172 795.702 1163.8 801.537 1163.8 776.653 1176.545 776.653" class="colorA4BDF5 svgShape"></polygon><path fill="#ffffff" d="M1249.434,855.381v27.191h-79.039c-7.499,0-13.601-6.091-13.601-13.59c0-7.499,6.102-13.601,13.601-13.601
	H1249.434z" class="colorFFF svgShape"></path><path fill="#fdce7d" d="M1170.395,855.381c-11.865,0-20.234,15.277-6.465,27.191h85.505v5.372h-223.543
	c-3.195,0-5.785-2.59-5.785-5.785v-26.365c0-3.195,2.59-5.785,5.785-5.785h223.543v5.372H1170.395z" class="colorA4BDF5 svgShape"></path><path fill="#ffda82" d="M1156.794,868.982c0,7.499,6.102,13.59,13.601,13.59h79.039v5.372h-79.039
	c-10.464,0-18.973-8.509-18.973-18.962c0-10.464,8.509-18.973,18.973-18.973h79.039v5.372h-79.039
	C1162.896,855.381,1156.794,861.483,1156.794,868.982z" class="color87A8F5 svgShape"></path><rect width="5.089" height="37.935" x="1100.225" y="850.009" fill="#ffffff" class="colorFFF svgShape"></rect><rect width="5.089" height="37.935" x="1087.501" y="850.009" fill="#ffffff" class="colorFFF svgShape"></rect><polygon fill="#fdce7d" points="1175.542 865.11 1175.542 876.917 1181.547 872.744 1187.552 876.917 1187.552 865.11" class="colorA4BDF5 svgShape"></polygon><circle cx="1127.369" cy="871.013" r="11.024" fill="#ffffff" class="colorFFF svgShape"></circle><path fill="#ffffff" d="M1041.816,817.446v27.191h79.039c7.499,0,13.601-6.092,13.601-13.591c0-7.499-6.102-13.601-13.601-13.601
	H1041.816z" class="colorFFF svgShape"></path><path fill="#fdce7d" d="M1120.855,817.446c11.865,0,20.234,15.277,6.466,27.191h-85.505v5.372h225.102
	c2.334,0,4.226-1.892,4.226-4.226V816.3c0-2.334-1.892-4.226-4.226-4.226h-225.102v5.372H1120.855z" class="colorA4BDF5 svgShape"></path><path fill="#ffeebd" d="M1134.457,831.047c0,7.499-6.102,13.591-13.601,13.591h-79.039v5.372h79.039
	c10.464,0,18.973-8.509,18.973-18.962c0-10.464-8.509-18.972-18.973-18.972h-79.039v5.372h79.039
	C1128.354,817.446,1134.457,823.548,1134.457,831.047z" class="colorDBE5FB svgShape"></path><rect width="5.089" height="37.935" x="1185.937" y="812.075" fill="#ffffff" transform="rotate(-180 1188.48 831.042)" class="colorFFF svgShape"></rect><rect width="5.089" height="37.935" x="1198.661" y="812.075" fill="#ffffff" transform="rotate(-180 1201.205 831.042)" class="colorFFF svgShape"></rect><polygon fill="#fdce7d" points="1115.709 827.175 1115.709 838.982 1109.704 834.809 1103.699 838.982 1103.699 827.175" class="colorA4BDF5 svgShape"></polygon><path fill="#ffffff" d="M1152.788 831.042c0-5.748 4.659-10.407 10.407-10.407 5.748 0 10.407 4.659 10.407 10.407 0 5.748-4.66 10.407-10.407 10.407C1157.448 841.449 1152.788 836.79 1152.788 831.042zM1104.774 740.527c0-6.039 4.896-10.935 10.935-10.935 6.039 0 10.935 4.896 10.935 10.935 0 6.039-4.896 10.935-10.935 10.935C1109.67 751.462 1104.774 746.567 1104.774 740.527z" class="colorFFF svgShape"></path><path fill="#fbd2ce" d="M380.084,872.78c-0.217,2.844,2.966,5.825,3.138,8.749c-12.098,2.585-24.297,4.69-36.493,6.826
	c2.073-9.858,14.295-9.301,22.354-12.477c0-49.104-20.688-106.191-9.294-154.615c3.808-0.086,4.082,1.053,8.553,0.87
	c4.472-0.183,12.123-0.716,17.258-1.034C387.116,765.915,380.384,868.848,380.084,872.78z" class="colorFFCBC7 svgShape"></path><path fill="#fbd2ce" d="M451.047,827.491c2.714-0.944,5.875,2.005,8.608,1.311c-2.45,11.206-6.058,18.09-11.189,28.393
	c-3.133-6.397-2.116-12.704-3.294-19.538c-8.181-1.982-51.139-16.667-57.01-29.562c-10.882-23.903-25.714-51.215-20.159-85.958
	c7.19-0.224,14.38-0.847,21.542-1.185c13.409,19.302,16.854,71.127,20.212,76.822C416.271,808.821,448.005,823.619,451.047,827.491z
	" class="colorFFCBC7 svgShape"></path><path fill="#0d628a" d="M354.843 879.256c-2.994 1.458-12.788 3.552-10.395 9.216 2.393 5.665 31.525.054 36.65-2.926 5.126-2.979.383-8.867-1.172-12.316-4.605 9.199-18.099 14.151-27.05 10.307C349.51 882.092 354.26 879.856 354.843 879.256zM446.471 849.461c.152 2.064-1.794 13.091 3.276 12.047 5.071-1.044 13.872-28.44 11.741-33.647-2.434-5.947-8.396-1.194-10.36-.399 7.273 5.067 3.451 20.697-2.252 24.545C446.893 853.346 446.426 850.407 446.471 849.461zM425.39 794.178c0 0-6.832 7.549-13.252 5.986 0 0-7.113 10.778-18.286 3.335-8.467 5.238-16.923 5.238-25.389 0-11.163 7.444-18.287-3.335-18.287-3.335-6.421 1.563-13.252-5.986-13.252-5.986 6.13-28.852 19.382-53.495 22.595-73.995l30.752 1.018C399.776 730.661 405.862 770.146 425.39 794.178zM376.656 631.188c-2.975 3.166-4.227 8.793-1.757 12.614 1.945 3.99 1.906 8.656 1.524 13.015.951-4.36 1.049-9.213-1.005-13.286C372.979 639.867 374.08 634.489 376.656 631.188z" class="color263182 svgShape"></path><path fill="#fbd2ce" d="M342.221,614.558c-0.049-0.049-0.958-0.614-0.974-3.445c-0.005-0.843,1.682-5.552,0.066-6.492
	c-1.223-0.71-2.398,3.621-2.707,3.514c-2.633-0.909-3.587-9.832-6.891-8.841c-1.819,0.546-0.148,8.97,2.709,13.182
	c0.317,0.468,0.297,4.295,0.297,4.295L342.221,614.558z" class="colorFFCBC7 svgShape"></path><path fill="#0d628a" d="M375.719,643.43c-2.033-4.32-2.719-11.753,4.203-14.239c5.035-1.809,9.268-1.883,13.847,1.572
	c4.579,3.455,6.355,11.048,5.384,16.49c-1.164,6.521,6.547,12.178,3.538,17.47c-4.042,7.108-24.325,1.017-31.277-0.038
	C375.971,657.253,380.424,653.428,375.719,643.43z" class="color263182 svgShape"></path><path fill="#ffb900" d="M376.302,681.539c-9.606-3.357-27.254-19.157-31.654-26.612c-2.017-4.828-8.876-31.009-10.614-37.692
	c-0.237-0.912,0.257-1.847,1.137-2.184c1.954-0.749,3.961-1.324,6.03-1.699c0.887-0.161,1.762,0.34,2.067,1.189l11.625,32.432
	c4.479,2.896,32.072,14.904,34.729,24.353C391.748,678.887,385.744,684.839,376.302,681.539z" class="colorFF91E8 svgShape"></path><path fill="#ffda82" d="M335.171,615.051c0.256-0.098,0.514-0.193,0.772-0.285c1.828,7.022,8.559,32.69,10.555,37.466
	c12.309,22.787,19.539,12.373,27.176,12.373c4.948,0,1.423,13.172,4.478,14.24c4.916,1.718,8.896,0.925,11.286-1.295
	c-1.655,4.096-6.56,6.288-13.135,3.99c-9.606-3.357-27.254-19.157-31.654-26.612c-2.017-4.828-8.876-31.009-10.614-37.692
	C333.797,616.323,334.291,615.388,335.171,615.051z" class="colorFF82E5 svgShape"></path><path fill="#ffc077" d="M357.982,723.195c0.058,0.24,0.195,0.458,0.4,0.615c7.166,5.517,22.982,0.509,32.979-0.236
	c0.909-0.068,1.598-0.861,1.535-1.768c-1.53-21.672,14.808-44.061-5.783-60.715c-3.095-0.076-6.338-1.021-9.291-0.091
	c-15.489,4.876-18.095,20.274-18.554,35.239c-0.276,9.131,0.245,18.1-0.869,24.42c-0.005,0.026-0.01,0.051-0.015,0.076
	c-0.028,0.175-0.061,0.344-0.094,0.514c-0.094,0.466-0.195,0.917-0.309,1.35C357.931,722.797,357.931,723.003,357.982,723.195z" class="colorFF73E2 svgShape"></path><path fill="#ffd680" d="M359.269,696.239c0.095,8.555-0.3,23.537-0.869,24.42c5.148-5.003,5.964-14.005,10.947-16.93
	c6.904-4.053,15.211-11.431,15.211-11.431l-8.24,0.76L359.269,696.239z" class="colorF063D3 svgShape"></path><path fill="#fbd2ce" d="M387.562,663.096c0.431-0.228,0.821-0.443,1.15-0.631c-0.608-2.849-1.039-8.974-1.18-12.698
	c-0.035-0.965-0.053-1.766-0.048-2.31c-1.684,1.406-4.785,2.113-6.016,3.99c-1.231,1.874-2.163,8.82-2.254,9.212
	C377.569,667.602,383.993,664.967,387.562,663.096z" class="colorFFCBC7 svgShape"></path><path fill="#fabab4" d="M380.226,655.719c0,0,3.368-0.376,5.168-0.458c2.169-0.099,2.161,6.117,2.168,7.834
	c0.431-0.228,0.821-0.443,1.15-0.631c-0.608-2.849-1.039-8.974-1.18-12.698C384.68,652.082,380.226,655.719,380.226,655.719z" class="colorFABAB4 svgShape"></path><path fill="#fbd2ce" d="M376.923,653.536c-3.565-1.596-2.685-13.43,0.277-17.194c3.023,3.855,8.41,3.772,12.751,2.401
	c-0.364,0.974-0.217,4.17-0.966,5.406c0.703-1.162,3.191-1.006,2.755,1.281c-0.398,2.086-1.701,2.565-3.535,3.19
	C386.583,653.019,381.672,655.661,376.923,653.536z" class="colorFFCBC7 svgShape"></path><path fill="#ffffff" d="M324.134,646.973c1.585-1.012,3.243-1.722,4.96-2.195c0.261-0.071,0.523-0.139,0.788-0.2
	c2.742-0.635,5.626-0.697,8.592-0.435c0.262,0.023,0.527,0.049,0.792,0.078c0.345,0.037,0.693,0.077,1.041,0.123
	c0.141,0.018,0.281,0.036,0.423,0.057c0.149,0.018,0.298,0.04,0.449,0.063c0.132,0.018,0.264,0.036,0.396,0.057
	c0.198-0.477,0.386-0.958,0.563-1.443c0.964-2.632,1.639-5.406,2.003-8.335c0.065-0.514,0.12-1.032,0.164-1.554
	c-0.128-0.037-0.256-0.074-0.385-0.112c-0.143-0.042-0.286-0.085-0.428-0.125c-0.14-0.042-0.28-0.083-0.419-0.125
	c-0.369-0.11-0.738-0.222-1.104-0.338c-0.253-0.08-0.505-0.161-0.756-0.246c-2.676-0.89-5.221-2.012-7.32-3.939
	c-0.205-0.188-0.406-0.385-0.602-0.588c-1.221-1.269-2.265-2.854-3.063-4.884L324.134,646.973z" class="colorFFF svgShape"></path><path fill="#d8daeb" d="M324.713,644.686l5.516-21.851c0.088,0.225,0.181,0.444,0.276,0.659L324.713,644.686z" class="colorD8DAEB svgShape"></path><path fill="#cfd2eb" d="M324.135,646.973c4.704-3.006,10.066-3.355,15.681-2.689c0.163,0.018,0.326,0.04,0.489,0.06
	c0.033,0.005,0.064,0.008,0.097,0.012c0.108,0.015,0.217,0.029,0.326,0.045c0.077,0.009,0.153,0.019,0.229,0.031
	c0.074,0.009,0.147,0.021,0.22,0.032c0.103,0.014,0.208,0.028,0.312,0.045c0.028,0.003,0.056,0.007,0.084,0.012
	c0.198-0.477,0.385-0.958,0.564-1.443c-0.068,0.161-0.134,0.322-0.205,0.48c-0.01-0.002-0.019-0.003-0.029-0.005
	c-0.121-0.023-0.243-0.046-0.364-0.066c-0.064-0.012-0.129-0.025-0.193-0.037c-0.084-0.016-0.169-0.029-0.253-0.043
	c-0.1-0.018-0.201-0.036-0.3-0.052c-0.04-0.008-0.079-0.014-0.119-0.021c-0.15-0.025-0.303-0.049-0.453-0.072
	c-5.584-0.875-10.937-0.722-15.685,2.12L324.135,646.973z" class="colorCFD2EB svgShape"></path><path fill="#3295bf" d="M316.276,632.129c-1.724,7.159,0.559,13.849,5.1,14.943c4.542,1.094,9.621-3.823,11.345-10.982
	c1.725-7.159-0.559-13.849-5.1-14.943C323.08,620.053,318.001,624.97,316.276,632.129z" class="color4E6FD9 svgShape"></path><path fill="#ffffff" d="M351.214,635.78l-2.298,9.538c1.157,0.204,3.81,1.12,4.968,0.916c2.991-0.221,5.18-3.488,4.188-6.367
	C357.314,636.858,353.758,636.35,351.214,635.78z" class="colorFFF svgShape"></path><path fill="#cfd2eb" d="M349.074,644.659l-0.159,0.659c1.157,0.204,3.81,1.12,4.968,0.916c2.991-0.221,5.18-3.488,4.188-6.367
	c-0.155-0.492-0.393-0.959-0.693-1.379c1.441,2.841-0.675,6.635-3.822,6.919C352.406,645.644,350.214,644.887,349.074,644.659z" class="colorCFD2EB svgShape"></path><path fill="#5ed0ff" d="M317.481,632.419c-1.472,6.111,0.31,11.782,3.983,12.667c1.349,0.325,2.766-0.042,4.089-0.938
	c0.956-0.645,1.862-1.566,2.664-2.702c0.284-0.402,0.552-0.83,0.807-1.282c0.014-0.026,0.028-0.052,0.043-0.079
	c0.725-1.309,1.317-2.819,1.713-4.462c0.313-1.299,0.48-2.58,0.51-3.798c0.006-0.195,0.007-0.387,0.005-0.578
	c0-0.008-0.001-0.017,0-0.026c-0.014-1.34-0.193-2.594-0.521-3.703c-0.703-2.39-2.092-4.107-3.978-4.561
	C323.122,622.072,318.953,626.309,317.481,632.419z" class="colorBDC3FF svgShape"></path><path fill="#3295bf" d="M339.399,655.705c0.186,0.045,0.376-0.057,0.441-0.236c0.77-2.106,2.037-3.196,2.904-4.91
	c1.073-2.122,0.973-5.192,3.286-6.886l4.247,1.023l-5.721,11.762c-0.109,0.225,0.017,0.493,0.26,0.552l0,0
	c0.206,0.05,0.333,0.258,0.284,0.464l-0.324,1.346c-0.05,0.207-0.258,0.334-0.464,0.284l-5.417-1.305
	c-0.207-0.05-0.333-0.257-0.284-0.464l0.324-1.346C338.985,655.783,339.193,655.655,339.399,655.705L339.399,655.705z" class="color4E6FD9 svgShape"></path><path fill="#2195c5" d="M343.463,658.307c0.206,0.05,0.414-0.077,0.464-0.284l0.324-1.346c0.05-0.206-0.077-0.414-0.283-0.464
	c-0.243-0.059-0.37-0.327-0.26-0.552l5.463-11.231l1.106,0.266l-5.721,11.762c-0.109,0.225,0.017,0.493,0.26,0.552l0,0
	c0.206,0.05,0.333,0.258,0.284,0.464l-0.324,1.346c-0.05,0.207-0.258,0.334-0.464,0.284l-5.417-1.305
	c-0.207-0.05-0.333-0.257-0.284-0.464l0.045-0.187L343.463,658.307z" class="color505FEB svgShape"></path><path fill="#2b88b1" d="M322.687,643.63c0.956-0.645,1.862-1.566,2.664-2.701c0.284-0.402,0.552-0.83,0.807-1.283
	c0.014-0.025,0.029-0.052,0.043-0.079c0.725-1.309,1.317-2.818,1.713-4.462c0.313-1.299,0.479-2.58,0.51-3.797
	c0.006-0.195,0.007-0.388,0.005-0.578c0-0.008,0-0.018,0-0.026c-0.014-1.34-0.193-2.594-0.521-3.703
	c-0.553-1.879-1.531-3.339-2.84-4.099c0.58-0.096,1.16-0.083,1.727,0.054c1.886,0.454,3.275,2.172,3.978,4.561
	c0.328,1.109,0.507,2.363,0.521,3.703c0,0.008,0.001,0.018,0,0.026c0.002,0.19,0,0.383-0.005,0.578
	c-0.03,1.218-0.197,2.498-0.51,3.798c-0.396,1.643-0.987,3.153-1.713,4.462c-0.015,0.027-0.029,0.053-0.043,0.079
	c-0.254,0.452-0.523,0.88-0.807,1.282c-0.801,1.136-1.708,2.056-2.664,2.702c-1.323,0.897-2.74,1.264-4.089,0.938
	c-0.404-0.097-0.783-0.256-1.14-0.463C321.122,644.49,321.921,644.15,322.687,643.63z" class="colorA8AEF0 svgShape"></path><path fill="#3295bf" d="M352.539,635.37c1.217,0.475,1.861,1.969,1.499,3.473l-1.234,5.124c-0.362,1.504-1.617,2.54-2.916,2.409
	c-2.083-0.217-4.588-0.383-6.617-0.591c-1.412-0.144-2.383-1.424-1.947-2.588c1.158-3.096,1.875-6.273,2.209-9.545
	c0.091-0.893,1.117-1.415,2.078-1.059C347.997,633.478,350.222,634.448,352.539,635.37z" class="color4E6FD9 svgShape"></path><path fill="#ffffff" d="M322.39,636.475l6.677,3.608c0.725-1.309,1.317-2.819,1.713-4.462c0.313-1.299,0.48-2.58,0.51-3.798
	c0.006-0.195,0.007-0.387,0.005-0.578c0-0.008-0.001-0.017,0-0.026l-7.766,0.699L322.39,636.475z" class="colorFFF svgShape"></path><path fill="#e6e7f5" d="M327.094,638.05c0.874,0.473,1.972,0.094,2.354-0.823c0.365-0.876,0.673-1.813,0.911-2.8
	c0.259-1.077,0.417-2.14,0.481-3.165l0.454-0.041c0,0.008,0.001,0.018,0,0.026c0.002,0.19,0,0.383-0.005,0.578
	c-0.03,1.218-0.197,2.498-0.51,3.798c-0.396,1.643-0.987,3.153-1.713,4.462l-6.677-3.608l0.213-0.853L327.094,638.05z" class="colorE6E7F5 svgShape"></path><path fill="#3295bf" d="M321.18,633.855c-0.317,1.316,0.131,2.553,1.001,2.762c0.87,0.209,1.831-0.688,2.148-2.004
	c0.317-1.316-0.131-2.553-1-2.762C322.458,631.642,321.497,632.539,321.18,633.855z" class="color4E6FD9 svgShape"></path><path fill="#3283a2" d="M321.381,633.904c-0.276,1.148,0.064,2.214,0.76,2.382c0.697,0.168,1.485-0.627,1.761-1.774
	c0.277-1.148-0.064-2.214-0.76-2.382C322.446,631.961,321.658,632.756,321.381,633.904z" class="color4A59DB svgShape"></path><path fill="#ffffff" d="M322.946,634.37c0.085-0.353,0.009-0.674-0.17-0.717c-0.179-0.043-0.393,0.208-0.478,0.561
	c-0.085,0.353-0.009,0.674,0.17,0.717C322.647,634.974,322.861,634.723,322.946,634.37z" class="colorFFF svgShape"></path><path fill="#2195c5" d="M342.96,644.378c2.029,0.208,4.535,0.373,6.618,0.591c1.299,0.131,2.553-0.905,2.916-2.409l1.234-5.124
	c0.067-0.277,0.099-0.555,0.1-0.825c0.309,0.641,0.402,1.434,0.21,2.232l-1.234,5.124c-0.362,1.504-1.617,2.54-2.916,2.409
	c-2.083-0.217-4.588-0.383-6.617-0.591c-1.324-0.136-2.26-1.27-2.012-2.37C341.619,643.924,342.229,644.304,342.96,644.378z" class="color505FEB svgShape"></path><path fill="#ffffff" d="M348.384,637.294l2.911,0.701c0.429,0.103,0.86-0.161,0.964-0.59l0-0.001c0.103-0.429-0.161-0.86-0.59-0.963
	l-2.91-0.701c-0.429-0.103-0.861,0.16-0.964,0.589l0,0C347.691,636.759,347.954,637.191,348.384,637.294z" class="colorFFF svgShape"></path><path fill="#cfd2eb" d="M347.771,636.795l3.618,0.871c0.233,0.056,0.468-0.087,0.525-0.321l0.171-0.708
	c0.007-0.029,0.011-0.057,0.012-0.086c0.189,0.083,0.298,0.291,0.248,0.499l-0.17,0.708c-0.056,0.234-0.291,0.377-0.525,0.321
	l-3.618-0.872c-0.205-0.049-0.34-0.236-0.333-0.439C347.721,636.78,347.745,636.789,347.771,636.795z" class="colorCFD2EB svgShape"></path><path fill="#ffffff" d="M350.622,639.664l0.452,0.109c0.32,0.077,0.643-0.12,0.72-0.44l0,0c0.077-0.32-0.12-0.643-0.44-0.72
	l-0.452-0.109c-0.321-0.077-0.643,0.12-0.72,0.441l0,0C350.104,639.265,350.301,639.587,350.622,639.664z" class="colorFFF svgShape"></path><path fill="#cfd2eb" d="M350.238,639.431l1.032,0.249c0.16,0.039,0.321-0.06,0.36-0.22l0.14-0.58c0.01-0.043,0.01-0.087,0.002-0.128
	c0.079,0.071,0.118,0.181,0.092,0.291l-0.14,0.58c-0.038,0.16-0.199,0.259-0.36,0.22l-1.032-0.249
	c-0.117-0.028-0.2-0.122-0.222-0.232C350.145,639.394,350.188,639.419,350.238,639.431z" class="colorCFD2EB svgShape"></path><path fill="#ffffff" d="M349.012,638.662c0.091-0.38-0.142-0.763-0.523-0.854c-0.38-0.091-0.762,0.142-0.854,0.522
	c-0.092,0.38,0.142,0.763,0.522,0.854C348.538,639.276,348.92,639.042,349.012,638.662z" class="colorFFF svgShape"></path><path fill="#cfd2eb" d="M348.098,639.075c0.38,0.092,0.762-0.142,0.854-0.522c0.038-0.156,0.018-0.31-0.041-0.447
	c0.105,0.158,0.149,0.357,0.101,0.557c-0.091,0.38-0.474,0.614-0.854,0.522c-0.225-0.054-0.396-0.211-0.481-0.407
	C347.772,638.921,347.918,639.031,348.098,639.075z" class="colorCFD2EB svgShape"></path><path fill="#3283a2" d="M352.852,646.228c0.349,0.038,0.694,0.04,1.032,0.006c2.21-2.251,3.053-6.409,2.524-8.756
	c-0.298-0.231-0.625-0.431-0.979-0.592C356.368,639.357,355.329,643.721,352.852,646.228z" class="color4A59DB svgShape"></path><path fill="#fbd2ce" d="M347.409,659.986c0,0-0.661-3.219-0.43-4.236c0.232-1.017,1.959-4.274,0.859-6.105
	c-1.804-3.004-8.795-2.461-9.423,0.149c-0.628,2.61,0.759,5.356,1.853,6.889c0.785,1.1,0.855,5.088,0.855,5.088L347.409,659.986z" class="colorFFCBC7 svgShape"></path><path fill="#ffb900" d="M389.422,688.432c-5.852,5.901-28.272,18.225-38.262,15.279c-11.252-3.318-10.912-33.728-11.947-40.973
	c-0.118-0.824,0.423-1.597,1.237-1.771l6.89-1.473c0.818-0.175,1.632,0.317,1.857,1.123l7.561,23.984
	c0,0,16.798-12.538,25.784-15.793C389.422,666.316,397.677,680.109,389.422,688.432z" class="colorFF91E8 svgShape"></path><path fill="#ffda82" d="M340.451,660.966l0.023-0.005c0.96,8.043,1.246,35.853,12.255,39.1c9.99,2.946,32.037-8.009,37.889-13.909
	c0.57-0.574,1.058-1.176,1.477-1.795c-0.555,1.433-1.423,2.817-2.671,4.075c-5.852,5.901-28.272,18.225-38.262,15.279
	c-11.252-3.318-10.912-33.728-11.947-40.973C339.096,661.914,339.637,661.141,340.451,660.966z" class="colorFF82E5 svgShape"></path><path fill="#fabab4" d="M377.732,636.955c0,0-0.134,4.009,3.918,5.509c0,0-0.798-1.513,1.035-3.065c0,0-0.17,2.487,1.241,3.855
	c1.41,1.368,3.725,3.671,2.25,7.144l1.105-1.099l0.5-8.742l-5.789-3.763L377.732,636.955z" class="colorFABAB4 svgShape"></path><path fill="#0d628a" d="M375.1,641.706c0,0,0.417-3.269,2.632-4.751c0,0,0.971,3.65,4.007,4.835c0,0,0.083-1.716,0.946-2.391
	c0,0,0.53,2.703,3.15,4.751c2.448,1.912,0.166,6.332-0.717,7.31c0,0,4.535-2.651,4.03-7.642c0,0,3.643-3.119,3.706-3.275
	c0.062-0.156-0.25-3.712-0.25-3.712s-8.514-2.215-8.53-2.308c-0.016-0.094-3.471-1.216-3.471-1.216l-2.659,0.249l-1.996,0.717
	L375.1,641.706z" class="color263182 svgShape"></path><path fill="#0d628a" d="M384.385,629.216c1.601-1.642,4.332-0.686,6.207-0.024c6.849,2.524,10.802,10.357,8.064,17.259
	c-0.666,2.276-2.18,2.222-0.617,4.738c1.891,2.704,4.541,4.899,5.392,8.187c0.946,3.038-0.073,7.249-3.68,7.766
	c3.767-0.317,5.003-4.703,4.087-7.872c-0.646-2.751-2.57-4.979-4.337-7.09c-0.731-0.871-1.453-1.883-1.596-3.016
	c0.18-0.316,0.483-0.604,0.649-0.948c3.221-6.144,1.164-14.223-4.882-17.766C391.117,628.98,386.933,626.887,384.385,629.216z" class="color263182 svgShape"></path><path fill="#6bccff" d="M234.435,763.471c-6.191,1.531-12.192,4.538-16.24,9.442c-3.628,4.395-5.451,9.988-6.63,15.552
	c-1.18,5.564-1.799,11.255-3.407,16.712c-1.166,3.957-3.319,8.202-7.3,9.352l7.555,6.716c5.727-2.54,8.938-8.719,10.447-14.772
	c1.509-6.054,1.769-12.405,3.806-18.303c2.285-6.616,6.752-12.37,12.213-16.778c5.461-4.408,11.89-7.522,18.562-9.735
	C247.063,761.76,240.626,761.939,234.435,763.471z" class="color7D65E0 svgShape"></path><path fill="#9addff" d="M196.125,803.113c-3.17-3.779-5.656-8.136-9.221-11.547c-5.114-4.893-12.281-7.503-19.375-7.378
	c-7.095,0.125-14.056,2.91-19.485,7.456c10.401-4.823,23.771-2.298,31.671,5.982c2.861,3,5.003,6.598,7.62,9.81
	c2.618,3.213,5.919,6.145,9.976,7.047l11.189-4.034C203.556,810.252,199.295,806.892,196.125,803.113z" class="colorAF9CFF svgShape"></path><path fill="#6bccff" d="M253.207 764.631c.646 11.396-6.67 22.811-17.331 27.037-3.861 1.531-8.015 2.175-11.985 3.402-3.97 1.227-7.932 3.188-10.279 6.602l-.27 12.55c2.018-4.493 6.623-7.903 11.326-9.429 4.703-1.526 9.693-2.208 14.201-4.236 6.465-2.909 11.559-8.562 14.074-15.162C255.458 778.795 255.438 771.331 253.207 764.631zM203.296 789.164c-2.606-5.592-6.757-10.304-10.865-14.919-3.457-3.885-7.002-7.894-8.741-12.786-1.739-4.891-1.25-10.943 2.572-14.472-5.181 1.633-8.573 6.945-9.181 12.318-.608 5.372 1.122 10.755 3.494 15.62 2.372 4.864 5.397 9.399 7.649 14.319 2.252 4.92 2.503 18.513 1.501 23.826l13.485-.621C205.779 806.84 205.901 794.757 203.296 789.164z" class="color7D65E0 svgShape"></path><path fill="#9addff" d="M213.474,778.681c1.473-21.137-11.796-42.501-31.458-50.652c13.909,14.096,21.027,34.548,18.857,54.181
	c-0.543,4.914-1.635,9.8-1.456,14.741c0.179,4.94,2.552,14.658,6.495,17.667l11.475-0.015c-4.507-4.786-5.815-10.053-5.443-16.6
	C212.315,791.455,213.018,785.223,213.474,778.681z" class="colorAF9CFF svgShape"></path><path fill="#ffc077" d="M226.646,810.804v79.26c-0.032,0-0.08,0.016-0.111,0.016c-15.044,2.33-29.389,2.647-42.689-0.016v-79.26
	H226.646z" class="colorFF73E2 svgShape"></path><path fill="#ffd680" d="M226.646,810.804v79.26c-0.032,0.032-0.064,0.032-0.111,0.016c-8.737-42.787-10.56-64.825-42.689-64.692
	v-14.583H226.646z" class="colorF063D3 svgShape"></path><rect width="47.03" height="8.132" x="181.731" y="810.804" fill="#ffc077" class="colorFF73E2 svgShape"></rect><path fill="#c3e8ff" d="M785.489 118.582c0 6.929-5.627 12.546-12.557 12.546-2.74 0-5.262-.875-7.325-2.355-3.053 5.221-8.722 8.743-15.214 8.743-4.877 0-9.285-1.99-12.473-5.189-3.011 2.407-6.825 3.845-10.983 3.845-1 0-1.98-.083-2.938-.25l-1.563-12.285h5.95c1.667 0 2.751-1.751 2.001-3.241l-13.734-27.478c-.823-1.646-3.189-1.646-4.012 0l-13.734 27.478c-.75 1.49.333 3.241 2.001 3.241h5.951c-.521 4.085-1.042 8.18-1.563 12.265-.99.177-2.011.271-3.053.271-3.616 0-6.982-1.094-9.775-2.96-3.084 2.678-7.117 4.304-11.524 4.304-6.919 0-12.9-4.001-15.777-9.806-2.251 2.126-5.273 3.418-8.607 3.418-6.94 0-12.556-5.617-12.556-12.546 0-6.94 5.617-12.557 12.556-12.557 2.553 0 4.929.761 6.909 2.074-.083-.677-.125-1.375-.125-2.074 0-9.722 7.878-17.6 17.6-17.6 4.512 0 8.628 1.709 11.744 4.502-.011-.26-.011-.532-.011-.792 0-13.296 10.774-24.081 24.071-24.081 13.015 0 23.612 10.316 24.06 23.216 2.761-1.792 6.054-2.845 9.587-2.845 9.722 0 17.6 7.878 17.6 17.6 0 .344-.011.688-.032 1.021 1.521-.657 3.199-1.021 4.971-1.021C779.862 106.026 785.489 111.642 785.489 118.582zM140.162 358.755c-2.863 0-5.566.586-7.959 1.623 1.425-2.794 2.215-5.882 2.215-9.129 0-12.563-11.834-22.747-26.433-22.747s-26.433 10.184-26.433 22.747c0 .292.006.583.019.872-1.572-.562-3.295-.872-5.103-.872-5.845 0-10.811 3.241-12.603 7.747-1.024-.158-2.078-.241-3.155-.241-9.781 0-17.71 6.824-17.71 15.241 0 8.417 7.929 15.24 17.71 15.24 5.727 0 10.817-2.34 14.055-5.968 3.23 3.715 8.383 6.12 14.19 6.12 4.714 0 8.997-1.585 12.17-4.169 3.173 2.584 7.456 4.169 12.17 4.169 5.414 0 10.26-2.091 13.509-5.386 3.247 3.207 8.027 5.234 13.358 5.234 9.781 0 17.71-6.823 17.71-15.24C157.872 365.579 149.943 358.755 140.162 358.755zM1303.29 242.058c-2.862 0-5.566.585-7.959 1.623 1.425-2.794 2.215-5.882 2.215-9.129 0-12.563-11.834-22.747-26.433-22.747-14.599 0-26.433 10.184-26.433 22.747 0 .292.006.583.019.872-1.572-.562-3.295-.872-5.103-.872-5.845 0-10.81 3.241-12.603 7.747-1.024-.158-2.078-.241-3.155-.241-9.781 0-17.71 6.824-17.71 15.24s7.929 15.24 17.71 15.24c5.726 0 10.817-2.34 14.055-5.968 3.23 3.715 8.383 6.119 14.19 6.119 4.714 0 8.997-1.585 12.17-4.169 3.173 2.584 7.457 4.169 12.17 4.169 5.414 0 10.26-2.091 13.509-5.386 3.247 3.207 8.027 5.234 13.358 5.234 9.781 0 17.71-6.823 17.71-15.24S1313.071 242.058 1303.29 242.058z" class="colorD6DEFF svgShape"></path></svg></g></svg>