<svg id="SvgjsSvg1011" width="288" height="288" xmlns="http://www.w3.org/2000/svg" version="1.1" xmlns:xlink="http://www.w3.org/1999/xlink" xmlns:svgjs="http://svgjs.com/svgjs"><defs id="SvgjsDefs1012"></defs><g id="SvgjsG1013" transform="matrix(1,0,0,1,0,0)"><svg xmlns="http://www.w3.org/2000/svg" data-name="Layer 3" viewBox="0 0 24 24" width="288" height="288"><path d="M6 19a1 1 0 0 1-1-1V6A1 1 0 0 1 7 6V18A1 1 0 0 1 6 19zM12 18a1 1 0 0 1-1-1V7a1 1 0 0 1 2 0V17A1 1 0 0 1 12 18zM9 21a1 1 0 0 1-1-1V4a1 1 0 0 1 2 0V20A1 1 0 0 1 9 21zM3 17a1 1 0 0 1-1-1V8A1 1 0 0 1 4 8v8A1 1 0 0 1 3 17zM21 16a1 1 0 0 1-1-1V9a1 1 0 0 1 2 0v6A1 1 0 0 1 21 16zM15 16a1 1 0 0 1-1-1V9a1 1 0 0 1 2 0v6A1 1 0 0 1 15 16zM18 18a1 1 0 0 1-1-1V7a1 1 0 0 1 2 0V17A1 1 0 0 1 18 18z" fill="#585858" class="color000 svgShape"></path></svg></g></svg>