<svg id="SvgjsSvg1024" width="288" height="288" xmlns="http://www.w3.org/2000/svg" version="1.1" xmlns:xlink="http://www.w3.org/1999/xlink" xmlns:svgjs="http://svgjs.com/svgjs"><defs id="SvgjsDefs1025"></defs><g id="SvgjsG1026" transform="matrix(1,0,0,1,0,0)"><svg xmlns="http://www.w3.org/2000/svg" width="288" height="288" data-name="047-dropbox" viewBox="0 0 98.488 98.488"><path fill="#4fb7e3" d="M305.244,19.07,276.27,0,256,17.057l29.214,18.177Z" data-name="Path 115" transform="translate(-206.756)" class="color1e88e5 svgShape"></path><path fill="#4fb7e3" d="M28.974,0,0,19.064l20.036,16.17L49.244,17.057Z" data-name="Path 116" class="color1e88e5 svgShape"></path><path fill="#4fb7e3" d="M49.244,201.351l-20.27,17.057L0,199.338l20.03-16.17,29.214,18.183,29.208-18.183,20.036,16.17-28.974,19.07Z" data-name="Path 117" transform="translate(0 -147.934)" class="color1e88e5 svgShape"></path><path fill="#4fb7e3" d="M148.512,334.908a3.055,3.055,0,0,1-1.687.5,3.107,3.107,0,0,1-1.982-.72l-18.066-15.2-18.066,15.2a3.089,3.089,0,0,1-3.675.215L96,328.961v9.092l30.839,18.466,30.716-18.466v-9.1Z" data-name="Path 118" transform="translate(-77.534 -258.032)" class="color1e88e5 svgShape"></path></svg></g></svg>