<svg id="SvgjsSvg1001" width="288" height="288" xmlns="http://www.w3.org/2000/svg" version="1.1" xmlns:xlink="http://www.w3.org/1999/xlink" xmlns:svgjs="http://svgjs.com/svgjs"><defs id="SvgjsDefs1002"></defs><g id="SvgjsG1008" transform="matrix(1,0,0,1,0,0)"><svg xmlns="http://www.w3.org/2000/svg" viewBox="0 0 24 24" width="288" height="288"><g data-name="Layer 2" fill="#000000" class="color000 svgShape"><g data-name="Layer 3" fill="#000000" class="color000 svgShape"><rect width="24" height="24" fill="none"></rect><path fill="#ffffff" d="M1,12C1,4,4,1,12,1S23,4,23,12,20,23,12,23,1,20,1,12" class="colorfff svgShape"></path><path fill="#eaeaea" d="M17.54,4.56H6.46A1.06,1.06,0,0,0,5.4,5.64V18.36a1.06,1.06,0,0,0,1.06,1.08H17.54a1.06,1.06,0,0,0,1.06-1.08V5.64A1.06,1.06,0,0,0,17.54,4.56ZM8.94,6.24a.48.48,0,0,1,0-1,.48.48,0,0,1,0,1Zm6.12,0a.48.48,0,0,1,0-1,.48.48,0,1,1,0,1Z" class="colord9d9d9 svgShape"></path><path fill="#4fb7e3" d="M4.85,18.23l.49-5.3H18.66l.49,5.3a1.07,1.07,0,0,1-1.06,1.18H5.91A1.07,1.07,0,0,1,4.85,18.23Z" class="color008dff svgShape"></path><path fill="#4294bb" d="M4.57,7.93l.77,5H18.66l.77-5a1.07,1.07,0,0,0-1.06-1.24H5.63A1.07,1.07,0,0,0,4.57,7.93Z" class="color0066e0 svgShape"></path><path fill="#ffffff" d="M11.68 16H7.93v-.38L10 13.34a5.45 5.45 0 00.71-1 1.61 1.61 0 00.2-.74 1.22 1.22 0 00-.33-.9 1.26 1.26 0 00-.92-.33 1.3 1.3 0 00-1 .39 1.36 1.36 0 00-.37 1H7.8A1.9 1.9 0 018 10.86a1.57 1.57 0 01.65-.65 1.9 1.9 0 011-.24 1.77 1.77 0 011.28.43 1.54 1.54 0 01.47 1.18 2.08 2.08 0 01-.26.92 7.26 7.26 0 01-.92 1.24L8.54 15.63h3.14zM13.69 12.78h.51a1.76 1.76 0 00.75-.15 1.14 1.14 0 00.48-.41 1.13 1.13 0 00.17-.6 1.19 1.19 0 00-.33-.9 1.26 1.26 0 00-.93-.33 1.33 1.33 0 00-.95.34 1.18 1.18 0 00-.37.89h-.49a1.58 1.58 0 01.24-.85 1.55 1.55 0 01.65-.59 2 2 0 01.92-.21 1.81 1.81 0 011.28.44 1.63 1.63 0 01.47 1.22 1.31 1.31 0 01-.27.8 1.7 1.7 0 01-.76.54 1.57 1.57 0 01.85.54 1.48 1.48 0 01.29.91 1.65 1.65 0 01-.5 1.24 1.9 1.9 0 01-1.34.46 2.24 2.24 0 01-1-.21 1.64 1.64 0 01-.7-.6 1.62 1.62 0 01-.24-.89h.49a1.22 1.22 0 00.4.93 1.49 1.49 0 001 .36 1.41 1.41 0 001-.33 1.21 1.21 0 00.36-1 1.1 1.1 0 00-.39-.91 1.73 1.73 0 00-1.13-.32h-.5z" class="colorfff svgShape"></path></g></g></svg></g></svg>