<?xml version="1.0" standalone="no"?>
<!DOCTYPE svg PUBLIC "-//W3C//DTD SVG 1.0//EN" "http://www.w3.org/TR/2001/REC-SVG-20010904/DTD/svg10.dtd">
<svg xmlns="http://www.w3.org/2000/svg" xmlns:xlink="http://www.w3.org/1999/xlink" id="body_1" width="30" height="30">

<g transform="matrix(0.10416667 0 0 0.10416667 0 0)">
	<g transform="matrix(12 0 0 12 0 0)">
		<g>
			<g>
                <path d="M0 0L24 0L24 24L0 24z" stroke="none" fill="none" />
                <path d="M1 12C 1 4 4 1 12 1C 20 1 23 4 23 12C 23 20 20 23 12 23C 4 23 1 20 1 12" stroke="none" fill="#FFFFFF" fill-rule="nonzero" />
                <path d="M17.54 4.56L6.46 4.56C 6.175371 4.5599494 5.9026804 4.674369 5.7033067 4.8775043C 5.503933 5.0806394 5.39463 5.355421 5.4 5.64L5.4 5.64L5.4 18.36C 5.39463 18.644579 5.503933 18.919361 5.7033067 19.122498C 5.9026804 19.325632 6.175371 19.440052 6.46 19.44L6.46 19.44L17.54 19.44C 17.824629 19.440052 18.09732 19.325632 18.296694 19.122498C 18.496067 18.919361 18.60537 18.644579 18.6 18.36L18.6 18.36L18.6 5.64C 18.60537 5.3554215 18.496067 5.0806394 18.296694 4.8775043C 18.09732 4.674369 17.824629 4.5599494 17.54 4.56zM8.94 6.24C 8.663857 6.24 8.44 6.016142 8.44 5.74C 8.44 5.463857 8.663857 5.24 8.94 5.24C 9.216142 5.24 9.44 5.4638577 9.44 5.74C 9.44 6.0161424 9.216142 6.24 8.94 6.24zM15.059999 6.24C 14.783857 6.24 14.559999 6.016142 14.559999 5.74C 14.559999 5.463857 14.783857 5.24 15.059999 5.24C 15.238632 5.24 15.403696 5.335299 15.493012 5.49C 15.582329 5.6447005 15.582329 5.8352995 15.493012 5.99C 15.403696 6.1447005 15.238632 6.24 15.059999 6.24z" stroke="none" fill="#EAEAEA" fill-rule="nonzero" />
                <path d="M4.85 18.23L5.34 12.929999L18.66 12.929999L19.15 18.23C 19.181065 18.53057 19.083595 18.830261 18.881664 19.055054C 18.679733 19.279846 18.392168 19.408775 18.09 19.41L18.09 19.41L5.91 19.41C 5.607831 19.408775 5.3202662 19.279846 5.118335 19.055054C 4.9164033 18.830263 4.8189335 18.53057 4.85 18.23z" stroke="none" fill="#4FB7E3" fill-rule="nonzero" />
                <path d="M4.57 7.93L5.34 12.93L18.66 12.93L19.43 7.9300003C 19.479908 7.619879 19.391026 7.3034916 19.186922 7.0647287C 18.982819 6.825966 18.68411 6.6889462 18.37 6.6900005L18.37 6.6900005L5.63 6.6900005C 5.3158903 6.6889467 5.017183 6.825966 4.813079 7.0647287C 4.608975 7.3034916 4.520093 7.619879 4.57 7.93z" stroke="none" fill="#4294BB" fill-rule="nonzero" />
                <path d="M11.68 16L7.93 16L7.93 15.62L10 13.34C 8.483681 10.999961 8.978189 7.8928237 11.146036 6.1391273C 13.313884 4.385431 16.455772 4.550877 18.427448 6.522554C 20.399124 8.49423 20.56457 11.636119 18.810871 13.8039665C 17.057175 15.971813 13.95004 16.46632 11.61 14.95L11.61 14.95L11.61 14.95L11.61 14.95L11.61 14.03L11.61 14.03L10.61 14.42L11.68 16L7.93 16L7.93 15.62L10 13.34L10.61 14.42L7.8 14.42L11.68 16L7.93 16L7.93 15.62L10 13.34L10.61 14.42L7.8 14.42C 7.9841847 13.6724415 8.683279 13.168745 9.450699 13.230674C 10.218118 13.292603 10.827397 13.901883 10.889326 14.669302C 10.951255 15.436721 10.447558 16.135815 9.7 16.32L9.7 16.32L9.7 27.599998C 9.890655 26.382832 10.309362 25.861744 10.635211 26.436121C 10.961059 27.010498 11.070655 28.462831 10.88 29.679998L10.88 29.679998L18.14 36.94L11.68 16L7.93 16L7.93 15.62L10 13.34L10.61 14.42L7.8 14.42L8.54 15.63L11.68 15.63L11.68 16zM13.69 12.78L14.2 12.78C 13.95249 12.00636 14.266567 11.163822 14.960096 10.740979C 15.653626 10.318136 16.546448 10.424831 17.12081 10.999192C 17.69517 11.573553 17.801865 12.466374 17.37902 13.1599045C 16.956179 13.853435 16.11364 14.167511 15.34 13.92L15.34 13.92L15.34 14.09L15.34 14.09L15.01 13.190001C 15.171765 13.659625 15.042535 14.180465 14.68 14.52L14.68 14.52L15.860001 15.700001L13.69 12.78L14.2 12.78L15.860001 15.700001L15.370001 15.700001C 15.357878 15.055651 15.738317 14.468516 16.331377 14.216302C 16.924438 13.964087 17.611244 14.097346 18.06695 14.553051C 18.522654 15.008756 18.655912 15.695562 18.403698 16.288624C 18.151484 16.881683 17.56435 17.262123 16.92 17.25L16.92 17.25L16.92 19.17L16.92 19.17L17.36 20.8L17.36 20.8L18.67 20.8L18.67 20.8L18.67 21.8L18.67 21.8L20.52 22.34C 20.614296 21.575294 21.279533 21.010862 22.049387 21.042364C 22.81924 21.073866 23.436138 21.690763 23.467638 22.460615C 23.49914 23.230469 22.934708 23.895706 22.17 23.99L22.17 23.99L24.07 23.99L24.07 23.99L24.07 24.99L24.07 24.99L25.07 24.289999L25.07 24.289999L24.83 23.4L24.83 23.4L25.32 23.4C 25.470844 22.825947 26.012945 22.443754 26.604311 22.494532C 27.195679 22.54531 27.66469 23.01432 27.715467 23.605688C 27.766245 24.197054 27.384052 24.739155 26.81 24.89L26.81 24.89L26.81 25.89L26.81 25.89L25.81 26.99L25.81 26.99L27.539999 28.72L24.83 23.4L25.32 23.4L27.539999 28.72L27.039999 28.72z" stroke="none" fill="#FFFFFF" fill-rule="nonzero" />
			</g>
		</g>
	</g>
</g>
</svg>