<svg xmlns="http://www.w3.org/2000/svg" fill="#f34343" viewBox="0 0 128 128"><path d="M64 128C28.7 128 0 99.3 0 64S28.7 0 64 0s64 28.7 64 64-28.7 64-64 64z"/><path fill="#fff" d="M63.9 111.8c-.9-.4-1.7-.7-2.4-1.1-11.8-7-23.7-14.1-35.5-21.2-2.7-1.6-3.2-3.2-1.6-6.1 12-21.5 24-43 35.9-64.5.8-1.5 1.8-2.6 3.6-2.6s2.8 1.2 3.6 2.7c11.9 21.4 23.9 42.9 35.8 64.3 1.6 2.9 1.2 4.5-1.6 6.2l-35.1 21c-.8.5-1.8.9-2.7 1.3zm-4.2-22.2c-2.8-1.7-5.5-3.3-8.2-4.9-2-1.2-3.9-2.6-5.9-3.8-.8-.5-2-.9-2.9-.6-4.9 1.4-9.4 3.9-14 6.8 11.3 6.7 22.2 13.3 33.4 20 0-4.5.1-8.6 0-12.7-.1-2.5.9-4.5 2.6-6.1 1.2-1.1 2.6-2.1 4-2.8 4-1.9 7.2-4.5 9-8.9.8 1.3 1.5 2.3 2.2 3.4-1.9 3.5-4.7 6-8.1 7.8-1.6.8-3.1 1.8-4.5 2.9-.7.6-1.6 1.6-1.6 2.4-.2 4.5-.1 9.1-.1 14 11.2-6.7 22-13.2 33.3-19.9-4.4-2.2-8.4-4.3-12.4-6.2-2.9-1.4-4.9-3.4-6.1-6.3-.8-2-1.5-4.1-2.1-6.3-1.5-5.8-5-9.6-10.8-11.3-.6-.2-1.3-.3-2-.5 2.4-3.4 2.4-3.4 5.9-1.8 5.3 2.5 8.9 6.6 10.1 12.3 1.2 6 3.8 10.5 9.9 12.5 1.6.5 3.1 1.5 4.6 2.3.9.4 1.7.8 2.6 1.2.1-.1.2-.2.3-.4-10.8-19.6-21.8-39.2-32.7-58.8-.2 0-.4.1-.6.1v2.2c0 7-.2 14 .1 21 .1 4.1-1.5 6.8-4.8 8.9-1.2.8-2.4 1.5-3.7 2.1-4 2-6.7 5.2-7.6 9.5-.5 2.4-.4 4.9-.5 7.3-3.7-1.1-3.7-1.1-3.4-5.1.6-6.8 4.1-11.7 10-15 1.6-.9 3.3-1.7 4.6-3 .9-.9 1.7-2.4 1.7-3.7.2-7.7.1-15.4.1-23.2 0-.4-.1-.9-.3-1.7-11 20-21.8 39.4-32.9 59.2 3.8-1.8 7.2-3.3 10.6-4.9 2.8-1.3 5.6-1.1 8.2.3 1.7.9 3.4 1.8 4.9 3.1 2.8 2.5 5.8 4.5 9.8 5-.9 1.2-1.6 2.1-2.7 3.6z"/></svg>
