<svg xmlns="http://www.w3.org/2000/svg" fill="#2dce89" viewBox="0 0 128 128"><path d="M64 128C28.7 128 0 99.3 0 64S28.7 0 64 0s64 28.7 64 64-28.7 64-64 64z"/><path fill="#fff" d="M63.8 22.6c3.7-.1 7.2.6 10.2 2.7 1.4.9 2.4.8 3.6-.5 2.4-2.6 5-5 7.5-7.6.9-.9 1.8-1.5 2.9-.2 1.1 1.1.8 2-.2 2.9-2.6 2.6-5 5.2-7.6 7.8-1.1 1.1-1.3 1.9-.5 3.3 5.8 10.4 2.9 22.5-8.6 28.1-1.1.5-2.3.8-3.5 1-1.4.3-1.9 1-1.9 2.5.1 3 .1 6 0 8.9 0 1.6.5 2.3 2.1 2.7 6.2 1.5 10.6 5.2 13.3 10.9 2.6 5.5 1.9 15.4-3.8 21.3-4.8 4.9-13.2 6.9-19.5 4.4-7.5-3-12.1-9.6-12.2-17.5-.1-9.6 5.1-16.4 14.3-19 1.4-.4 2.2-1 2.1-2.5-.1-3.4 0-6.8-.2-10.2 0-.6-1.1-1.4-1.8-1.6-6-1.6-10.4-5.2-12.9-10.8-5.6-13 4.3-27.4 16.7-26.6zM79 92.8c0-7.9-6.9-15.1-14.5-15.1-8-.1-15.3 7-15.4 15-.1 7.9 7.3 15.6 14.9 15.5 8.1-.1 15-7.2 15-15.4zM49.3 41.1c0 8.6 6.6 15.6 14.9 15.6 7.7 0 14.8-7.1 14.8-15.1 0-7.4-5.5-15.2-14.7-15-8.4.1-14.9 6.3-15 14.5z"/></svg>
